<!-- Generator: Adobe Illustrator 24.2.3, SVG Export Plug-In  -->
<svg version="1.1" xmlns="http://www.w3.org/2000/svg" xmlns:xlink="http://www.w3.org/1999/xlink" x="0px" y="0px" width="35px"
	 height="35px" viewBox="0 0 35 35" style="overflow:visible;enable-background:new 0 0 35 35;" xml:space="preserve">
<style type="text/css">
	.st0{fill:#E8E8E8;stroke:#A2A2A2;}
</style>
<defs>
</defs>
<path class="st0" d="M28.5,0.5h-22c-3.31,0-6,2.69-6,6v22c0,3.31,2.69,6,6,6h22c3.31,0,6-2.69,6-6v-22C34.5,3.19,31.81,0.5,28.5,0.5
	z M22.61,19.38l1.03,6.25l-5.93-2.89l-0.22-0.11l-0.22,0.11l-5.93,2.89l1.03-6.25l0.04-0.26l-0.19-0.18l-4.66-4.45l6.53-0.99
	l0.25-0.04l0.12-0.22l3.02-5.67l3.02,5.67l0.12,0.22l0.25,0.04l6.53,0.99l-4.66,4.45l-0.19,0.18L22.61,19.38z"/>
</svg>
