<!-- Generator: Adobe Illustrator 24.2.3, SVG Export Plug-In  -->
<svg version="1.1" xmlns="http://www.w3.org/2000/svg" xmlns:xlink="http://www.w3.org/1999/xlink" x="0px" y="0px" width="106.5px"
	 height="86.18px" viewBox="0 0 106.5 86.18" style="overflow:visible;enable-background:new 0 0 106.5 86.18;"
	 xml:space="preserve">
<style type="text/css">
	.st0{fill-rule:evenodd;clip-rule:evenodd;fill:#FFFFFF;stroke:#5398FF;stroke-width:4;}
</style>
<defs>
</defs>
<g transform="matrix(1, 0, 0, 1, 123.89, 3095.1)">
	<path id="Path_211-2_1_" class="st0" d="M-97.11-3025.02c-0.11,0.07,0.03,0.19-0.2,0.2c-0.29,0.01-0.3,0.4-0.6,0.6
		c-0.07,0.05-0.35-0.07-0.4,0c-0.14,0.17-0.23,0.59-0.61,0.6c-0.54,0.03-4.51,3.75-5.03,3.82c-0.47,0.06-0.45,0.62-0.8,0.8
		c-0.69,0.05-3.88,2.36-4.63,2.22c-0.98,0.88-2.32,1.26-3.62,1.01c-0.15-0.98,0.07-1.98,0.6-2.82c0.11-0.21,0.3-0.25,0.4-0.4
		c0.13-0.2,0.07-0.42,0.2-0.6c0.1-0.14,0.28-0.24,0.4-0.4c0.09-0.12,0.34-0.3,0.4-0.4c0.15-0.26,0.06-0.71,0.2-1.01
		c0.04-0.09,0.37-0.13,0.4-0.2c0.15-0.34,0.03-0.54,0.2-0.8c0.07-0.11,0.19,0.03,0.2-0.2c0.03-0.34,0.1-0.68,0.2-1.01
		c0.13-0.14,0.26-0.27,0.4-0.4c0.14-0.13,0.27-0.26,0.4-0.4c0.2-0.33,0.21-0.88,0.4-1.21c0.09-0.15,0.29-0.21,0.4-0.4
		c0.1-0.17,0.08-0.4,0.2-0.61c0.09-0.14,0.31-0.27,0.4-0.4s0.11-0.25,0.2-0.4c0.07-0.13,0.34-0.29,0.4-0.4
		c0.19-0.35,0.14-0.78,0.4-1.21c0.07-0.12,0.35-0.3,0.4-0.4c0.16-0.33,0.26-0.86,0.4-1.21c0.04-0.1,0.38-0.33,0.4-0.4
		c0.05-0.18-0.04-0.41,0-0.6c0.13-0.42-0.23-0.28-0.4-0.4c-0.11-0.08-0.3-0.35-0.4-0.4c-1.03-0.23-7.05-4-7.45-4.02
		c-0.19-0.01-0.16-0.25-0.2-0.4c-0.06-0.23-0.45-0.26-0.6-0.4s-0.22-0.58-0.61-0.6c-0.29-0.17-0.55-0.37-0.8-0.6
		c-0.06-0.07,0.07-0.35,0-0.4s-0.56-0.14-0.6-0.2c-0.17-0.25,0.05-0.67-0.2-0.81c-0.14-0.12-0.28-0.26-0.4-0.4
		c-0.14-0.12-0.28-0.26-0.4-0.4c-0.39-0.43-0.73-0.9-1.01-1.41c-0.11-0.2-0.3-0.25-0.4-0.4c-0.1-0.15-0.08-0.43-0.2-0.6
		c-0.06-0.08-0.36-0.12-0.4-0.2c-0.13-0.24-0.01-0.83-0.2-1.21c-0.09-0.19-0.58-0.19-0.6-0.6c-0.01-0.28-0.08-0.55-0.2-0.81
		c-0.03-0.07,0.05-0.36,0-0.4c-0.02-0.02-0.19,0.02-0.2,0c-0.03-0.07,0.06-0.35,0-0.4c-0.41-1.19-0.75-2.4-1.01-3.62
		c-0.18-0.52-0.25-1.06-0.2-1.61c0.15-0.59,0.21-1.2,0.2-1.81c-0.32-0.26-0.2-3.8-0.2-3.83c0.02-0.15,0.16-0.22,0.2-0.4
		c0.04-0.18-0.04-0.41,0-0.6c0.08-0.36,0.26-0.48,0.4-0.8c0.19-0.44,0.17-1.14,0.4-1.81c0.02-0.08,0.19,0,0.2-0.2
		c-0.01-0.07-0.01-0.13,0-0.2c0.04-0.62,0.17-1.23,0.4-1.81c0.11-0.19,0.17-0.39,0.2-0.61c0.17-0.42,0.37-0.82,0.6-1.21
		c0.09-0.15,0.31-0.27,0.4-0.4s0.1-0.27,0.2-0.4c0.39-0.53,0.76-1.13,1.21-1.81c0.11-0.18,0.29-0.17,0.4-0.4
		c0.03-0.08-0.06-0.36,0-0.4c0.03-0.02,0.18,0.03,0.2,0c0.05-0.08-0.07-0.34,0-0.4c0.07-0.06,0.35,0.07,0.4,0
		c0.05-0.07-0.07-0.35,0-0.4c0.02-0.02,0.19,0.03,0.2,0c0.15-0.28,0.05-0.84,0.4-1c0-0.34,0.23-0.43,0.4-0.61
		c0.05-0.05,0.38-0.15,0.4-0.2c0.04-0.09-0.06-0.32,0-0.4c0.26-0.32,1.24-1.26,1.41-1.41c0.04-0.04,0.39-0.16,0.4-0.2
		c0.03-0.07-0.06-0.35,0-0.4c0.06-0.05,0.35,0.07,0.4,0c0.05-0.07,0.14-0.36,0.2-0.4s0.35,0.07,0.4,0c0.07-0.09,0.12-0.33,0.2-0.4
		c0.07-0.06,0.35,0.07,0.4,0c0.03-0.04-0.03-0.16,0-0.2c0.11-0.15,0.15-0.39,0.4-0.4c0.48-0.03,0.81-0.94,1.21-1.41l2.01-1.41
		c1.82-0.26,1.89-0.86,2.21-1.21c0.7-0.13,1.33-0.48,1.81-1.01c0.23-0.33,1.26,0.16,1.61-0.2c0.02-0.02-0.02-0.19,0-0.2
		c0.27-0.05,0.54-0.12,0.8-0.2c0.1-0.04,0.33-0.38,0.4-0.4c0.52-0.16,0.97,0.08,1.41-0.2c0.31-0.2,0.53-0.04,1.41,0
		c0.47-0.02,0.94-0.02,1.41,0c0.59,0.11,1.07,0.6,1.81,0.8c0.12,0.03,0.28-0.03,0.4,0c0.18,0.04,0.35,0.14,0.61,0.2
		c0.21,0.05,0.44,0.27,0.8,0.4s0.91,0.08,1.21,0.4c0.64-0.05,0.26-0.7,0.4-1.01c0.05-0.11,0.31-0.25,0.4-0.4
		c0.13-0.21,0.2-0.64,0.4-1.01c0.06-0.11,0.19,0.03,0.2-0.2c0.01-0.17,0.39-0.51,0.6-0.81c0.2-0.27,0.35-0.5,0.61-0.8
		c0.14-0.17,0.27-0.19,0.4-0.4c0.2-0.33,0.66-0.56,1.01-1c0.06-0.07-0.07-0.35,0-0.4c0.17-0.14,0.25-0.26,0.4-0.4
		c0.15-0.14,0.41-0.06,0.6-0.2c0.17-0.13,0.37-0.99,1.01-0.81c0.27-0.2,0.98-1.1,1.41-1.21c0.11-0.03,0.31,0.05,0.4,0
		c0.15-0.12,0.28-0.25,0.4-0.4c0.08-0.07,0.34-0.37,0.4-0.4c0.35-0.2,0.79-0.19,1.21-0.4c0.14-0.07,0.29-0.34,0.4-0.4
		c0.07-0.04,0.35,0.06,0.4,0c0.37-0.46,4.07-1.13,4.63-1.41c0.07-0.04,0.35,0.06,0.4,0c0.15-0.19,0.14-0.3,0.4-0.4
		c0.29-0.11,3.05-0.69,3.62-0.8c0.34-0.07,0.46-0.11,0.81-0.2c0.07-0.02,0.19-0.28,0.4-0.2c0.07,0.03-0.02,0.25,0.2,0.2
		c0.03-0.01,0.03-0.19,0.2-0.2c0.05,0,1.46-0.28,2.21-0.4c1.48-0.01,2.96,0.05,4.43,0.2c0.35,0.07,6.85,1.28,7.24,1.41
		c0.74,0.23,1.51,0.36,2.21,0.61c0.04,0.02,0.05,0.16,0.2,0.2c0.39,0.1,0.52,0.1,0.81,0.2c0.31,0.11,0.7,0.28,1.01,0.4
		c0.06,0.02,0.04,0.16,0.2,0.2c0.38,0.09,0.52,0.12,0.8,0.2c0.06,0.02,0.01,0.19,0.2,0.2c0.69,0.21,1.37,0.47,2.01,0.8
		c0.24,0.12,0.36,0.27,0.6,0.4c0.21,0.05,0.41,0.12,0.61,0.2c0.18,0.11,0.24,0.49,0.4,0.6c0.19,0.14,0.43,0.07,0.6,0.2
		c0.07,0.05,0.14,0.38,0.2,0.4c0.11,0.05,0.3-0.06,0.4,0c0.14,0.08,0.28,0.32,0.4,0.4c0.12,0.08,0.26,0.11,0.4,0.2
		c0.1,0.06,0.15,0.17,0.2,0.2c0.15,0.09,0.43,0.08,0.6,0.2s0.23,0.49,0.4,0.6c0.19,0.14,0.43,0.08,0.61,0.2
		c0.11,0.08-0.03,0.19,0.2,0.2c0.21,0.01,0.52,0.38,0.8,0.6c0.98,0.92,2.06,1.73,3.22,2.42c0.2,0.12,0.09,0.39,0.2,0.6
		c0.11,0.22,0.3,0.25,0.4,0.4c0.1,0.15,0.08,0.44,0.2,0.6c0.07,0.1,0.34,0.11,0.4,0.2c0.21,0.23,0.35,0.51,0.4,0.81
		c0.08,0.32,0.37,0.27,0.61,0.6c0.05,0.07-0.07,0.35,0,0.4c0.18,0.15,0.15,0.68,0.4,1.21c0.05,0.1,0.19-0.02,0.2,0.2
		c0.01,0.26,0.33,0.26,0.4,0.4c0.03,0.07-0.2,0.27-0.2,0.4c0,0.37,0.68,0.52,0.8,1.01c-0.04,0.73-0.28,0.77,0,1.41
		c0.37,0.91,0.64,1.85,0.81,2.81c-0.02-0.07,0.75,5.42,0.8,5.84c0.27,0.2,2.39,0.4,2.82,0.81c0.31,0.29,0.96,0.1,1.41,0.4
		c0.09,0.06,0.15,0.17,0.2,0.2c0.38,0.19,0.79,0.32,1.21,0.4c0.43,0.22,0.84,0.49,1.21,0.8c0.08,0.06,0.33-0.07,0.4,0
		c0.17,0.17,2.31,1.72,2.41,2.42c0.15,0.29,0.52,0.24,0.8,0.4c0.11,0.06-0.03,0.19,0.2,0.2c0.16,0.01,0.28,0.81,0.4,1.01l1,1.61
		c0.1,0.1,0.47-0.06,0.4,0.2c-0.09,0.57,0.57,1.11,0.6,1.61c0.05,0.14,0.12,0.28,0.2,0.4c0.14,0.31,0.23,0.58,0.4,1.01
		c0.07,0.16,0.16,0.12,0.2,0.2c0.17,0.25,0.3,0.52,0.4,0.81c0.03,0.11-0.05,0.3,0,0.4c0.1,0.18,0.33,0.14,0.4,0.4
		c0.02,0.27,0.02,0.53,0,0.8c0.04,0.31,0.17,0.35,0.2,0.6c0.04,0.29-0.27,0.41-0.2,0.61s0.59,0.23,0.4,1
		c-0.16,0.32-0.16,0.69,0,1.01c0.02,0.07,0.19,0,0.2,0.2c0.05,0.33,0.05,0.67,0,1c-0.21,0.21,0.03,5.4,0,5.84
		c-0.09,1.33-2.35,6.36-2.41,6.64c-0.05,0.2-0.4,0.77-0.61,1.21c-0.21,0.67-0.55,1.28-1,1.81c0.01,0.78-0.54,1.34-0.81,2.01
		c-0.03,0.07,0.05,0.36,0,0.4c-0.16,0.1-0.3,0.24-0.4,0.4c-0.05,0.21-0.12,0.41-0.2,0.61c-0.02,0.02-0.19-0.02-0.2,0
		c-0.04,0.07,0.06,0.35,0,0.4c-0.03,0.02-0.19-0.03-0.2,0c-0.04,0.07,0.06,0.35,0,0.4s-0.36,0.14-0.4,0.2
		c-0.04,0.06,0.06,0.35,0,0.4c-0.59,0.48-1.15,1.5-1.81,2.21c-0.06,0.06-0.35-0.07-0.4,0c-0.14,0.17-0.06,0.45-0.2,0.61
		c-0.38,0.36-0.78,0.7-1.21,1.01c-0.43,0.31-0.83,0.64-1.21,1.01c-0.17,0.17,0.1,0.32-0.2,0.4c-0.12,0.03-0.27-0.02-0.4,0
		c-0.15,0.17-0.26,0.44-0.4,0.61c-0.49,0.4-1.03,0.74-1.61,1c-0.13,0.07-0.29,0.34-0.4,0.4c-0.23,0.12-0.4,0.08-0.6,0.2
		c-0.3,0.17-0.4,0.5-0.8,0.6c-0.11,0.03-0.3-0.05-0.4,0c-0.13,0.07-0.29,0.34-0.4,0.4c-0.23,0.12-0.4,0.09-0.6,0.2
		c-0.1,0.05,0.02,0.19-0.2,0.2c-0.25,0.01-0.35,0.34-0.6,0.4c-0.12,0.03-0.29-0.05-0.4,0c-0.37,0.17-0.24,0.26-0.8,0.4
		c-0.2,0.05-0.1,0.16-0.2,0.2c-0.79,0.22-1.53,0.56-2.21,1.01c-0.71,0.16-5.4,1.08-6.24,1.21c0.04-0.01-2.61-0.01-2.82,0l-5.23-1.01
		c-0.58,0.17-1.13,0.44-1.61,0.8c-0.49,0.31-4.08,1.66-4.43,1.81c-0.13,0.06-0.21,0.31-0.4,0.4c-0.07,0.04-0.36-0.06-0.4,0
		c-0.22,0.27-1.39,0.23-2.22,0.4c-0.27,0.05-0.54,0.11-0.8,0.2l-0.17,0.13c-0.51,0.1-1.16,0.54-1.44,0.27
		c-0.31-0.31-2.36,0.27-2.61,0.2c-0.07-0.02-2.5-0.16-2.82-0.2c-1.35-0.06-2.69-0.19-4.02-0.4c-0.05-0.01-0.02-0.19-0.2-0.2
		c-0.27,0.03-0.54,0.03-0.81,0c-0.07-0.02,0-0.19-0.2-0.2c-0.08,0-0.56,0.05-0.6,0s-0.27-0.57-0.61-0.6
		c-0.62-0.02-1.24-0.15-1.81-0.4c-0.06-0.02-0.01-0.19-0.2-0.2c-0.48,0.02-0.95-0.05-1.41-0.2c-0.09-0.04,0.01-0.19-0.2-0.2
		c-0.2-0.05-0.4-0.12-0.6-0.2c-0.08-0.05-0.13-0.37-0.2-0.4c-0.11-0.05-0.3,0.06-0.4,0c-0.08-0.05-0.13-0.37-0.2-0.4
		c-0.34-0.15-0.55-0.04-0.81-0.2c-0.22-0.14-0.38-0.26-0.6-0.4c-0.07-0.06-0.14-0.13-0.2-0.2c-0.27-0.13-0.55-0.05-0.81-0.2
		c-0.17-0.11-0.24-0.49-0.4-0.6c-0.23-0.15-0.59-0.03-0.8-0.2c-0.15-0.12-0.42-0.42-0.61-0.6c-0.36-0.36-4.32-4.78-4.43-5.43
		c-0.35-0.24-0.69-0.51-1.01-0.8c-0.08-0.52-0.78-1.07-0.8-1.61C-93.72-3025.24-96.44-3025.45-97.11-3025.02z M-88.86-3019.18
		l-0.4-0.4L-88.86-3019.18z"/>
</g>
</svg>
