<!-- Generator: Adobe Illustrator 24.2.3, SVG Export Plug-In  -->
<svg version="1.1" xmlns="http://www.w3.org/2000/svg" xmlns:xlink="http://www.w3.org/1999/xlink" x="0px" y="0px"
	 width="158.35px" height="99.85px" viewBox="0 0 158.35 99.85" style="overflow:visible;enable-background:new 0 0 158.35 99.85;"
	 xml:space="preserve">
<style type="text/css">
	.st0{fill-rule:evenodd;clip-rule:evenodd;fill:#FFFFFF;}
	.st1{fill:#FF8853;}
	.st2{fill-rule:evenodd;clip-rule:evenodd;fill:#FF8853;}
</style>
<defs>
</defs>
<g>
	<g id="Path_183-2_1_">
		<path class="st0" d="M88.91,8.84c0.22-0.01,0.15-0.21,0.24-0.36c0.06-0.11,0.18-0.15,0.24-0.24C89.46,8.13,89.42,8,89.5,7.89
			c0.05-0.07,0.17-0.17,0.24-0.24c0.15-0.17,0.31-0.33,0.48-0.48c0.1-0.08,0.27-0.04,0.36-0.12c0.05-0.05,0.07-0.2,0.12-0.24
			c0.11-0.08,0.26-0.03,0.36-0.12c0.14-0.15,0.3-0.27,0.48-0.36c0.29-0.13,0.57-0.29,0.83-0.48c0.11-0.09,0.14-0.35,0.36-0.36
			c0.14-0.04,0.27-0.12,0.36-0.24c0.14-0.18,0.37-0.35,0.6-0.6c0.08-0.15,0.3-0.05,0.48-0.12c0.13-0.06,0.15-0.19,0.24-0.24
			c0.2-0.12,0.59-0.14,0.6-0.48c0.79-0.16,1.56-0.45,2.27-0.83c0.2-0.08,0.39-0.17,0.6-0.24s0.4-0.05,0.6-0.12
			c0.06-0.02,0.2-0.23,0.24-0.24c0.11-0.03,0.25,0.02,0.36,0c0.08-0.02,0.38-0.32,0.48,0c0.15,0.01,0.16-0.18,0.24-0.24
			c0.04-0.03,0.21,0.04,0.24,0c0.1-0.11,0.22-0.19,0.36-0.24c0.04-0.02,0.21,0.03,0.24,0c0.01-0.01-0.01-0.11,0-0.12
			c0.16-0.05,0.56-0.08,0.83-0.12c1.27-0.16,2.54-0.2,3.82-0.12c0.4,0.02,0.8,0.06,1.19,0.12c0.3,0.06,0.21,0.17,0.48,0.24
			c0.07,0.02,0.17-0.02,0.24,0c0.26,0.08,0.49,0.17,0.72,0.24c0.3,0.09,0.59,0.05,0.84,0.12c0.08,0.02,0.11,0.2,0.24,0.24
			s0.34-0.06,0.48,0c0.05,0.02-0.01,0.11,0.12,0.12s0.09,0.14,0.12,0.24c0.5-0.28,0.65,0.34,0.95,0.36
			c0.14,0.01,0.29,0.29,0.36,0.48c0.17,0.07,0.31,0.03,0.48,0.12c0.08,0.04,0.17,0.2,0.24,0.24c0.1,0.06,0.23,0.05,0.36,0.12
			c0.08,0.04,0.17,0.19,0.24,0.24c0.13,0.08,0.23,0.15,0.36,0.24c0.19,0.13,0.39,0.25,0.6,0.36c0.21,0.14,0.42,0.3,0.6,0.48
			c0.07,0.08,0.15,0.16,0.24,0.24c0.05,0.04,0.2-0.04,0.24,0s-0.04,0.21,0,0.24c0.11,0.08,0.26,0.04,0.36,0.12s0.14,0.29,0.24,0.36
			c0.11,0.08,0.25,0.04,0.36,0.12c0.17,0.12,0.26,0.51,0.6,0.36c-0.07,0.22,0.11,0.58,0.36,0.6c0.19,0.01,0.04,0.24,0.12,0.36
			c0.12,0.17,0.54,0.42,0.6,0.84c-0.04,0.27,0.34,0.13,0.36,0.36c0.41,0.59,0.54,1.45,0.95,2.03c0.31,0.24,0.23,0.73,0.36,1.08
			c0.02,0.05,0.11,0,0.12,0.12c0.02,0.29,0.24,0.52,0.36,0.83c0.21,0,0.41-0.04,0.6-0.12c0.28-0.06,0.56-0.14,0.83-0.24
			c0.06-0.03-0.01-0.11,0.12-0.12c0.05,0,0.53-0.04,0.6-0.12c0.01-0.01-0.01-0.12,0-0.12c0.18-0.04,0.18,0.12,0.24,0.12
			c0.35-0.11,0.71-0.19,1.07-0.24c-0.02,0,0.04,0.12,0.12,0.12c0.11,0,0.1-0.12,0.12-0.12c0.28,0.03,0.56,0.03,0.84,0
			c0.06-0.02,0.14-0.12,0.12-0.12c0.09-0.01,0.2,0.13,0.36,0.12s0.33-0.2,0.72-0.12c0.1,0.02,0.12,0.12,0.24,0.12
			c0.22,0,0.41-0.13,0.6-0.12c-0.01,0,0.04,0.11,0.12,0.12c0.12-0.01,0.24-0.01,0.36,0c0.24,0.07,0.48,0.15,0.71,0.24
			c0.07,0.02,0.16-0.02,0.24,0c0.11,0.03,0.21,0.08,0.36,0.12c0.08,0.02,0.11,0.12,0.12,0.12c0.55,0.11,1.39-0.03,1.79,0.24
			c0.09,0.06,0.28,0.13,0.48,0.24c0.07,0.04,0.18,0.21,0.24,0.24s0.17-0.02,0.24,0c0.11,0.03,0.2,0.08,0.36,0.12
			c0.12,0.03,0.06,0.09,0.12,0.12c0.1,0.04,0.24,0.06,0.36,0.12c0.08,0.04,0.17,0.2,0.24,0.24c0.14,0.07,0.24,0.05,0.36,0.12
			s0.12,0.17,0.24,0.24s0.24,0.05,0.36,0.12c0.08,0.04,0.17,0.2,0.24,0.24c0.14,0.07,0.24,0.05,0.36,0.12
			c0.2,0.11,0.38,0.24,0.6,0.36c0.11,0.06,0.3,0.23,0.48,0.24c0.2,0.01,0.4,0.34,0.6,0.48c0.09,0.07,0.26,0.04,0.36,0.12
			c0.06,0.05,0.06,0.2,0.12,0.24c0.09,0.07,0.26,0.04,0.36,0.12c0.13,0.09,0.37,0.41,0.6,0.6c0.23,0.21,0.47,0.42,0.72,0.6
			c0.07,0.05-0.02,0.11,0.12,0.12c0.3,0.02,0.24,0.27,0.48,0.48c0.19,0.16,0.49,0.13,0.6,0.24c0.04,0.04-0.04,0.2,0,0.24
			c0.1,0.08,0.35,0.14,0.36,0.36c0.01,0.13,0.56,0.68,0.71,0.83c0.07,0.08-0.01,0.09,0.12,0.12c0.05,0.01,0.2-0.03,0.24,0
			s-0.04,0.21,0,0.24c0.32,0.28,0.6,0.6,0.83,0.95c0.07,0.11,0.17,0.15,0.24,0.24s0.04,0.26,0.12,0.36
			c0.27,0.37,0.59,0.69,0.95,0.95c0.14,0.52,0.39,1,0.71,1.43c0.07,0.12,0.04,0.32,0.12,0.48c0.05,0.09,0.18,0.12,0.24,0.24
			c0.11,0.22,0.16,0.44,0.36,0.6c0.15,0.3-0.35,0.5,0,0.6c0.05,0.15,0.2,0.19,0.24,0.36c0.04,0.15-0.05,0.33,0,0.48
			c0.08,0.24,0.31,0.46,0.36,0.72c0.05,0.22-0.07,0.43,0,0.72c0.02,0.06,0.12,0.13,0.12,0.12c0.01,0.09-0.13,0.2-0.12,0.36
			c0-0.04,0.11,0.08,0.12,0.12c0.07,0.29-0.13,0.68-0.12,1.07c0.01,0.24,0.09,0.58,0.12,0.83c0.02,0.16-0.02,0.32,0,0.48
			c0.01,0.11,0.11,0.08,0.12,0.12c0.02,0.12-0.12,0.11-0.12,0.12c0.08,0.55,0.12,1.11,0.12,1.67c-0.06,0.32-0.14,0.64-0.24,0.95
			c-0.05,0.52-0.13,1.04-0.24,1.55c-0.01,0.03-0.1,0.03-0.12,0.12c-0.06,0.25-0.13,0.64-0.24,0.95c-0.03,0.16-0.07,0.32-0.12,0.48
			c-0.04,0.09-0.22,0.2-0.24,0.24c-0.07,0.23-0.07,0.48,0,0.72c-0.33,0.09-0.37,0.49-0.48,0.71c-0.08,0.16-0.03,0.33-0.12,0.48
			c-0.06,0.1-0.17,0.1-0.24,0.24s-0.17,0.2-0.24,0.36c-0.08,0.2-0.04,0.32-0.12,0.48c-0.03,0.05-0.22,0.08-0.24,0.12
			c-0.08,0.17,0.03,0.37-0.12,0.6c-0.07,0.11-0.35,0.12-0.36,0.36c-0.05,0.18-0.18,0.31-0.36,0.36c-0.18,0.09-0.34,0.21-0.48,0.36
			c-0.1,0.12-0.14,0.37-0.24,0.48s-0.35,0.08-0.36,0.24c-0.01,0.19-0.18,0.3-0.36,0.48c-0.1,0.1-0.25,0.26-0.36,0.36
			c-0.17,0.15-0.18,0.35-0.48,0.24c-0.05,0.44,0.38,0.36,0.6,0.48c0.14,0.08,0.21,0.16,0.36,0.24c0.12,0.03,0.24,0.07,0.36,0.12
			c0.04,0.03-0.04,0.21,0,0.24s0.09-0.02,0.12,0c0.07,0.06,0.29,0.05,0.36,0.12c0.04,0.04-0.04,0.2,0,0.24
			c0.18,0.15,0.41,0.21,0.6,0.36c0.33,0.31,0.69,0.59,1.07,0.84c0.22,0.35,0.36,0.74,0.6,1.07c0.08,0.11,0.34,0.12,0.36,0.36
			c0.01,0.15,0.17,0.15,0.24,0.24c0.03,0.04-0.04,0.21,0,0.24c0.16,0.26,0.28,0.54,0.36,0.84c0-0.01,0.2,0.05,0.12,0.12
			c-0.13,0.11-0.05,0.04,0,0.12c0.04,0.06,0.23,0.21,0.24,0.24c0.06,0.17-0.07,0.43,0,0.6c0.02,0.03,0.21-0.03,0.24,0
			c0.08,0.08-0.12,0.29-0.12,0.36c0,0.13,0.18,0.26,0.24,0.48c0.27,0,0,0.39,0,0.36c0.03,0.16,0.2,0.19,0.24,0.36
			c0.05,0.2,0.07,0.27,0.12,0.48c0.01,0.03,0.32,1.03,0.12,1.19c-0.3,0.24,0.05,0.2,0.12,0.48c0.13,1.19,0.09,2.4-0.12,3.58
			c-0.04,0.23,0.1,0.54-0.24,0.6c0.24,0.77,0.28,1.59,0.12,2.39c0.01,0.08,0.01,0.16,0,0.24c-0.05,0.18-0.17,0.14-0.24,0.48
			c-0.1,0.5-0.03,1.14-0.12,1.67c0-0.02-0.11,0.06-0.12,0.12c-0.16,0.62-0.16,1.7-0.72,2.15c-0.03,0.33-0.11,0.65-0.24,0.96
			c-0.01,0.04-0.11,0-0.12,0.12c0.01,0.12,0.01,0.24,0,0.36c-0.04,0.12-0.21,0.16-0.24,0.24c-0.05,0.16-0.09,0.32-0.12,0.48
			c-0.03,0.16-0.07,0.32-0.12,0.48c-0.03,0.07-0.2-0.02-0.24,0.12c-0.08,0.19-0.12,0.39-0.12,0.6c-0.18,0.1-0.34,0.22-0.48,0.36
			c-0.12,0.26-0.28,0.51-0.48,0.72c-0.35,0.38-0.78,0.75-1.19,1.19c-0.07,0.07-0.22,0.47-0.36,0.48s-0.21,0-0.24,0.12
			c-0.1,0.59-0.81,0.78-1.31,1.19c-0.17,0.15-0.33,0.31-0.48,0.48c-0.14,0.15-0.32,0.24-0.36,0.48c-0.45,0.03-0.58,0.38-0.95,0.48
			c-0.74,0.75-1.52,1.49-2.39,2.27c-0.1,0.09-0.25,0.27-0.36,0.36s-0.27,0.3-0.36,0.36c-0.05,0.03-0.21-0.04-0.24,0
			c-0.01,0.01,0.02,0.11,0,0.12c-0.04,0.02-0.21-0.03-0.24,0c-0.11,0.16-0.29,0.25-0.48,0.24c-0.26,0.11-0.22,0.31-0.48,0.48
			c-0.15,0.09-0.31,0.17-0.48,0.24c-0.04,0.02-0.21-0.03-0.24,0c-0.01,0.01,0.02,0.11,0,0.12c-0.04,0.02-0.21-0.04-0.24,0
			c-0.09,0.11-0.09,0.18-0.24,0.24s-0.43,0.07-0.6,0.12c-0.03,0.01-0.01,0.11-0.12,0.12c-0.16,0.01-0.32-0.01-0.48,0
			c0.11,0.37-0.38,0.21-0.48,0.24c-0.03,0.01-0.01,0.11-0.12,0.12c-0.44,0.05-0.88,0.13-1.31,0.24c-0.02,0.01-0.02,0.11-0.12,0.12
			c-0.29,0.02-0.52,0.09-0.83,0.12c-0.04,0-0.22-0.03-0.24,0c-0.12,0.15-0.23-0.07-0.72,0c-0.26,0.03-0.55,0.22-0.83,0.24
			c-0.8-0.01-1.6-0.09-2.39-0.24c-0.42,0.23-0.24,0.99-0.36,1.55c-0.02,0.31-0.15,0.61-0.36,0.84c0.11,0.31,0.15,0.63,0.12,0.95
			c-0.17,0.01-0.06,0.23-0.12,0.36c-0.03,0.08-0.21,0.18-0.24,0.24c-0.06,0.21-0.14,0.41-0.24,0.6c-0.09,0.14-0.34,0.28-0.48,0.48
			s-0.3,0.29-0.24,0.6c-0.15,0.25-0.35,0.45-0.6,0.6c-0.03,0.38-0.15,0.75-0.36,1.07c-0.08,0.12-0.35,0.29-0.36,0.48
			s-0.23,0.39-0.36,0.6c-0.06,0.1-0.23,0.22-0.24,0.36c-0.02,0.36-0.46,0.53-0.72,0.84c-0.14,0.17-0.21,0.4-0.36,0.6
			c-0.07,0.1-0.17,0.11-0.24,0.24c-0.1,0.21-0.22,0.41-0.36,0.6c-0.18,0.22-0.36,0.54-0.6,0.83c-0.12,0.15-0.32,0.3-0.48,0.48
			c-0.31,0.36-0.55,0.79-0.84,1.07c-0.02,0.02-0.23,0.24-0.24,0.24c-0.08,0.03-0.29-0.05-0.36,0c-0.14,0.11-0.12,0.38-0.24,0.48
			c-0.27,0.23-0.56,0.38-0.83,0.6c-0.06,0.05-0.06,0.2-0.12,0.24s-0.21-0.04-0.24,0c-0.01,0.02,0.02,0.11,0,0.12
			c-0.17,0.11-0.33,0.12-0.48,0.24c-0.12,0.1-0.2,0.23-0.36,0.36c-0.12,0.1-0.27,0.3-0.36,0.36c-0.11,0.07-0.4,0.03-0.6,0.12
			c-0.06,0.03,0.01,0.11-0.12,0.12c-0.15,0.01-0.15,0.19-0.24,0.24c-0.17,0.09-0.39,0.02-0.6,0.12c-0.07,0.03-0.06,0.2-0.12,0.24
			c-0.04,0.03-0.21-0.04-0.24,0c-0.01,0.02,0.02,0.11,0,0.12c-0.17,0.08-0.67,0.11-0.83,0.24c-0.04,0.03-0.09,0.23-0.12,0.24
			c-0.14,0.06-0.44,0.08-0.6,0.12c-0.24,0.06-0.39,0.2-0.6,0.12c-0.36,0.24-0.77,0.4-1.19,0.48c-0.34,0.13-0.71,0.21-1.07,0.24
			c-0.24,0-0.48,0.05-0.72,0.12c-0.04,0.01-0.21-0.03-0.24,0c-0.28,0.34-1.28,0.14-1.67,0.6c-1.22-0.28-2.36,0.18-3.58,0.12
			c-0.32-0.02-0.64-0.06-0.95-0.12c-0.24-0.05-0.48-0.21-0.72-0.24c-0.29-0.03-0.53,0.13-0.83,0.12c0.02,0-0.05-0.12-0.12-0.12
			c-0.12,0.01-0.24,0.01-0.36,0c-0.51-0.1-1.68,0.03-2.03-0.48c-0.51,0.13-1.04,0.13-1.55,0c-0.44-0.09-0.91-0.19-1.07-0.48
			c-0.29-0.05-0.26,0.22-0.6,0.12c-0.37-0.05-0.65-0.45-1.07-0.48c-0.08,0.01-0.16,0.01-0.24,0c-0.06-0.02-0.19-0.23-0.24-0.24
			c-0.37-0.11-0.9,0.04-1.19-0.24c-0.1-0.09-0.2-0.08-0.36-0.12c-0.11-0.03-0.35-0.14-0.6-0.24c-0.13-0.05-0.28-0.23-0.48-0.24
			c-0.21-0.06-0.41-0.14-0.6-0.24C85.78,96.09,85.85,96,85.72,96c-0.07,0-0.16-0.09-0.24-0.12c-0.05-0.02-0.13-0.12-0.12-0.12
			c-0.07-0.01-0.17,0.09-0.12,0.12c-0.13-0.07-0.28-0.35-0.48-0.36s-0.58-0.43-0.84-0.6c-0.15-0.1-0.35-0.04-0.48-0.12
			c-0.05-0.03-0.08-0.22-0.12-0.24c-0.06-0.03-0.19,0.04-0.24,0c-0.1-0.07-0.14-0.29-0.24-0.36c-0.11-0.08-0.26-0.04-0.36-0.12
			c-0.2-0.16-0.4-0.43-0.6-0.59s-0.39-0.32-0.6-0.48c-0.11-0.09-0.23-0.17-0.36-0.24c-0.14-0.07-0.24-0.03-0.36-0.12
			c-0.04-0.03,0.04-0.21,0-0.24c-0.11-0.09-0.43-0.08-0.6-0.24c-0.04-0.04,0.04-0.2,0-0.24c-0.22-0.18-0.42-0.38-0.6-0.6
			c-0.2-0.26-0.38-0.58-0.6-0.83c-0.2-0.24-0.53-0.47-0.72-0.72c-0.22-0.24-0.38-0.53-0.48-0.84c-0.43,0.07-0.59,0.44-0.84,0.72
			c-0.08,0.09-0.09,0.35-0.24,0.36c-0.19-0.01-0.35,0.14-0.36,0.33c0,0.01,0,0.02,0,0.03c0,0.03-0.21,0.21-0.24,0.24
			c-0.11,0.09-0.23,0.17-0.36,0.24c-0.17,0.11-0.33,0.23-0.48,0.36c-0.09,0.07-0.16,0.17-0.24,0.24c-0.22,0.18-0.37,0.42-0.6,0.6
			c-0.04,0.03-0.21-0.04-0.24,0s-0.08,0.21-0.12,0.24c-0.19,0.1-0.39,0.18-0.6,0.24c-0.12,0.05-0.09,0.23-0.24,0.24
			c-0.22,0.08-0.43,0.2-0.6,0.36c-0.15,0.13-0.31,0.25-0.48,0.36c-0.06,0.03-0.09,0.1-0.12,0.12c-0.14,0.11-0.3,0.19-0.48,0.24
			c-0.08,0.03-0.16,0.07-0.24,0.12c-0.13,0.12-0.3,0.21-0.48,0.24c-0.12,0.03-0.26,0.17-0.48,0.24c0.06-0.02-0.07-0.13-0.12-0.12
			c0.03,0-0.08,0.11-0.12,0.12c-0.33,0.13-0.65,0.29-0.95,0.48c-0.08,0.05-0.27,0.05-0.36,0.12c-0.04,0.03-0.08,0.22-0.12,0.24
			c-0.18,0.09-0.47,0.03-0.72,0.12c-0.06,0.02-0.19,0.22-0.24,0.24c-0.28,0.09-0.38,0.01-0.72,0.12c-0.04,0.02,0,0.11-0.12,0.12
			c-0.2,0.01-0.4,0.17-0.72,0c-0.07,0.18-0.22,0.17-0.48,0.24s-0.79,0.16-1.31,0.24c-0.04,0.01-0.22-0.03-0.24,0
			c-0.05,0.09-0.14,0.13-0.24,0.12c-0.02-0.01-0.29-0.2-0.36-0.12c-0.1,0.12-0.42,0.13-0.84,0.12c-0.18-0.01-0.22-0.13-0.36-0.12
			c0.01,0-0.04,0.11-0.12,0.12c-0.92,0.07-1.85-0.01-2.74-0.24c-0.04-0.02-0.21,0.03-0.24,0c-0.27-0.33-1.2-0.35-1.79-0.48
			c-0.02,0-0.02-0.11-0.12-0.12c-0.16,0.01-0.32,0.01-0.48,0c-0.01,0-0.02-0.11-0.12-0.12c-0.36-0.01-0.72-0.05-1.07-0.12
			c-0.02,0-0.02-0.11-0.12-0.12c-0.16,0.02-0.32,0.02-0.48,0c-0.03-0.01-0.01-0.11-0.12-0.12c-0.22-0.02-0.43-0.1-0.6-0.24
			c0.01,0-0.05-0.21-0.12-0.12c-0.01,0.01-0.17,0.2-0.24,0.12c-0.01-0.01,0.02-0.11,0-0.12c-0.04-0.02-0.21,0.03-0.24,0
			c-0.01-0.02,0.02-0.11,0-0.12c-0.04-0.02-0.21,0.04-0.24,0c-0.01-0.01,0.01-0.11,0-0.12c-0.04-0.02-0.21,0.03-0.24,0
			c-0.18-0.12-0.39-0.2-0.6-0.24c-0.22-0.06-0.43-0.07-0.6-0.12c-0.14-0.05-0.33-0.18-0.48-0.24c-0.05-0.02,0.01-0.11-0.12-0.12
			c-0.16,0.02-0.32,0.02-0.48,0c-0.05-0.02,0.01-0.11-0.12-0.12c-0.12-0.03-0.24-0.07-0.36-0.12c-0.05-0.03-0.08-0.22-0.12-0.24
			c-0.09-0.04-0.42,0.07-0.48,0c-0.08-0.09,0.05-0.23-0.12-0.24c-0.21,0-0.41-0.04-0.6-0.12c-0.06-0.03-0.07-0.22-0.12-0.24
			c-0.1-0.04-0.26,0.03-0.36,0c-0.04-0.01-0.01-0.11-0.12-0.12c-0.12,0.01-0.24,0.01-0.36,0c-0.06-0.02-0.08-0.22-0.12-0.24
			c-0.21-0.1-0.53,0.02-0.83-0.12c-0.05-0.03,0.01-0.11-0.12-0.12c-0.15-0.01-0.15-0.18-0.24-0.24c-0.15-0.09-0.31-0.17-0.48-0.24
			c-0.09-0.05-0.27,0.05-0.36,0s0-0.18-0.12-0.24c-0.18-0.11-0.39-0.15-0.6-0.12c-0.11-0.2-0.03-0.28-0.36-0.36
			c-0.35-0.2-0.67-0.44-0.95-0.72c-0.07-0.06-0.17-0.19-0.24-0.24c-0.05-0.03-0.2,0.04-0.24,0s0.04-0.22,0-0.24
			c-0.09-0.05-0.26,0.04-0.36,0c-0.17-0.53-0.56-0.97-1.07-1.19c0.18-0.34-0.24-0.21-0.36-0.36c-0.03-0.04,0.04-0.21,0-0.24
			c-0.01-0.01-0.11,0.01-0.12,0c-0.02-0.04,0.03-0.21,0-0.24c-0.14-0.1-0.26-0.22-0.36-0.36c-0.03-0.04,0.04-0.21,0-0.24
			c-0.1-0.08-0.23,0.05-0.24-0.12s-0.37-0.42-0.48-0.72c-0.02-0.04,0.03-0.21,0-0.24c-0.01-0.01-0.11,0.02-0.12,0
			c-0.14-0.23-0.26-0.47-0.36-0.72c-0.02-0.16-0.06-0.32-0.12-0.48c-0.03-0.06-0.11,0.01-0.12-0.12c-0.03-0.12-0.07-0.24-0.12-0.36
			c-0.02-0.07,0.02-0.17,0-0.24c0,0-0.11-0.35-0.12-0.36c-0.11-0.18-0.19-0.39-0.24-0.6c-0.02-0.32-0.06-0.64-0.12-0.95
			c-0.1-0.08-0.21-0.09-0.24-0.24c-0.05-0.26,0.14-0.32,0.12-0.48s-0.22-0.19-0.24-0.36c-0.02-0.22,0.12-0.44,0.12-0.72
			c-0.01-0.29-0.21-0.48-0.12-0.84c0.04-0.16,0.2-0.19,0.24-0.36c0.06-0.27-0.05-0.59,0-0.83c0.05-0.21,0.19-0.38,0.24-0.6
			c0.05-0.2-0.05-0.44,0.12-0.6c-0.2-0.18-0.37-0.09-0.6-0.12c-0.1-0.02-0.12-0.12-0.24-0.12s-0.23,0.2-0.6,0.12
			c-0.1-0.02-0.12-0.12-0.24-0.12c-0.21,0-0.26,0.15-0.48,0.12c0.03,0-0.07-0.11-0.12-0.12c-0.32-0.06-0.64-0.14-0.95-0.24
			c-0.04-0.02-0.21,0.03-0.24,0c-0.14-0.17-0.81-0.16-1.19-0.24c-0.04-0.01-0.22,0.03-0.24,0c-0.16-0.19-0.93-0.22-1.31-0.36
			c-0.36-0.13-0.79-0.21-0.95-0.6c-0.68-0.05-1.31-0.35-1.79-0.84c-0.02-0.28-0.17-0.16-0.48-0.24c-0.19-0.05-0.17-0.21-0.36-0.36
			c-0.16-0.12-0.4-0.16-0.6-0.36s-0.08-0.14-0.48-0.24c-0.2-0.05-0.04-0.35-0.48-0.24c0.18-0.34-0.21-0.32-0.36-0.48
			c-0.3-0.41-0.65-0.78-1.05-1.11c-0.07-0.04,0.02-0.11-0.12-0.12c-0.23-0.01-0.13-0.22-0.24-0.36s-0.33-0.12-0.48-0.36
			c-0.29-0.34-0.61-0.66-0.95-0.95c-0.22-0.22-0.43-0.46-0.6-0.72c-0.05-0.08-0.07-0.16-0.12-0.24c-0.03-0.05-0.23-0.2-0.24-0.24
			c-0.03-0.09,0.05-0.28,0-0.36c-0.07-0.12-0.28-0.23-0.36-0.36s-0.05-0.24-0.12-0.36c-0.04-0.06-0.11,0.02-0.12-0.12
			c-0.01-0.19-0.23-0.41-0.36-0.6c-0.16-0.34-0.41-0.63-0.72-0.84c-0.06-0.43-0.23-0.84-0.48-1.19c-0.08-0.13-0.15-0.22-0.24-0.36
			s-0.01-0.49-0.12-0.6c-0.09-0.09-0.08-0.09-0.12-0.24c-0.02-0.08-0.12-0.12-0.12-0.12c-0.02-0.14,0.11-0.07,0.12-0.12
			c0.01-0.03-0.31-0.39,0-0.48c-0.24-0.53-0.4-1.09-0.48-1.67c-0.01-0.04,0.03-0.22,0-0.24c-0.16-0.13,0.07-0.1,0-0.36
			c-0.02-0.1-0.11-0.09-0.12-0.12c-0.09-0.23-0.17-0.47-0.24-0.72c-0.03-0.22,0.12-0.35,0.12-0.6c0,0.02-0.11-0.05-0.12-0.12
			c-0.01-0.16,0.01-0.32,0-0.48c-0.1-0.67-0.14-1.35-0.12-2.03c0,0.01,0.11-0.04,0.12-0.12c0-0.03-0.16-0.2-0.12-0.24
			c0.1-0.09,0.15-0.23,0.12-0.36c0,0.02-0.2-0.05-0.12-0.12c0.14-0.11,0.08-0.31,0.12-0.72c0.02-0.25,0.1-0.44,0.12-0.72
			c0.02-0.24-0.03-0.48,0-0.72c0,0,0.11-0.03,0.12-0.12c-0.01-0.16-0.01-0.32,0-0.48c0-0.01,0.12-0.02,0.12-0.12
			c0.02-0.48,0.19-0.93,0.48-1.31c0.04-0.07,0.11,0.02,0.12-0.12c0.11-0.38,0.27-0.74,0.48-1.07c0.01-0.01,0.1-0.46,0.12-0.48
			s0.11,0.02,0.12,0c0.02-0.04-0.03-0.21,0-0.24c0.01-0.01,0.11,0.01,0.12,0c0.02-0.04-0.03-0.21,0-0.24c0.01-0.01,0.11,0.02,0.12,0
			c0.02-0.04-0.03-0.21,0-0.24c0.01-0.01,0.11,0.02,0.12,0c0.02-0.04-0.03-0.21,0-0.24c0.01-0.01,0.35-0.33,0.24-0.6
			c0.59-0.04,0.71-0.56,0.95-0.95c0.39-0.1,0.58-0.47,0.84-0.72s0.56-0.39,0.72-0.72c0.52,0.05,0.61-0.34,1.07-0.36
			c0.14-0.32-0.28-0.14-0.36-0.24c-0.1-0.17-0.22-0.33-0.36-0.48c-0.04-0.03-0.21,0.04-0.24,0c-0.07-0.09-0.15-0.17-0.24-0.24
			c-0.04-0.03-0.08-0.22-0.12-0.24c-0.06-0.03-0.19,0.04-0.24,0s0.04-0.21,0-0.24c-0.16-0.13-0.47-0.18-0.71-0.36
			c-0.15-0.11-0.23-0.24-0.36-0.36c-0.2-0.18-0.47-0.35-0.71-0.6c-0.03-0.03-0.23-0.09-0.24-0.12c-0.02-0.05,0.04-0.2,0-0.24
			s-0.21,0.04-0.24,0c-0.08-0.1-0.05-0.26-0.12-0.36c-0.03-0.04-0.22-0.08-0.24-0.12c-0.07-0.15-0.02-0.35-0.12-0.48
			c-0.04-0.05-0.21-0.07-0.24-0.12c-0.08-0.15-0.02-0.33-0.12-0.48s-0.26-0.21-0.36-0.36c-0.08-0.11-0.09-0.31-0.24-0.36
			c0.05-0.49-0.13-0.97-0.48-1.31c-0.06-0.26,0.08-0.43,0-0.71c-0.06-0.21-0.34-0.19-0.24-0.6c0.01-0.02,0.2-0.29,0.12-0.36
			c-0.46-0.38-0.13-1.52-0.12-2.15c0-0.37-0.11-0.73-0.12-1.07c-0.01-0.26,0.1-0.54,0.12-0.83c0-0.49,0.08-0.97,0.24-1.43
			c0,0,0.11-0.47,0.12-0.48c0.12-0.18,0.2-0.39,0.24-0.6c0.01-0.04,0.11,0,0.12-0.12c0-0.05-0.03-0.33,0-0.36
			c0.01-0.01,0.11,0.01,0.12,0c0.02-0.04-0.03-0.21,0-0.24c0.01-0.01,0.11,0.02,0.12,0c0.02-0.04-0.04-0.21,0-0.24
			c0.02-0.01,0.11,0.01,0.12,0c0.02-0.04-0.04-0.21,0-0.24c0.01-0.01,0.11,0.01,0.12,0c0.02-0.04-0.04-0.21,0-0.24
			c0.01-0.01,0.11,0.02,0.12,0c0.14-0.35,0.26-0.71,0.36-1.07c0.28-0.08,0.26-0.39,0.36-0.6c0.03-0.06,0.23-0.2,0.24-0.24
			c0.03-0.1-0.05-0.27,0-0.36c0.08-0.16,0.28-0.34,0.36-0.48c0.13-0.23,0.11-0.41,0.24-0.6c0.03-0.04,0.22-0.08,0.24-0.12
			c0.03-0.05-0.04-0.19,0-0.24s0.21,0.04,0.24,0c0.02-0.02-0.02-0.09,0-0.12c0.06-0.08,0.33-0.17,0.36-0.24
			c0.02-0.04-0.03-0.21,0-0.24c0.14-0.1,0.4,0.03,0.48-0.12c0.17-0.04,0.02-0.36,0.12-0.48c0.06-0.08,0.3-0.04,0.36-0.12
			c0.08-0.11,0.05-0.22,0.12-0.36c0.05-0.09,0.19-0.16,0.24-0.24c0.07-0.1,0.17-0.15,0.24-0.24c0.08-0.11,0.04-0.23,0.12-0.36
			c0.05-0.07,0.2-0.17,0.24-0.24c0.07-0.14,0.03-0.25,0.12-0.36c0.26-0.33,0.67-0.45,0.84-0.83c0.36-0.05,0.7-0.22,0.95-0.48
			c0.21-0.17,0.53-0.39,0.83-0.6c0.17-0.11,0.42-0.26,0.6-0.36c0.11-0.06,0.22-0.05,0.36-0.12c0.1-0.05,0.17-0.2,0.24-0.24
			c0.21-0.1,0.49-0.12,0.72-0.24c0.19-0.1,0.37-0.23,0.6-0.36c0.18-0.1,0.46-0.17,0.6-0.36c0.61,0.2,1.12-0.19,1.79-0.24
			c0.16,0.01,0.32,0.01,0.48,0c0.18-0.03,0.42-0.22,0.6-0.24c1.12-0.05,2.23-0.01,3.34,0.12c0.21,0.01,0.25-0.14,0.48-0.12
			c-0.04,0,0.08,0.11,0.12,0.12c0.08,0.02,0.16-0.01,0.24,0c0.06-0.3-0.23-0.54-0.36-0.83c-0.08-0.17-0.04-0.3-0.12-0.48
			c-0.07-0.14-0.2-0.2-0.24-0.36c-0.08-0.35-0.01-1.07-0.12-1.67c-0.02-0.11-0.11-0.18-0.12-0.36c-0.16-0.85-0.03-1.73,0.36-2.5
			c-0.02-0.4,0.02-0.8,0.12-1.19c-0.06-0.42,0.42-0.29,0.36-0.72c0.13-0.71,0.51-1.35,1.07-1.79c-0.01-0.34,0.28-0.55,0.48-0.84
			c0.04-0.07,0.11,0.02,0.12-0.12c0.01-0.26,0.33-0.13,0.48-0.36c0.14-0.21,0.3-0.41,0.48-0.6c0.04-0.03,0.2,0.04,0.24,0
			c0.1-0.12,0.12-0.37,0.48-0.36c0.05-0.14,0.13-0.26,0.24-0.36c0.15-0.14,0.31-0.26,0.48-0.36c0.06-0.04,0.09-0.1,0.12-0.12
			c0.08-0.05,0.26-0.05,0.36-0.12c0.2-0.14,0.11-0.27,0.48-0.36c0.13-0.03,0.08-0.23,0.24-0.24c0.08-0.03,0.16-0.07,0.24-0.12
			c0.07-0.05,0.17-0.21,0.24-0.24c0.21-0.11,0.55-0.13,0.83-0.24c0.05-0.02,0-0.11,0.12-0.12c0.04,0,0.08,0,0.12,0
			c0.12-0.05,0.24-0.09,0.36-0.12c0.1-0.02,0.08-0.11,0.12-0.12c0.29-0.09,0.65-0.04,0.95-0.12c0.03-0.01,0.01-0.11,0.12-0.12
			c0.07,0,0.33-0.08,0.48-0.12c0.08-0.02,0.11-0.12,0.12-0.12c0.26-0.05,0.31,0.13,0.48,0.12c-0.05,0,0.09-0.11,0.12-0.12
			c0.21-0.05,0.72-0.08,1.07-0.12c-0.04,0,0.06,0.19,0.12,0.12c0.87-0.35,1.81-0.48,2.74-0.36c0.1,0.02,0.12,0.11,0.24,0.12
			c0.19,0.01,0.21-0.13,0.36-0.12c0.1,0.01,0.12,0.11,0.24,0.12c0.28-0.02,0.56-0.02,0.84,0c0.2,0.03,0.13,0.04,0.24,0.12
			c0.07,0.05-0.02,0.11,0.12,0.12c0.47,0.09,0.95,0.12,1.43,0.12c0.14,0.14,0.3,0.26,0.48,0.36c0.04,0.02,0.21-0.04,0.24,0
			c0.01,0.01-0.02,0.11,0,0.12c0.04,0.02,0.21-0.03,0.24,0c0.34,0.18,0.7,0.3,1.08,0.36c0.17,0.04,0.41,0.07,0.6,0.12
			c0.29,0.09,0.57,0.21,0.84,0.36c0.07,0.04-0.02,0.11,0.12,0.12c0.34,0.12,0.66,0.28,0.95,0.48c0.1,0.07,0.14,0.29,0.24,0.36
			c0.13,0.09,0.35,0.02,0.48,0.12c0.18,0.19,0.34,0.39,0.48,0.6c0.22,0.03,0.42,0.11,0.6,0.24C62.05,6.83,62.15,7,62.2,7.03
			c0.08,0.03,0.29-0.05,0.36,0c0.04,0.03-0.04,0.21,0,0.24c0.19,0.13,0.35,0.29,0.48,0.48c0.17,0.24,0.24,0.55,0.48,0.71
			c0.27,0.17,0.46-0.1,0.6-0.24c0.1-0.1,0.03-0.25,0.12-0.36c0.03-0.04,0.2,0.04,0.24,0c0.1-0.1,0.05-0.34,0.12-0.48
			c0.01-0.01,0.1-0.08,0.12-0.12c0.05-0.07,0.2-0.17,0.24-0.24c0.05-0.12,0.09-0.24,0.12-0.36c0.02-0.05,0.09-0.01,0.12-0.12
			c0.04-0.17,0.12-0.34,0.24-0.48c0.04-0.07,0.11,0.02,0.12-0.12c0.01-0.17,0.53-0.63,0.71-0.83c0.13-0.11,0.25-0.23,0.36-0.36
			c0.06-0.14,0.25-0.14,0.36-0.24c0.24-0.21,0.4-0.68,0.83-0.84c0.22-0.02,0.07-0.4,0.24-0.48c0.4,0.17,0.49-0.34,0.72-0.48
			c0.15-0.09,0.42-0.04,0.6-0.12c0.05-0.03,0.08-0.22,0.12-0.24c0.32-0.14,0.76-0.2,1.19-0.36c0.39-0.05,0.38-0.5,0.72-0.6
			c1.07,0.03,2.12-0.17,3.1-0.6c0.2-0.04,0.39,0.08,0.6,0.12c0.18,0.03,0.46-0.07,0.48,0.12c0.23-0.07,0.47-0.11,0.72-0.12
			c0,0,0.04-0.11,0.12-0.12s0.19,0.15,0.36,0.12c0.15-0.02,0.24-0.31,0.36-0.12c0.84-0.02,1.67,0.02,2.51,0.12
			c0.03,0.01,0.01,0.11,0.12,0.12c0.25,0.04,0.49,0.12,0.72,0.24c0.21,0.07,0.32,0.06,0.48,0.12c0.14,0.05,0.33,0.18,0.48,0.24
			c0.18,0.07,0.3,0.04,0.48,0.12c0.14,0.06,0.21,0.16,0.36,0.24c0.11,0.05,0.34,0.04,0.48,0.12c0.21,0.12,0.18,0.48,0.48,0.36
			c0.27-0.04,0.13,0.34,0.36,0.36c0.17,0.31,0.62,0.34,0.95,0.48c-0.05,0.24,0.14,0.26,0.24,0.36s-0.06,0.19,0.12,0.24
			c0.04,0.01,0.21-0.03,0.24,0s-0.04,0.2,0,0.24c0.22,0.14,0.42,0.3,0.6,0.48c0.03,0.04-0.04,0.21,0,0.24
			c0.17,0.15,0.33,0.3,0.48,0.48c0.18,0.21,0.4,0.4,0.6,0.6c0.1,0.1,0.14,0.26,0.24,0.36c0.2,0.17,0.36,0.37,0.48,0.6
			c0.06,0.12,0.23,0.21,0.24,0.36c0.01,0.1,0.17,0.19,0.12,0.36c0.05,0.14,0.26,0.14,0.36,0.24c0.04,0.04-0.04,0.21,0,0.24
			C88.4,8.3,88.6,8.62,88.91,8.84z"/>
		<path class="st1" d="M99.1,99.85c-0.1,0-0.19,0-0.29-0.01c-0.35-0.02-0.7-0.06-1.05-0.13c-0.17-0.04-0.33-0.1-0.48-0.16
			c-0.06-0.03-0.15-0.06-0.19-0.07c0,0,0,0,0,0l0,0.12l-0.65,0c-0.04,0-0.08,0-0.12,0l0.01-0.75l-0.73-0.01
			c0,0.37,0.25,0.64,0.61,0.65c-0.08,0.01-0.23,0.01-0.38,0l-0.1-0.01c-0.11-0.02-0.27-0.03-0.44-0.04
			c-0.51-0.03-1.17-0.06-1.66-0.37c-0.51,0.08-1.03,0.05-1.52-0.08c-0.29-0.06-0.71-0.14-1.06-0.35c-0.15,0.04-0.35,0.06-0.58,0
			c-0.31-0.06-0.54-0.21-0.73-0.33c-0.07-0.04-0.16-0.1-0.21-0.13c-0.1,0.01-0.2,0-0.3-0.01l-0.17-0.04
			c-0.15-0.06-0.26-0.15-0.35-0.24c-0.04,0-0.09,0-0.12,0c-0.3-0.01-0.74-0.02-1.11-0.3c-0.05-0.01-0.09-0.02-0.14-0.03
			c-0.07-0.02-0.24-0.08-0.43-0.16l-0.25-0.1c-0.13-0.05-0.23-0.12-0.31-0.17c-0.01-0.01-0.02-0.02-0.03-0.02l-0.07-0.02
			c-0.26-0.07-0.51-0.17-0.75-0.3l-0.34-0.23c-0.05-0.03-0.12-0.07-0.19-0.12l-0.06,0.11l-0.58-0.3l0.02-0.08
			c-0.2-0.1-0.39-0.26-0.58-0.42c-0.06-0.05-0.12-0.11-0.18-0.15c-0.16-0.02-0.33-0.04-0.52-0.15c-0.08-0.05-0.15-0.1-0.2-0.16
			c-0.07-0.02-0.14-0.06-0.21-0.1c-0.14-0.11-0.23-0.23-0.29-0.33c-0.11-0.03-0.23-0.08-0.35-0.18c-0.13-0.1-0.26-0.24-0.39-0.38
			c-0.08-0.08-0.15-0.16-0.22-0.22c-0.19-0.16-0.37-0.3-0.57-0.45c-0.1-0.08-0.17-0.13-0.26-0.17c-0.05,0.01-0.25-0.03-0.45-0.18
			c-0.09-0.06-0.18-0.15-0.24-0.28c-0.15-0.05-0.3-0.13-0.43-0.26c-0.13-0.13-0.21-0.28-0.23-0.44c-0.15-0.14-0.3-0.3-0.44-0.47
			c-0.1-0.14-0.19-0.26-0.28-0.39c-0.1-0.15-0.2-0.29-0.31-0.43c-0.07-0.09-0.17-0.17-0.27-0.26c-0.17-0.16-0.34-0.32-0.47-0.48
			c-0.04-0.04-0.07-0.08-0.11-0.12c-0.14,0.34-0.34,0.51-0.54,0.59c-0.09,0.18-0.25,0.32-0.4,0.46c-0.18,0.15-0.34,0.26-0.51,0.35
			c-0.09,0.06-0.22,0.16-0.34,0.26c-0.12,0.13-0.19,0.2-0.26,0.25c-0.07,0.06-0.13,0.13-0.2,0.21c-0.13,0.14-0.25,0.28-0.41,0.4
			c-0.08,0.07-0.17,0.11-0.25,0.14c-0.04,0.05-0.09,0.09-0.15,0.13l-0.09,0.05c-0.16,0.08-0.32,0.15-0.48,0.21
			c-0.15,0.2-0.34,0.29-0.5,0.33c-0.1,0.04-0.2,0.1-0.29,0.18c-0.18,0.15-0.34,0.28-0.51,0.39l-0.2,0.17
			c-0.14,0.12-0.39,0.25-0.66,0.32c-0.15,0.13-0.32,0.23-0.51,0.3l0.01,0.05l-0.57,0.2c-0.04,0.01-0.08,0.03-0.12,0.04l-0.03-0.1
			c-0.06,0.04-0.11,0.07-0.15,0.08c-0.29,0.11-0.57,0.25-0.84,0.42c-0.08,0.05-0.15,0.08-0.22,0.1c-0.07,0.11-0.17,0.22-0.32,0.29
			c-0.23,0.11-0.44,0.12-0.62,0.13c-0.02,0-0.03,0-0.05,0c-0.1,0.11-0.22,0.21-0.39,0.26c-0.22,0.07-0.38,0.07-0.5,0.08
			c0,0-0.01,0-0.01,0c-0.14,0.11-0.31,0.18-0.51,0.19c-0.13,0.04-0.32,0.08-0.56,0.07c-0.14,0.07-0.27,0.1-0.37,0.12l-0.11,0.03
			c-0.3,0.08-0.86,0.18-1.4,0.25l-0.08,0.01c-0.18,0.1-0.4,0.14-0.62,0.1l-0.19-0.05c-0.26,0.07-0.57,0.07-0.9,0.06
			c-0.08,0-0.16-0.01-0.23-0.03c-0.06,0.02-0.12,0.03-0.19,0.03c-0.95,0.07-1.91-0.01-2.86-0.23c-0.19,0.02-0.51,0.01-0.74-0.28
			c-0.07-0.03-0.52-0.09-0.78-0.13c-0.18-0.02-0.35-0.05-0.5-0.08h-0.45l-0.04-0.12c-0.02,0-0.05,0-0.07,0l-0.48-0.03l-0.05-0.12
			c-0.23-0.02-0.46-0.05-0.69-0.09h-0.46l-0.04-0.11c-0.03,0-0.07,0-0.1-0.01l-0.16-0.03l-0.37-0.12l-0.02-0.06
			c-0.1-0.03-0.2-0.08-0.3-0.13c-0.02,0-0.05,0.01-0.07,0.01l-0.37,0.02l-0.18-0.19c-0.08-0.03-0.16-0.06-0.22-0.12
			c-0.08-0.03-0.16-0.06-0.23-0.11c-0.08-0.02-0.16-0.06-0.23-0.11c-0.09-0.06-0.2-0.1-0.3-0.12c-0.14-0.04-0.22-0.05-0.29-0.06
			c-0.15-0.02-0.28-0.05-0.4-0.09c-0.12-0.04-0.25-0.11-0.39-0.18c-0.05-0.03-0.09-0.05-0.14-0.07l-0.12-0.05
			c-0.1,0-0.2-0.01-0.3-0.02l-0.17-0.04l-0.39-0.2c-0.03-0.01-0.07-0.03-0.1-0.04l-0.1-0.05c-0.06-0.03-0.11-0.07-0.15-0.12
			c-0.22-0.01-0.46-0.07-0.64-0.29c0,0-0.01-0.01-0.01-0.02c-0.13-0.03-0.27-0.07-0.4-0.12c-0.12-0.05-0.21-0.12-0.28-0.19
			c-0.05-0.01-0.1-0.02-0.15-0.03l-0.27-0.08c-0.02,0-0.05,0-0.07-0.01l-0.17-0.04c-0.15-0.06-0.26-0.15-0.34-0.24
			c-0.18,0-0.41-0.03-0.66-0.14l-0.36-0.16l-0.02-0.1c-0.07-0.06-0.13-0.13-0.19-0.22c-0.03-0.01-0.06-0.03-0.1-0.05
			c-0.17,0.02-0.4,0.02-0.62-0.12c-0.08-0.05-0.17-0.13-0.24-0.24l-0.47,0.07l-0.25-0.45c-0.01-0.02-0.02-0.03-0.03-0.05l-0.05-0.02
			c-0.4-0.23-0.77-0.51-1.1-0.83c0,0-0.01-0.01-0.03-0.02c-0.19-0.02-0.35-0.1-0.47-0.24c-0.01-0.01-0.02-0.03-0.04-0.04
			c-0.02,0-0.03-0.01-0.05-0.02l-0.33-0.13l-0.11-0.34c-0.1-0.33-0.35-0.6-0.66-0.74l-0.74-0.33l0.12-0.22
			c-0.01-0.01-0.02-0.02-0.03-0.03c-0.07-0.09-0.11-0.18-0.13-0.26c-0.04-0.06-0.07-0.11-0.08-0.14c-0.03-0.06-0.05-0.13-0.06-0.19
			c-0.08-0.08-0.15-0.17-0.22-0.26c-0.04-0.05-0.06-0.1-0.08-0.15l-0.02-0.01c-0.09-0.08-0.2-0.21-0.25-0.41
			c-0.02-0.02-0.03-0.04-0.05-0.06c-0.13-0.15-0.31-0.36-0.41-0.63c-0.01-0.02-0.01-0.04-0.02-0.06c-0.01-0.02-0.02-0.03-0.03-0.05
			l0,0c-0.17-0.26-0.31-0.55-0.42-0.84l-0.04-0.17c0-0.04-0.01-0.07-0.02-0.11c-0.11-0.12-0.18-0.26-0.21-0.43
			c-0.02-0.08-0.05-0.16-0.08-0.23c-0.06-0.18-0.06-0.32-0.06-0.41c-0.01-0.04-0.03-0.09-0.04-0.13c-0.14-0.24-0.24-0.5-0.3-0.78
			l-0.01-0.1c-0.01-0.19-0.03-0.38-0.06-0.57c-0.11-0.11-0.24-0.28-0.29-0.53c-0.04-0.19-0.02-0.36,0.01-0.49
			c-0.07-0.11-0.13-0.25-0.14-0.42c-0.02-0.24,0.04-0.45,0.08-0.6c0.02-0.06,0.04-0.14,0.04-0.17c0-0.02-0.02-0.06-0.03-0.09
			c-0.06-0.19-0.17-0.51-0.07-0.94c0.05-0.2,0.15-0.34,0.23-0.43c0-0.04-0.01-0.08-0.01-0.11c-0.02-0.18-0.04-0.39,0.01-0.62
			c0.04-0.18,0.11-0.33,0.16-0.44c-0.16,0.05-0.36,0.07-0.6,0.03l-0.47,0c-0.08,0.01-0.16,0.01-0.26-0.01l0.05-0.75l-0.69-0.09
			c0,0.02-0.07,0.57,0.43,0.71c-0.26-0.05-0.56-0.12-0.86-0.21c-0.15,0.01-0.37,0-0.58-0.14c-0.1-0.02-0.28-0.04-0.4-0.05
			c-0.14-0.01-0.29-0.03-0.41-0.05c-0.17,0.01-0.43,0.02-0.66-0.16c-0.1-0.03-0.29-0.06-0.4-0.08c-0.26-0.04-0.51-0.09-0.7-0.16
			l-0.15-0.05c-0.27-0.09-0.68-0.22-0.98-0.55c-0.72-0.13-1.38-0.48-1.9-1.01l-0.01-0.01c-0.04-0.01-0.07-0.01-0.11-0.02
			c-0.4-0.1-0.57-0.38-0.65-0.5c0,0-0.03-0.02-0.07-0.03c-0.15-0.07-0.37-0.17-0.59-0.38l-0.02-0.02l-0.12-0.03
			c-0.14-0.04-0.27-0.1-0.37-0.19l-1.24,0.23l0.45-0.93c-0.01-0.01-0.02-0.02-0.03-0.03c-0.33-0.44-0.64-0.77-0.99-1.05l-0.05-0.04
			c-0.18-0.08-0.36-0.24-0.46-0.52c-0.14-0.08-0.31-0.2-0.45-0.39c-0.26-0.3-0.54-0.58-0.85-0.84c-0.3-0.29-0.53-0.57-0.73-0.87
			c-0.05-0.08-0.08-0.15-0.11-0.21c-0.16-0.15-0.29-0.27-0.35-0.48c-0.03-0.09-0.04-0.18-0.04-0.26c-0.09-0.07-0.18-0.17-0.25-0.3
			c-0.05-0.1-0.09-0.18-0.11-0.26c-0.11-0.12-0.19-0.27-0.21-0.44c-0.03-0.04-0.06-0.08-0.09-0.12c-0.05-0.07-0.11-0.14-0.15-0.2
			l-0.05-0.09c-0.1-0.22-0.26-0.4-0.46-0.54l-0.27-0.18l-0.05-0.32c-0.05-0.31-0.17-0.62-0.35-0.88l-0.26-0.39
			c-0.14-0.23-0.16-0.47-0.17-0.65c-0.03-0.05-0.06-0.1-0.08-0.15l-0.08-0.05l-0.13-0.4l-0.05-0.33l0.04-0.07
			c-0.02-0.13-0.03-0.28,0.02-0.43c-0.18-0.48-0.3-0.97-0.37-1.47l-0.01-0.08l0-0.05c-0.05-0.12-0.06-0.24-0.05-0.37l-0.04-0.1
			c-0.08-0.19-0.17-0.46-0.24-0.73L19.67,60c-0.03-0.22,0.01-0.39,0.05-0.53c-0.03-0.08-0.05-0.16-0.05-0.25
			c-0.01-0.1,0-0.19,0-0.29c0-0.06,0.01-0.12,0-0.17c-0.1-0.66-0.14-1.39-0.12-2.11l0.07,0c-0.08-0.21-0.08-0.38-0.05-0.52
			l-0.22-0.46l0.3-0.26c0-0.1,0.01-0.21,0.02-0.35c0.01-0.15,0.04-0.29,0.07-0.43c0.02-0.08,0.04-0.17,0.05-0.27
			c0-0.07,0-0.15-0.01-0.22c-0.01-0.18-0.01-0.37,0.01-0.55l0.11-0.51c0-0.01,0-0.02,0-0.02l0.03-0.48l0.14-0.06
			c0.09-0.48,0.29-0.92,0.58-1.31l0.06-0.08c0.11-0.34,0.26-0.66,0.44-0.96c0.07-0.32,0.1-0.48,0.2-0.62
			c0.02-0.08,0.06-0.16,0.12-0.23c0.02-0.08,0.06-0.16,0.12-0.24c0.02-0.08,0.06-0.16,0.12-0.23c0.03-0.11,0.09-0.22,0.19-0.32
			l-0.31-0.75l1.03-0.08c0.06-0.03,0.15-0.19,0.2-0.29c0.05-0.11,0.11-0.21,0.17-0.31l0.16-0.26l0.29-0.07
			c0.04-0.01,0.16-0.15,0.23-0.24c0.09-0.11,0.18-0.21,0.27-0.3c0.1-0.09,0.2-0.17,0.3-0.25c0.14-0.11,0.23-0.18,0.26-0.25
			l0.16-0.34c-0.02-0.02-0.03-0.03-0.05-0.04c-0.05-0.04-0.09-0.08-0.13-0.12c-0.08-0.02-0.16-0.06-0.23-0.12
			c-0.09-0.06-0.2-0.18-0.26-0.35c-0.14-0.06-0.3-0.13-0.45-0.25c-0.15-0.11-0.25-0.22-0.32-0.31c-0.02-0.03-0.05-0.06-0.08-0.08
			C23.08,44.06,23,44,22.93,43.94c-0.14-0.11-0.29-0.23-0.44-0.37c-0.15-0.07-0.32-0.16-0.44-0.34c-0.07-0.05-0.13-0.1-0.18-0.15
			c-0.09-0.11-0.14-0.22-0.18-0.32c-0.11-0.07-0.22-0.17-0.29-0.33c-0.04-0.1-0.07-0.19-0.09-0.28c-0.09-0.06-0.18-0.14-0.24-0.26
			c-0.1-0.18-0.13-0.36-0.14-0.48c-0.09-0.07-0.2-0.17-0.3-0.31c-0.03-0.05-0.06-0.09-0.08-0.14l-0.35-0.11l0.06-0.62
			c0.03-0.26-0.07-0.51-0.25-0.7l-0.16-0.15l-0.05-0.22c-0.06-0.26-0.03-0.47-0.01-0.61c-0.16-0.18-0.36-0.52-0.23-1.05l0.01-0.06
			c-0.25-0.52-0.16-1.19-0.09-1.76c0.02-0.19,0.05-0.37,0.05-0.52c0-0.15-0.03-0.3-0.05-0.45c-0.03-0.21-0.06-0.41-0.07-0.61
			c0-0.22,0.04-0.42,0.07-0.6c0.02-0.09,0.04-0.19,0.05-0.29c0-0.52,0.1-1.08,0.28-1.62c0.08-0.39,0.12-0.56,0.23-0.7
			c0.05-0.08,0.08-0.18,0.1-0.28l0.12-0.48c0.02-0.1,0.06-0.21,0.14-0.31c0.02-0.08,0.06-0.16,0.12-0.24
			c0.03-0.09,0.07-0.17,0.12-0.24c0.02-0.09,0.06-0.16,0.11-0.23c0.04-0.12,0.11-0.25,0.24-0.36l0.03-0.03
			c0.08-0.22,0.15-0.45,0.21-0.67l0.11-0.42l0.2-0.06c0.03-0.11,0.06-0.19,0.09-0.26c0.04-0.09,0.1-0.16,0.15-0.22
			c0-0.12,0.02-0.25,0.09-0.38c0.08-0.17,0.2-0.31,0.3-0.42c0.03-0.04,0.06-0.07,0.09-0.1c0-0.01,0.02-0.05,0.03-0.11
			c0.04-0.13,0.09-0.33,0.24-0.54c0.04-0.06,0.08-0.1,0.13-0.14c0.03-0.09,0.07-0.17,0.14-0.26c0.08-0.1,0.2-0.2,0.37-0.25
			c0.02-0.02,0.05-0.04,0.07-0.05c0.04-0.14,0.12-0.29,0.28-0.42c0.1-0.07,0.2-0.12,0.3-0.15c0.03-0.11,0.08-0.23,0.18-0.34
			c0.1-0.12,0.22-0.2,0.34-0.24c0.01-0.03,0.03-0.07,0.05-0.11c0.09-0.18,0.23-0.29,0.32-0.36c0.05-0.06,0.11-0.12,0.17-0.17
			c0.02-0.1,0.06-0.22,0.14-0.34c0.06-0.1,0.14-0.18,0.21-0.24c0.03-0.12,0.08-0.27,0.2-0.42c0.17-0.22,0.37-0.36,0.52-0.48
			c0.08-0.06,0.2-0.15,0.21-0.18l0.17-0.4l0.43-0.06c0.2-0.03,0.38-0.12,0.52-0.26c0.29-0.24,0.62-0.48,0.95-0.7
			c0.19-0.12,0.46-0.29,0.66-0.39c0.12-0.07,0.23-0.1,0.31-0.12c0.07-0.08,0.16-0.17,0.28-0.24c0.18-0.09,0.34-0.13,0.5-0.18
			c0.09-0.02,0.19-0.05,0.23-0.07c0.07-0.04,0.15-0.09,0.23-0.14c0.11-0.07,0.23-0.14,0.36-0.21c0.07-0.04,0.15-0.07,0.23-0.11
			c0.05-0.02,0.13-0.06,0.16-0.08l0.32-0.45l0.48,0.22c0.15,0.05,0.32,0,0.63-0.09c0.25-0.07,0.54-0.16,0.87-0.18
			c0.17,0.01,0.29,0.01,0.4,0c0.03-0.01,0.05-0.03,0.08-0.04c0.15-0.08,0.34-0.17,0.57-0.2c1.07-0.05,2.11-0.02,3.13,0.08
			c-0.02-0.07-0.02-0.14-0.03-0.18c-0.07-0.08-0.22-0.25-0.29-0.53c-0.06-0.25-0.06-0.53-0.07-0.85c0-0.28-0.01-0.6-0.06-0.86
			c-0.03-0.02-0.11-0.19-0.13-0.44c-0.17-0.86-0.04-1.84,0.35-2.71c0-0.37,0.04-0.73,0.12-1.09c0-0.32,0.12-0.6,0.38-0.82
			c0.14-0.78,0.53-1.48,1.11-2.02c0.09-0.3,0.28-0.53,0.41-0.69c0.05-0.05,0.09-0.11,0.14-0.17l0.14-0.21c0,0,0-0.01,0.01-0.01
			l0.06-0.08c0.1-0.12,0.25-0.23,0.48-0.3c0.15-0.2,0.3-0.39,0.47-0.57c0.13-0.11,0.26-0.17,0.37-0.21c0.11-0.13,0.25-0.23,0.4-0.3
			c0.07-0.09,0.14-0.17,0.22-0.25c0.16-0.15,0.33-0.28,0.52-0.4l0.21-0.17c0.11-0.07,0.23-0.1,0.32-0.12
			c0.08-0.12,0.2-0.24,0.43-0.34c0.15-0.2,0.32-0.28,0.48-0.32c0.11-0.12,0.21-0.23,0.37-0.31c0.19-0.1,0.4-0.15,0.6-0.19
			c0.04-0.01,0.07-0.02,0.11-0.02c0.14-0.13,0.33-0.21,0.54-0.22l0.01,0c0,0,0.01,0,0.01,0l0.02-0.05l0.35-0.15
			c0.26-0.08,0.5-0.09,0.7-0.1c0.04,0,0.07,0,0.11-0.01c0.15-0.11,0.32-0.16,0.47-0.17c0,0,0.03-0.01,0.08-0.03l0.08-0.14l0.39-0.07
			c0.19-0.04,0.35-0.01,0.48,0.02c0.02-0.01,0.04-0.01,0.05-0.01c0.11-0.03,0.35-0.06,0.62-0.08l0.01-0.05l0.6-0.01l0.01,0.11
			c0.94-0.35,1.95-0.47,2.95-0.34c0.06,0.01,0.12,0.03,0.17,0.05c0.1-0.04,0.23-0.06,0.38-0.05c0.16,0.01,0.28,0.06,0.38,0.11
			c0.2-0.01,0.45-0.01,0.69,0.01c0.27,0.04,0.48,0.09,0.67,0.29c0.38,0.05,0.73,0.07,1.07,0.07l0.32,0l0.23,0.23
			c0.04,0.04,0.09,0.08,0.14,0.12c0.19,0,0.35,0.05,0.48,0.15c0.06,0.02,0.13,0.05,0.19,0.09c0.25,0.13,0.52,0.21,0.8,0.26
			c0.13,0.03,0.2,0.04,0.28,0.05c0.14,0.02,0.29,0.05,0.41,0.09c0.35,0.11,0.69,0.25,1,0.43l0.34,0.2c0.27,0.12,0.53,0.26,0.77,0.42
			c0.14,0.1,0.23,0.21,0.3,0.31c0.15,0.02,0.31,0.08,0.47,0.2l0.08,0.08c0.14,0.14,0.26,0.3,0.38,0.45c0.2,0.06,0.38,0.15,0.55,0.27
			c0.05,0.03,0.1,0.07,0.15,0.11c0.17,0,0.36,0.04,0.53,0.19c0.15,0.12,0.24,0.28,0.27,0.46c0.12,0.11,0.24,0.25,0.34,0.4
			c0.01,0.02,0.02,0.03,0.03,0.05c0.05-0.05,0.1-0.1,0.18-0.15c0.02-0.06,0.04-0.12,0.08-0.19L64,6.91l0.13-0.12l0,0
			c0.06-0.08,0.12-0.13,0.17-0.18c0.02-0.05,0.03-0.09,0.04-0.14l0.05-0.13l0.17-0.29c0.07-0.16,0.17-0.32,0.28-0.46l0.06-0.08
			c0.12-0.22,0.33-0.44,0.61-0.71c0.07-0.07,0.14-0.14,0.18-0.18c0.14-0.13,0.23-0.22,0.31-0.3c0.17-0.25,0.41-0.36,0.52-0.4
			c-0.01,0.01,0.02-0.05,0.06-0.11c0.14-0.2,0.33-0.48,0.65-0.67c0.06-0.21,0.18-0.46,0.48-0.6l0.3-0.14l0.02,0.01
			c0.08-0.1,0.18-0.22,0.33-0.3c0.18-0.11,0.35-0.14,0.5-0.16c0.07-0.09,0.16-0.18,0.3-0.24c0.21-0.09,0.45-0.16,0.72-0.23
			c0.17-0.04,0.35-0.09,0.53-0.15l0.02-0.01c0.16-0.23,0.36-0.49,0.74-0.61l0.12-0.03l0.12,0c0.95,0.03,1.91-0.15,2.77-0.54
			l0.17-0.05c0.31-0.06,0.57,0.03,0.74,0.08c0.04,0.01,0.08,0.03,0.12,0.04c0.2-0.01,0.36,0.01,0.49,0.05
			c0.07-0.01,0.15-0.03,0.23-0.04c0.12-0.08,0.27-0.13,0.43-0.14c0.11,0,0.2,0.01,0.28,0.03c0.13-0.07,0.29-0.12,0.49-0.09
			c0.06,0.01,0.13,0.02,0.21,0.06c0.79-0.01,1.58,0.04,2.36,0.13l0.12,0.02l0.38,0.11l0.03,0.07c0.18,0.05,0.35,0.12,0.51,0.2
			c0.04,0.01,0.07,0.02,0.11,0.02c0.11,0.02,0.22,0.04,0.34,0.09c0.1,0.04,0.22,0.1,0.33,0.16c0.05,0.03,0.1,0.06,0.15,0.08
			C81.86,0.98,82.02,1,82.2,1.09c0.16,0.07,0.27,0.16,0.35,0.22c0,0-0.01,0-0.02,0c0.19,0.03,0.38,0.06,0.58,0.17
			c0.13,0.08,0.23,0.18,0.3,0.27c0.18,0.03,0.4,0.13,0.56,0.37l0.05,0l0.16,0.3c0.06,0.02,0.16,0.05,0.23,0.07
			c0.13,0.04,0.26,0.08,0.39,0.13l0.57,0.24l-0.06,0.31c0.01,0.01,0.01,0.01,0.02,0.02c0.11,0.03,0.22,0.09,0.32,0.2
			c0.11,0.12,0.17,0.25,0.2,0.36c0.14,0.11,0.27,0.22,0.39,0.34c0.13,0.16,0.19,0.31,0.21,0.43c0.11,0.11,0.21,0.22,0.31,0.33
			c0.1,0.12,0.22,0.23,0.34,0.35l0.22,0.21c0.13,0.13,0.2,0.26,0.25,0.35c0.22,0.19,0.44,0.47,0.61,0.8
			c0.07,0.05,0.22,0.21,0.28,0.45c0.03,0.04,0.05,0.09,0.08,0.15c0.08,0.04,0.16,0.1,0.23,0.18c0.04,0.04,0.07,0.09,0.1,0.13
			c0.01-0.01,0.02-0.03,0.03-0.04c0.05-0.07,0.14-0.16,0.23-0.24c0.22-0.24,0.4-0.42,0.59-0.58c0.12-0.09,0.23-0.15,0.33-0.19
			c0.05-0.07,0.11-0.15,0.2-0.21c0.15-0.11,0.3-0.16,0.41-0.18c0.15-0.14,0.34-0.26,0.54-0.37c0.24-0.11,0.44-0.22,0.63-0.35
			c0.11-0.18,0.32-0.48,0.72-0.55c0.04-0.09,0.17-0.21,0.31-0.34c0.07-0.07,0.15-0.14,0.23-0.22c0.16-0.23,0.4-0.35,0.72-0.38
			c0.05-0.06,0.12-0.12,0.21-0.17c0.07-0.04,0.15-0.08,0.24-0.11l0.01-0.33l0.57-0.12c0.72-0.15,1.41-0.4,2.06-0.76l0.23-0.1
			c0.16-0.06,0.31-0.13,0.48-0.19c0.19-0.07,0.35-0.09,0.48-0.1c0,0,0,0,0,0c0.1-0.11,0.2-0.2,0.35-0.25
			c0.18-0.06,0.33-0.06,0.43-0.05c0.14-0.07,0.33-0.15,0.53-0.14c0.12-0.07,0.23-0.09,0.34-0.1c0.12-0.08,0.25-0.15,0.38-0.19
			c0.02-0.01,0.03-0.01,0.05-0.02c0.09-0.07,0.19-0.1,0.27-0.12c0.07-0.02,0.33-0.06,0.58-0.09c0.11-0.01,0.21-0.02,0.31-0.04
			c1.33-0.17,2.66-0.21,3.98-0.13c0.41,0.02,0.84,0.06,1.26,0.13c0.26,0.05,0.42,0.13,0.54,0.22c0.09,0,0.18,0.01,0.29,0.04
			l0.33,0.11c0.13,0.04,0.25,0.09,0.37,0.12c0.08,0.02,0.19,0.03,0.3,0.04c0.16,0.01,0.34,0.02,0.53,0.08
			c0.15,0.04,0.26,0.12,0.34,0.19c0.15-0.01,0.3,0.01,0.47,0.08l0.37,0.16l0.02,0.09c0.25,0.05,0.49,0.2,0.73,0.43
			c0,0,0.01,0.01,0.01,0.01c0.21,0.06,0.44,0.2,0.65,0.54c0.09,0.02,0.2,0.05,0.3,0.11c0.14,0.07,0.24,0.17,0.31,0.26
			c0.07,0.01,0.18,0.05,0.3,0.11c0.17,0.09,0.28,0.22,0.35,0.31l0.01,0.01c0.11,0.07,0.21,0.13,0.32,0.22c0.15,0.1,0.32,0.2,0.5,0.3
			c0.32,0.2,0.56,0.39,0.78,0.6c0.01,0.01,0.02,0.02,0.02,0.03c0.19,0.02,0.35,0.1,0.48,0.24c0.06,0.06,0.1,0.12,0.13,0.19
			c0.05,0.02,0.09,0.06,0.14,0.09c0.12,0.1,0.2,0.21,0.26,0.31c0.1,0.03,0.21,0.07,0.32,0.16c0.06,0.05,0.11,0.09,0.16,0.14
			l1.21-0.53l-0.41,1.3l0.2,0.18c0.15,0.17,0.19,0.35,0.21,0.49c0.17,0.16,0.41,0.41,0.54,0.77c0.21,0.12,0.32,0.29,0.38,0.43
			c0.21,0.34,0.35,0.7,0.48,1.05c0.11,0.3,0.22,0.58,0.35,0.79c0.34,0.34,0.41,0.77,0.45,1.07c0,0.02,0.01,0.05,0.01,0.07
			c0.12,0.14,0.19,0.32,0.2,0.52c0,0,0.01,0.01,0.01,0.02l0.05-0.01c0.17-0.03,0.33-0.08,0.5-0.13c0.14-0.15,0.34-0.23,0.57-0.24
			c0.02,0,0.06,0,0.09-0.01c0.12-0.12,0.26-0.19,0.38-0.21c0.11-0.02,0.32-0.05,0.54,0.03c0.06-0.02,0.12-0.03,0.19-0.04v-0.12
			l0.75,0l0,0.03l0.24-0.03l0.08,0.01c0.23,0.02,0.46,0.02,0.69,0l0.06,0.65l0.12-0.02l-0.04-0.75c0,0,0.01,0,0.02,0l0.67-0.03
			l0,0.04c0.16-0.03,0.33-0.03,0.54,0.01v0l0.65,0c0.04,0,0.08,0,0.12,0l-0.02,0.75l0.72,0.03c0.01-0.43-0.28-0.64-0.58-0.66
			c0.06-0.01,0.21-0.01,0.36,0l0.15,0.03c0.22,0.06,0.43,0.13,0.65,0.21c0.08,0,0.18,0,0.29,0.03c0.08,0.02,0.15,0.05,0.23,0.08
			c0.04,0.01,0.08,0.03,0.13,0.04c0.09,0.02,0.19,0.06,0.29,0.14c0.12,0.01,0.24,0.01,0.37,0.01c0.49,0.01,1.05,0.02,1.48,0.31
			c0.02,0.01,0.06,0.03,0.11,0.05c0.09,0.04,0.2,0.09,0.3,0.15c0.08,0.04,0.15,0.1,0.21,0.15c0.03,0,0.06,0.01,0.09,0.02
			c0.08,0.02,0.16,0.05,0.24,0.08c0.04,0.01,0.08,0.03,0.13,0.04c0.15,0.04,0.28,0.11,0.38,0.2c0.08,0.02,0.18,0.06,0.27,0.11
			c0.13,0.07,0.23,0.17,0.3,0.25c0.07,0.01,0.18,0.04,0.32,0.12c0.13,0.07,0.22,0.16,0.28,0.23c0.1,0.02,0.2,0.06,0.32,0.12
			c0.12,0.07,0.21,0.16,0.28,0.24c0.06,0.01,0.17,0.04,0.3,0.11c0.1,0.06,0.2,0.12,0.29,0.18c0.09,0.06,0.18,0.12,0.29,0.17
			c0.06,0.03,0.12,0.07,0.19,0.12c0.02,0.02,0.05,0.03,0.07,0.05c0.37,0.05,0.62,0.31,0.79,0.49c0.02,0.02,0.04,0.04,0.05,0.06
			c0.13,0.03,0.28,0.08,0.43,0.19c0.09,0.06,0.15,0.14,0.2,0.21c0.09,0.03,0.19,0.08,0.28,0.15c0.07,0.05,0.2,0.18,0.34,0.33
			c0.09,0.1,0.19,0.21,0.28,0.29c0.24,0.23,0.46,0.41,0.68,0.57l0.07,0.05c0.34,0.14,0.49,0.42,0.56,0.55
			c-0.02,0,0.01,0.01,0.05,0.02c0.16,0.04,0.39,0.09,0.59,0.28c0.11,0.1,0.18,0.23,0.22,0.37c0.14,0.12,0.28,0.28,0.34,0.52
			c0.06,0.07,0.18,0.21,0.43,0.46c0.13,0.02,0.28,0.06,0.41,0.18c0.11,0.09,0.24,0.25,0.27,0.49c0.27,0.27,0.51,0.56,0.71,0.87
			c0.04,0.02,0.12,0.08,0.2,0.19c0.13,0.17,0.17,0.35,0.2,0.46c0.21,0.27,0.45,0.51,0.73,0.71l0.21,0.15l0.07,0.25
			c0.12,0.43,0.32,0.82,0.59,1.18l0.06,0.09c0.09,0.16,0.12,0.32,0.13,0.44c0.08,0.07,0.17,0.16,0.23,0.29
			c0.04,0.08,0.08,0.16,0.11,0.24c0.02,0.05,0.05,0.12,0.06,0.14l0.13,0.1l0.06,0.13c0.11,0.22,0.14,0.45,0.08,0.69
			c0.08,0.1,0.17,0.24,0.22,0.44c0.04,0.18,0.03,0.35,0.01,0.47c0.02,0.03,0.04,0.06,0.06,0.09c0.1,0.16,0.24,0.37,0.29,0.65
			c0.04,0.22,0.02,0.41,0,0.55c-0.01,0.05-0.02,0.12-0.01,0.14c-0.13-0.51-0.68-0.44-0.7-0.44l0.04,0.34
			c0.25,0.02,0.45,0.17,0.59,0.33l0.21-0.01c0,0.04,0,0.08,0,0.11v0.37c0.04,0.28-0.01,0.55-0.06,0.77
			c-0.03,0.13-0.06,0.26-0.05,0.35c0,0.12,0.03,0.26,0.05,0.4c0.02,0.13,0.05,0.26,0.06,0.38c0.01,0.06,0.01,0.13,0.01,0.19
			l0.1,0.33c0.04,0.18,0.02,0.37-0.06,0.54c0.05,0.47,0.08,0.94,0.08,1.42l-0.01,0.13c-0.06,0.32-0.14,0.65-0.24,0.97
			c-0.05,0.52-0.13,1.05-0.25,1.57l-0.08,0.35l-0.11,0.06c-0.05,0.22-0.11,0.47-0.18,0.7c-0.04,0.17-0.08,0.34-0.13,0.51
			c-0.08,0.18-0.17,0.31-0.26,0.39c0,0.04,0.01,0.08,0.02,0.12l0.22,0.74l-0.61,0.16c-0.01,0.03-0.02,0.05-0.03,0.08
			c-0.03,0.1-0.07,0.2-0.11,0.28c0.01,0.1-0.02,0.33-0.16,0.56c-0.08,0.13-0.18,0.22-0.26,0.27c-0.05,0.09-0.11,0.15-0.15,0.2
			c-0.04,0.17-0.06,0.34-0.15,0.53c-0.06,0.11-0.13,0.2-0.21,0.26c-0.02,0.16-0.07,0.35-0.2,0.54c-0.1,0.15-0.21,0.23-0.31,0.29
			c-0.13,0.33-0.4,0.58-0.73,0.7c-0.06,0.04-0.12,0.08-0.18,0.13c-0.08,0.2-0.15,0.37-0.28,0.52c-0.09,0.1-0.19,0.17-0.28,0.21
			c-0.1,0.19-0.25,0.33-0.36,0.43l-0.19,0.19c0.11,0.03,0.22,0.07,0.33,0.12l0.15,0.08c0.07,0.05,0.15,0.12,0.21,0.22
			c0.12,0.04,0.25,0.11,0.37,0.22c0.09,0.1,0.16,0.2,0.19,0.32c0.11,0.06,0.23,0.12,0.33,0.21c0.35,0.32,0.68,0.58,1.02,0.8
			l0.14,0.09l0.09,0.14c0.11,0.17,0.2,0.35,0.29,0.53c0.07,0.14,0.14,0.27,0.22,0.4c0.24,0.14,0.4,0.31,0.48,0.51
			c0.06,0.04,0.11,0.1,0.17,0.17c0.13,0.18,0.16,0.36,0.16,0.5c0.09,0.17,0.17,0.35,0.24,0.53c0.07,0.07,0.13,0.14,0.17,0.23
			l0.13,0.27c0.05,0.07,0.1,0.14,0.13,0.23c0.04,0.11,0.05,0.21,0.06,0.31c0,0,0.01,0.01,0.01,0.01c0.14,0.14,0.32,0.42,0.19,0.84
			c0.16,0.15,0.26,0.37,0.26,0.62c0,0.05,0,0.1-0.01,0.16c0.05,0.08,0.09,0.17,0.12,0.29c0.05,0.19,0.07,0.26,0.12,0.48
			c0.17,0.59,0.27,1.08,0.17,1.47c0.03,0.06,0.05,0.12,0.07,0.19l0.02,0.1c0.14,1.26,0.09,2.54-0.13,3.79
			c0.01,0.31-0.05,0.54-0.14,0.72c0.15,0.72,0.17,1.47,0.03,2.19c0,0.08,0,0.15,0,0.23l-0.02,0.14c-0.06,0.25-0.19,0.4-0.26,0.47
			c-0.01,0.16-0.02,0.41-0.02,0.68c-0.01,0.31-0.01,0.63-0.07,0.95l-0.75-0.07l-0.08,0.68c0.06,0,0.58,0.05,0.7-0.44
			c-0.04,0.14-0.06,0.31-0.09,0.48c-0.09,0.59-0.21,1.31-0.65,1.83c-0.05,0.31-0.14,0.61-0.25,0.89l-0.06,0.13
			c0,0.05-0.01,0.09-0.01,0.14l-0.04,0.17c-0.07,0.19-0.18,0.32-0.28,0.41c-0.01,0.06-0.03,0.13-0.04,0.2
			c-0.03,0.18-0.08,0.37-0.14,0.56l-0.16,0.5l-0.17,0.01l0.01,0.42l-0.4,0.22c-0.08,0.04-0.15,0.09-0.22,0.15
			c-0.14,0.29-0.33,0.55-0.55,0.78c-0.17,0.19-0.38,0.39-0.59,0.6c-0.18,0.17-0.36,0.35-0.54,0.54c-0.12,0.23-0.29,0.53-0.58,0.68
			c-0.23,0.47-0.68,0.74-1.03,0.95c-0.14,0.09-0.29,0.17-0.41,0.28c-0.12,0.11-0.26,0.25-0.4,0.4c-0.07,0.07-0.12,0.12-0.17,0.16
			c-0.01,0.01-0.01,0.01-0.02,0.01l-0.08,0.51l-0.6,0.04c-0.03,0.01-0.1,0.06-0.14,0.09c-0.1,0.08-0.25,0.19-0.44,0.28
			c-0.69,0.69-1.42,1.39-2.31,2.18c-0.03,0.03-0.07,0.07-0.11,0.11c-0.09,0.1-0.19,0.19-0.27,0.26c-0.03,0.03-0.06,0.07-0.1,0.11
			c-0.1,0.11-0.2,0.22-0.33,0.31c-0.07,0.04-0.13,0.07-0.2,0.09c-0.05,0.04-0.09,0.06-0.12,0.07c-0.09,0.04-0.18,0.07-0.26,0.08
			c-0.13,0.09-0.29,0.16-0.45,0.2c-0.09,0.12-0.21,0.27-0.41,0.4c-0.2,0.12-0.4,0.22-0.61,0.31c-0.02,0.01-0.04,0.01-0.06,0.02
			c-0.05,0.03-0.09,0.06-0.11,0.07c-0.07,0.04-0.14,0.06-0.21,0.07c-0.09,0.08-0.19,0.15-0.34,0.2c-0.15,0.05-0.31,0.08-0.46,0.1
			c-0.15,0.12-0.33,0.17-0.48,0.18c-0.01,0-0.02,0-0.03,0c-0.21,0.2-0.47,0.25-0.67,0.25c-0.12,0.07-0.26,0.1-0.38,0.11
			c-0.29,0.03-0.6,0.09-0.92,0.16c-0.16,0.13-0.35,0.19-0.51,0.2c-0.13,0.01-0.25,0.03-0.37,0.05c-0.13,0.02-0.27,0.05-0.42,0.06
			l-0.08,0.01l-0.05,0c-0.16,0.06-0.35,0.07-0.6,0.01c-0.07-0.02-0.11-0.03-0.21-0.01c-0.07,0.01-0.13,0.04-0.2,0.07
			c-0.19,0.07-0.42,0.16-0.7,0.17c-0.68-0.01-1.33-0.06-1.98-0.15c0,0.05,0,0.1,0,0.14c-0.01,0.23-0.02,0.46-0.06,0.67
			c-0.03,0.31-0.13,0.61-0.29,0.88c0.06,0.29,0.08,0.59,0.05,0.88l-0.06,0.65l-0.15,0.01c-0.07,0.13-0.16,0.22-0.24,0.29
			c-0.06,0.17-0.13,0.35-0.21,0.51c-0.15,0.24-0.28,0.34-0.39,0.44c-0.05,0.04-0.12,0.1-0.14,0.12c-0.04,0.05-0.07,0.1-0.11,0.15
			l0.02,0.15l-0.13,0.26c-0.14,0.25-0.33,0.46-0.55,0.65c-0.08,0.37-0.22,0.73-0.42,1.05c-0.08,0.12-0.17,0.2-0.24,0.28
			c-0.01,0.01-0.02,0.02-0.03,0.03c-0.06,0.26-0.22,0.46-0.33,0.62c-0.04,0.05-0.07,0.09-0.1,0.14c-0.04,0.07-0.1,0.13-0.16,0.2
			c-0.1,0.46-0.43,0.72-0.66,0.91c-0.07,0.06-0.15,0.11-0.21,0.18c-0.02,0.02-0.06,0.1-0.09,0.16c-0.07,0.13-0.14,0.27-0.24,0.4
			c-0.08,0.11-0.16,0.18-0.22,0.22c-0.09,0.19-0.22,0.41-0.38,0.61c-0.1,0.12-0.17,0.23-0.25,0.34c-0.11,0.17-0.24,0.35-0.38,0.52
			c-0.08,0.1-0.19,0.2-0.3,0.31c-0.06,0.06-0.13,0.12-0.18,0.18c-0.11,0.13-0.22,0.28-0.32,0.43c-0.17,0.24-0.35,0.49-0.57,0.7
			l-0.08,0.08c-0.21,0.21-0.26,0.26-0.4,0.32c-0.05,0.02-0.1,0.04-0.15,0.04c-0.05,0.11-0.13,0.21-0.23,0.3
			c-0.16,0.14-0.34,0.26-0.51,0.38c-0.07,0.04-0.14,0.09-0.2,0.14c-0.05,0.12-0.14,0.26-0.3,0.37c-0.08,0.05-0.15,0.09-0.23,0.11
			c-0.01,0-0.01,0.01-0.02,0.01c-0.16,0.11-0.3,0.16-0.39,0.2c-0.07,0.03-0.09,0.06-0.11,0.08c-0.08,0.09-0.16,0.18-0.28,0.28
			c-0.03,0.03-0.07,0.07-0.1,0.11c-0.1,0.11-0.2,0.22-0.33,0.3c-0.21,0.13-0.42,0.15-0.57,0.17c-0.05,0.04-0.1,0.07-0.15,0.1
			c-0.06,0.09-0.16,0.18-0.29,0.25c-0.17,0.09-0.32,0.12-0.45,0.13c-0.04,0.06-0.09,0.11-0.16,0.16c-0.08,0.06-0.17,0.1-0.25,0.13
			c-0.06,0.04-0.12,0.07-0.18,0.1c-0.09,0.05-0.27,0.08-0.45,0.12c-0.03,0.01-0.07,0.01-0.11,0.02c-0.08,0.13-0.19,0.26-0.39,0.33
			c-0.15,0.06-0.33,0.09-0.5,0.12c-0.06,0.01-0.13,0.02-0.17,0.03c-0.04,0.01-0.08,0.03-0.11,0.04c-0.12,0.05-0.29,0.12-0.51,0.13
			c-0.36,0.2-0.75,0.35-1.16,0.43c-0.39,0.14-0.8,0.23-1.22,0.26c-0.21,0-0.38,0.03-0.55,0.09c-0.08,0.02-0.15,0.03-0.21,0.04
			c-0.27,0.15-0.58,0.19-0.86,0.23c-0.16,0.02-0.43,0.06-0.5,0.11l-0.29,0.35l-0.43-0.12c-0.58-0.13-1.18-0.05-1.82,0.03
			C100.01,99.8,99.57,99.85,99.1,99.85z M97.1,97.99c0.05,0,0.11,0,0.17,0.01c0.23,0.03,0.43,0.11,0.59,0.18
			c0.06,0.03,0.13,0.06,0.19,0.07c0.27,0.05,0.55,0.09,0.84,0.1c0.44,0.03,0.88-0.03,1.36-0.1c0.63-0.08,1.28-0.17,1.98-0.07
			c0.34-0.2,0.74-0.26,1.05-0.3c0.1-0.01,0.25-0.04,0.33-0.06c0.23-0.2,0.49-0.2,0.64-0.2c0.26-0.07,0.52-0.11,0.79-0.11
			c0.25-0.02,0.55-0.08,0.82-0.19l0.13-0.04c0.33-0.06,0.64-0.18,0.92-0.37l0.32-0.21l0.23,0.09c0.11-0.04,0.18-0.07,0.27-0.09
			c0.08-0.02,0.18-0.04,0.29-0.06c0.05-0.07,0.11-0.13,0.19-0.19c0.19-0.15,0.47-0.21,0.72-0.26c0.09-0.1,0.2-0.16,0.32-0.2
			c0.06-0.07,0.14-0.14,0.25-0.19c0.19-0.09,0.37-0.12,0.51-0.13c0.02-0.02,0.04-0.05,0.06-0.07l0.01-0.05l0.38-0.23
			c0.21-0.1,0.42-0.13,0.57-0.14c0.08-0.09,0.17-0.18,0.24-0.24c0.05-0.04,0.08-0.08,0.12-0.12c0.08-0.09,0.16-0.17,0.25-0.25
			c0.12-0.09,0.23-0.15,0.32-0.19c0.01-0.01,0.01-0.02,0.02-0.03c0.09-0.11,0.22-0.22,0.39-0.28c0.03-0.04,0.07-0.07,0.11-0.1
			c0.14-0.12,0.3-0.22,0.45-0.32c0.08-0.06,0.17-0.11,0.25-0.17c0.06-0.18,0.15-0.4,0.36-0.58c0.18-0.15,0.38-0.19,0.54-0.19
			l0.01-0.01c0.12-0.11,0.25-0.29,0.38-0.49c0.13-0.18,0.25-0.36,0.4-0.53c0.1-0.11,0.21-0.22,0.31-0.31
			c0.06-0.05,0.11-0.1,0.15-0.15c0.12-0.14,0.21-0.29,0.3-0.42c0.11-0.16,0.21-0.3,0.3-0.42c0.08-0.12,0.18-0.28,0.26-0.44
			c0.15-0.26,0.29-0.37,0.36-0.42c-0.01,0,0.02-0.07,0.05-0.13c0.07-0.13,0.15-0.3,0.28-0.46c0.12-0.14,0.26-0.26,0.41-0.38
			c0.04-0.04,0.1-0.08,0.14-0.12c0.05-0.29,0.23-0.5,0.33-0.61c0.06-0.08,0.12-0.17,0.19-0.26c0.02-0.03,0.05-0.06,0.07-0.09
			c0.06-0.36,0.31-0.6,0.45-0.73c0.15-0.21,0.23-0.47,0.25-0.72l0.03-0.39l0.34-0.2c0.08-0.05,0.16-0.11,0.22-0.18
			c0.03-0.36,0.22-0.59,0.32-0.72c0.19-0.27,0.36-0.41,0.48-0.51c0.02-0.01,0.03-0.03,0.05-0.04c0.06-0.13,0.11-0.26,0.15-0.4
			l0.04-0.1c0.05-0.12,0.13-0.2,0.2-0.27c0.02-0.12,0.05-0.22,0.09-0.31c-0.01-0.14-0.04-0.27-0.08-0.4l-0.15-0.43l0.31-0.33
			c0.09-0.1,0.15-0.24,0.16-0.37l0.01-0.11c0.03-0.14,0.03-0.3,0.04-0.46c0.01-0.49,0.03-1.24,0.7-1.6l0.23-0.12l0.26,0.05
			c0.74,0.14,1.5,0.22,2.25,0.22c0,0,0.12-0.05,0.2-0.08c0.16-0.06,0.33-0.13,0.53-0.15c0.27-0.04,0.48-0.02,0.63,0.01
			c0.17-0.04,0.34-0.03,0.44-0.02c0.02-0.01,0.12-0.03,0.22-0.04c0.04-0.01,0.08-0.01,0.12-0.02l0.01-0.03l0.42-0.13
			c0.32-0.08,0.66-0.15,1-0.2l0-0.01l0.18-0.06l-0.09-0.31l0.97-0.04c0.05,0,0.11,0,0.17,0l0.25-0.09c0.1-0.03,0.23-0.05,0.35-0.07
			c0.03,0,0.06-0.01,0.09-0.01c0.01-0.01,0.02-0.02,0.03-0.04c0.1-0.12,0.22-0.2,0.37-0.24c0.19-0.15,0.41-0.16,0.56-0.16
			c0.07-0.03,0.14-0.07,0.21-0.12c0.08-0.14,0.23-0.39,0.59-0.53l0.15-0.06l0.08,0c0.11-0.11,0.22-0.17,0.33-0.2
			c0.11-0.09,0.24-0.14,0.38-0.15c0.06-0.07,0.13-0.13,0.18-0.18c0.04-0.04,0.09-0.09,0.14-0.14c0.07-0.08,0.14-0.15,0.2-0.2
			c0.91-0.82,1.66-1.53,2.35-2.23l0.14-0.14l0.19-0.05c0.02,0,0.09-0.06,0.13-0.09c0.11-0.09,0.27-0.21,0.5-0.3
			c0.1-0.13,0.2-0.23,0.27-0.29c0.22-0.23,0.4-0.41,0.58-0.58c0.21-0.17,0.41-0.3,0.62-0.42c0.15-0.09,0.45-0.27,0.46-0.34
			c0.05-0.23,0.19-0.56,0.59-0.69c0.05-0.1,0.11-0.2,0.19-0.29c0.22-0.24,0.44-0.45,0.65-0.65c0.19-0.18,0.37-0.36,0.54-0.54
			c0.15-0.16,0.26-0.33,0.34-0.51l0.06-0.13l0.1-0.1c0.09-0.09,0.19-0.18,0.29-0.26c0.03-0.16,0.08-0.32,0.15-0.47
			c0.01-0.03,0.08-0.23,0.3-0.38c0-0.02,0.01-0.03,0.01-0.05c0.04-0.2,0.09-0.39,0.14-0.57c0.06-0.15,0.13-0.25,0.2-0.33l0-0.02
			l0-0.06c0.01-0.23,0.1-0.42,0.25-0.57c0.06-0.19,0.1-0.36,0.11-0.54l0.03-0.31l0.24-0.2c0.19-0.15,0.28-0.74,0.35-1.13
			c0.04-0.22,0.07-0.43,0.12-0.61c0.02-0.09,0.07-0.19,0.14-0.29c0.01-0.16,0.01-0.33,0.02-0.49c0.01-0.32,0.01-0.65,0.08-0.97
			c0.05-0.25,0.13-0.42,0.22-0.55l0-0.07l0.02-0.09c0.13-0.67,0.1-1.37-0.1-2.02l-0.25-0.81l0.45-0.08c0-0.02,0.01-0.04,0.01-0.07
			c0.18-1.04,0.23-2.11,0.13-3.17c-0.12-0.12-0.26-0.31-0.26-0.61c0-0.22,0.08-0.39,0.18-0.51c-0.01-0.11-0.05-0.29-0.14-0.59
			c-0.05-0.21-0.07-0.29-0.1-0.41c-0.1-0.11-0.24-0.28-0.28-0.53l-0.08-0.43c-0.08-0.13-0.16-0.29-0.17-0.49
			c-0.02-0.03-0.04-0.06-0.05-0.08c-0.09-0.2-0.1-0.39-0.09-0.54l-0.14,0.03l-0.18-0.72c-0.05-0.2-0.13-0.39-0.24-0.57
			c-0.07-0.09-0.11-0.2-0.14-0.31c-0.08-0.09-0.14-0.18-0.18-0.27c-0.1-0.06-0.2-0.14-0.29-0.27c-0.15-0.22-0.28-0.45-0.4-0.69
			c-0.05-0.09-0.09-0.19-0.15-0.28c-0.36-0.24-0.71-0.52-1.03-0.82c0,0.01-0.06-0.02-0.11-0.05c-0.13-0.07-0.3-0.15-0.46-0.29
			c-0.07-0.06-0.12-0.12-0.16-0.19c-0.13-0.03-0.23-0.1-0.29-0.14c-0.1-0.08-0.17-0.17-0.22-0.27l-0.04-0.02
			c-0.11-0.06-0.19-0.12-0.27-0.18c-0.03-0.02-0.06-0.04-0.09-0.06c-0.94-0.2-1.01-0.84-0.98-1.21l0.1-0.97l0.63,0.24
			c0.06-0.05,0.12-0.12,0.19-0.19l0.26-0.26c0.01-0.01,0.02-0.02,0.04-0.03c0.05-0.2,0.19-0.44,0.53-0.6
			c0.06-0.15,0.12-0.27,0.22-0.39c0.23-0.24,0.45-0.41,0.7-0.54l0.01-0.01c0.07-0.2,0.2-0.37,0.4-0.51c0.01-0.14,0.03-0.29,0.1-0.45
			c0.07-0.15,0.17-0.25,0.27-0.32c0.02-0.07,0.04-0.16,0.08-0.26c0.07-0.18,0.18-0.31,0.24-0.39c0.08-0.16,0.18-0.26,0.26-0.34
			c0.02-0.12,0.05-0.25,0.11-0.39c0.01-0.02,0.02-0.06,0.03-0.1c0.05-0.15,0.13-0.4,0.31-0.62c0-0.2,0.03-0.4,0.08-0.6
			c0.08-0.22,0.2-0.33,0.29-0.41c0.02-0.06,0.04-0.15,0.05-0.23l0.03-0.1c0.06-0.19,0.11-0.41,0.15-0.6l0.07-0.3
			c0.02-0.09,0.07-0.22,0.17-0.34c0.08-0.38,0.14-0.8,0.17-1.21l0.03-0.16c0.08-0.26,0.15-0.53,0.2-0.8c0-0.5-0.04-1-0.11-1.49
			l-0.1-0.7l0.1-0.02c0-0.01,0-0.01,0-0.02c-0.01-0.09-0.03-0.19-0.05-0.29c-0.04-0.22-0.07-0.44-0.08-0.61
			c-0.01-0.27,0.05-0.52,0.09-0.72c0.02-0.08,0.04-0.2,0.04-0.24c0.12,0.54,0.7,0.48,0.71,0.48l-0.04-0.35
			c-0.24-0.02-0.46-0.16-0.6-0.34l-0.2,0.01c0-0.04,0-0.08,0-0.11V28.5c-0.04-0.25-0.02-0.45,0-0.59c0.01-0.07-0.04-0.15-0.08-0.2
			c-0.08-0.13-0.18-0.28-0.24-0.48c-0.06-0.19-0.06-0.36-0.05-0.49c0,0-0.01-0.01-0.01-0.01c-0.16-0.12-0.25-0.26-0.29-0.38
			c-0.09-0.24-0.05-0.45,0.01-0.61c-0.07-0.11-0.11-0.22-0.15-0.3c-0.01-0.02-0.01-0.03-0.02-0.05c-0.09-0.07-0.2-0.17-0.28-0.32
			c-0.1-0.18-0.13-0.38-0.15-0.5c-0.29-0.4-0.51-0.84-0.67-1.31c-0.35-0.28-0.65-0.6-0.92-0.96c-0.1-0.14-0.15-0.28-0.17-0.39
			c-0.06-0.05-0.13-0.12-0.19-0.21c-0.21-0.32-0.44-0.58-0.71-0.82c-0.04-0.03-0.08-0.07-0.12-0.12l-0.3-0.07l-0.09-0.31
			c-0.44-0.44-0.66-0.7-0.76-0.93c-0.06-0.04-0.11-0.07-0.15-0.1c-0.09-0.08-0.15-0.17-0.2-0.26c-0.14-0.05-0.28-0.12-0.42-0.23
			c-0.14-0.12-0.23-0.25-0.3-0.35c-0.18-0.06-0.32-0.18-0.41-0.33c-0.23-0.18-0.44-0.35-0.63-0.54c-0.11-0.09-0.26-0.25-0.39-0.4
			c-0.03-0.03-0.05-0.06-0.08-0.09c-0.13-0.03-0.28-0.07-0.43-0.19c-0.08-0.06-0.14-0.14-0.19-0.21c-0.09-0.03-0.18-0.07-0.27-0.14
			c-0.1-0.07-0.21-0.18-0.32-0.29c-0.02-0.02-0.04-0.04-0.06-0.07c-0.25-0.06-0.44-0.19-0.56-0.27c-0.18-0.1-0.31-0.18-0.44-0.26
			c-0.07-0.04-0.14-0.09-0.21-0.13c-0.06,0-0.19-0.03-0.35-0.12c-0.14-0.08-0.23-0.17-0.29-0.25c-0.07-0.01-0.2-0.04-0.34-0.13
			c-0.12-0.07-0.2-0.16-0.26-0.23c-0.06-0.01-0.17-0.04-0.29-0.1c-0.15-0.09-0.24-0.18-0.3-0.25c-0.11-0.03-0.18-0.06-0.25-0.08
			l-0.34-0.17c-0.09,0-0.23-0.01-0.37-0.07c-0.18-0.08-0.3-0.21-0.39-0.31c-0.05-0.02-0.09-0.04-0.14-0.06
			c-0.13-0.06-0.24-0.11-0.31-0.16c-0.1-0.05-0.47-0.06-0.68-0.06c-0.28-0.01-0.56-0.01-0.84-0.07l-0.34-0.07l-0.08-0.15
			c-0.01,0-0.01,0-0.02-0.01c-0.09,0.01-0.21,0-0.34-0.04c-0.23-0.09-0.43-0.16-0.62-0.21c-0.06,0-0.13,0-0.19,0
			c-0.12-0.01-0.24-0.03-0.34-0.07c-0.12,0.04-0.26,0.07-0.43,0.07c-0.2,0-0.35-0.06-0.46-0.12l-0.04,0.01
			c-0.1,0.04-0.24,0.1-0.43,0.11c-0.11,0-0.21-0.01-0.3-0.03c-0.01,0-0.02,0-0.03,0.01l-0.11,0.02c-0.21,0.02-0.41,0.03-0.62,0.02
			c-0.22,0.12-0.52,0.13-0.75,0.03c-0.21,0.04-0.42,0.09-0.63,0.16l-0.13,0.04l-0.17-0.01c-0.15,0.06-0.31,0.09-0.45,0.1l-0.13,0.07
			c-0.33,0.13-0.63,0.22-0.94,0.28c-0.26,0.09-0.52,0.14-0.8,0.15l-0.52,0.01l-0.19-0.49c-0.03-0.08-0.08-0.16-0.12-0.23
			c-0.06-0.11-0.13-0.23-0.19-0.38l-0.17-0.33c-0.08-0.22-0.11-0.4-0.13-0.57c-0.01-0.09-0.03-0.22-0.05-0.26l-0.09-0.09
			c-0.27-0.37-0.42-0.79-0.58-1.2c-0.11-0.29-0.21-0.56-0.34-0.77c-0.42-0.2-0.52-0.53-0.53-0.76c-0.03-0.05-0.14-0.16-0.2-0.22
			c-0.09-0.09-0.19-0.18-0.27-0.29c-0.06-0.09-0.1-0.17-0.12-0.25c-0.1-0.08-0.19-0.18-0.27-0.29c-0.04-0.06-0.08-0.13-0.11-0.2
			c-0.13-0.08-0.26-0.19-0.38-0.35c-0.11-0.03-0.23-0.07-0.36-0.16c-0.15-0.1-0.24-0.23-0.3-0.33c-0.1-0.03-0.21-0.08-0.32-0.16
			c-0.07-0.05-0.13-0.12-0.19-0.2c-0.01-0.01-0.02-0.02-0.04-0.02c-0.17-0.14-0.27-0.24-0.36-0.35c-0.11-0.1-0.27-0.23-0.45-0.34
			c-0.17-0.08-0.4-0.22-0.61-0.37c-0.1-0.08-0.18-0.12-0.26-0.17l-0.08-0.05c-0.1-0.07-0.18-0.15-0.24-0.22
			c-0.09-0.02-0.21-0.05-0.33-0.13c-0.11-0.06-0.19-0.15-0.26-0.22c-0.1-0.01-0.22-0.03-0.36-0.09l-0.3-0.12l-0.11-0.3
			c-0.01-0.02-0.02-0.05-0.03-0.07c-0.18-0.07-0.31-0.19-0.4-0.28l-0.65,0.34l-0.2-0.69c-0.08,0-0.17-0.01-0.26-0.04
			c-0.19-0.06-0.32-0.16-0.42-0.26c-0.01,0-0.02,0-0.04,0c-0.17-0.01-0.38-0.03-0.62-0.1c-0.14-0.04-0.29-0.09-0.44-0.15l-0.18-0.06
			c-0.08,0.01-0.19,0-0.3-0.02c-0.23-0.06-0.37-0.15-0.48-0.24c-0.34-0.05-0.69-0.09-1.04-0.1c-1.23-0.08-2.47-0.04-3.69,0.12
			c-0.09,0.01-0.21,0.03-0.34,0.04c-0.03,0-0.06,0.01-0.09,0.01c-0.18,0.16-0.38,0.2-0.54,0.2c-0.1,0.09-0.24,0.18-0.42,0.22
			c-0.23,0.22-0.49,0.26-0.65,0.24l-0.29-0.01c-0.07,0.02-0.13,0.02-0.19,0.02c-0.09,0.08-0.19,0.16-0.33,0.2
			c-0.14,0.04-0.27,0.06-0.41,0.08c-0.07,0.01-0.13,0.02-0.16,0.03c-0.14,0.05-0.28,0.11-0.41,0.16l-0.16,0.07
			c-0.59,0.33-1.28,0.6-2.01,0.79c-0.22,0.28-0.53,0.4-0.68,0.45c-0.08,0.1-0.2,0.22-0.39,0.31c-0.14,0.06-0.27,0.08-0.37,0.09
			c-0.08,0.08-0.15,0.14-0.22,0.21c-0.07,0.07-0.14,0.13-0.19,0.19c-0.15,0.21-0.37,0.37-0.61,0.46c-0.06,0.09-0.12,0.18-0.22,0.26
			c-0.34,0.25-0.67,0.43-1.01,0.58c-0.07,0.03-0.16,0.1-0.23,0.18c-0.13,0.13-0.27,0.2-0.38,0.24c-0.03,0.05-0.08,0.11-0.13,0.16
			c-0.17,0.16-0.35,0.21-0.49,0.24c-0.1,0.09-0.2,0.2-0.3,0.31c-0.04,0.05-0.09,0.09-0.14,0.14c-0.02,0.11-0.07,0.24-0.16,0.38
			c-0.07,0.11-0.15,0.19-0.22,0.24c-0.13,0.58-0.63,0.68-0.84,0.69l-0.27,0.01l-0.22-0.16c-0.31-0.23-0.53-0.5-0.68-0.71
			c-0.04-0.05-0.07-0.09-0.1-0.13c-0.07-0.07-0.13-0.17-0.17-0.29c-0.13-0.09-0.26-0.23-0.34-0.44l-0.08-0.23l0-0.02
			c-0.02-0.03-0.03-0.07-0.04-0.11c-0.07-0.08-0.14-0.16-0.2-0.27c-0.07-0.15-0.17-0.27-0.29-0.37c-0.18-0.17-0.25-0.31-0.3-0.4
			L86.07,6.3c-0.16-0.15-0.31-0.3-0.45-0.46c-0.12-0.15-0.25-0.28-0.39-0.39C85.12,5.36,85,5.2,84.97,4.97
			c-0.07-0.06-0.16-0.12-0.25-0.18l-0.12-0.1c-0.04-0.04-0.08-0.08-0.11-0.13c-0.2-0.1-0.34-0.27-0.4-0.46
			c-0.07-0.06-0.13-0.12-0.17-0.19c-0.26-0.08-0.59-0.2-0.83-0.47C83,3.39,82.92,3.32,82.86,3.23c-0.19-0.05-0.39-0.18-0.57-0.45
			c-0.11,0-0.24-0.03-0.37-0.1c-0.14-0.07-0.24-0.15-0.3-0.2c-0.17-0.04-0.3-0.07-0.46-0.13c-0.11-0.04-0.23-0.1-0.34-0.17
			c-0.05-0.03-0.1-0.06-0.14-0.07c-0.18-0.04-0.3-0.06-0.45-0.11L80.1,1.95c-0.14-0.08-0.3-0.13-0.46-0.15
			c-0.11,0-0.26-0.05-0.39-0.15c-0.69-0.07-1.38-0.1-2.06-0.08C77.11,1.61,77,1.66,76.88,1.68c-0.11,0.02-0.21,0.02-0.29,0
			L76.3,1.69c-0.17,0-0.34,0.03-0.5,0.08l-0.88,0.28l-0.04-0.4c-0.08-0.02-0.16-0.04-0.24-0.07c-0.01,0-0.02,0-0.02-0.01
			c-0.93,0.38-1.94,0.58-2.95,0.59c-0.16,0.23-0.39,0.49-0.8,0.57c-0.21,0.07-0.41,0.12-0.61,0.17c-0.08,0.02-0.16,0.04-0.23,0.06
			c-0.07,0.12-0.18,0.23-0.34,0.31c-0.2,0.09-0.38,0.11-0.53,0.12c-0.19,0.25-0.38,0.4-0.56,0.48c-0.14,0.32-0.38,0.45-0.56,0.5
			c-0.06,0.04-0.15,0.17-0.22,0.27c-0.1,0.14-0.2,0.29-0.35,0.42c-0.11,0.1-0.22,0.15-0.31,0.19c-0.13,0.15-0.27,0.28-0.41,0.41l0,0
			c0.01,0-0.08,0.09-0.17,0.18c-0.09,0.09-0.24,0.24-0.32,0.34c-0.05,0.19-0.17,0.35-0.32,0.45c-0.01,0.03-0.02,0.05-0.03,0.07
			c-0.03,0.1-0.08,0.25-0.2,0.39c-0.02,0.06-0.05,0.13-0.07,0.19L65.6,7.39c-0.08,0.15-0.2,0.25-0.28,0.32
			c-0.01,0.01-0.02,0.03-0.04,0.05C65.26,7.96,65.2,8.2,65,8.39c-0.06,0.06-0.13,0.1-0.19,0.14c-0.04,0.07-0.09,0.15-0.16,0.22
			c-0.67,0.71-1.24,0.52-1.53,0.35c-0.34-0.24-0.49-0.53-0.6-0.75c-0.03-0.06-0.06-0.12-0.1-0.18c-0.07-0.1-0.18-0.21-0.29-0.29
			c-0.05-0.04-0.1-0.09-0.13-0.13c-0.02-0.01-0.05-0.02-0.08-0.03c-0.2-0.08-0.32-0.23-0.39-0.32c0-0.01-0.01-0.01-0.01-0.01
			c-0.08-0.05-0.17-0.08-0.26-0.1l-0.33-0.05l-0.18-0.28c-0.08-0.12-0.16-0.23-0.25-0.34c-0.15-0.02-0.32-0.06-0.49-0.17
			c-0.19-0.13-0.29-0.31-0.36-0.43c-0.19-0.11-0.4-0.21-0.61-0.3c-0.2-0.04-0.37-0.15-0.48-0.29c-0.15-0.07-0.32-0.14-0.5-0.19
			c-0.07-0.02-0.16-0.03-0.24-0.05c-0.12-0.02-0.23-0.04-0.33-0.06c-0.33-0.05-0.7-0.16-1.06-0.33C56.3,4.8,56.15,4.78,56,4.71
			l-0.18-0.09c-0.02-0.01-0.04-0.02-0.06-0.03c-0.03-0.02-0.06-0.03-0.09-0.05l-0.14-0.07l0-0.01c-0.07-0.04-0.13-0.09-0.2-0.14
			c-0.43-0.01-0.86-0.05-1.27-0.13c-0.18-0.01-0.36-0.1-0.49-0.24c-0.17,0-0.35,0-0.53,0.01c-0.12,0-0.22-0.02-0.3-0.05
			c-0.1,0.03-0.23,0.05-0.38,0.05c-0.21-0.01-0.36-0.08-0.46-0.15c-0.64-0.06-1.36,0.03-2.03,0.27l-0.25,0.31l-0.58-0.25
			c-0.01-0.01-0.02-0.01-0.03-0.02c-0.03,0-0.06,0-0.08,0.01c-0.19,0.02-0.38,0.03-0.49,0.05c0.17-0.04,0.28-0.14,0.33-0.26
			c-0.1-0.11-0.17-0.25-0.2-0.4l-0.44,0.05l0,0.19l0.14,0.09c-0.04,0.08-0.09,0.14-0.14,0.19l0.01,0.29c-0.02,0-0.04,0-0.06,0
			l-0.55,0.06l-0.41,0.15C46.89,4.59,46.68,4.6,46.5,4.6c-0.05,0-0.1,0-0.14,0.01c-0.12,0.09-0.24,0.13-0.32,0.15
			c-0.07,0.02-0.14,0.04-0.2,0.07l-0.3,0.15c-0.17,0.06-0.34,0.1-0.51,0.14c-0.05,0.01-0.12,0.03-0.18,0.04
			c-0.07,0.08-0.14,0.15-0.22,0.21c-0.08,0.05-0.16,0.1-0.23,0.13c-0.12,0.16-0.27,0.27-0.46,0.33c-0.06,0.07-0.14,0.16-0.26,0.25
			c-0.14,0.1-0.28,0.15-0.39,0.17c-0.03,0.03-0.07,0.06-0.12,0.09C43,6.43,42.89,6.52,42.78,6.62l-0.18,0.51L42.2,7.16
			c-0.03,0.04-0.05,0.08-0.08,0.11c-0.09,0.11-0.24,0.23-0.47,0.26c-0.06,0.08-0.13,0.17-0.2,0.27c-0.14,0.21-0.32,0.33-0.47,0.39
			c-0.06,0.11-0.15,0.19-0.25,0.26c-0.03,0.04-0.07,0.09-0.1,0.13c-0.05,0.06-0.12,0.14-0.13,0.17l0.01,0.38l-0.28,0.16
			c-0.4,0.31-0.67,0.75-0.78,1.24c0.01,0.33-0.12,0.61-0.38,0.83l0,0.02c-0.08,0.32-0.11,0.65-0.1,0.98l0.01,0.2l-0.09,0.18
			c-0.31,0.62-0.42,1.34-0.29,2.02c0.04,0.1,0.09,0.21,0.12,0.37c0.07,0.37,0.07,0.76,0.08,1.1c0,0.15,0.01,0.33,0.02,0.44
			c0.07,0.08,0.14,0.17,0.2,0.3c0.09,0.19,0.11,0.36,0.13,0.46c0.03,0.09,0.07,0.15,0.11,0.2c0.15,0.23,0.4,0.61,0.3,1.12
			l-0.15,0.72l-0.65-0.12c-0.09,0.01-0.22,0.01-0.36-0.03c-0.02-0.01-0.04-0.01-0.06-0.02c-0.1,0.03-0.22,0.05-0.37,0.05
			c-1.1-0.12-2.15-0.16-3.2-0.12c-0.03,0.01-0.06,0.03-0.09,0.05c-0.13,0.06-0.29,0.15-0.48,0.18c-0.28,0.02-0.47,0.02-0.66,0.01
			c-0.08,0.01-0.26,0.07-0.46,0.12c-0.31,0.09-0.67,0.2-1.08,0.17c-0.12,0.07-0.24,0.12-0.34,0.17c-0.04,0.02-0.08,0.03-0.11,0.05
			c-0.1,0.05-0.19,0.11-0.28,0.16c-0.11,0.07-0.22,0.14-0.33,0.2c-0.2,0.1-0.39,0.15-0.55,0.19c-0.03,0.01-0.06,0.01-0.09,0.02
			c-0.08,0.09-0.18,0.19-0.33,0.27c-0.15,0.07-0.28,0.1-0.35,0.12c-0.15,0.08-0.37,0.21-0.53,0.31c-0.28,0.19-0.58,0.39-0.77,0.56
			c-0.24,0.25-0.58,0.45-0.96,0.56c-0.16,0.19-0.34,0.33-0.48,0.44c-0.06,0.05-0.12,0.09-0.17,0.13c-0.02,0.09-0.05,0.2-0.12,0.32
			c-0.07,0.13-0.16,0.21-0.23,0.28c-0.03,0.12-0.07,0.26-0.18,0.41c-0.07,0.09-0.15,0.16-0.22,0.23c-0.07,0.08-0.14,0.15-0.2,0.2
			c-0.01,0.09-0.06,0.24-0.17,0.4c-0.08,0.12-0.18,0.2-0.28,0.25c-0.06,0.23-0.17,0.38-0.29,0.47c-0.1,0.1-0.22,0.17-0.36,0.21
			c-0.09,0.14-0.21,0.23-0.32,0.29l-0.1,0.14c-0.03,0.04-0.09,0.1-0.17,0.15c-0.08,0.13-0.19,0.21-0.29,0.27
			c-0.04,0.14-0.08,0.27-0.16,0.41c-0.06,0.1-0.15,0.22-0.25,0.33c0,0-0.01,0.01-0.01,0.01c0.01,0.1,0,0.22-0.04,0.34
			c-0.07,0.21-0.19,0.33-0.3,0.43c-0.05,0.19-0.14,0.46-0.36,0.67c-0.09,0.3-0.19,0.59-0.31,0.88l-0.21,0.53l-0.04,0l-0.23,0.48
			l-0.01,0l-0.06,0.14c-0.03,0.17-0.09,0.32-0.19,0.44c-0.05,0.15-0.12,0.31-0.21,0.47c-0.03,0.13-0.08,0.33-0.08,0.33
			c-0.15,0.46-0.22,0.86-0.22,1.27c-0.01,0.21-0.04,0.38-0.08,0.54c-0.02,0.1-0.04,0.22-0.04,0.27c0,0.13,0.03,0.26,0.05,0.4
			c0.04,0.23,0.07,0.46,0.07,0.69c0,0.21-0.03,0.44-0.06,0.7c-0.03,0.27-0.1,0.79-0.04,0.93c0.14,0.09,0.37,0.41,0.15,0.95
			c0.06,0.09,0.12,0.19,0.16,0.33c0.07,0.26,0.05,0.49,0.03,0.64c0.29,0.37,0.45,0.82,0.48,1.29c0.06,0.1,0.1,0.19,0.12,0.25
			c0.1,0.07,0.24,0.18,0.36,0.37c0.08,0.13,0.12,0.26,0.15,0.37c0.06,0.04,0.12,0.1,0.17,0.17c0.11,0.15,0.17,0.31,0.19,0.44
			c0.06,0.04,0.11,0.09,0.16,0.16c0.03,0.04,0.06,0.09,0.08,0.13c0.08,0.04,0.16,0.09,0.22,0.16c0.09,0.1,0.15,0.2,0.18,0.3
			c0.02,0.01,0.03,0.03,0.05,0.04c0.13,0.14,0.27,0.24,0.39,0.33c0.11,0.08,0.21,0.16,0.29,0.24c0.07,0.06,0.15,0.14,0.21,0.22
			c0.04,0.04,0.07,0.08,0.09,0.09c0.05,0.04,0.15,0.08,0.24,0.11c0.16,0.06,0.34,0.13,0.51,0.27c0.06,0.05,0.12,0.11,0.16,0.18
			c0.16,0.09,0.26,0.25,0.31,0.37c0.11,0.02,0.23,0.06,0.34,0.15l0.09,0.08c0.09,0.09,0.17,0.19,0.25,0.29
			c0.19,0.04,0.4,0.13,0.56,0.36c0.1,0.14,0.23,0.45,0.05,0.87l-0.19,0.44l-0.48,0.02c-0.01,0-0.06,0.04-0.1,0.06
			c-0.13,0.08-0.32,0.21-0.59,0.27c-0.14,0.16-0.29,0.28-0.42,0.38c-0.07,0.05-0.13,0.1-0.2,0.16c-0.06,0.05-0.1,0.11-0.16,0.18
			c-0.15,0.18-0.36,0.42-0.67,0.59c0,0,0,0.01-0.01,0.01c-0.14,0.26-0.36,0.68-0.8,0.92c-0.04,0.11-0.1,0.21-0.16,0.3
			c-0.01,0.09-0.03,0.2-0.08,0.31l-0.1,0.19c0,0.01-0.01,0.02-0.01,0.03l-0.23,0.49l-0.01,0l-0.22,0.5l-0.02,0l-0.03,0.04
			c-0.16,0.26-0.29,0.55-0.38,0.84c-0.04,0.23-0.17,0.42-0.34,0.54c-0.15,0.25-0.23,0.5-0.24,0.77c0,0.07-0.02,0.23-0.12,0.4
			c0,0.04,0,0.07,0,0.11c-0.01,0.18-0.05,0.33-0.13,0.47c0,0.02,0,0.04,0,0.06c0.01,0.13,0.01,0.27,0,0.4
			c-0.01,0.19-0.04,0.34-0.08,0.5c-0.02,0.08-0.04,0.15-0.04,0.24c-0.01,0.11-0.01,0.2-0.01,0.27c0,0.1,0,0.21-0.02,0.33l0.02,0
			c0.03,0.13,0.04,0.27,0.02,0.4v0.38c-0.01,0.16-0.05,0.3-0.12,0.42c0,0.54,0.04,1.08,0.12,1.61c0.01,0.17,0.01,0.28,0.01,0.39
			c0,0.05,0,0.11,0,0.16c-0.02-0.36-0.25-0.58-0.66-0.59l0.02,0.74l0.75-0.01c0,0.02,0,0.04,0,0.05l-0.05,0.7
			c0.01,0.04,0.03,0.08,0.04,0.12c0.14,0.14,0.2,0.31,0.22,0.41c0.04,0.14,0.04,0.28,0.02,0.42c0.02,0.12,0.01,0.24,0,0.31
			c0.08,0.5,0.21,0.96,0.41,1.4l0.36,0.8l-0.28,0.08c0.16,0.25,0.17,0.5,0.18,0.67c0,0.01,0,0.02,0,0.02l0.17,0.26
			c0.24,0.34,0.42,0.75,0.53,1.18c0.28,0.24,0.52,0.54,0.68,0.88c0.02,0.03,0.04,0.06,0.07,0.09c0.1,0.13,0.22,0.28,0.3,0.47
			l0.12,0.17c0.07,0.13,0.1,0.25,0.12,0.33c0.14,0.11,0.26,0.22,0.35,0.37c0.09,0.16,0.12,0.31,0.12,0.45
			c0.04,0.04,0.07,0.08,0.1,0.12c0.06,0.09,0.09,0.16,0.12,0.24c0.13,0.2,0.3,0.4,0.49,0.59c0.34,0.29,0.68,0.63,1,1l0.03,0.04
			c0.15,0.07,0.33,0.16,0.47,0.36c0.05,0.06,0.09,0.13,0.11,0.19c0.11,0.07,0.2,0.17,0.26,0.28c0.37,0.32,0.67,0.65,0.94,1
			c0.15,0.07,0.35,0.18,0.49,0.39c0.09,0.06,0.18,0.13,0.25,0.22c0.19,0.05,0.34,0.11,0.52,0.31c0.09,0.09,0.15,0.12,0.22,0.15
			c0.1,0.05,0.23,0.11,0.37,0.21c0.11,0.09,0.19,0.17,0.25,0.25c0.48,0.05,0.7,0.3,0.8,0.55c0.33,0.28,0.74,0.46,1.18,0.49
			l0.45,0.04l0.18,0.42c0.03,0.03,0.22,0.09,0.33,0.13l0.19,0.06c0.12,0.04,0.28,0.07,0.45,0.09c0.31,0.05,0.61,0.11,0.85,0.23
			l0.15,0c0.11,0.02,0.24,0.03,0.38,0.05c0.31,0.03,0.62,0.07,0.87,0.17c0.09,0,0.2,0.01,0.31,0.06c0.23,0.07,0.52,0.14,0.82,0.2
			c0.04,0.01,0.08,0.02,0.12,0.04c0.22-0.07,0.59-0.04,0.77,0.05c0.14-0.09,0.66-0.11,0.87,0.02c0.27-0.03,0.56,0.03,0.87,0.3
			l0.62,0.54l-0.47,0.44c0,0.12-0.01,0.23-0.04,0.35c-0.05,0.19-0.12,0.35-0.18,0.46c-0.02,0.04-0.04,0.08-0.06,0.12
			c0,0.04,0.01,0.1,0.01,0.17c0.02,0.19,0.04,0.42-0.01,0.66c-0.05,0.21-0.14,0.35-0.22,0.45c0,0.01,0.01,0.02,0.01,0.03
			c0.04,0.13,0.1,0.31,0.11,0.54c0,0.22-0.04,0.4-0.08,0.54c0.08,0.11,0.17,0.26,0.19,0.46c0.02,0.13,0,0.24-0.02,0.34l0.08,0.06
			l0.05,0.27c0.06,0.33,0.11,0.66,0.13,0.99c0.02,0.1,0.06,0.19,0.11,0.28c0.08,0.12,0.13,0.27,0.22,0.57
			c0.04,0.13,0.04,0.24,0.04,0.32l0.17,0.31c0.08,0.21,0.13,0.4,0.16,0.58c0.04,0.09,0.08,0.18,0.12,0.26
			c0.05,0.03,0.09,0.06,0.14,0.1c0.21,0.17,0.25,0.43,0.25,0.6c0.03,0.03,0.06,0.07,0.09,0.1c0.06,0.07,0.13,0.15,0.19,0.24
			c0.05,0.02,0.1,0.05,0.14,0.09c0.18,0.15,0.27,0.33,0.29,0.55c0.01,0.01,0.03,0.02,0.04,0.03c0.15,0.12,0.24,0.26,0.28,0.39
			c0.04,0.05,0.07,0.1,0.1,0.16c0.14,0.07,0.29,0.19,0.38,0.39c0.01,0.02,0.02,0.04,0.02,0.05c0.34,0.23,0.62,0.54,0.82,0.89
			c0.07,0.01,0.14,0.04,0.22,0.08c0.06,0.03,0.19,0.11,0.29,0.27c0.01,0,0.01,0.01,0.02,0.01c0.11,0.07,0.2,0.17,0.27,0.25
			c0.28,0.28,0.54,0.47,0.8,0.63c0.23,0.07,0.39,0.17,0.52,0.32c0.19,0.04,0.37,0.11,0.53,0.21c0.04,0.02,0.11,0.06,0.18,0.13
			c0.08,0.01,0.17,0.04,0.25,0.08c0.14,0.06,0.34,0.15,0.52,0.26c0.11,0.08,0.19,0.15,0.24,0.22c0.06,0.03,0.11,0.06,0.16,0.1
			c0.02,0,0.04,0,0.06,0c0.16-0.01,0.42,0,0.67,0.12c0.1,0.05,0.17,0.11,0.23,0.17c0.11,0.01,0.22,0.04,0.33,0.1
			c0.11,0,0.24,0.02,0.37,0.08c0.16,0.08,0.26,0.18,0.33,0.29c0.03,0,0.06,0.01,0.09,0.01l0.33,0.01l0.25,0.23
			c0.11,0,0.21,0.02,0.32,0.07c0.17,0.07,0.28,0.19,0.35,0.31c0.1,0.02,0.19,0.06,0.28,0.11c0.01,0,0.03,0,0.04,0l0.07-0.01l0.07,0
			c0.24,0.02,0.46,0.12,0.6,0.29c0.02,0.01,0.04,0.02,0.06,0.03c0.05,0.03,0.09,0.05,0.14,0.07c0.03,0.01,0.09,0.01,0.15,0.02
			c0.13,0.02,0.27,0.04,0.41,0.08c0.18,0.03,0.39,0.1,0.59,0.21c0.11,0,0.25,0.02,0.4,0.09l0.06,0.03l0.06-0.09l0.63,0.27
			c0.13,0.06,0.24,0.17,0.32,0.28c0.03,0.01,0.06,0.02,0.1,0.02c0.12,0.01,0.25,0.04,0.38,0.12c0.02,0,0.04,0,0.07,0l0.05-0.01
			l0.05,0c0.08,0,0.29,0.03,0.48,0.17c0.23,0.03,0.47,0.06,0.7,0.06c0.08,0.01,0.25,0.03,0.41,0.13c0.04,0,0.08,0,0.12,0
			c0.13,0,0.36,0.03,0.56,0.18c0.08,0.01,0.16,0.02,0.24,0.04c0.5,0.07,1.02,0.15,1.41,0.38c0.08,0,0.17,0.02,0.26,0.05
			c0.56,0.13,1.18,0.21,1.82,0.21l0-0.07l0.69-0.07c0.25-0.03,0.45,0.05,0.56,0.12c0.15,0,0.24,0,0.3,0
			c0.16-0.12,0.42-0.2,0.77-0.08c0.17-0.06,0.34-0.05,0.45-0.04c0.52-0.08,0.97-0.16,1.16-0.21l0.05-0.01l0.22-0.56l0.68,0.36
			l0.28-0.13c0.29-0.1,0.48-0.11,0.61-0.12c0.09-0.1,0.2-0.19,0.35-0.24c0.18-0.07,0.35-0.09,0.49-0.1
			c0.04-0.06,0.09-0.11,0.16-0.16c0.18-0.13,0.37-0.18,0.49-0.2c0.32-0.19,0.66-0.36,1.01-0.49c-0.43,0.17-0.34,0.72-0.34,0.72
			l0.67-0.13l-0.07-0.75c0.04-0.01,0.09-0.01,0.13-0.01l0,0h0.17c0.07-0.04,0.15-0.07,0.25-0.1c0.08-0.02,0.12-0.04,0.16-0.07
			l0.09-0.07c0.12-0.08,0.25-0.14,0.39-0.19c0.12-0.04,0.19-0.06,0.24-0.1c0.05-0.06,0.12-0.13,0.22-0.19
			c0.12-0.08,0.26-0.19,0.39-0.3c0.18-0.17,0.41-0.32,0.66-0.42c0.08-0.11,0.2-0.22,0.38-0.29c0.13-0.04,0.23-0.08,0.32-0.11
			c0.03-0.05,0.06-0.1,0.1-0.15c0.1-0.12,0.26-0.25,0.52-0.28c0.02-0.02,0.04-0.04,0.06-0.06c0.11-0.12,0.23-0.25,0.36-0.36
			c0.1-0.11,0.17-0.18,0.25-0.24c0.16-0.14,0.35-0.28,0.55-0.41c0.13-0.07,0.21-0.13,0.28-0.19c0.01-0.01,0.02-0.02,0.03-0.03
			c0.06-0.18,0.16-0.33,0.29-0.45c0.09-0.08,0.19-0.15,0.3-0.2c0.03-0.07,0.08-0.13,0.13-0.2c0.05-0.05,0.09-0.11,0.13-0.17
			c0.21-0.28,0.53-0.7,1.15-0.79l0.64-0.1l0.19,0.61c0.06,0.21,0.17,0.4,0.32,0.56c0.11,0.14,0.22,0.24,0.33,0.33
			c0.15,0.13,0.29,0.27,0.4,0.4c0.15,0.17,0.28,0.37,0.41,0.56c0.07,0.11,0.14,0.21,0.22,0.31c0.13,0.16,0.29,0.33,0.47,0.47
			c0.1,0.09,0.17,0.18,0.21,0.28c0.12,0.04,0.26,0.09,0.39,0.19c0.09,0.08,0.16,0.17,0.21,0.26c0,0,0,0,0,0
			c0.2,0.1,0.36,0.21,0.51,0.34c0.2,0.14,0.39,0.3,0.6,0.48c0.12,0.1,0.24,0.23,0.36,0.36c0.05,0.05,0.1,0.1,0.14,0.15
			c0.12,0.02,0.26,0.07,0.41,0.17c0.11,0.07,0.18,0.16,0.24,0.25c0.04,0.01,0.08,0.03,0.12,0.04c0.14,0.06,0.24,0.16,0.31,0.25
			c0.12,0.03,0.25,0.07,0.38,0.16c0.12,0.08,0.26,0.2,0.4,0.32c0.08,0.07,0.15,0.13,0.22,0.18c0.18,0.04,0.33,0.12,0.44,0.22
			c0.03,0,0.07,0.01,0.1,0.01l0.81,0.16l-0.07,0.24c0.04,0.03,0.08,0.07,0.12,0.11c0.07,0.03,0.15,0.06,0.23,0.08
			c0.28,0.04,0.48,0.19,0.6,0.27l0.29,0.13c0.09,0.04,0.17,0.08,0.23,0.09c0.2,0.04,0.44,0.08,0.67,0.29c0-0.02,0.14-0.01,0.24-0.01
			c0.2,0.01,0.43,0.01,0.67,0.08c0.15,0.04,0.26,0.12,0.34,0.21c0.4,0.03,0.7,0.23,0.92,0.37c0.04,0.03,0.1,0.06,0.14,0.09
			c0.15-0.08,0.37-0.14,0.65-0.09l0.35,0.06l0.18,0.3c0.05,0.02,0.44,0.09,0.57,0.12c0.43,0.11,0.83,0.11,1.22,0.01l0.51-0.13
			l0.3,0.44c0.1,0.06,0.64,0.09,0.89,0.1c0.23,0.01,0.43,0.02,0.59,0.05c0.08,0,0.16,0,0.23,0c0.14,0,0.26,0.03,0.37,0.08
			c0,0,0,0,0,0C96.7,98.03,96.88,97.99,97.1,97.99z M88.85,97.91C88.86,97.91,88.86,97.91,88.85,97.91
			C88.86,97.91,88.86,97.91,88.85,97.91z M103.56,97.86c-0.01,0.01-0.03,0.03-0.05,0.05C103.53,97.89,103.55,97.87,103.56,97.86z
			 M103.63,97.81L103.63,97.81L103.63,97.81z M104.11,97.66C104.11,97.66,104.11,97.66,104.11,97.66
			C104.11,97.66,104.11,97.66,104.11,97.66z M90.74,97.17C90.74,97.17,90.74,97.17,90.74,97.17C90.74,97.17,90.74,97.17,90.74,97.17
			C90.74,97.17,90.74,97.17,90.74,97.17z M63.95,96.83c-0.01,0.02-0.03,0.03-0.04,0.05C63.92,96.86,63.94,96.85,63.95,96.83z
			 M110.75,96.86c-0.01,0-0.02,0-0.03,0C110.73,96.86,110.74,96.86,110.75,96.86z M85.33,95.88l-0.12,0.61
			c0.26,0.05,0.6-0.05,0.73-0.4l-0.09-0.03l-0.04,0.01l0.01-0.02L85.33,95.88z M85.07,96.22c0,0.01,0,0.01,0,0.02L85.07,96.22
			L85.07,96.22z M56.57,95.99C56.57,95.99,56.57,95.99,56.57,95.99L56.57,95.99z M54.67,95.9c0.02,0,0.05,0.01,0.08,0.01
			C54.72,95.9,54.69,95.9,54.67,95.9z M62.01,95.72c-0.01,0-0.02,0-0.02,0C61.99,95.72,62,95.72,62.01,95.72z M62.56,95.72
			C62.56,95.72,62.56,95.72,62.56,95.72C62.56,95.72,62.56,95.72,62.56,95.72z M63.03,95.71L63.03,95.71L63.03,95.71z M54.78,95.63
			C54.78,95.63,54.78,95.63,54.78,95.63L54.78,95.63z M85.72,95.25c0.05,0,0.11,0.01,0.16,0.02C85.83,95.25,85.78,95.25,85.72,95.25
			z M85.74,95.18c0.01,0.01,0.03,0.01,0.04,0.02C85.77,95.19,85.76,95.18,85.74,95.18z M113.43,95.13c0,0-0.01,0.01-0.01,0.01
			C113.42,95.14,113.42,95.14,113.43,95.13z M66.68,95.12C66.67,95.12,66.67,95.12,66.68,95.12C66.67,95.12,66.67,95.12,66.68,95.12
			z M70.06,95.07c0.05,0,0.09,0,0.13-0.01l-0.11-0.6l-0.02,0L70.06,95.07z M70,94.48l-0.54,0.12c0.08,0.33,0.34,0.47,0.59,0.47
			L70,94.48z M54.09,94.71L54.09,94.71C54.09,94.71,54.09,94.71,54.09,94.71z M52.84,94.64C52.84,94.65,52.84,94.65,52.84,94.64
			L52.84,94.64z M52.6,94.53C52.6,94.54,52.6,94.54,52.6,94.53L52.6,94.53z M68.59,94.28C68.59,94.28,68.59,94.28,68.59,94.28
			C68.59,94.28,68.59,94.28,68.59,94.28z M50.67,94.07c0,0.02,0.01,0.03,0.01,0.05L50.67,94.07z M82.96,93.49
			C82.96,93.49,82.96,93.5,82.96,93.49C82.96,93.5,82.96,93.49,82.96,93.49z M113.28,93.39C113.28,93.4,113.28,93.4,113.28,93.39
			C113.28,93.4,113.28,93.4,113.28,93.39z M47.82,92.94c0,0.01,0,0.02,0.01,0.02L47.82,92.94z M46.37,92.38
			c0,0.02,0.01,0.03,0.01,0.05L46.37,92.38z M46.01,92.39c0.02,0.01,0.04,0.02,0.06,0.02C46.05,92.41,46.03,92.4,46.01,92.39z
			 M45.45,92.11c0.01,0.01,0.02,0.01,0.04,0.02C45.48,92.12,45.46,92.11,45.45,92.11z M73.77,91.47
			C73.77,91.47,73.77,91.47,73.77,91.47C73.77,91.47,73.77,91.47,73.77,91.47z M47.06,91.42L47.06,91.42L47.06,91.42z M47.05,91.42
			C47.05,91.42,47.06,91.42,47.05,91.42C47.06,91.42,47.05,91.42,47.05,91.42z M76.58,90.77c-0.01,0-0.02,0-0.03,0
			C76.56,90.77,76.56,90.77,76.58,90.77z M118.94,88.62c0,0.01,0,0.02,0,0.03C118.94,88.64,118.94,88.63,118.94,88.62z
			 M119.54,87.67C119.54,87.67,119.54,87.67,119.54,87.67C119.54,87.67,119.54,87.67,119.54,87.67z M118.04,87.59
			C118.04,87.59,118.04,87.59,118.04,87.59C118.04,87.59,118.04,87.59,118.04,87.59z M40.18,87.08
			C40.18,87.09,40.18,87.09,40.18,87.08C40.18,87.09,40.18,87.09,40.18,87.08z M126.99,79c0,0-0.01,0-0.01,0
			C126.98,79,126.98,79,126.99,79z M129.49,78.28C129.49,78.28,129.49,78.28,129.49,78.28C129.49,78.28,129.49,78.28,129.49,78.28z
			 M131.81,77.02c-0.01,0.01-0.02,0.02-0.02,0.03C131.79,77.04,131.8,77.03,131.81,77.02z M33.9,77.02
			c0.01,0.01,0.02,0.02,0.02,0.03C33.92,77.03,33.91,77.03,33.9,77.02z M27.37,72.96c0,0,0,0.01-0.01,0.01L27.37,72.96z
			 M26.44,72.35c0.01,0,0.02,0,0.04,0C26.46,72.35,26.45,72.35,26.44,72.35z M25.85,71.74c0,0.03,0.01,0.06,0.01,0.08L25.85,71.74z
			 M142.16,68.95l-0.03,0C142.14,68.95,142.15,68.95,142.16,68.95z M142.66,68.5c-0.01,0.03-0.02,0.06-0.03,0.09
			C142.64,68.56,142.65,68.53,142.66,68.5z M22.56,67.73L22.56,67.73L22.56,67.73z M22.53,67.59c0,0.01,0,0.01,0,0.02
			C22.53,67.6,22.53,67.6,22.53,67.59z M142.96,67.24l-0.03,0.01C142.93,67.25,142.94,67.24,142.96,67.24z M21.29,64.25l-0.03,0
			C21.27,64.25,21.28,64.25,21.29,64.25z M19.7,56.36c-0.02,0.05-0.03,0.11-0.03,0.16l0.2,0.01C19.81,56.48,19.75,56.43,19.7,56.36z
			 M20.07,55.97c-0.09,0.03-0.16,0.08-0.22,0.13l0.47-0.13L20.07,55.97z M20.42,55.22c-0.05,0-0.11,0.01-0.17,0.02l0.13,0.58
			l0.58-0.24C20.85,55.34,20.65,55.22,20.42,55.22z M19.81,55.75c-0.01,0.01-0.02,0.02-0.03,0.03
			C19.79,55.77,19.8,55.76,19.81,55.75z M19.84,55.25c-0.01,0.01-0.02,0.01-0.02,0.02L19.84,55.25z M20.03,52.92
			c0,0.01,0,0.02,0,0.03C20.03,52.95,20.03,52.94,20.03,52.92z M143.37,52.37c0,0.01,0,0.02,0.01,0.02
			C143.37,52.39,143.37,52.38,143.37,52.37z M20.4,52.39C20.4,52.39,20.4,52.39,20.4,52.39L20.4,52.39z M21.23,50.89
			c-0.03,0-0.06,0.01-0.08,0.01L21.23,50.89z M21.92,50.74C21.92,50.74,21.92,50.74,21.92,50.74L21.92,50.74z M22.18,50.27
			C22.18,50.27,22.18,50.27,22.18,50.27L22.18,50.27z M22.23,49.01L22.23,49.01C22.23,49.01,22.23,49.01,22.23,49.01z M22.35,48.77
			L22.35,48.77C22.35,48.78,22.35,48.77,22.35,48.77z M22.47,48.54L22.47,48.54C22.48,48.54,22.47,48.54,22.47,48.54z M143.29,48.18
			c0,0,0,0.01,0,0.01C143.29,48.19,143.29,48.18,143.29,48.18z M142.79,47.44C142.79,47.44,142.79,47.44,142.79,47.44
			C142.79,47.44,142.79,47.44,142.79,47.44z M138.56,43.04c0,0.01,0,0.02,0,0.03C138.56,43.06,138.56,43.05,138.56,43.04z
			 M143.68,36.52L143.68,36.52C143.67,36.52,143.67,36.52,143.68,36.52z M143.98,36.1l-0.01,0.02
			C143.98,36.11,143.98,36.1,143.98,36.1z M21.1,30.8C21.1,30.8,21.1,30.8,21.1,30.8L21.1,30.8z M21.28,29.31L21.28,29.31
			C21.28,29.32,21.28,29.31,21.28,29.31z M21.4,29.08L21.4,29.08C21.4,29.08,21.4,29.08,21.4,29.08z M21.52,28.84L21.52,28.84
			C21.52,28.84,21.52,28.84,21.52,28.84z M21.63,28.6L21.63,28.6C21.64,28.6,21.63,28.6,21.63,28.6z M141.23,21.42
			C141.23,21.42,141.23,21.42,141.23,21.42C141.23,21.42,141.23,21.42,141.23,21.42z M138.36,20.12c0.01,0.05,0.02,0.11,0.04,0.16
			L138.36,20.12z M139.89,19.72c0.02,0.02,0.04,0.03,0.05,0.05C139.93,19.75,139.91,19.73,139.89,19.72z M139.1,19.05
			c0,0.01,0,0.02,0,0.03C139.1,19.07,139.1,19.06,139.1,19.05z M38.82,18.53l0.37,0.05c0,0,0.05-0.44-0.26-0.64L38.82,18.53z
			 M137.56,17.59l0.01,0.08C137.57,17.64,137.57,17.61,137.56,17.59z M136.96,17.05C136.96,17.05,136.96,17.05,136.96,17.05
			C136.96,17.05,136.96,17.05,136.96,17.05z M134,16.28C134.01,16.28,134.01,16.28,134,16.28C134.01,16.28,134.01,16.28,134,16.28z
			 M133.77,16.2L133.77,16.2L133.77,16.2z M130.06,13.87c0,0.02,0.01,0.04,0.02,0.06L130.06,13.87z M129.51,13.92
			C129.51,13.92,129.51,13.92,129.51,13.92C129.51,13.92,129.51,13.92,129.51,13.92z M127.3,13.39
			C127.3,13.39,127.3,13.39,127.3,13.39C127.3,13.39,127.3,13.39,127.3,13.39z M120.85,12.93c0.01,0.01,0.01,0.02,0.02,0.02
			L120.85,12.93z M118.01,12.35c0,0.01,0,0.02,0,0.03C118.01,12.37,118.01,12.36,118.01,12.35z M122.83,12.31l0.5,0
			c0-0.02,0-0.04,0-0.05l0.3-0.05l-0.16-0.63c-0.18,0.05-0.28,0.14-0.35,0.25c-0.15-0.13-0.36-0.18-0.53-0.14l0.04,0.62
			L122.83,12.31L122.83,12.31L122.83,12.31z M41.11,7.78c0,0.01,0,0.01,0,0.02C41.11,7.79,41.11,7.78,41.11,7.78z M88.78,7.6
			L88.78,7.6c0.01,0.01,0.01,0.01,0.01,0.02l0,0C88.79,7.61,88.79,7.6,88.78,7.6z M87,7.31c0,0.01,0,0.02,0,0.03
			C87,7.33,87,7.32,87,7.31z M42.04,7.17l-0.03,0C42.02,7.17,42.03,7.18,42.04,7.17z M40.22,7.08c-0.03,0-0.05,0.01-0.08,0.01
			L40.22,7.08z M40.21,6.96c0,0-0.01,0.01-0.01,0.01C40.21,6.97,40.21,6.97,40.21,6.96z M66.3,5.98c0,0.02,0,0.04,0,0.05
			C66.29,6.02,66.29,6,66.3,5.98z M64.85,5.93c-0.01,0.01-0.03,0.01-0.04,0.02L64.85,5.93z M65.4,5.3c-0.03,0-0.06,0.01-0.09,0.02
			L65.4,5.3z M59.86,4.79l0.01,0.07C59.87,4.83,59.87,4.81,59.86,4.79z M86.19,4.29c0.01,0.01,0.02,0.02,0.03,0.02
			C86.21,4.31,86.2,4.3,86.19,4.29z M57.09,4.07L57.09,4.07C57.09,4.07,57.09,4.07,57.09,4.07z M110.57,3.98c0.01,0,0.02,0,0.03,0
			C110.59,3.98,110.58,3.98,110.57,3.98z M49.43,3.35l0.6,0.15c0.02-0.08,0.1-0.51-0.32-0.72L49.43,3.35z M45.66,3.31
			C45.66,3.31,45.66,3.31,45.66,3.31C45.66,3.31,45.66,3.31,45.66,3.31z M47.33,2.84c-0.01,0-0.01,0-0.02,0.01L47.33,2.84z
			 M54.24,2.7c0.04,0.01,0.07,0.01,0.11,0.02C54.31,2.7,54.28,2.7,54.24,2.7z M99.46,1.65c-0.01,0.01-0.03,0.03-0.04,0.05
			C99.43,1.68,99.45,1.67,99.46,1.65C99.46,1.65,99.46,1.65,99.46,1.65z M80.36,0.72l0,0.01C80.36,0.73,80.36,0.72,80.36,0.72z
			 M79.79,0.31c0.04,0.01,0.08,0.01,0.12,0.02C79.87,0.31,79.83,0.31,79.79,0.31z"/>
	</g>
	<g id="Path_184_1_">
		<path class="st2" d="M5.74,17.08c0.15,0.3-0.35,0.49,0,0.6c-0.3,0.3-0.62,0.58-0.95,0.84c-0.28,0.29-0.6,0.53-0.95,0.72
			c-0.12,0.16-0.12,0.44-0.24,0.6c-0.21,0.11-0.35,0.29-0.6,0.36c-0.09,0.21-0.21,0.42-0.36,0.6c-0.06,0.08-0.18,0.16-0.24,0.24
			c-0.08,0.11,0,0.29-0.24,0.24c-0.26,0.98-0.71,1.76-0.95,2.74c-0.04,0.46,0.31,0.94,0,1.31c-0.57,0.12-0.74-0.08-0.95-0.48
			c-0.13-0.22-0.21-0.46-0.24-0.72C0,24.01,0,23.89,0.01,23.77c0.02-0.05,0.22-0.08,0.24-0.12c0.04-0.1-0.07-0.41,0-0.48
			c0.1-0.15,0.18-0.31,0.24-0.48c0.02-0.05,0.11,0,0.12-0.12c0.01-0.08-0.04-0.29,0-0.36c0.02-0.04,0.21,0.03,0.24,0
			c0.1-0.12,0.19-0.77,0.48-0.72c-0.1-0.14-0.14-0.31-0.12-0.48c0.5-0.58,0.76-1.39,1.55-1.67C2.64,18.88,3.11,19,3,18.52h0.48
			c0.39-0.53,0.78-1.05,1.19-1.55C5.03,16.93,5.4,16.97,5.74,17.08z"/>
	</g>
	<g id="Path_185_1_">
		<path class="st2" d="M12.43,20.54c0.02,0.38,0,0.72-0.24,0.83c0.04,0.14-0.2,0.06-0.24,0.12c-0.07,0.1,0.03,0.44-0.36,0.36
			c-0.01,0.13-0.05,0.25-0.12,0.36c-0.05,0.07-0.2,0.17-0.24,0.24c-0.1,0.19-0.12,0.39-0.24,0.6c-0.03,0.06-0.09,0-0.12,0.12
			c-0.02,0.13-0.06,0.25-0.12,0.36c-0.07,0.1-0.25,0.2-0.36,0.36c-0.03,0.04,0.04,0.21,0,0.24c-0.09,0.08-0.11,0.3-0.24,0.6
			c-0.02,0.05-0.11-0.01-0.12,0.12c-0.03,0.12-0.07,0.24-0.12,0.36c-0.09,0.25-0.13,0.57-0.24,0.84c-0.02,0.04-0.12,0.14-0.12,0.12
			c-0.02,0.11,0.16,0.32,0.12,0.36c-0.13,0.13-0.03,0.21-0.12,0.6c0,0.02-0.11,0.02-0.12,0.12c0.01,0.04,0.01,0.08,0,0.12
			c-0.05,0.12-0.09,0.24-0.12,0.36c-0.24,0.69-0.29,1.44-0.12,2.15c-0.5-0.02-0.37,0.59-0.95,0.48c0-0.12-0.15-0.09-0.24-0.12
			c-0.31-0.4-0.25-0.97,0.12-1.31c-0.05-0.32-0.01-0.65,0.12-0.95c0.04-0.07,0.11,0.02,0.12-0.12c0.06-1.06,0.57-2.22,0.72-3.46
			c0.16-0.12,0.23-0.32,0.48-0.36c0.09-0.64,0.34-1.26,0.71-1.79c0.32-0.53,0.6-1.09,0.83-1.67c0.16,0.02,0.32-0.08,0.36-0.24
			C11.81,20.22,12.16,20.31,12.43,20.54z"/>
	</g>
	<g id="Path_186_1_">
		<path class="st2" d="M151.19,64.21c0.4,0.04,0.4,0.54,0.48,0.84c0.06,0.28,0.1,0.55,0.12,0.84c0.11,0.87,0.11,1.75,0,2.62
			c0,0.32-0.04,0.64-0.12,0.96c-0.02,0.04-0.11,0-0.12,0.12c-0.06,0.32-0.14,0.64-0.24,0.96c-0.05,0.2-0.07,0.27-0.12,0.48
			s-0.05,0.54-0.12,0.72c-0.02,0.05-0.11,0-0.12,0.12c-0.03,0.08-0.07,0.16-0.12,0.24c-0.04,0.06-0.22,0.19-0.24,0.24
			c-0.08,0.27-0.12,0.55-0.12,0.84c-0.21,0.1-0.37,0.27-0.48,0.48c0.05,0.23-0.05,0.47-0.24,0.6v0.95
			c-0.22,0.16-0.46,0.28-0.71,0.36c-0.07,0.03,0.01,0.2-0.12,0.24c-0.23,0.06-0.3-0.1-0.6-0.12c-0.18-0.57,0.01-1.18,0.48-1.55
			c-0.15-0.35,0.23-0.36,0.24-0.59c0.01-0.27,0.09-0.25,0.24-0.48c0.07-0.13,0.15-0.25,0.24-0.36c0.17-0.38,0.29-0.78,0.36-1.19
			c0.05-0.18,0.2-0.32,0.24-0.48c0.02-0.09-0.07-0.41,0-0.48c0.01-0.01,0.11,0.01,0.12,0c0.1-0.32,0.14-0.72,0.24-1.07
			s0.32-0.67,0.36-0.96c0.04-0.68,0-1.36-0.12-2.03c0.01-0.2,0.01-0.4,0-0.6c-0.09-0.25-0.21-0.49-0.36-0.72
			c-0.03-0.05-0.23-0.2-0.24-0.24c-0.04-0.14,0.11-0.07,0.12-0.12c0.02-0.08-0.11-0.15-0.12-0.12c0.13-0.24,0.34-0.41,0.6-0.48
			c0.04-0.02,0.21,0.03,0.24,0C151.04,64.1,151.14,64.05,151.19,64.21z"/>
	</g>
	<g id="Path_187_1_">
		<path class="st2" d="M157.75,65.52c0.44,0.34,0.39,0.89,0.48,1.43c0.01,0.08-0.02,0.16,0,0.24c0.02,0.1,0.16,0.19,0.12,0.36
			c-0.01,0.04-0.11,0.17-0.12,0.12c0.06,0.27,0.1,0.55,0.12,0.84c-0.08,0.52-0.2,1.04-0.36,1.55c-0.03,0.15,0.05,0.33,0,0.48
			c-0.02,0.05-0.23,0.21-0.24,0.24c-0.05,0.26,0.06,0.61,0,0.84c-0.01,0.03-0.11,0.01-0.12,0.12c0,0.07-0.08,0.33-0.12,0.48
			c-0.07,0.16-0.15,0.32-0.24,0.48c-0.02,0.05-0.09,0.01-0.12,0.12c-0.02,0.07,0.03,0.17,0,0.24c-0.17,0.44-0.41,0.84-0.72,1.19
			c-0.34,0.08-0.69-0.01-0.95-0.24c0.06-0.56,0.27-1.1,0.6-1.55c0.08-0.16,0.02-0.13,0.12-0.24c0.03-0.03,0.16-0.32,0.24-0.48
			c0.06-0.13,0.04-0.3,0.12-0.48c0.03-0.06,0.23-0.2,0.24-0.24c0.09-0.31,0.04-0.8,0.12-1.19c0.01-0.04-0.03-0.22,0-0.24
			s0.11,0.02,0.12,0c0.02-0.04-0.04-0.21,0-0.24c0.14-0.11,0-0.36,0.12-0.48c0.18-0.18,0.01-0.15,0-0.36
			c-0.01-0.19,0.13-0.21,0.12-0.36s-0.19-0.69-0.24-0.95c-0.08-0.35-0.12-0.71-0.12-1.08c0-0.01,0.11,0.01,0.12,0
			c0.06-0.06-0.05-0.28,0-0.36c0.1-0.1,0.33-0.07,0.36-0.24L157.75,65.52z"/>
	</g>
</g>
</svg>
