<!-- Generator: Adobe Illustrator 24.2.3, SVG Export Plug-In  -->
<svg version="1.1" xmlns="http://www.w3.org/2000/svg" xmlns:xlink="http://www.w3.org/1999/xlink" x="0px" y="0px"
	 width="158.35px" height="99.85px" viewBox="0 0 158.35 99.85" style="overflow:visible;enable-background:new 0 0 158.35 99.85;"
	 xml:space="preserve">
<style type="text/css">
	.st0{fill-rule:evenodd;clip-rule:evenodd;fill:#FFFFFF;}
	.st1{fill-rule:evenodd;clip-rule:evenodd;fill:#5398FF;}
</style>
<defs>
</defs>
<g>
	<path class="st0" d="M88.9,8.84c0.22-0.01,0.15-0.21,0.24-0.36c0.06-0.11,0.18-0.15,0.24-0.24C89.46,8.13,89.42,8,89.5,7.89
		c0.05-0.07,0.17-0.17,0.24-0.24c0.15-0.17,0.31-0.33,0.48-0.48c0.1-0.08,0.27-0.04,0.36-0.12c0.05-0.05,0.07-0.2,0.12-0.24
		c0.11-0.08,0.26-0.03,0.36-0.12c0.14-0.15,0.3-0.27,0.48-0.36c0.29-0.13,0.57-0.29,0.83-0.48c0.11-0.09,0.14-0.35,0.36-0.36
		c0.14-0.04,0.27-0.12,0.36-0.24c0.14-0.18,0.37-0.35,0.6-0.6c0.08-0.15,0.3-0.05,0.48-0.12c0.13-0.06,0.15-0.19,0.24-0.24
		c0.2-0.12,0.59-0.14,0.6-0.48c0.79-0.16,1.56-0.45,2.27-0.83c0.2-0.08,0.39-0.17,0.6-0.24s0.4-0.05,0.6-0.12
		c0.06-0.02,0.2-0.23,0.24-0.24c0.11-0.03,0.25,0.02,0.36,0c0.08-0.02,0.38-0.32,0.48,0c0.15,0.01,0.16-0.18,0.24-0.24
		c0.04-0.03,0.21,0.04,0.24,0c0.1-0.11,0.22-0.19,0.36-0.24c0.04-0.02,0.21,0.03,0.24,0c0.01-0.01-0.01-0.11,0-0.12
		c0.16-0.05,0.56-0.08,0.83-0.12c1.27-0.16,2.54-0.2,3.82-0.12c0.4,0.02,0.8,0.06,1.19,0.12c0.3,0.06,0.21,0.17,0.48,0.24
		c0.07,0.02,0.17-0.02,0.24,0c0.26,0.08,0.49,0.17,0.72,0.24c0.3,0.09,0.59,0.05,0.84,0.12c0.08,0.02,0.11,0.2,0.24,0.24
		s0.34-0.06,0.48,0c0.05,0.02-0.01,0.11,0.12,0.12s0.09,0.14,0.12,0.24c0.5-0.28,0.65,0.34,0.95,0.36c0.14,0.01,0.29,0.29,0.36,0.48
		c0.17,0.07,0.31,0.03,0.48,0.12c0.08,0.04,0.17,0.2,0.24,0.24c0.1,0.06,0.23,0.05,0.36,0.12c0.08,0.04,0.17,0.19,0.24,0.24
		c0.13,0.08,0.23,0.15,0.36,0.24c0.19,0.13,0.39,0.25,0.6,0.36c0.21,0.14,0.42,0.3,0.6,0.48c0.07,0.08,0.15,0.16,0.24,0.24
		c0.05,0.04,0.2-0.04,0.24,0s-0.04,0.21,0,0.24c0.11,0.08,0.26,0.04,0.36,0.12s0.14,0.29,0.24,0.36c0.11,0.08,0.25,0.04,0.36,0.12
		c0.17,0.12,0.26,0.51,0.6,0.36c-0.07,0.22,0.11,0.58,0.36,0.6c0.19,0.01,0.04,0.24,0.12,0.36c0.12,0.17,0.54,0.42,0.6,0.84
		c-0.04,0.27,0.34,0.13,0.36,0.36c0.41,0.59,0.54,1.45,0.95,2.03c0.31,0.24,0.23,0.73,0.36,1.08c0.02,0.05,0.11,0,0.12,0.12
		c0.02,0.29,0.24,0.52,0.36,0.83c0.21,0,0.41-0.04,0.6-0.12c0.28-0.06,0.56-0.14,0.83-0.24c0.06-0.03-0.01-0.11,0.12-0.12
		c0.05,0,0.53-0.04,0.6-0.12c0.01-0.01-0.01-0.12,0-0.12c0.18-0.04,0.18,0.12,0.24,0.12c0.35-0.11,0.71-0.19,1.07-0.24
		c-0.02,0,0.04,0.12,0.12,0.12c0.11,0,0.1-0.12,0.12-0.12c0.28,0.03,0.56,0.03,0.84,0c0.06-0.02,0.14-0.12,0.12-0.12
		c0.09-0.01,0.2,0.13,0.36,0.12s0.33-0.2,0.72-0.12c0.1,0.02,0.12,0.12,0.24,0.12c0.22,0,0.41-0.13,0.6-0.12
		c-0.01,0,0.04,0.11,0.12,0.12c0.12-0.01,0.24-0.01,0.36,0c0.24,0.07,0.48,0.15,0.71,0.24c0.07,0.02,0.16-0.02,0.24,0
		c0.11,0.03,0.21,0.08,0.36,0.12c0.08,0.02,0.11,0.12,0.12,0.12c0.55,0.11,1.39-0.03,1.79,0.24c0.09,0.06,0.28,0.13,0.48,0.24
		c0.07,0.04,0.18,0.21,0.24,0.24s0.17-0.02,0.24,0c0.11,0.03,0.2,0.08,0.36,0.12c0.12,0.03,0.06,0.09,0.12,0.12
		c0.1,0.04,0.24,0.06,0.36,0.12c0.08,0.04,0.17,0.2,0.24,0.24c0.14,0.07,0.24,0.05,0.36,0.12s0.12,0.17,0.24,0.24
		s0.24,0.05,0.36,0.12c0.08,0.04,0.17,0.2,0.24,0.24c0.14,0.07,0.24,0.05,0.36,0.12c0.2,0.11,0.38,0.24,0.6,0.36
		c0.11,0.06,0.3,0.23,0.48,0.24c0.2,0.01,0.4,0.34,0.6,0.48c0.09,0.07,0.26,0.04,0.36,0.12c0.06,0.05,0.06,0.2,0.12,0.24
		c0.09,0.07,0.26,0.04,0.36,0.12c0.13,0.09,0.37,0.41,0.6,0.6c0.23,0.21,0.47,0.42,0.72,0.6c0.07,0.05-0.02,0.11,0.12,0.12
		c0.3,0.02,0.24,0.27,0.48,0.48c0.19,0.16,0.49,0.13,0.6,0.24c0.04,0.04-0.04,0.2,0,0.24c0.1,0.08,0.35,0.14,0.36,0.36
		c0.01,0.13,0.56,0.68,0.71,0.83c0.07,0.08-0.01,0.09,0.12,0.12c0.05,0.01,0.2-0.03,0.24,0s-0.04,0.21,0,0.24
		c0.32,0.28,0.6,0.6,0.83,0.95c0.07,0.11,0.17,0.15,0.24,0.24s0.04,0.26,0.12,0.36c0.27,0.37,0.59,0.69,0.95,0.95
		c0.14,0.52,0.39,1,0.71,1.43c0.07,0.12,0.04,0.32,0.12,0.48c0.05,0.09,0.18,0.12,0.24,0.24c0.11,0.22,0.16,0.44,0.36,0.6
		c0.15,0.3-0.35,0.5,0,0.6c0.05,0.15,0.2,0.19,0.24,0.36c0.04,0.15-0.05,0.33,0,0.48c0.08,0.24,0.31,0.46,0.36,0.72
		c0.05,0.22-0.07,0.43,0,0.72c0.02,0.06,0.12,0.13,0.12,0.12c0.01,0.09-0.13,0.2-0.12,0.36c0-0.04,0.11,0.08,0.12,0.12
		c0.07,0.29-0.13,0.68-0.12,1.07c0.01,0.24,0.09,0.58,0.12,0.83c0.02,0.16-0.02,0.32,0,0.48c0.01,0.11,0.11,0.08,0.12,0.12
		c0.02,0.12-0.12,0.11-0.12,0.12c0.08,0.55,0.12,1.11,0.12,1.67c-0.06,0.32-0.14,0.64-0.24,0.95c-0.05,0.52-0.13,1.04-0.24,1.55
		c-0.01,0.03-0.1,0.03-0.12,0.12c-0.06,0.25-0.13,0.64-0.24,0.95c-0.03,0.16-0.07,0.32-0.12,0.48c-0.04,0.09-0.22,0.2-0.24,0.24
		c-0.07,0.23-0.07,0.48,0,0.72c-0.33,0.09-0.37,0.49-0.48,0.71c-0.08,0.16-0.03,0.33-0.12,0.48c-0.06,0.1-0.17,0.1-0.24,0.24
		s-0.17,0.2-0.24,0.36c-0.08,0.2-0.04,0.32-0.12,0.48c-0.03,0.05-0.22,0.08-0.24,0.12c-0.08,0.17,0.03,0.37-0.12,0.6
		c-0.07,0.11-0.35,0.12-0.36,0.36c-0.05,0.18-0.18,0.31-0.36,0.36c-0.18,0.09-0.34,0.21-0.48,0.36c-0.1,0.12-0.14,0.37-0.24,0.48
		s-0.35,0.08-0.36,0.24c-0.01,0.19-0.18,0.3-0.36,0.48c-0.1,0.1-0.25,0.26-0.36,0.36c-0.17,0.15-0.18,0.35-0.48,0.24
		c-0.05,0.44,0.38,0.36,0.6,0.48c0.14,0.08,0.21,0.16,0.36,0.24c0.12,0.03,0.24,0.07,0.36,0.12c0.04,0.03-0.04,0.21,0,0.24
		s0.09-0.02,0.12,0c0.07,0.06,0.29,0.05,0.36,0.12c0.04,0.04-0.04,0.2,0,0.24c0.18,0.15,0.41,0.21,0.6,0.36
		c0.33,0.31,0.69,0.59,1.07,0.84c0.22,0.35,0.36,0.74,0.6,1.07c0.08,0.11,0.34,0.12,0.36,0.36c0.01,0.15,0.17,0.15,0.24,0.24
		c0.03,0.04-0.04,0.21,0,0.24c0.16,0.26,0.28,0.54,0.36,0.84c0-0.01,0.2,0.05,0.12,0.12c-0.13,0.11-0.05,0.04,0,0.12
		c0.04,0.06,0.23,0.21,0.24,0.24c0.06,0.17-0.07,0.43,0,0.6c0.02,0.03,0.21-0.03,0.24,0c0.08,0.08-0.12,0.29-0.12,0.36
		c0,0.13,0.18,0.26,0.24,0.48c0.27,0,0,0.39,0,0.36c0.03,0.16,0.2,0.19,0.24,0.36c0.05,0.2,0.07,0.27,0.12,0.48
		c0.01,0.03,0.32,1.03,0.12,1.19c-0.3,0.24,0.05,0.2,0.12,0.48c0.13,1.19,0.09,2.4-0.12,3.58c-0.04,0.23,0.1,0.54-0.24,0.6
		c0.24,0.77,0.28,1.59,0.12,2.39c0.01,0.08,0.01,0.16,0,0.24c-0.05,0.18-0.17,0.14-0.24,0.48c-0.1,0.5-0.03,1.14-0.12,1.67
		c0-0.02-0.11,0.06-0.12,0.12c-0.16,0.62-0.16,1.7-0.72,2.15c-0.03,0.33-0.11,0.65-0.24,0.96c-0.01,0.04-0.11,0-0.12,0.12
		c0.01,0.12,0.01,0.24,0,0.36c-0.04,0.12-0.21,0.16-0.24,0.24c-0.05,0.16-0.09,0.32-0.12,0.48c-0.03,0.16-0.07,0.32-0.12,0.48
		c-0.03,0.07-0.2-0.02-0.24,0.12c-0.08,0.19-0.12,0.39-0.12,0.6c-0.18,0.1-0.34,0.22-0.48,0.36c-0.12,0.26-0.28,0.51-0.48,0.72
		c-0.35,0.38-0.78,0.75-1.19,1.19c-0.07,0.07-0.22,0.47-0.36,0.48s-0.21,0-0.24,0.12c-0.1,0.59-0.81,0.78-1.31,1.19
		c-0.17,0.15-0.33,0.31-0.48,0.48c-0.14,0.15-0.32,0.24-0.36,0.48c-0.45,0.03-0.58,0.38-0.95,0.48c-0.74,0.75-1.52,1.49-2.39,2.27
		c-0.1,0.09-0.25,0.27-0.36,0.36s-0.27,0.3-0.36,0.36c-0.05,0.03-0.21-0.04-0.24,0c-0.01,0.01,0.02,0.11,0,0.12
		c-0.04,0.02-0.21-0.03-0.24,0c-0.11,0.16-0.29,0.25-0.48,0.24c-0.26,0.11-0.22,0.31-0.48,0.48c-0.15,0.09-0.31,0.17-0.48,0.24
		c-0.04,0.02-0.21-0.03-0.24,0c-0.01,0.01,0.02,0.11,0,0.12c-0.04,0.02-0.21-0.04-0.24,0c-0.09,0.11-0.09,0.18-0.24,0.24
		s-0.43,0.07-0.6,0.12c-0.03,0.01-0.01,0.11-0.12,0.12c-0.16,0.01-0.32-0.01-0.48,0c0.11,0.37-0.38,0.21-0.48,0.24
		c-0.03,0.01-0.01,0.11-0.12,0.12c-0.44,0.05-0.88,0.13-1.31,0.24c-0.02,0.01-0.02,0.11-0.12,0.12c-0.29,0.02-0.52,0.09-0.83,0.12
		c-0.04,0-0.22-0.03-0.24,0c-0.12,0.15-0.23-0.07-0.72,0c-0.26,0.03-0.55,0.22-0.83,0.24c-0.8-0.01-1.6-0.09-2.39-0.24
		c-0.42,0.23-0.24,0.99-0.36,1.55c-0.02,0.31-0.15,0.61-0.36,0.84c0.11,0.31,0.15,0.63,0.12,0.95c-0.17,0.01-0.06,0.23-0.12,0.36
		c-0.03,0.08-0.21,0.18-0.24,0.24c-0.06,0.21-0.14,0.41-0.24,0.6c-0.09,0.14-0.34,0.28-0.48,0.48s-0.3,0.29-0.24,0.6
		c-0.15,0.25-0.35,0.45-0.6,0.6c-0.03,0.38-0.15,0.75-0.36,1.07c-0.08,0.12-0.35,0.29-0.36,0.48s-0.23,0.39-0.36,0.6
		c-0.06,0.1-0.23,0.22-0.24,0.36c-0.02,0.36-0.46,0.53-0.72,0.84c-0.14,0.17-0.21,0.4-0.36,0.6c-0.07,0.1-0.17,0.11-0.24,0.24
		c-0.1,0.21-0.22,0.41-0.36,0.6c-0.18,0.22-0.36,0.54-0.6,0.83c-0.12,0.15-0.32,0.3-0.48,0.48c-0.31,0.36-0.55,0.79-0.84,1.07
		c-0.02,0.02-0.23,0.24-0.24,0.24c-0.08,0.03-0.29-0.05-0.36,0c-0.14,0.11-0.12,0.38-0.24,0.48c-0.27,0.23-0.56,0.38-0.83,0.6
		c-0.06,0.05-0.06,0.2-0.12,0.24s-0.21-0.04-0.24,0c-0.01,0.02,0.02,0.11,0,0.12c-0.17,0.11-0.33,0.12-0.48,0.24
		c-0.12,0.1-0.2,0.23-0.36,0.36c-0.12,0.1-0.27,0.3-0.36,0.36c-0.11,0.07-0.4,0.03-0.6,0.12c-0.06,0.03,0.01,0.11-0.12,0.12
		c-0.15,0.01-0.15,0.19-0.24,0.24c-0.17,0.09-0.39,0.02-0.6,0.12c-0.07,0.03-0.06,0.2-0.12,0.24c-0.04,0.03-0.21-0.04-0.24,0
		c-0.01,0.02,0.02,0.11,0,0.12c-0.17,0.08-0.67,0.11-0.83,0.24c-0.04,0.03-0.09,0.23-0.12,0.24c-0.14,0.06-0.44,0.08-0.6,0.12
		c-0.24,0.06-0.39,0.2-0.6,0.12c-0.36,0.24-0.77,0.4-1.19,0.48c-0.34,0.13-0.71,0.21-1.07,0.24c-0.24,0-0.48,0.05-0.72,0.12
		c-0.04,0.01-0.21-0.03-0.24,0c-0.28,0.34-1.28,0.14-1.67,0.6c-1.22-0.28-2.36,0.18-3.58,0.12c-0.32-0.02-0.64-0.06-0.95-0.12
		c-0.24-0.05-0.48-0.21-0.72-0.24c-0.29-0.03-0.53,0.13-0.83,0.12c0.02,0-0.05-0.12-0.12-0.12c-0.12,0.01-0.24,0.01-0.36,0
		c-0.51-0.1-1.68,0.03-2.03-0.48c-0.51,0.13-1.04,0.13-1.55,0c-0.44-0.09-0.91-0.19-1.07-0.48c-0.29-0.05-0.26,0.22-0.6,0.12
		c-0.37-0.05-0.65-0.45-1.07-0.48c-0.08,0.01-0.16,0.01-0.24,0c-0.06-0.02-0.19-0.23-0.24-0.24c-0.37-0.11-0.9,0.04-1.19-0.24
		c-0.1-0.09-0.2-0.08-0.36-0.12c-0.11-0.03-0.35-0.14-0.6-0.24c-0.13-0.05-0.28-0.23-0.48-0.24c-0.21-0.06-0.41-0.14-0.6-0.24
		C85.77,96.09,85.84,96,85.71,96c-0.07,0-0.16-0.09-0.24-0.12c-0.05-0.02-0.13-0.12-0.12-0.12c-0.07-0.01-0.17,0.09-0.12,0.12
		c-0.13-0.07-0.28-0.35-0.48-0.36s-0.58-0.43-0.84-0.6c-0.15-0.1-0.35-0.04-0.48-0.12c-0.05-0.03-0.08-0.22-0.12-0.24
		c-0.06-0.03-0.19,0.04-0.24,0c-0.1-0.07-0.14-0.29-0.24-0.36c-0.11-0.08-0.26-0.04-0.36-0.12c-0.2-0.16-0.4-0.43-0.6-0.59
		s-0.39-0.32-0.6-0.48c-0.11-0.09-0.23-0.17-0.36-0.24c-0.14-0.07-0.24-0.03-0.36-0.12c-0.04-0.03,0.04-0.21,0-0.24
		c-0.11-0.09-0.43-0.08-0.6-0.24c-0.04-0.04,0.04-0.2,0-0.24c-0.22-0.18-0.42-0.38-0.6-0.6c-0.2-0.26-0.38-0.58-0.6-0.83
		c-0.2-0.24-0.53-0.47-0.72-0.72c-0.22-0.24-0.38-0.53-0.48-0.84c-0.43,0.07-0.59,0.44-0.84,0.72c-0.08,0.09-0.09,0.35-0.24,0.36
		c-0.19-0.01-0.35,0.14-0.36,0.33c0,0.01,0,0.02,0,0.03c0,0.03-0.21,0.21-0.24,0.24c-0.11,0.09-0.23,0.17-0.36,0.24
		c-0.17,0.11-0.33,0.23-0.48,0.36c-0.09,0.07-0.16,0.17-0.24,0.24c-0.22,0.18-0.37,0.42-0.6,0.6c-0.04,0.03-0.21-0.04-0.24,0
		s-0.08,0.21-0.12,0.24c-0.19,0.1-0.39,0.18-0.6,0.24c-0.12,0.05-0.09,0.23-0.24,0.24c-0.22,0.08-0.43,0.2-0.6,0.36
		c-0.15,0.13-0.31,0.25-0.48,0.36c-0.06,0.03-0.09,0.1-0.12,0.12c-0.14,0.11-0.3,0.19-0.48,0.24c-0.08,0.03-0.16,0.07-0.24,0.12
		c-0.13,0.12-0.3,0.21-0.48,0.24c-0.12,0.03-0.26,0.17-0.48,0.24c0.06-0.02-0.07-0.13-0.12-0.12c0.03,0-0.08,0.11-0.12,0.12
		c-0.33,0.13-0.65,0.29-0.95,0.48c-0.08,0.05-0.27,0.05-0.36,0.12c-0.04,0.03-0.08,0.22-0.12,0.24c-0.18,0.09-0.47,0.03-0.72,0.12
		c-0.06,0.02-0.19,0.22-0.24,0.24c-0.28,0.09-0.38,0.01-0.72,0.12c-0.04,0.02,0,0.11-0.12,0.12c-0.2,0.01-0.4,0.17-0.72,0
		c-0.07,0.18-0.22,0.17-0.48,0.24s-0.79,0.16-1.31,0.24c-0.04,0.01-0.22-0.03-0.24,0c-0.05,0.09-0.14,0.13-0.24,0.12
		c-0.02-0.01-0.29-0.2-0.36-0.12c-0.1,0.12-0.42,0.13-0.84,0.12c-0.18-0.01-0.22-0.13-0.36-0.12c0.01,0-0.04,0.11-0.12,0.12
		c-0.92,0.07-1.85-0.01-2.74-0.24c-0.04-0.02-0.21,0.03-0.24,0c-0.27-0.33-1.2-0.35-1.79-0.48c-0.02,0-0.02-0.11-0.12-0.12
		c-0.16,0.01-0.32,0.01-0.48,0c-0.01,0-0.02-0.11-0.12-0.12c-0.36-0.01-0.72-0.05-1.07-0.12c-0.02,0-0.02-0.11-0.12-0.12
		c-0.16,0.02-0.32,0.02-0.48,0c-0.03-0.01-0.01-0.11-0.12-0.12c-0.22-0.02-0.43-0.1-0.6-0.24c0.01,0-0.05-0.21-0.12-0.12
		c-0.01,0.01-0.17,0.2-0.24,0.12c-0.01-0.01,0.02-0.11,0-0.12c-0.04-0.02-0.21,0.03-0.24,0c-0.01-0.02,0.02-0.11,0-0.12
		c-0.04-0.02-0.21,0.04-0.24,0c-0.01-0.01,0.01-0.11,0-0.12c-0.04-0.02-0.21,0.03-0.24,0c-0.18-0.12-0.39-0.2-0.6-0.24
		c-0.22-0.06-0.43-0.07-0.6-0.12c-0.14-0.05-0.33-0.18-0.48-0.24c-0.05-0.02,0.01-0.11-0.12-0.12c-0.16,0.02-0.32,0.02-0.48,0
		c-0.05-0.02,0.01-0.11-0.12-0.12c-0.12-0.03-0.24-0.07-0.36-0.12c-0.05-0.03-0.08-0.22-0.12-0.24c-0.09-0.04-0.42,0.07-0.48,0
		c-0.08-0.09,0.05-0.23-0.12-0.24c-0.21,0-0.41-0.04-0.6-0.12c-0.06-0.03-0.07-0.22-0.12-0.24c-0.1-0.04-0.26,0.03-0.36,0
		c-0.04-0.01-0.01-0.11-0.12-0.12c-0.12,0.01-0.24,0.01-0.36,0c-0.06-0.02-0.08-0.22-0.12-0.24c-0.21-0.1-0.53,0.02-0.83-0.12
		c-0.05-0.03,0.01-0.11-0.12-0.12c-0.15-0.01-0.15-0.18-0.24-0.24c-0.15-0.09-0.31-0.17-0.48-0.24c-0.09-0.05-0.27,0.05-0.36,0
		s0-0.18-0.12-0.24c-0.18-0.11-0.39-0.15-0.6-0.12c-0.11-0.2-0.03-0.28-0.36-0.36c-0.35-0.2-0.67-0.44-0.95-0.72
		c-0.07-0.06-0.17-0.19-0.24-0.24c-0.05-0.03-0.2,0.04-0.24,0s0.04-0.22,0-0.24c-0.09-0.05-0.26,0.04-0.36,0
		c-0.17-0.53-0.56-0.97-1.07-1.19c0.18-0.34-0.24-0.21-0.36-0.36c-0.03-0.04,0.04-0.21,0-0.24c-0.01-0.01-0.11,0.01-0.12,0
		c-0.02-0.04,0.03-0.21,0-0.24c-0.14-0.1-0.26-0.22-0.36-0.36c-0.03-0.04,0.04-0.21,0-0.24c-0.1-0.08-0.23,0.05-0.24-0.12
		s-0.37-0.42-0.48-0.72c-0.02-0.04,0.03-0.21,0-0.24c-0.01-0.01-0.11,0.02-0.12,0c-0.14-0.23-0.26-0.47-0.36-0.72
		c-0.02-0.16-0.06-0.32-0.12-0.48c-0.03-0.06-0.11,0.01-0.12-0.12c-0.03-0.12-0.07-0.24-0.12-0.36c-0.02-0.07,0.02-0.17,0-0.24
		c0,0-0.11-0.35-0.12-0.36c-0.11-0.18-0.19-0.39-0.24-0.6c-0.02-0.32-0.06-0.64-0.12-0.95c-0.1-0.08-0.21-0.09-0.24-0.24
		c-0.05-0.26,0.14-0.32,0.12-0.48s-0.22-0.19-0.24-0.36c-0.02-0.22,0.12-0.44,0.12-0.72c-0.01-0.29-0.21-0.48-0.12-0.84
		c0.04-0.16,0.2-0.19,0.24-0.36c0.06-0.27-0.05-0.59,0-0.83c0.05-0.21,0.19-0.38,0.24-0.6c0.05-0.2-0.05-0.44,0.12-0.6
		c-0.2-0.18-0.37-0.09-0.6-0.12c-0.1-0.02-0.12-0.12-0.24-0.12s-0.23,0.2-0.6,0.12c-0.1-0.02-0.12-0.12-0.24-0.12
		c-0.21,0-0.26,0.15-0.48,0.12c0.03,0-0.07-0.11-0.12-0.12c-0.32-0.06-0.64-0.14-0.95-0.24c-0.04-0.02-0.21,0.03-0.24,0
		c-0.14-0.17-0.81-0.16-1.19-0.24c-0.04-0.01-0.22,0.03-0.24,0c-0.16-0.19-0.93-0.22-1.31-0.36c-0.36-0.13-0.79-0.21-0.95-0.6
		c-0.68-0.05-1.31-0.35-1.79-0.84c-0.02-0.28-0.17-0.16-0.48-0.24c-0.19-0.05-0.17-0.21-0.36-0.36c-0.16-0.12-0.4-0.16-0.6-0.36
		s-0.08-0.14-0.48-0.24c-0.2-0.05-0.04-0.35-0.48-0.24c0.18-0.34-0.21-0.32-0.36-0.48c-0.3-0.41-0.65-0.78-1.05-1.11
		c-0.07-0.04,0.02-0.11-0.12-0.12c-0.23-0.01-0.13-0.22-0.24-0.36s-0.33-0.12-0.48-0.36c-0.29-0.34-0.61-0.66-0.95-0.95
		c-0.22-0.22-0.43-0.46-0.6-0.72c-0.05-0.08-0.07-0.16-0.12-0.24c-0.03-0.05-0.23-0.2-0.24-0.24c-0.03-0.09,0.05-0.28,0-0.36
		c-0.07-0.12-0.28-0.23-0.36-0.36s-0.05-0.24-0.12-0.36c-0.04-0.06-0.11,0.02-0.12-0.12c-0.01-0.19-0.23-0.41-0.36-0.6
		c-0.16-0.34-0.41-0.63-0.72-0.84c-0.06-0.43-0.23-0.84-0.48-1.19c-0.08-0.13-0.15-0.22-0.24-0.36s-0.01-0.49-0.12-0.6
		c-0.09-0.09-0.08-0.09-0.12-0.24c-0.02-0.08-0.12-0.12-0.12-0.12c-0.02-0.14,0.11-0.07,0.12-0.12c0.01-0.03-0.31-0.39,0-0.48
		c-0.24-0.53-0.4-1.09-0.48-1.67c-0.01-0.04,0.03-0.22,0-0.24c-0.16-0.13,0.07-0.1,0-0.36c-0.02-0.1-0.11-0.09-0.12-0.12
		c-0.09-0.23-0.17-0.47-0.24-0.72c-0.03-0.22,0.12-0.35,0.12-0.6c0,0.02-0.11-0.05-0.12-0.12c-0.01-0.16,0.01-0.32,0-0.48
		c-0.1-0.67-0.14-1.35-0.12-2.03c0,0.01,0.11-0.04,0.12-0.12c0-0.03-0.16-0.2-0.12-0.24c0.1-0.09,0.15-0.23,0.12-0.36
		c0,0.02-0.2-0.05-0.12-0.12c0.14-0.11,0.08-0.31,0.12-0.72c0.02-0.25,0.1-0.44,0.12-0.72c0.02-0.24-0.03-0.48,0-0.72
		c0,0,0.11-0.03,0.12-0.12c-0.01-0.16-0.01-0.32,0-0.48c0-0.01,0.12-0.02,0.12-0.12c0.02-0.48,0.19-0.93,0.48-1.31
		c0.04-0.07,0.11,0.02,0.12-0.12c0.11-0.38,0.27-0.74,0.48-1.07c0.01-0.01,0.1-0.46,0.12-0.48s0.11,0.02,0.12,0
		c0.02-0.04-0.03-0.21,0-0.24c0.01-0.01,0.11,0.01,0.12,0c0.02-0.04-0.03-0.21,0-0.24c0.01-0.01,0.11,0.02,0.12,0
		c0.02-0.04-0.03-0.21,0-0.24c0.01-0.01,0.11,0.02,0.12,0c0.02-0.04-0.03-0.21,0-0.24c0.01-0.01,0.35-0.33,0.24-0.6
		c0.59-0.04,0.71-0.56,0.95-0.95c0.39-0.1,0.58-0.47,0.84-0.72s0.56-0.39,0.72-0.72c0.52,0.05,0.61-0.34,1.07-0.36
		c0.14-0.32-0.28-0.14-0.36-0.24c-0.1-0.17-0.22-0.33-0.36-0.48c-0.04-0.03-0.21,0.04-0.24,0c-0.07-0.09-0.15-0.17-0.24-0.24
		c-0.04-0.03-0.08-0.22-0.12-0.24c-0.06-0.03-0.19,0.04-0.24,0s0.04-0.21,0-0.24c-0.16-0.13-0.47-0.18-0.71-0.36
		c-0.15-0.11-0.23-0.24-0.36-0.36c-0.2-0.18-0.47-0.35-0.71-0.6c-0.03-0.03-0.23-0.09-0.24-0.12c-0.02-0.05,0.04-0.2,0-0.24
		s-0.21,0.04-0.24,0c-0.08-0.1-0.05-0.26-0.12-0.36c-0.03-0.04-0.22-0.08-0.24-0.12c-0.07-0.15-0.02-0.35-0.12-0.48
		c-0.04-0.05-0.21-0.07-0.24-0.12c-0.08-0.15-0.02-0.33-0.12-0.48s-0.26-0.21-0.36-0.36c-0.08-0.11-0.09-0.31-0.24-0.36
		c0.05-0.49-0.13-0.97-0.48-1.31c-0.06-0.26,0.08-0.43,0-0.71c-0.06-0.21-0.34-0.19-0.24-0.6c0.01-0.02,0.2-0.29,0.12-0.36
		c-0.46-0.38-0.13-1.52-0.12-2.15c0-0.37-0.11-0.73-0.12-1.07c-0.01-0.26,0.1-0.54,0.12-0.83c0-0.49,0.08-0.97,0.24-1.43
		c0,0,0.11-0.47,0.12-0.48c0.12-0.18,0.2-0.39,0.24-0.6c0.01-0.04,0.11,0,0.12-0.12c0-0.05-0.03-0.33,0-0.36
		c0.01-0.01,0.11,0.01,0.12,0c0.02-0.04-0.03-0.21,0-0.24c0.01-0.01,0.11,0.02,0.12,0c0.02-0.04-0.04-0.21,0-0.24
		c0.02-0.01,0.11,0.01,0.12,0c0.02-0.04-0.04-0.21,0-0.24c0.01-0.01,0.11,0.01,0.12,0c0.02-0.04-0.04-0.21,0-0.24
		c0.01-0.01,0.11,0.02,0.12,0c0.14-0.35,0.26-0.71,0.36-1.07c0.28-0.08,0.26-0.39,0.36-0.6c0.03-0.06,0.23-0.2,0.24-0.24
		c0.03-0.1-0.05-0.27,0-0.36c0.08-0.16,0.28-0.34,0.36-0.48c0.13-0.23,0.11-0.41,0.24-0.6c0.03-0.04,0.22-0.08,0.24-0.12
		c0.03-0.05-0.04-0.19,0-0.24s0.21,0.04,0.24,0c0.02-0.02-0.02-0.09,0-0.12c0.06-0.08,0.33-0.17,0.36-0.24
		c0.02-0.04-0.03-0.21,0-0.24c0.14-0.1,0.4,0.03,0.48-0.12c0.17-0.04,0.02-0.36,0.12-0.48c0.06-0.08,0.3-0.04,0.36-0.12
		c0.08-0.11,0.05-0.22,0.12-0.36c0.05-0.09,0.19-0.16,0.24-0.24c0.07-0.1,0.17-0.15,0.24-0.24c0.08-0.11,0.04-0.23,0.12-0.36
		c0.05-0.07,0.2-0.17,0.24-0.24c0.07-0.14,0.03-0.25,0.12-0.36c0.26-0.33,0.67-0.45,0.84-0.83c0.36-0.05,0.7-0.22,0.95-0.48
		c0.21-0.17,0.53-0.39,0.83-0.6c0.17-0.11,0.42-0.26,0.6-0.36c0.11-0.06,0.22-0.05,0.36-0.12c0.1-0.05,0.17-0.2,0.24-0.24
		c0.21-0.1,0.49-0.12,0.72-0.24c0.19-0.1,0.37-0.23,0.6-0.36c0.18-0.1,0.46-0.17,0.6-0.36c0.61,0.2,1.12-0.19,1.79-0.24
		c0.16,0.01,0.32,0.01,0.48,0c0.18-0.03,0.42-0.22,0.6-0.24c1.12-0.05,2.23-0.01,3.34,0.12c0.21,0.01,0.25-0.14,0.48-0.12
		c-0.04,0,0.08,0.11,0.12,0.12c0.08,0.02,0.16-0.01,0.24,0c0.06-0.3-0.23-0.54-0.36-0.83c-0.08-0.17-0.04-0.3-0.12-0.48
		c-0.07-0.14-0.2-0.2-0.24-0.36c-0.08-0.35-0.01-1.07-0.12-1.67c-0.02-0.11-0.11-0.18-0.12-0.36c-0.16-0.85-0.03-1.73,0.36-2.5
		c-0.02-0.4,0.02-0.8,0.12-1.19c-0.06-0.42,0.42-0.29,0.36-0.72c0.13-0.71,0.51-1.35,1.07-1.79c-0.01-0.34,0.28-0.55,0.48-0.84
		c0.04-0.07,0.11,0.02,0.12-0.12c0.01-0.26,0.33-0.13,0.48-0.36c0.14-0.21,0.3-0.41,0.48-0.6c0.04-0.03,0.2,0.04,0.24,0
		c0.1-0.12,0.12-0.37,0.48-0.36c0.05-0.14,0.13-0.26,0.24-0.36c0.15-0.14,0.31-0.26,0.48-0.36c0.06-0.04,0.09-0.1,0.12-0.12
		c0.08-0.05,0.26-0.05,0.36-0.12c0.2-0.14,0.11-0.27,0.48-0.36c0.13-0.03,0.08-0.23,0.24-0.24c0.08-0.03,0.16-0.07,0.24-0.12
		c0.07-0.05,0.17-0.21,0.24-0.24c0.21-0.11,0.55-0.13,0.83-0.24c0.05-0.02,0-0.11,0.12-0.12c0.04,0,0.08,0,0.12,0
		c0.12-0.05,0.24-0.09,0.36-0.12c0.1-0.02,0.08-0.11,0.12-0.12c0.29-0.09,0.65-0.04,0.95-0.12c0.03-0.01,0.01-0.11,0.12-0.12
		c0.07,0,0.33-0.08,0.48-0.12c0.08-0.02,0.11-0.12,0.12-0.12c0.26-0.05,0.31,0.13,0.48,0.12c-0.05,0,0.09-0.11,0.12-0.12
		c0.21-0.05,0.72-0.08,1.07-0.12c-0.04,0,0.06,0.19,0.12,0.12c0.87-0.35,1.81-0.48,2.74-0.36c0.1,0.02,0.12,0.11,0.24,0.12
		c0.19,0.01,0.21-0.13,0.36-0.12c0.1,0.01,0.12,0.11,0.24,0.12c0.28-0.02,0.56-0.02,0.84,0c0.2,0.03,0.13,0.04,0.24,0.12
		c0.07,0.05-0.02,0.11,0.12,0.12c0.47,0.09,0.95,0.12,1.43,0.12c0.14,0.14,0.3,0.26,0.48,0.36c0.04,0.02,0.21-0.04,0.24,0
		c0.01,0.01-0.02,0.11,0,0.12c0.04,0.02,0.21-0.03,0.24,0c0.34,0.18,0.7,0.3,1.08,0.36c0.17,0.04,0.41,0.07,0.6,0.12
		c0.29,0.09,0.57,0.21,0.84,0.36c0.07,0.04-0.02,0.11,0.12,0.12c0.34,0.12,0.66,0.28,0.95,0.48c0.1,0.07,0.14,0.29,0.24,0.36
		c0.13,0.09,0.35,0.02,0.48,0.12c0.18,0.19,0.34,0.39,0.48,0.6c0.22,0.03,0.42,0.11,0.6,0.24C62.05,6.83,62.14,7,62.2,7.03
		c0.08,0.03,0.29-0.05,0.36,0c0.04,0.03-0.04,0.21,0,0.24c0.19,0.13,0.35,0.29,0.48,0.48c0.17,0.24,0.24,0.55,0.48,0.71
		c0.27,0.17,0.46-0.1,0.6-0.24c0.1-0.1,0.03-0.25,0.12-0.36c0.03-0.04,0.2,0.04,0.24,0c0.1-0.1,0.05-0.34,0.12-0.48
		c0.01-0.01,0.1-0.08,0.12-0.12c0.05-0.07,0.2-0.17,0.24-0.24c0.05-0.12,0.09-0.24,0.12-0.36c0.02-0.05,0.09-0.01,0.12-0.12
		c0.04-0.17,0.12-0.34,0.24-0.48c0.04-0.07,0.11,0.02,0.12-0.12c0.01-0.17,0.53-0.63,0.71-0.83c0.13-0.11,0.25-0.23,0.36-0.36
		c0.06-0.14,0.25-0.14,0.36-0.24c0.24-0.21,0.4-0.68,0.83-0.84c0.22-0.02,0.07-0.4,0.24-0.48c0.4,0.17,0.49-0.34,0.72-0.48
		c0.15-0.09,0.42-0.04,0.6-0.12c0.05-0.03,0.08-0.22,0.12-0.24c0.32-0.14,0.76-0.2,1.19-0.36c0.39-0.05,0.38-0.5,0.72-0.6
		c1.07,0.03,2.12-0.17,3.1-0.6c0.2-0.04,0.39,0.08,0.6,0.12c0.18,0.03,0.46-0.07,0.48,0.12c0.23-0.07,0.47-0.11,0.72-0.12
		c0,0,0.04-0.11,0.12-0.12s0.19,0.15,0.36,0.12c0.15-0.02,0.24-0.31,0.36-0.12c0.84-0.02,1.67,0.02,2.51,0.12
		c0.03,0.01,0.01,0.11,0.12,0.12c0.25,0.04,0.49,0.12,0.72,0.24c0.21,0.07,0.32,0.06,0.48,0.12c0.14,0.05,0.33,0.18,0.48,0.24
		c0.18,0.07,0.3,0.04,0.48,0.12c0.14,0.06,0.21,0.16,0.36,0.24c0.11,0.05,0.34,0.04,0.48,0.12c0.21,0.12,0.18,0.48,0.48,0.36
		c0.27-0.04,0.13,0.34,0.36,0.36c0.17,0.31,0.62,0.34,0.95,0.48c-0.05,0.24,0.14,0.26,0.24,0.36s-0.06,0.19,0.12,0.24
		c0.04,0.01,0.21-0.03,0.24,0s-0.04,0.2,0,0.24c0.22,0.14,0.42,0.3,0.6,0.48c0.03,0.04-0.04,0.21,0,0.24
		c0.17,0.15,0.33,0.3,0.48,0.48c0.18,0.21,0.4,0.4,0.6,0.6c0.1,0.1,0.14,0.26,0.24,0.36c0.2,0.17,0.36,0.37,0.48,0.6
		c0.06,0.12,0.23,0.21,0.24,0.36c0.01,0.1,0.17,0.19,0.12,0.36c0.05,0.14,0.26,0.14,0.36,0.24c0.04,0.04-0.04,0.21,0,0.24
		C88.39,8.3,88.59,8.62,88.9,8.84z"/>
	<g>
		<path class="st1" d="M145.17,54.14c-0.02-0.07-0.04-0.13-0.07-0.19c0.1-0.38,0.01-0.88-0.17-1.47c-0.05-0.22-0.07-0.29-0.12-0.48
			c-0.03-0.11-0.07-0.21-0.12-0.29c0.01-0.06,0.02-0.11,0.02-0.16c0-0.25-0.1-0.47-0.26-0.62c0.13-0.42-0.05-0.69-0.18-0.83
			c-0.01-0.01-0.01-0.01-0.02-0.02c0-0.1-0.02-0.21-0.06-0.33c-0.03-0.08-0.07-0.14-0.12-0.21l-0.13-0.27
			c-0.04-0.09-0.1-0.16-0.17-0.23c-0.06-0.18-0.14-0.36-0.24-0.53c0-0.14-0.03-0.32-0.16-0.5c-0.05-0.07-0.11-0.13-0.17-0.17
			c-0.09-0.2-0.25-0.37-0.48-0.51c-0.08-0.13-0.15-0.27-0.22-0.4c-0.09-0.18-0.18-0.36-0.29-0.53l-0.09-0.14l-0.14-0.09
			c-0.34-0.22-0.67-0.47-1.02-0.8c-0.11-0.08-0.22-0.15-0.33-0.21c-0.04-0.12-0.1-0.23-0.19-0.32c-0.11-0.12-0.24-0.18-0.37-0.22
			c-0.06-0.1-0.14-0.17-0.21-0.22l-0.15-0.08c-0.11-0.04-0.22-0.08-0.33-0.11l0.19-0.19c0.11-0.1,0.25-0.24,0.36-0.43
			c0.09-0.05,0.19-0.11,0.29-0.21c0.14-0.15,0.21-0.32,0.28-0.52c0.06-0.05,0.12-0.09,0.18-0.13c0.33-0.12,0.6-0.38,0.73-0.7
			c0.1-0.06,0.21-0.15,0.31-0.29c0.13-0.19,0.18-0.38,0.2-0.54c0.08-0.06,0.15-0.15,0.21-0.26c0.09-0.19,0.11-0.35,0.15-0.53
			c0.04-0.05,0.09-0.11,0.15-0.2c0.07-0.05,0.17-0.14,0.26-0.27c0.14-0.23,0.17-0.45,0.16-0.55c0.04-0.08,0.07-0.18,0.11-0.28
			c0.01-0.02,0.02-0.05,0.03-0.08l0.6-0.16l-0.22-0.74c-0.01-0.04-0.02-0.08-0.02-0.12c0.09-0.09,0.18-0.21,0.26-0.4
			c0.06-0.18,0.1-0.36,0.11-0.45c0.08-0.24,0.14-0.51,0.2-0.75l0.11-0.06l0.08-0.35c0.11-0.52,0.2-1.04,0.25-1.57
			c0.1-0.32,0.18-0.64,0.24-0.97l0.01-0.13c0-0.47-0.03-0.95-0.08-1.42c0.08-0.17,0.1-0.36,0.06-0.54l-0.1-0.33
			c0-0.06,0-0.13-0.01-0.19c-0.01-0.11-0.04-0.25-0.06-0.38c-0.02-0.14-0.05-0.28-0.06-0.39c0-0.09,0.03-0.22,0.06-0.35
			c0.05-0.22,0.11-0.49,0.06-0.77v-0.37c0-0.03,0-0.06,0-0.1l-0.2,0.01c-0.14-0.17-0.34-0.32-0.6-0.34l-0.04-0.34
			c0.02,0,0.57-0.07,0.71,0.44c0-0.02,0-0.08,0.01-0.14c0.02-0.14,0.04-0.32,0-0.54c-0.06-0.28-0.19-0.5-0.29-0.66
			c-0.02-0.03-0.04-0.06-0.06-0.09c0.02-0.12,0.03-0.29-0.01-0.47c-0.04-0.2-0.13-0.34-0.22-0.44c0.06-0.24,0.03-0.47-0.08-0.69
			l-0.06-0.13l-0.13-0.1c-0.01-0.02-0.04-0.09-0.06-0.14c-0.03-0.08-0.07-0.16-0.11-0.24c-0.07-0.13-0.16-0.23-0.23-0.3
			c-0.02-0.11-0.04-0.27-0.13-0.43l-0.06-0.1c-0.27-0.35-0.47-0.75-0.59-1.18l-0.07-0.25l-0.21-0.15c-0.28-0.2-0.52-0.44-0.73-0.71
			c-0.02-0.11-0.06-0.29-0.2-0.46c-0.08-0.1-0.16-0.17-0.2-0.19c-0.2-0.31-0.44-0.6-0.71-0.87c-0.03-0.24-0.16-0.4-0.27-0.49
			c-0.14-0.11-0.28-0.16-0.41-0.18c-0.25-0.25-0.37-0.39-0.43-0.46c-0.06-0.23-0.2-0.4-0.34-0.51c-0.04-0.14-0.11-0.26-0.22-0.37
			c-0.2-0.19-0.44-0.25-0.59-0.28c-0.03-0.01-0.07-0.01-0.05-0.02c-0.07-0.12-0.22-0.41-0.56-0.55l-0.07-0.05
			c-0.23-0.17-0.44-0.35-0.68-0.57c-0.1-0.08-0.2-0.19-0.28-0.29c-0.12-0.14-0.23-0.25-0.34-0.33c-0.1-0.07-0.19-0.12-0.28-0.15
			c-0.05-0.07-0.11-0.15-0.2-0.21c-0.15-0.11-0.31-0.16-0.44-0.19c-0.02-0.02-0.03-0.04-0.05-0.05c-0.17-0.18-0.42-0.44-0.8-0.49
			c-0.03-0.02-0.05-0.03-0.07-0.05c-0.07-0.04-0.13-0.08-0.19-0.12c-0.1-0.05-0.2-0.11-0.29-0.17c-0.1-0.06-0.19-0.12-0.29-0.18
			c-0.13-0.07-0.24-0.1-0.3-0.11c-0.07-0.08-0.16-0.17-0.28-0.24c-0.11-0.07-0.22-0.1-0.32-0.12c-0.06-0.07-0.15-0.16-0.28-0.23
			c-0.13-0.08-0.25-0.11-0.32-0.12c-0.07-0.08-0.17-0.19-0.3-0.25c-0.09-0.05-0.19-0.08-0.27-0.11c-0.1-0.09-0.23-0.16-0.38-0.2
			c-0.05-0.01-0.09-0.03-0.13-0.04c-0.08-0.03-0.15-0.06-0.24-0.08c-0.03-0.01-0.06-0.01-0.09-0.02c-0.06-0.05-0.12-0.11-0.21-0.15
			c-0.11-0.06-0.21-0.11-0.3-0.15c-0.05-0.02-0.09-0.04-0.11-0.05c-0.43-0.29-0.99-0.3-1.48-0.31c-0.12,0-0.25,0-0.37-0.01
			c-0.1-0.07-0.21-0.11-0.29-0.14c-0.05-0.01-0.09-0.03-0.13-0.04c-0.08-0.03-0.16-0.06-0.23-0.08c-0.11-0.03-0.21-0.03-0.29-0.03
			c-0.21-0.08-0.43-0.15-0.65-0.21l-0.15-0.03c-0.15-0.01-0.3-0.01-0.36,0c0.3,0.02,0.59,0.23,0.58,0.66l-0.72-0.03l0.02-0.75
			c-0.04,0-0.08,0-0.12,0l-0.65,0v0.01c-0.21-0.04-0.39-0.03-0.54-0.01l0-0.04l-0.67,0.03c0,0-0.01,0-0.02,0l0.04,0.75l-0.12,0.02
			l-0.06-0.65c-0.23,0.02-0.46,0.02-0.69,0l-0.08-0.01l-0.24,0.03l0-0.03l-0.75,0v0.12c-0.06,0.01-0.12,0.03-0.19,0.05
			c-0.22-0.08-0.43-0.06-0.55-0.03c-0.03,0.01-0.21,0.06-0.36,0.21c-0.04,0-0.07,0.01-0.09,0.01c-0.23,0.01-0.43,0.1-0.57,0.24
			c-0.16,0.05-0.33,0.1-0.5,0.13l-0.05,0.01c-0.01-0.01-0.01-0.02-0.01-0.02c-0.01-0.2-0.08-0.38-0.2-0.52
			c0-0.02-0.01-0.05-0.01-0.07c-0.04-0.3-0.1-0.74-0.45-1.07c-0.13-0.21-0.24-0.5-0.35-0.79c-0.13-0.35-0.27-0.71-0.48-1.05
			c-0.06-0.15-0.17-0.32-0.38-0.44c-0.13-0.35-0.37-0.61-0.54-0.77c-0.01-0.14-0.06-0.33-0.21-0.49l-0.2-0.18l0.41-1.3l-1.21,0.53
			c-0.05-0.05-0.1-0.1-0.16-0.15c-0.11-0.08-0.22-0.12-0.32-0.15c-0.06-0.1-0.14-0.21-0.26-0.31c-0.05-0.04-0.09-0.07-0.14-0.09
			c-0.03-0.06-0.07-0.13-0.13-0.19c-0.13-0.14-0.29-0.22-0.48-0.24c-0.01-0.01-0.02-0.02-0.02-0.03c-0.22-0.21-0.46-0.4-0.78-0.6
			c-0.18-0.09-0.35-0.2-0.5-0.3c-0.11-0.08-0.21-0.15-0.32-0.22l-0.01-0.01c-0.07-0.09-0.18-0.22-0.35-0.31
			c-0.12-0.06-0.23-0.1-0.3-0.11c-0.07-0.08-0.17-0.18-0.31-0.26c-0.11-0.06-0.21-0.09-0.3-0.11c-0.2-0.33-0.44-0.48-0.65-0.54
			c0,0,0-0.01-0.01-0.01c-0.24-0.24-0.48-0.38-0.73-0.43l-0.02-0.09l-0.37-0.16c-0.16-0.07-0.32-0.08-0.47-0.08
			c-0.08-0.08-0.19-0.15-0.34-0.19c-0.19-0.05-0.37-0.07-0.53-0.08c-0.11-0.01-0.22-0.02-0.3-0.04c-0.12-0.04-0.24-0.08-0.37-0.12
			l-0.33-0.11c-0.1-0.03-0.19-0.04-0.29-0.04c-0.12-0.09-0.28-0.17-0.54-0.22c-0.42-0.07-0.85-0.11-1.26-0.13
			c-1.32-0.08-2.65-0.04-3.98,0.13c-0.09,0.01-0.2,0.03-0.31,0.04c-0.26,0.03-0.51,0.07-0.58,0.09c-0.08,0.02-0.18,0.06-0.27,0.12
			c-0.02,0-0.03,0.01-0.05,0.02c-0.13,0.05-0.26,0.11-0.38,0.19c-0.1,0.01-0.22,0.03-0.33,0.1c-0.21-0.01-0.4,0.07-0.53,0.14
			c-0.1-0.01-0.25,0-0.43,0.05c-0.15,0.06-0.25,0.14-0.35,0.25c0,0,0,0,0,0c-0.12,0.02-0.29,0.04-0.48,0.1
			c-0.16,0.06-0.32,0.12-0.48,0.19l-0.23,0.1c-0.64,0.35-1.33,0.61-2.06,0.76l-0.57,0.12l-0.01,0.33c-0.09,0.03-0.17,0.07-0.24,0.11
			c-0.09,0.05-0.16,0.11-0.21,0.17c-0.32,0.02-0.56,0.15-0.72,0.38C93,4.29,92.92,4.36,92.85,4.43c-0.14,0.13-0.27,0.25-0.31,0.35
			c-0.4,0.08-0.61,0.37-0.72,0.55c-0.19,0.13-0.4,0.24-0.63,0.35c-0.2,0.1-0.39,0.23-0.54,0.37c-0.11,0.02-0.26,0.07-0.42,0.18
			c-0.08,0.06-0.14,0.14-0.19,0.21c-0.1,0.03-0.21,0.09-0.33,0.19c-0.19,0.17-0.37,0.35-0.59,0.58c-0.09,0.08-0.17,0.17-0.23,0.24
			c-0.01,0.01-0.02,0.03-0.03,0.04c-0.03-0.04-0.06-0.09-0.1-0.13c-0.08-0.08-0.16-0.14-0.23-0.18c-0.03-0.06-0.05-0.11-0.08-0.15
			c-0.07-0.24-0.22-0.4-0.28-0.45c-0.16-0.33-0.39-0.61-0.61-0.8c-0.05-0.09-0.12-0.23-0.25-0.36L87.1,5.21
			c-0.12-0.11-0.24-0.23-0.34-0.34c-0.1-0.12-0.2-0.23-0.31-0.33c-0.03-0.13-0.09-0.28-0.21-0.43c-0.12-0.12-0.25-0.24-0.39-0.34
			c-0.03-0.12-0.09-0.24-0.2-0.36c-0.1-0.1-0.21-0.16-0.32-0.2c-0.01-0.01-0.01-0.01-0.02-0.02l0.06-0.31L84.8,2.63
			c-0.12-0.05-0.25-0.09-0.39-0.13c-0.07-0.02-0.17-0.05-0.23-0.07l-0.16-0.3l-0.05,0c-0.16-0.24-0.38-0.33-0.56-0.37
			c-0.07-0.09-0.17-0.19-0.3-0.27c-0.19-0.11-0.39-0.15-0.58-0.17c0,0,0.01,0,0.02,0c-0.08-0.06-0.19-0.15-0.35-0.22
			C82.01,1,81.86,0.98,81.68,0.95c-0.05-0.02-0.1-0.05-0.15-0.08c-0.11-0.06-0.23-0.12-0.33-0.16c-0.13-0.05-0.23-0.07-0.34-0.09
			c-0.03-0.01-0.07-0.01-0.11-0.02c-0.16-0.08-0.33-0.15-0.51-0.2l-0.03-0.07l-0.38-0.11l-0.12-0.02c-0.73-0.08-1.47-0.13-2.21-0.13
			l-0.37-0.06c-0.2-0.02-0.36,0.03-0.49,0.09c-0.08-0.02-0.18-0.04-0.28-0.03c-0.16,0.01-0.3,0.06-0.43,0.14
			c-0.08,0.01-0.15,0.02-0.23,0.04c-0.13-0.04-0.29-0.06-0.49-0.05c-0.04-0.01-0.08-0.02-0.12-0.04c-0.17-0.05-0.43-0.14-0.74-0.08
			l-0.17,0.05c-0.87,0.38-1.83,0.56-2.77,0.54l-0.12,0L71.18,0.7c-0.38,0.11-0.59,0.38-0.74,0.61l-0.02,0.01
			c-0.18,0.06-0.36,0.11-0.53,0.15c-0.27,0.07-0.51,0.13-0.72,0.23c-0.14,0.06-0.23,0.15-0.3,0.24c-0.15,0.02-0.32,0.05-0.5,0.16
			c-0.15,0.09-0.25,0.2-0.33,0.3l-0.02-0.01l-0.3,0.14c-0.3,0.14-0.42,0.39-0.48,0.6c-0.32,0.2-0.51,0.48-0.65,0.67
			c-0.04,0.06-0.07,0.12-0.06,0.11c-0.11,0.05-0.36,0.15-0.52,0.4c-0.08,0.08-0.17,0.17-0.31,0.3c-0.04,0.05-0.11,0.11-0.18,0.18
			c-0.28,0.28-0.49,0.5-0.61,0.71l-0.06,0.08c-0.11,0.14-0.21,0.29-0.28,0.46l-0.17,0.29l-0.05,0.13c-0.01,0.05-0.03,0.1-0.04,0.14
			c-0.05,0.04-0.11,0.1-0.17,0.18l0,0l-0.13,0.12l-0.06,0.11c-0.03,0.06-0.06,0.12-0.08,0.19c-0.07,0.04-0.13,0.09-0.18,0.14
			c-0.01-0.02-0.02-0.03-0.03-0.05c-0.11-0.15-0.22-0.29-0.35-0.4c-0.04-0.22-0.15-0.37-0.27-0.46c-0.17-0.14-0.36-0.19-0.53-0.19
			c-0.04-0.04-0.09-0.07-0.15-0.11c-0.17-0.11-0.36-0.2-0.55-0.27c-0.12-0.16-0.25-0.31-0.38-0.45l-0.08-0.08
			c-0.16-0.12-0.32-0.17-0.47-0.2c-0.06-0.1-0.16-0.22-0.3-0.31c-0.25-0.16-0.5-0.3-0.77-0.42l-0.34-0.2
			c-0.31-0.18-0.65-0.32-1-0.43c-0.13-0.04-0.27-0.06-0.41-0.09c-0.07-0.01-0.15-0.02-0.28-0.05c-0.28-0.04-0.54-0.13-0.79-0.26
			c-0.06-0.04-0.13-0.07-0.19-0.09c-0.16-0.12-0.34-0.15-0.49-0.15c-0.05-0.04-0.09-0.08-0.13-0.12l-0.23-0.23l-0.32,0
			c-0.34,0.01-0.69-0.02-1.07-0.07c-0.19-0.2-0.4-0.25-0.67-0.29c-0.24-0.01-0.49-0.02-0.69-0.01c-0.09-0.05-0.22-0.1-0.38-0.11
			c-0.14-0.01-0.27,0.02-0.38,0.05c-0.05-0.02-0.11-0.03-0.17-0.05c-0.99-0.12-2.01-0.01-2.95,0.34L49.3,2.57l-0.6,0.01l-0.01,0.05
			c-0.26,0.02-0.51,0.05-0.62,0.08c-0.02,0-0.03,0.01-0.05,0.01c-0.13-0.04-0.29-0.06-0.48-0.02l-0.39,0.07l-0.08,0.14
			C47.03,2.92,46.99,2.93,47,2.93c-0.15,0.01-0.32,0.06-0.47,0.17c-0.03,0-0.07,0-0.11,0.01c-0.2,0.01-0.44,0.02-0.7,0.1l-0.35,0.15
			L45.35,3.4c0,0-0.01,0-0.01,0l-0.01,0c-0.21,0.01-0.4,0.09-0.54,0.22c-0.04,0.01-0.07,0.02-0.11,0.02
			c-0.19,0.04-0.41,0.09-0.6,0.19c-0.15,0.08-0.25,0.18-0.36,0.31c-0.15,0.04-0.33,0.13-0.48,0.32c-0.23,0.1-0.36,0.23-0.43,0.34
			c-0.09,0.02-0.21,0.05-0.32,0.12l-0.21,0.18c-0.19,0.12-0.36,0.25-0.52,0.4c-0.08,0.08-0.16,0.16-0.22,0.25
			c-0.15,0.06-0.29,0.16-0.4,0.3c-0.11,0.03-0.24,0.1-0.37,0.21c-0.17,0.18-0.32,0.37-0.47,0.57c-0.22,0.07-0.37,0.18-0.48,0.3
			l-0.2,0.3c-0.04,0.06-0.09,0.12-0.14,0.17C39.34,7.78,39.15,8,39.06,8.3c-0.58,0.54-0.97,1.24-1.11,2.02
			c-0.26,0.22-0.39,0.5-0.38,0.82c-0.08,0.36-0.12,0.72-0.12,1.09c-0.4,0.87-0.52,1.85-0.35,2.72c0.02,0.25,0.1,0.42,0.13,0.44
			c0.05,0.26,0.05,0.58,0.06,0.86c0.01,0.33,0.01,0.61,0.07,0.85c0.07,0.28,0.22,0.44,0.29,0.53c0.01,0.05,0.02,0.11,0.03,0.18
			c-1.02-0.1-2.06-0.13-3.13-0.08c-0.23,0.03-0.42,0.12-0.57,0.2c-0.03,0.01-0.05,0.03-0.08,0.04c-0.1,0-0.22,0-0.4,0
			c-0.34,0.02-0.62,0.11-0.87,0.18c-0.31,0.09-0.48,0.14-0.63,0.09l-0.48-0.22l-0.32,0.45c-0.03,0.02-0.11,0.05-0.16,0.08
			c-0.08,0.04-0.16,0.07-0.23,0.11c-0.13,0.07-0.25,0.14-0.36,0.21c-0.08,0.05-0.16,0.1-0.23,0.14c-0.05,0.02-0.15,0.05-0.23,0.07
			c-0.17,0.04-0.33,0.09-0.5,0.18c-0.12,0.07-0.21,0.16-0.28,0.24c-0.08,0.02-0.2,0.05-0.31,0.12c-0.2,0.11-0.47,0.27-0.66,0.39
			c-0.33,0.22-0.66,0.46-0.95,0.7c-0.14,0.14-0.32,0.23-0.52,0.26l-0.43,0.06l-0.17,0.4c-0.02,0.04-0.13,0.12-0.21,0.18
			c-0.15,0.11-0.35,0.26-0.52,0.48c-0.12,0.15-0.17,0.3-0.2,0.42c-0.07,0.06-0.15,0.14-0.21,0.24c-0.08,0.12-0.11,0.24-0.14,0.34
			c-0.06,0.05-0.12,0.11-0.17,0.17c-0.08,0.07-0.22,0.18-0.32,0.36c-0.02,0.04-0.04,0.07-0.05,0.11c-0.11,0.04-0.23,0.12-0.34,0.24
			c-0.09,0.11-0.15,0.22-0.18,0.34c-0.1,0.03-0.2,0.08-0.3,0.15c-0.16,0.12-0.24,0.27-0.28,0.41c-0.02,0.02-0.05,0.03-0.07,0.05
			c-0.17,0.05-0.29,0.15-0.38,0.25c-0.07,0.08-0.11,0.17-0.14,0.26c-0.05,0.04-0.09,0.09-0.13,0.15c-0.15,0.21-0.2,0.41-0.24,0.54
			c-0.02,0.07-0.03,0.1-0.03,0.11c-0.02,0.03-0.05,0.07-0.09,0.1c-0.1,0.11-0.22,0.25-0.3,0.43c-0.06,0.13-0.09,0.26-0.09,0.38
			c-0.06,0.06-0.11,0.13-0.15,0.22c-0.03,0.07-0.06,0.15-0.09,0.26l-0.2,0.05l-0.11,0.42c-0.06,0.23-0.13,0.45-0.21,0.67L21,28.77
			c-0.13,0.11-0.2,0.24-0.24,0.37c-0.05,0.07-0.09,0.15-0.12,0.23c-0.05,0.07-0.09,0.15-0.12,0.24c-0.06,0.08-0.1,0.16-0.12,0.24
			c-0.07,0.1-0.11,0.2-0.14,0.31l-0.12,0.48c-0.02,0.1-0.05,0.19-0.1,0.27c-0.11,0.14-0.15,0.31-0.23,0.7
			c-0.18,0.54-0.27,1.1-0.28,1.62c-0.01,0.1-0.03,0.2-0.05,0.29c-0.04,0.18-0.08,0.38-0.07,0.6c0,0.2,0.03,0.4,0.07,0.61
			c0.02,0.15,0.05,0.3,0.05,0.44c0,0.15-0.03,0.33-0.05,0.52c-0.07,0.57-0.16,1.24,0.09,1.76l-0.01,0.06
			c-0.13,0.54,0.07,0.87,0.23,1.05c-0.02,0.14-0.05,0.35,0.01,0.61l0.05,0.22l0.16,0.15c0.19,0.18,0.28,0.44,0.25,0.7l-0.06,0.62
			l0.35,0.11c0.02,0.04,0.05,0.09,0.08,0.13c0.1,0.14,0.21,0.24,0.3,0.31c0.01,0.12,0.04,0.29,0.15,0.48
			c0.07,0.12,0.15,0.2,0.24,0.26c0.02,0.08,0.04,0.17,0.08,0.27c0.07,0.16,0.18,0.27,0.3,0.34c0.03,0.1,0.09,0.21,0.17,0.32
			c0.05,0.05,0.1,0.11,0.18,0.16c0.11,0.18,0.29,0.27,0.44,0.34c0.15,0.14,0.3,0.26,0.44,0.37c0.08,0.06,0.15,0.11,0.22,0.18
			c0.03,0.03,0.05,0.06,0.08,0.08c0.07,0.08,0.18,0.2,0.32,0.31c0.16,0.12,0.32,0.19,0.45,0.25c0.06,0.17,0.18,0.28,0.26,0.35
			c0.08,0.06,0.16,0.1,0.23,0.12c0.04,0.04,0.08,0.08,0.13,0.12c0.02,0.01,0.03,0.02,0.05,0.04l-0.16,0.34
			c-0.03,0.06-0.12,0.14-0.26,0.25c-0.1,0.08-0.2,0.16-0.3,0.25c-0.1,0.09-0.18,0.19-0.27,0.3c-0.07,0.08-0.19,0.22-0.23,0.24
			l-0.29,0.07L23,47.09c-0.06,0.1-0.12,0.2-0.17,0.31c-0.05,0.1-0.13,0.26-0.2,0.29l-1.04,0.08l0.31,0.75
			c-0.09,0.09-0.15,0.19-0.18,0.31c-0.06,0.08-0.1,0.16-0.12,0.24c-0.06,0.08-0.1,0.16-0.12,0.24c-0.06,0.08-0.09,0.16-0.12,0.23
			c-0.1,0.13-0.14,0.29-0.22,0.64c-0.17,0.3-0.32,0.61-0.43,0.94l-0.06,0.08c-0.29,0.39-0.49,0.83-0.58,1.31l-0.14,0.06l-0.03,0.48
			c0,0.01,0,0.02,0,0.02l-0.11,0.51c-0.02,0.18-0.02,0.36-0.01,0.54c0,0.08,0.01,0.15,0.01,0.22c-0.01,0.1-0.03,0.19-0.05,0.27
			c-0.03,0.14-0.06,0.27-0.07,0.43c-0.01,0.14-0.02,0.25-0.02,0.35l-0.3,0.26l0.22,0.46c-0.04,0.14-0.04,0.31,0.04,0.52l-0.06,0
			c-0.02,0.72,0.02,1.45,0.12,2.11c0,0.06,0,0.12,0,0.17c0,0.1-0.01,0.19,0,0.29c0,0.09,0.02,0.17,0.06,0.25
			c-0.04,0.14-0.07,0.33-0.03,0.62c0.07,0.27,0.16,0.54,0.24,0.73l0.04,0.1c-0.01,0.12,0,0.25,0.05,0.37l0,0.05l0.01,0.08
			c0.07,0.5,0.19,1,0.37,1.47c-0.04,0.15-0.04,0.3-0.02,0.43l-0.04,0.07l0.05,0.33l0.13,0.4l0.08,0.05c0.02,0.05,0.05,0.1,0.08,0.15
			c0.01,0.18,0.02,0.42,0.17,0.64l0.26,0.38c0.18,0.26,0.3,0.56,0.35,0.88l0.05,0.32l0.27,0.18c0.2,0.14,0.36,0.32,0.46,0.54
			l0.05,0.09c0.04,0.07,0.1,0.13,0.15,0.2c0.03,0.04,0.07,0.08,0.09,0.12c0.03,0.17,0.1,0.33,0.21,0.44
			c0.02,0.08,0.06,0.17,0.11,0.26c0.07,0.13,0.17,0.23,0.25,0.29c0,0.08,0.01,0.16,0.03,0.25c0.06,0.23,0.22,0.37,0.34,0.47
			c0.03,0.07,0.06,0.14,0.12,0.23c0.2,0.3,0.44,0.58,0.73,0.87c0.3,0.26,0.59,0.54,0.85,0.84c0.14,0.2,0.3,0.32,0.45,0.39
			c0.1,0.29,0.29,0.45,0.47,0.53l0.04,0.03c0.34,0.29,0.65,0.62,0.99,1.05c0.01,0.01,0.02,0.02,0.03,0.03l-0.45,0.93l1.24-0.23
			c0.1,0.09,0.23,0.16,0.37,0.19l0.12,0.03l0.02,0.02c0.21,0.21,0.44,0.31,0.59,0.38c0.03,0.02,0.07,0.03,0.07,0.03
			c0.07,0.12,0.25,0.39,0.65,0.5c0.04,0.01,0.08,0.02,0.11,0.02l0.01,0.01c0.51,0.53,1.18,0.88,1.9,1.01
			c0.3,0.33,0.71,0.47,0.98,0.55l0.15,0.05c0.18,0.07,0.44,0.12,0.69,0.16c0.12,0.02,0.31,0.05,0.4,0.08
			c0.22,0.18,0.49,0.17,0.66,0.16c0.13,0.02,0.27,0.04,0.41,0.05c0.12,0.01,0.3,0.03,0.4,0.05c0.2,0.14,0.43,0.15,0.57,0.14
			c0.3,0.09,0.6,0.16,0.86,0.21c-0.5-0.13-0.43-0.68-0.43-0.71l0.69,0.09l-0.05,0.75c0.09,0.01,0.18,0.01,0.26,0.01l0.47,0
			c0.24,0.04,0.44,0.02,0.6-0.02c-0.06,0.11-0.12,0.26-0.16,0.44c-0.05,0.23-0.03,0.45-0.01,0.62c0,0.03,0.01,0.08,0.01,0.11
			c-0.08,0.09-0.18,0.23-0.23,0.43c-0.11,0.43,0,0.75,0.07,0.94c0.01,0.03,0.03,0.07,0.03,0.09c0,0.03-0.02,0.1-0.04,0.17
			c-0.04,0.15-0.1,0.36-0.08,0.6c0.01,0.17,0.07,0.31,0.14,0.42c-0.03,0.13-0.05,0.3-0.01,0.49c0.05,0.25,0.17,0.42,0.29,0.53
			c0.03,0.19,0.05,0.38,0.06,0.57l0.01,0.1c0.06,0.28,0.16,0.54,0.3,0.78c0.01,0.04,0.03,0.09,0.04,0.13
			c-0.01,0.09,0,0.23,0.06,0.41c0.03,0.08,0.06,0.15,0.08,0.23c0.03,0.17,0.1,0.32,0.21,0.43c0.01,0.04,0.01,0.07,0.02,0.11
			l0.04,0.17c0.11,0.29,0.26,0.58,0.38,0.76c0.01,0.02,0.04,0.07,0.08,0.12c0.01,0.02,0.01,0.04,0.02,0.06
			c0.1,0.27,0.28,0.48,0.41,0.63c0.02,0.02,0.03,0.04,0.05,0.06c0.05,0.19,0.16,0.32,0.25,0.4l0.02,0.01
			c0.02,0.05,0.05,0.1,0.08,0.15c0.07,0.09,0.14,0.18,0.22,0.26c0.01,0.06,0.03,0.13,0.06,0.19c0.01,0.02,0.04,0.08,0.08,0.14
			c0.02,0.09,0.07,0.18,0.13,0.26c0.01,0.01,0.02,0.02,0.03,0.03l-0.12,0.22l0.74,0.33c0.32,0.14,0.56,0.41,0.66,0.74l0.11,0.34
			l0.33,0.13c0.02,0.01,0.03,0.01,0.05,0.02c0.01,0.01,0.02,0.03,0.04,0.04c0.13,0.13,0.29,0.21,0.47,0.24
			c0.01,0.01,0.02,0.02,0.03,0.02c0.33,0.32,0.7,0.6,1.1,0.83l0.05,0.02c0.01,0.02,0.02,0.03,0.03,0.05l0.25,0.45l0.47-0.07
			c0.07,0.11,0.16,0.19,0.24,0.24c0.22,0.14,0.45,0.15,0.62,0.12c0.03,0.02,0.07,0.03,0.1,0.05c0.06,0.09,0.13,0.16,0.19,0.22
			l0.02,0.1l0.36,0.16c0.25,0.11,0.48,0.13,0.66,0.14c0.08,0.1,0.19,0.18,0.34,0.24L48,93.4c0.02,0,0.05,0,0.07,0.01l0.27,0.08
			c0.05,0.02,0.1,0.03,0.15,0.03c0.07,0.07,0.16,0.14,0.28,0.19c0.13,0.05,0.27,0.09,0.4,0.12c0,0,0.01,0.01,0.01,0.02
			c0.18,0.22,0.42,0.29,0.64,0.29c0.04,0.04,0.09,0.08,0.15,0.12l0.1,0.05c0.03,0.01,0.07,0.03,0.1,0.04l0.39,0.2l0.17,0.04
			c0.1,0.01,0.2,0.02,0.3,0.02l0.12,0.05c0.04,0.02,0.09,0.04,0.14,0.07c0.14,0.08,0.28,0.15,0.39,0.18
			c0.12,0.04,0.25,0.06,0.4,0.09c0.07,0.01,0.15,0.02,0.29,0.06c0.11,0.02,0.21,0.06,0.3,0.12c0.08,0.05,0.15,0.09,0.23,0.11
			c0.07,0.05,0.15,0.09,0.23,0.11c0.07,0.05,0.14,0.09,0.22,0.12l0.18,0.2l0.38-0.02c0.02,0,0.04,0,0.06-0.01
			c0.09,0.05,0.19,0.09,0.3,0.13l0.02,0.06l0.37,0.12l0.16,0.03c0.03,0,0.07,0.01,0.1,0.01l0.04,0.11h0.46
			c0.23,0.04,0.47,0.07,0.69,0.09l0.05,0.12l0.48,0.03c0.02,0,0.05,0,0.07,0l0.05,0.12h0.45c0.15,0.03,0.33,0.05,0.5,0.08
			c0.27,0.04,0.71,0.1,0.78,0.13c0.24,0.28,0.56,0.29,0.74,0.28c0.94,0.22,1.91,0.3,2.86,0.23c0.07,0,0.13-0.01,0.19-0.03
			c0.07,0.02,0.14,0.03,0.23,0.03c0.33,0.01,0.64,0.01,0.9-0.06l0.19,0.05c0.22,0.04,0.43,0,0.62-0.1l0.08-0.01
			c0.54-0.08,1.1-0.18,1.4-0.25l0.11-0.03c0.09-0.02,0.23-0.05,0.37-0.12c0.23,0.01,0.43-0.04,0.56-0.07
			c0.2-0.01,0.37-0.08,0.5-0.19c0,0,0.01,0,0.01,0c0.12,0,0.27-0.01,0.5-0.08c0.17-0.05,0.29-0.15,0.39-0.26c0.02,0,0.04,0,0.05,0
			c0.17-0.01,0.39-0.02,0.62-0.13c0.15-0.08,0.25-0.18,0.32-0.29c0.07-0.02,0.15-0.05,0.22-0.1c0.27-0.16,0.54-0.3,0.83-0.42
			c0.04-0.02,0.1-0.04,0.16-0.08l0.03,0.1c0.04-0.01,0.08-0.03,0.12-0.04l0.57-0.2l-0.01-0.05c0.2-0.07,0.37-0.18,0.48-0.29
			c0.28-0.07,0.54-0.2,0.7-0.33l0.19-0.17c0.17-0.12,0.33-0.24,0.51-0.39c0.08-0.08,0.18-0.14,0.29-0.18
			c0.16-0.04,0.35-0.13,0.5-0.33c0.16-0.06,0.33-0.13,0.48-0.21l0.09-0.05c0.06-0.04,0.11-0.09,0.15-0.13
			c0.08-0.03,0.17-0.07,0.25-0.14c0.15-0.12,0.28-0.26,0.41-0.4c0.07-0.07,0.13-0.15,0.2-0.21c0.07-0.06,0.13-0.12,0.26-0.25
			c0.12-0.11,0.26-0.21,0.34-0.26c0.17-0.09,0.33-0.2,0.51-0.35c0.16-0.13,0.31-0.27,0.4-0.46c0.19-0.08,0.39-0.25,0.54-0.59
			c0.03,0.04,0.07,0.08,0.11,0.12c0.12,0.16,0.3,0.32,0.47,0.48c0.1,0.09,0.19,0.17,0.27,0.26c0.11,0.13,0.21,0.28,0.31,0.43
			c0.09,0.13,0.17,0.25,0.28,0.39c0.14,0.17,0.29,0.33,0.44,0.47c0.03,0.17,0.1,0.31,0.23,0.44c0.14,0.13,0.29,0.2,0.43,0.26
			c0.06,0.12,0.15,0.21,0.24,0.28c0.2,0.14,0.4,0.18,0.45,0.18c0.08,0.04,0.16,0.09,0.26,0.17c0.2,0.15,0.38,0.3,0.57,0.45
			c0.08,0.06,0.15,0.14,0.22,0.22c0.13,0.14,0.26,0.28,0.39,0.38c0.12,0.09,0.24,0.15,0.34,0.18c0.06,0.11,0.15,0.23,0.29,0.33
			c0.07,0.05,0.14,0.08,0.21,0.1c0.05,0.06,0.12,0.12,0.2,0.16c0.18,0.11,0.36,0.13,0.52,0.15c0.06,0.04,0.12,0.1,0.18,0.15
			c0.19,0.16,0.37,0.32,0.58,0.42l-0.02,0.08l0.58,0.3l0.06-0.11c0.07,0.05,0.13,0.1,0.19,0.12l0.34,0.23
			c0.23,0.12,0.49,0.22,0.75,0.3l0.07,0.02c0,0,0.01,0.01,0.03,0.02c0.07,0.05,0.18,0.12,0.31,0.17l0.25,0.1
			c0.19,0.08,0.36,0.15,0.43,0.16c0.05,0.01,0.09,0.02,0.14,0.03c0.37,0.28,0.81,0.29,1.11,0.3c0.04,0,0.08,0,0.12,0
			c0.09,0.09,0.2,0.18,0.35,0.24l0.17,0.04c0.1,0.01,0.2,0.02,0.3,0.01c0.05,0.02,0.15,0.08,0.21,0.13
			c0.19,0.12,0.42,0.27,0.73,0.33c0.24,0.06,0.43,0.04,0.59,0c0.35,0.21,0.77,0.3,1.06,0.35c0.5,0.13,1.01,0.16,1.52,0.08
			c0.49,0.31,1.15,0.35,1.66,0.37c0.17,0.01,0.33,0.01,0.44,0.04l0.1,0.01c0.15,0.01,0.3,0.01,0.38,0c-0.3-0.01-0.61-0.21-0.61-0.65
			l0.73,0.01l-0.01,0.75c0.04,0,0.08,0,0.12,0l0.65,0l0-0.12c0,0,0,0,0,0c0.03,0.01,0.12,0.04,0.19,0.07
			c0.15,0.06,0.31,0.12,0.48,0.16c0.35,0.07,0.7,0.11,1.05,0.13c0.1,0,0.2,0.01,0.29,0.01c0.47,0,0.91-0.06,1.35-0.11
			c0.64-0.08,1.24-0.16,1.82-0.03l0.43,0.12l0.29-0.35c0.07-0.05,0.34-0.09,0.5-0.11c0.27-0.04,0.59-0.09,0.86-0.23
			c0.07,0,0.14-0.01,0.22-0.04c0.16-0.05,0.33-0.08,0.54-0.08c0.42-0.03,0.83-0.12,1.22-0.26c0.41-0.08,0.8-0.23,1.16-0.43
			c0.22-0.01,0.4-0.08,0.51-0.13c0.03-0.01,0.07-0.03,0.11-0.04c0.05-0.01,0.11-0.02,0.17-0.03c0.17-0.03,0.35-0.05,0.5-0.12
			c0.2-0.08,0.31-0.2,0.39-0.33c0.04-0.01,0.07-0.01,0.11-0.02c0.19-0.04,0.37-0.07,0.47-0.13c0.03-0.01,0.09-0.04,0.16-0.09
			c0.08-0.02,0.17-0.06,0.25-0.13c0.07-0.05,0.12-0.1,0.16-0.16c0.13-0.01,0.29-0.04,0.45-0.13c0.13-0.07,0.22-0.16,0.29-0.25
			c0.06-0.03,0.11-0.06,0.15-0.1c0.16-0.01,0.37-0.04,0.57-0.17c0.13-0.08,0.23-0.2,0.33-0.3c0.04-0.04,0.07-0.08,0.1-0.11
			c0.11-0.09,0.2-0.19,0.28-0.27c0.02-0.03,0.04-0.05,0.11-0.08c0.09-0.04,0.23-0.09,0.39-0.2c0,0,0.01-0.01,0.02-0.01
			c0.07-0.02,0.15-0.06,0.22-0.11c0.16-0.11,0.25-0.26,0.3-0.38c0.07-0.05,0.14-0.09,0.2-0.14c0.18-0.12,0.35-0.23,0.51-0.38
			c0.11-0.09,0.18-0.2,0.23-0.3c0.05-0.01,0.1-0.02,0.15-0.04c0.15-0.06,0.18-0.09,0.48-0.4c0.22-0.21,0.4-0.46,0.57-0.71
			c0.1-0.14,0.21-0.29,0.32-0.42c0.06-0.06,0.12-0.12,0.18-0.18c0.12-0.11,0.23-0.21,0.31-0.31c0.14-0.17,0.26-0.35,0.38-0.52
			c0.08-0.11,0.15-0.22,0.25-0.34c0.15-0.21,0.29-0.43,0.38-0.61c0.06-0.05,0.14-0.12,0.22-0.22c0.1-0.13,0.17-0.26,0.24-0.4
			c0.03-0.06,0.07-0.14,0.09-0.16c0.06-0.07,0.13-0.12,0.2-0.18c0.23-0.19,0.57-0.45,0.66-0.91c0.06-0.07,0.11-0.13,0.16-0.2
			c0.03-0.05,0.07-0.1,0.1-0.14c0.12-0.15,0.27-0.36,0.33-0.62c0.01-0.01,0.02-0.02,0.03-0.03c0.07-0.07,0.16-0.15,0.24-0.27
			c0.2-0.32,0.35-0.68,0.42-1.05c0.22-0.18,0.41-0.4,0.55-0.64l0.13-0.26l-0.03-0.16c0.04-0.05,0.07-0.1,0.11-0.15
			c0.02-0.03,0.09-0.09,0.14-0.13c0.11-0.09,0.24-0.2,0.39-0.44c0.08-0.17,0.15-0.34,0.21-0.51c0.08-0.07,0.17-0.16,0.24-0.29
			l0.15-0.01l0.06-0.65c0.03-0.29,0.01-0.59-0.05-0.88c0.16-0.27,0.26-0.57,0.29-0.88c0.04-0.21,0.05-0.44,0.06-0.67
			c0-0.04,0-0.09,0-0.14c0.64,0.09,1.3,0.15,1.98,0.15c0.27-0.01,0.51-0.1,0.7-0.18c0.07-0.03,0.14-0.06,0.2-0.07
			c0.1-0.02,0.14,0,0.21,0.01c0.24,0.06,0.44,0.05,0.6-0.01l0.05,0l0.07-0.01c0.15-0.02,0.29-0.04,0.42-0.06
			c0.12-0.02,0.24-0.04,0.37-0.05c0.09,0,0.32-0.03,0.52-0.2c0.32-0.07,0.63-0.12,0.92-0.16c0.12,0,0.25-0.04,0.38-0.11
			c0.2,0,0.46-0.05,0.67-0.25c0.01,0,0.02,0,0.03,0c0.16-0.01,0.33-0.06,0.49-0.18c0.15-0.02,0.31-0.05,0.46-0.11
			c0.14-0.05,0.25-0.12,0.34-0.2c0.07-0.01,0.14-0.03,0.21-0.07c0.03-0.01,0.07-0.04,0.11-0.07c0.02-0.01,0.04-0.01,0.06-0.02
			c0.21-0.08,0.41-0.18,0.61-0.31c0.2-0.13,0.32-0.27,0.41-0.4c0.17-0.04,0.33-0.11,0.46-0.21c0.08-0.01,0.17-0.03,0.26-0.08
			c0.03-0.01,0.07-0.04,0.12-0.07c0.06-0.02,0.13-0.05,0.2-0.09c0.13-0.08,0.23-0.2,0.33-0.31c0.04-0.04,0.07-0.08,0.09-0.1
			c0.08-0.07,0.18-0.17,0.27-0.27c0.04-0.04,0.08-0.08,0.11-0.11c0.88-0.79,1.62-1.49,2.3-2.18c0.19-0.09,0.33-0.2,0.44-0.28
			c0.12-0.09,0.13-0.09,0.14-0.1l0.6-0.04l0.08-0.51c0,0,0.01,0,0.02-0.01c0.05-0.05,0.1-0.09,0.17-0.16
			c0.13-0.15,0.27-0.29,0.4-0.4c0.13-0.1,0.27-0.19,0.41-0.28c0.35-0.21,0.8-0.49,1.03-0.95c0.29-0.15,0.46-0.45,0.58-0.68
			c0.18-0.19,0.37-0.37,0.55-0.54c0.21-0.21,0.42-0.4,0.59-0.59c0.22-0.23,0.41-0.5,0.55-0.78c0.07-0.06,0.14-0.11,0.22-0.15
			l0.4-0.22l-0.01-0.42l0.17-0.02l0.16-0.5c0.06-0.19,0.1-0.38,0.14-0.56c0.01-0.07,0.03-0.14,0.04-0.2
			c0.1-0.09,0.22-0.22,0.29-0.41l0.04-0.18c0-0.05,0.01-0.09,0.01-0.14l0.05-0.13c0.12-0.29,0.21-0.59,0.26-0.89
			c0.44-0.52,0.55-1.24,0.65-1.83c0.03-0.18,0.05-0.34,0.09-0.48c-0.13,0.49-0.64,0.44-0.7,0.43l0.09-0.68l0.75,0.07
			c0.06-0.32,0.06-0.64,0.07-0.95c0.01-0.27,0.01-0.52,0.02-0.68c0.06-0.07,0.19-0.22,0.26-0.47l0.02-0.14c0-0.08,0.01-0.15,0-0.23
			c0.13-0.72,0.12-1.47-0.03-2.19c0.09-0.17,0.15-0.4,0.14-0.72c0.22-1.25,0.26-2.53,0.13-3.79L145.17,54.14z M123.12,11.83
			c0.06-0.11,0.17-0.2,0.35-0.25l0.16,0.63l-0.3,0.05c0,0.02,0,0.04,0,0.05l-0.5,0l0,0v0l-0.19,0l-0.04-0.62
			C122.76,11.65,122.98,11.7,123.12,11.83z M99.46,1.65C99.46,1.65,99.46,1.65,99.46,1.65c-0.01,0.01-0.02,0.02-0.03,0.04
			C99.43,1.68,99.45,1.67,99.46,1.65z M88.79,7.61C88.79,7.61,88.79,7.61,88.79,7.61L88.78,7.6C88.78,7.6,88.79,7.61,88.79,7.61z
			 M49.71,2.78c0.41,0.21,0.34,0.64,0.32,0.72l-0.6-0.15L49.71,2.78z M19.67,56.52c0-0.05,0.01-0.11,0.03-0.16
			c0.05,0.06,0.11,0.12,0.18,0.17L19.67,56.52z M19.85,56.1c0.06-0.06,0.13-0.11,0.22-0.13l0.25,0L19.85,56.1z M20.38,55.81
			l-0.13-0.58c0.06-0.01,0.11-0.02,0.17-0.02c0.24,0,0.44,0.13,0.55,0.36L20.38,55.81z M70.05,95.07c-0.25,0-0.51-0.14-0.59-0.47
			L70,94.48L70.05,95.07l0-0.6l0.02,0l0.11,0.6C70.14,95.07,70.09,95.07,70.05,95.07z M85.07,96.22L85.07,96.22l0,0.02
			C85.07,96.23,85.07,96.22,85.07,96.22z M85.21,96.49l0.12-0.61l0.48,0.17l-0.01,0.02l0.04-0.01l0.09,0.03
			C85.81,96.44,85.47,96.55,85.21,96.49z M143.59,57.77c0,0.02-0.01,0.04-0.01,0.07l-0.45,0.08l0.25,0.81
			c0.2,0.65,0.23,1.35,0.1,2.02l-0.02,0.09l0,0.07c-0.09,0.12-0.17,0.29-0.22,0.55c-0.06,0.32-0.07,0.65-0.08,0.97
			c0,0.17,0,0.33-0.02,0.5c-0.07,0.09-0.11,0.19-0.14,0.29c-0.04,0.18-0.08,0.39-0.11,0.61c-0.06,0.39-0.16,0.98-0.35,1.14
			l-0.24,0.2l-0.03,0.31c-0.02,0.18-0.05,0.35-0.11,0.54c-0.15,0.14-0.24,0.34-0.25,0.57l0,0.06l0,0.02
			c-0.07,0.08-0.14,0.18-0.2,0.33c-0.06,0.18-0.11,0.37-0.14,0.57c0,0.02-0.01,0.04-0.01,0.05c-0.21,0.15-0.29,0.34-0.3,0.38
			c-0.07,0.15-0.11,0.31-0.14,0.47c-0.1,0.08-0.2,0.17-0.29,0.26l-0.1,0.1l-0.06,0.13c-0.08,0.18-0.19,0.35-0.34,0.51
			c-0.16,0.18-0.35,0.35-0.54,0.53c-0.21,0.21-0.44,0.42-0.65,0.65c-0.09,0.09-0.14,0.19-0.2,0.3c-0.41,0.13-0.54,0.46-0.59,0.69
			c-0.01,0.07-0.31,0.25-0.46,0.34c-0.2,0.12-0.41,0.25-0.62,0.42c-0.19,0.17-0.36,0.35-0.58,0.58c-0.07,0.07-0.18,0.16-0.28,0.29
			c-0.22,0.09-0.38,0.21-0.5,0.3c-0.04,0.03-0.11,0.09-0.13,0.09l-0.19,0.05l-0.14,0.14c-0.69,0.71-1.44,1.42-2.35,2.23
			c-0.06,0.05-0.12,0.12-0.2,0.2c-0.05,0.05-0.1,0.11-0.15,0.15c-0.05,0.05-0.12,0.11-0.18,0.18c-0.14,0.02-0.27,0.07-0.38,0.16
			c-0.1,0.04-0.21,0.1-0.32,0.2l-0.08,0l-0.15,0.06c-0.35,0.15-0.51,0.39-0.59,0.54c-0.07,0.04-0.14,0.08-0.21,0.11
			c-0.15-0.01-0.37,0.01-0.56,0.16c-0.15,0.04-0.27,0.12-0.37,0.24c-0.01,0.01-0.02,0.02-0.03,0.04c-0.03,0-0.06,0.01-0.09,0.01
			c-0.12,0.02-0.25,0.04-0.36,0.07l-0.24,0.09c-0.06,0-0.12,0-0.17,0l-0.97,0.04l0.09,0.31l-0.18,0.06l0,0.01
			c-0.34,0.05-0.67,0.12-1,0.2l-0.41,0.13l-0.01,0.03c-0.04,0.01-0.08,0.01-0.12,0.02c-0.08,0.01-0.17,0.03-0.26,0.04
			c-0.1-0.01-0.26-0.02-0.41,0.02c-0.15-0.03-0.36-0.05-0.63-0.01c-0.2,0.03-0.38,0.09-0.53,0.15c-0.08,0.03-0.2,0.08-0.2,0.08
			c-0.75-0.01-1.51-0.08-2.25-0.22l-0.26-0.05l-0.23,0.12c-0.67,0.36-0.69,1.1-0.7,1.6c0,0.16,0,0.32-0.03,0.46l-0.01,0.1
			c-0.01,0.14-0.07,0.27-0.16,0.37l-0.31,0.33l0.15,0.43c0.05,0.13,0.07,0.27,0.08,0.4c-0.04,0.09-0.08,0.19-0.09,0.31
			c-0.07,0.07-0.14,0.15-0.2,0.27l-0.04,0.1c-0.04,0.14-0.09,0.27-0.15,0.4c-0.02,0.01-0.03,0.03-0.05,0.04
			c-0.12,0.1-0.29,0.24-0.48,0.51c-0.1,0.13-0.29,0.36-0.32,0.72c-0.06,0.07-0.14,0.13-0.22,0.18l-0.34,0.2l-0.03,0.39
			c-0.02,0.26-0.1,0.51-0.25,0.72c-0.14,0.13-0.39,0.37-0.45,0.73c-0.02,0.03-0.05,0.06-0.07,0.09c-0.07,0.09-0.13,0.18-0.19,0.26
			c-0.1,0.11-0.28,0.31-0.33,0.61c-0.04,0.04-0.1,0.08-0.14,0.12c-0.14,0.12-0.29,0.24-0.41,0.38c-0.13,0.16-0.22,0.32-0.28,0.46
			c-0.03,0.06-0.06,0.13-0.05,0.13c-0.07,0.05-0.21,0.16-0.36,0.42c-0.08,0.17-0.17,0.33-0.26,0.44c-0.1,0.12-0.2,0.27-0.3,0.42
			c-0.09,0.13-0.19,0.28-0.3,0.42c-0.04,0.05-0.1,0.1-0.15,0.15c-0.1,0.1-0.21,0.2-0.31,0.31c-0.14,0.17-0.27,0.35-0.39,0.52
			c-0.13,0.18-0.25,0.35-0.4,0.5c-0.16,0-0.36,0.04-0.54,0.19c-0.21,0.17-0.3,0.39-0.36,0.58c-0.08,0.06-0.17,0.12-0.25,0.17
			c-0.16,0.1-0.31,0.21-0.45,0.32c-0.04,0.03-0.07,0.07-0.1,0.1c-0.17,0.05-0.29,0.16-0.37,0.26c-0.01,0.02-0.02,0.03-0.03,0.05
			c-0.09,0.04-0.2,0.1-0.32,0.19c-0.09,0.07-0.17,0.16-0.25,0.25c-0.03,0.04-0.07,0.08-0.12,0.12c-0.08,0.06-0.16,0.15-0.24,0.24
			c-0.15,0.01-0.35,0.04-0.57,0.14l-0.38,0.23l-0.01,0.05c-0.02,0.02-0.04,0.04-0.06,0.07c-0.13,0.01-0.31,0.04-0.51,0.13
			c-0.11,0.05-0.19,0.12-0.25,0.19c-0.12,0.04-0.22,0.11-0.32,0.2c-0.25,0.05-0.53,0.11-0.72,0.26c-0.08,0.06-0.14,0.12-0.19,0.19
			c-0.11,0.02-0.21,0.04-0.29,0.06c-0.09,0.02-0.17,0.05-0.27,0.09l-0.23-0.09l-0.32,0.21c-0.28,0.18-0.58,0.31-0.91,0.37
			l-0.13,0.04c-0.28,0.1-0.57,0.17-0.82,0.19c-0.27,0.01-0.53,0.04-0.79,0.11c-0.15,0-0.41,0-0.64,0.2
			c-0.07,0.02-0.22,0.04-0.33,0.06c-0.31,0.04-0.7,0.1-1.05,0.3c-0.7-0.09-1.35-0.01-1.98,0.07c-0.47,0.06-0.92,0.12-1.36,0.1
			c-0.29-0.02-0.57-0.05-0.84-0.1c-0.07-0.01-0.13-0.05-0.19-0.07c-0.16-0.07-0.36-0.15-0.59-0.18c-0.06-0.01-0.11-0.01-0.17-0.01
			c-0.22,0-0.4,0.05-0.54,0.09c0,0,0,0,0,0c-0.11-0.05-0.23-0.08-0.37-0.08c-0.08,0-0.15,0.01-0.23,0
			c-0.16-0.03-0.37-0.04-0.59-0.05c-0.26-0.01-0.79-0.04-0.89-0.1l-0.3-0.44l-0.51,0.13c-0.39,0.1-0.79,0.1-1.22-0.01
			c-0.13-0.03-0.52-0.1-0.57-0.12l-0.18-0.3l-0.35-0.06c-0.28-0.05-0.5,0.02-0.65,0.09c-0.04-0.03-0.1-0.06-0.14-0.09
			c-0.22-0.14-0.52-0.33-0.92-0.37c-0.09-0.08-0.19-0.17-0.34-0.21c-0.24-0.07-0.47-0.08-0.67-0.08c-0.1,0-0.24-0.01-0.24,0.01
			c-0.23-0.21-0.47-0.25-0.67-0.29c-0.05-0.02-0.13-0.05-0.23-0.09l-0.29-0.13c-0.12-0.08-0.32-0.22-0.6-0.27
			c-0.08-0.02-0.15-0.05-0.23-0.08c-0.04-0.04-0.07-0.08-0.12-0.11l0.07-0.24l-0.81-0.16c-0.04-0.01-0.07-0.01-0.1-0.01
			c-0.12-0.09-0.26-0.18-0.44-0.22c-0.07-0.05-0.14-0.12-0.22-0.18c-0.14-0.12-0.29-0.24-0.4-0.32c-0.13-0.08-0.26-0.13-0.38-0.16
			c-0.07-0.1-0.17-0.2-0.31-0.25c-0.04-0.02-0.08-0.03-0.12-0.04c-0.06-0.08-0.13-0.17-0.24-0.25c-0.15-0.1-0.29-0.15-0.41-0.17
			c-0.05-0.05-0.09-0.1-0.14-0.15c-0.12-0.13-0.24-0.26-0.36-0.36c-0.21-0.18-0.41-0.33-0.6-0.48c-0.15-0.13-0.32-0.24-0.51-0.33
			c0,0,0,0,0,0c-0.05-0.1-0.12-0.18-0.21-0.26c-0.13-0.1-0.27-0.16-0.39-0.19c-0.05-0.1-0.12-0.2-0.21-0.28
			c-0.18-0.15-0.34-0.31-0.47-0.47c-0.07-0.1-0.14-0.2-0.21-0.31c-0.13-0.19-0.26-0.39-0.41-0.56c-0.11-0.13-0.25-0.26-0.4-0.4
			c-0.11-0.1-0.22-0.19-0.33-0.33c-0.15-0.16-0.25-0.35-0.32-0.56l-0.19-0.61l-0.64,0.1c-0.62,0.1-0.94,0.51-1.15,0.79
			c-0.04,0.06-0.08,0.11-0.13,0.17c-0.06,0.07-0.1,0.13-0.13,0.2c-0.11,0.05-0.21,0.11-0.3,0.2c-0.13,0.12-0.23,0.27-0.29,0.45
			c-0.01,0.01-0.02,0.02-0.03,0.03c-0.07,0.06-0.15,0.11-0.28,0.19c-0.2,0.13-0.38,0.27-0.55,0.41c-0.07,0.06-0.14,0.13-0.25,0.24
			c-0.13,0.11-0.25,0.23-0.36,0.36c-0.02,0.02-0.04,0.04-0.06,0.06c-0.26,0.03-0.42,0.16-0.52,0.28c-0.04,0.05-0.07,0.09-0.09,0.14
			c-0.09,0.04-0.2,0.07-0.32,0.11c-0.18,0.07-0.3,0.19-0.38,0.29c-0.25,0.11-0.48,0.25-0.66,0.42c-0.13,0.11-0.27,0.21-0.39,0.3
			c-0.1,0.06-0.18,0.14-0.23,0.19c-0.05,0.03-0.12,0.06-0.24,0.1c-0.14,0.05-0.27,0.12-0.39,0.19l-0.09,0.07
			c-0.03,0.03-0.07,0.05-0.16,0.07c-0.09,0.02-0.18,0.06-0.25,0.1h-0.17c-0.02-0.02-0.09,0-0.13,0.01l0.07,0.75l-0.67,0.12
			c0,0-0.09-0.55,0.34-0.72c-0.34,0.13-0.68,0.3-1,0.49c-0.12,0.03-0.31,0.07-0.49,0.2c-0.06,0.05-0.12,0.1-0.16,0.16
			c-0.14,0.01-0.31,0.03-0.49,0.1c-0.15,0.05-0.25,0.14-0.35,0.24c-0.13,0.01-0.32,0.02-0.61,0.12l-0.28,0.13l-0.69-0.36l-0.22,0.56
			l-0.05,0.01c-0.19,0.05-0.64,0.14-1.16,0.21c-0.1-0.01-0.27-0.02-0.45,0.04c-0.35-0.12-0.6-0.04-0.77,0.08
			c-0.05,0-0.15,0.01-0.3,0c-0.11-0.06-0.31-0.15-0.56-0.12l-0.69,0.07l0,0.07c-0.64,0-1.27-0.07-1.82-0.21
			c-0.09-0.04-0.18-0.05-0.26-0.05c-0.39-0.24-0.91-0.31-1.41-0.38c-0.08-0.01-0.16-0.02-0.24-0.04c-0.2-0.15-0.42-0.17-0.56-0.18
			c-0.04,0-0.08,0-0.12,0c-0.16-0.1-0.33-0.12-0.41-0.13c-0.23-0.01-0.47-0.03-0.7-0.06c-0.19-0.14-0.4-0.17-0.48-0.17l-0.05,0
			l-0.05,0.01c-0.02,0-0.05,0-0.07,0c-0.13-0.08-0.27-0.12-0.38-0.12c-0.03,0-0.06-0.01-0.1-0.02c-0.08-0.12-0.19-0.22-0.32-0.28
			l-0.65-0.28l-0.06,0.09l-0.04-0.02c-0.14-0.07-0.29-0.09-0.4-0.09c-0.2-0.1-0.41-0.18-0.59-0.21c-0.14-0.04-0.28-0.06-0.41-0.08
			c-0.06-0.01-0.11-0.01-0.15-0.02c-0.04-0.02-0.09-0.05-0.14-0.07c-0.02-0.01-0.04-0.02-0.06-0.03c-0.14-0.17-0.35-0.28-0.6-0.29
			l-0.07,0l-0.07,0.01c-0.01,0-0.02,0-0.04,0c-0.08-0.05-0.18-0.09-0.28-0.11c-0.07-0.12-0.18-0.24-0.35-0.31
			c-0.11-0.05-0.21-0.07-0.32-0.07l-0.25-0.23l-0.33-0.01c-0.03,0-0.06,0-0.09-0.01c-0.07-0.1-0.17-0.21-0.33-0.29
			c-0.13-0.06-0.26-0.08-0.37-0.08c-0.11-0.06-0.22-0.09-0.33-0.1c-0.06-0.06-0.14-0.12-0.23-0.17c-0.25-0.12-0.52-0.13-0.67-0.12
			c-0.02,0-0.04,0-0.06,0c-0.05-0.04-0.1-0.07-0.16-0.1c-0.05-0.07-0.13-0.14-0.24-0.22c-0.19-0.11-0.38-0.21-0.52-0.26
			c-0.09-0.04-0.17-0.07-0.25-0.08c-0.07-0.07-0.14-0.11-0.18-0.13c-0.16-0.1-0.34-0.17-0.53-0.2c-0.12-0.15-0.29-0.25-0.52-0.32
			c-0.26-0.16-0.51-0.35-0.8-0.63c-0.07-0.08-0.16-0.18-0.28-0.25c0,0-0.01-0.01-0.02-0.01c-0.1-0.16-0.23-0.24-0.29-0.27
			c-0.07-0.04-0.15-0.06-0.22-0.08c-0.2-0.36-0.48-0.66-0.82-0.89c-0.01-0.02-0.02-0.04-0.02-0.05c-0.09-0.2-0.24-0.32-0.38-0.39
			c-0.03-0.06-0.06-0.12-0.09-0.16c-0.04-0.13-0.12-0.27-0.28-0.39c-0.01-0.01-0.03-0.02-0.04-0.03c-0.02-0.22-0.12-0.4-0.29-0.55
			c-0.05-0.04-0.1-0.07-0.14-0.09c-0.06-0.09-0.13-0.17-0.19-0.24c-0.02-0.03-0.06-0.07-0.09-0.1c0-0.18-0.04-0.43-0.26-0.61
			c-0.04-0.04-0.08-0.07-0.13-0.09c-0.04-0.09-0.08-0.17-0.12-0.26c-0.03-0.19-0.08-0.37-0.16-0.58l-0.17-0.32
			c0-0.08,0-0.19-0.04-0.32c-0.09-0.3-0.14-0.45-0.22-0.57c-0.05-0.09-0.08-0.18-0.11-0.27c-0.02-0.33-0.07-0.66-0.13-0.99
			l-0.05-0.27l-0.08-0.06c0.02-0.1,0.03-0.21,0.02-0.34c-0.02-0.2-0.1-0.35-0.19-0.46c0.04-0.14,0.08-0.32,0.08-0.54
			c-0.01-0.23-0.06-0.41-0.11-0.54c0-0.01-0.01-0.02-0.01-0.03c0.08-0.1,0.18-0.24,0.22-0.45c0.05-0.25,0.03-0.48,0.01-0.67
			c-0.01-0.07-0.02-0.13-0.02-0.17c0.01-0.04,0.04-0.08,0.06-0.12c0.06-0.11,0.13-0.27,0.18-0.46c0.03-0.12,0.04-0.23,0.04-0.35
			l0.47-0.44l-0.62-0.54c-0.31-0.27-0.64-0.33-0.87-0.3c-0.21-0.12-0.73-0.11-0.87-0.02c-0.19-0.1-0.55-0.12-0.77-0.05
			c-0.04-0.02-0.08-0.03-0.12-0.04c-0.29-0.06-0.59-0.13-0.82-0.2c-0.11-0.04-0.22-0.06-0.31-0.06c-0.25-0.11-0.56-0.14-0.87-0.17
			c-0.13-0.01-0.27-0.03-0.38-0.05l-0.15,0c-0.25-0.12-0.54-0.17-0.85-0.23c-0.16-0.03-0.33-0.05-0.45-0.09l-0.19-0.06
			c-0.11-0.04-0.29-0.1-0.33-0.13l-0.18-0.42l-0.45-0.04c-0.44-0.03-0.85-0.21-1.18-0.49c-0.1-0.24-0.32-0.5-0.8-0.55
			c-0.06-0.08-0.14-0.16-0.25-0.25c-0.13-0.1-0.26-0.16-0.37-0.21c-0.07-0.03-0.13-0.06-0.22-0.15c-0.19-0.2-0.33-0.26-0.52-0.31
			c-0.07-0.09-0.16-0.16-0.25-0.22c-0.14-0.21-0.34-0.32-0.49-0.39c-0.27-0.35-0.57-0.68-0.94-1c-0.06-0.12-0.15-0.21-0.26-0.28
			c-0.03-0.06-0.06-0.13-0.11-0.19c-0.15-0.19-0.33-0.29-0.47-0.36l-0.04-0.04c-0.31-0.37-0.66-0.71-1-1
			c-0.19-0.18-0.36-0.38-0.49-0.59c-0.03-0.08-0.07-0.16-0.12-0.24c-0.03-0.05-0.06-0.09-0.1-0.13c0-0.13-0.03-0.29-0.12-0.45
			c-0.09-0.15-0.21-0.25-0.34-0.37c-0.02-0.08-0.05-0.2-0.12-0.33l-0.12-0.17c-0.08-0.19-0.2-0.34-0.3-0.47
			c-0.02-0.03-0.05-0.06-0.07-0.09c-0.17-0.33-0.4-0.63-0.68-0.88c-0.1-0.43-0.29-0.83-0.53-1.18l-0.17-0.25c0-0.01,0-0.01,0-0.02
			c-0.01-0.16-0.02-0.42-0.18-0.67l0.28-0.08l-0.36-0.8c-0.2-0.44-0.33-0.89-0.41-1.4c0.01-0.07,0.02-0.19,0-0.31
			c0.02-0.14,0.02-0.28-0.02-0.42c-0.02-0.11-0.08-0.27-0.22-0.41c-0.02-0.04-0.03-0.08-0.04-0.12l0.05-0.69c0-0.02,0-0.04,0-0.06
			l-0.75,0.01l-0.02-0.74c0.37,0.01,0.64,0.22,0.66,0.58c0-0.05,0-0.11,0-0.16c0-0.11,0.01-0.22-0.01-0.39
			c-0.08-0.53-0.12-1.07-0.12-1.61c0.07-0.12,0.12-0.26,0.12-0.42v-0.38c0.02-0.13,0.01-0.27-0.02-0.4l-0.02,0
			c0.02-0.12,0.02-0.23,0.02-0.33c0-0.08,0-0.16,0.01-0.27c0.01-0.09,0.03-0.16,0.04-0.24c0.03-0.15,0.06-0.3,0.08-0.49
			c0.01-0.13,0-0.27,0-0.4c0-0.02,0-0.04,0-0.06c0.07-0.13,0.12-0.29,0.13-0.47c0-0.04,0-0.07,0-0.11c0.1-0.17,0.12-0.34,0.12-0.4
			c0.01-0.27,0.09-0.52,0.24-0.77c0.18-0.12,0.3-0.31,0.34-0.54c0.09-0.29,0.22-0.58,0.38-0.84l0.03-0.04l0.03,0l0.22-0.5l0.02,0
			L23,49.84c0-0.01,0.01-0.02,0.01-0.03l0.1-0.19c0.05-0.11,0.08-0.21,0.08-0.31c0.06-0.09,0.12-0.19,0.16-0.3
			c0.45-0.24,0.67-0.66,0.8-0.92c0,0,0-0.01,0.01-0.01c0.31-0.17,0.52-0.41,0.67-0.59c0.05-0.06,0.1-0.12,0.16-0.17
			c0.06-0.06,0.13-0.11,0.2-0.16c0.13-0.1,0.28-0.22,0.42-0.38c0.27-0.06,0.46-0.18,0.59-0.27c0.04-0.02,0.09-0.06,0.1-0.06
			l0.48-0.02l0.19-0.44c0.18-0.42,0.04-0.72-0.05-0.87c-0.15-0.23-0.37-0.32-0.56-0.36c-0.08-0.1-0.16-0.2-0.25-0.29L26,44.39
			c-0.12-0.09-0.23-0.13-0.34-0.15c-0.06-0.12-0.15-0.28-0.31-0.37c-0.05-0.08-0.11-0.14-0.16-0.18c-0.17-0.14-0.35-0.21-0.51-0.27
			c-0.09-0.04-0.19-0.07-0.24-0.11c-0.02-0.01-0.05-0.05-0.09-0.09c-0.07-0.08-0.14-0.16-0.22-0.22c-0.09-0.08-0.19-0.16-0.29-0.24
			c-0.12-0.09-0.26-0.19-0.4-0.34c-0.01-0.01-0.03-0.02-0.04-0.04c-0.03-0.1-0.09-0.2-0.18-0.3c-0.07-0.07-0.14-0.13-0.23-0.17
			c-0.02-0.04-0.05-0.09-0.08-0.13c-0.05-0.07-0.11-0.12-0.16-0.16c-0.03-0.13-0.08-0.28-0.19-0.44c-0.05-0.07-0.11-0.12-0.17-0.17
			c-0.02-0.11-0.06-0.24-0.15-0.37c-0.11-0.18-0.25-0.3-0.36-0.37c-0.02-0.06-0.06-0.15-0.12-0.24c-0.02-0.47-0.19-0.92-0.48-1.3
			c0.02-0.15,0.04-0.37-0.03-0.64c-0.04-0.13-0.1-0.24-0.16-0.33c0.22-0.54-0.02-0.85-0.15-0.95c-0.06-0.15,0-0.66,0.04-0.94
			c0.03-0.25,0.06-0.49,0.06-0.7c0-0.24-0.03-0.47-0.07-0.69c-0.02-0.13-0.05-0.26-0.05-0.4c0-0.06,0.02-0.17,0.04-0.27
			c0.03-0.16,0.06-0.33,0.08-0.54c0-0.41,0.07-0.81,0.22-1.27c0,0,0.05-0.21,0.08-0.33c0.09-0.16,0.17-0.32,0.21-0.47
			c0.1-0.12,0.17-0.26,0.19-0.44l0.18-0.38l0.01,0l0.12-0.24l0.04,0l0.21-0.53c0.12-0.29,0.22-0.58,0.31-0.88
			c0.22-0.21,0.31-0.48,0.36-0.67c0.11-0.1,0.24-0.22,0.3-0.42c0.04-0.13,0.05-0.24,0.04-0.35c0,0,0.01-0.01,0.01-0.01
			c0.1-0.12,0.19-0.23,0.25-0.33c0.08-0.14,0.12-0.27,0.16-0.41c0.1-0.06,0.22-0.14,0.29-0.27c0.07-0.05,0.13-0.1,0.17-0.15
			l0.1-0.14c0.11-0.06,0.23-0.15,0.32-0.29c0.14-0.04,0.26-0.11,0.36-0.21c0.12-0.1,0.23-0.24,0.29-0.47
			c0.1-0.05,0.2-0.13,0.28-0.25c0.12-0.16,0.16-0.32,0.17-0.4c0.06-0.05,0.13-0.12,0.2-0.2c0.08-0.06,0.15-0.13,0.22-0.23
			c0.11-0.14,0.15-0.29,0.18-0.4c0.07-0.07,0.16-0.15,0.23-0.28c0.07-0.12,0.1-0.23,0.12-0.32c0.05-0.04,0.1-0.08,0.17-0.13
			c0.15-0.11,0.33-0.24,0.48-0.44c0.38-0.11,0.72-0.31,0.96-0.56c0.2-0.16,0.49-0.37,0.77-0.56c0.15-0.1,0.38-0.24,0.53-0.31
			c0.08-0.02,0.21-0.05,0.35-0.12c0.15-0.07,0.25-0.18,0.33-0.27c0.03-0.01,0.06-0.01,0.09-0.02c0.15-0.04,0.35-0.09,0.55-0.19
			c0.11-0.06,0.22-0.12,0.33-0.2c0.09-0.05,0.18-0.11,0.28-0.17c0.03-0.02,0.07-0.03,0.11-0.05c0.1-0.04,0.22-0.09,0.34-0.17
			c0.42,0.03,0.78-0.08,1.08-0.17c0.2-0.06,0.38-0.11,0.46-0.12c0.19,0.01,0.38,0.01,0.66-0.01c0.19-0.04,0.35-0.12,0.48-0.18
			c0.03-0.02,0.06-0.03,0.09-0.05c1.04-0.04,2.1,0,3.2,0.12c0.15,0.01,0.27-0.02,0.37-0.05c0.02,0.01,0.04,0.02,0.06,0.02
			c0.15,0.04,0.27,0.03,0.37,0.03l0.65,0.12l0.15-0.72c0.1-0.5-0.15-0.89-0.3-1.11c-0.04-0.06-0.08-0.11-0.11-0.2
			c-0.01-0.1-0.04-0.27-0.13-0.46c-0.06-0.13-0.13-0.22-0.2-0.3c-0.01-0.11-0.01-0.29-0.02-0.44c-0.01-0.34-0.01-0.72-0.08-1.1
			c-0.03-0.15-0.08-0.27-0.12-0.37c-0.13-0.68-0.03-1.4,0.29-2.02l0.09-0.17l-0.01-0.2c-0.01-0.33,0.02-0.66,0.1-0.98l0-0.02
			c0.26-0.23,0.39-0.51,0.38-0.83c0.11-0.49,0.38-0.93,0.78-1.24l0.28-0.16l-0.01-0.38c0.02-0.03,0.08-0.11,0.13-0.17
			c0.04-0.04,0.07-0.08,0.1-0.13c0.1-0.06,0.19-0.15,0.25-0.26c0.15-0.07,0.33-0.18,0.47-0.39c0.06-0.1,0.13-0.19,0.2-0.27
			c0.23-0.04,0.38-0.16,0.47-0.26c0.03-0.03,0.05-0.07,0.08-0.11l0.39-0.03l0.18-0.51c0.11-0.1,0.23-0.19,0.37-0.28
			c0.04-0.03,0.08-0.06,0.12-0.09c0.11-0.03,0.26-0.08,0.39-0.17c0.12-0.09,0.2-0.18,0.26-0.25c0.19-0.06,0.34-0.16,0.46-0.33
			c0.07-0.04,0.15-0.08,0.23-0.13c0.08-0.06,0.15-0.13,0.22-0.21c0.05-0.01,0.12-0.03,0.18-0.04c0.17-0.04,0.34-0.08,0.51-0.14
			l0.32-0.15c0.06-0.02,0.13-0.04,0.19-0.06c0.08-0.02,0.21-0.06,0.32-0.15c0.05,0,0.1-0.01,0.14-0.01c0.19-0.01,0.4-0.02,0.63-0.08
			l0.41-0.15l0.01-0.04l0.54-0.02c0.02,0,0.04,0,0.06,0l-0.01-0.29c0.05-0.05,0.09-0.12,0.14-0.19l-0.14-0.09l0-0.19l0.44-0.05
			c0.03,0.15,0.11,0.29,0.2,0.4c-0.06,0.11-0.16,0.22-0.34,0.26c0.11-0.02,0.3-0.04,0.49-0.05c0.03,0,0.06,0,0.08-0.01
			c0.01,0.01,0.02,0.01,0.03,0.02l0.58,0.25l0.25-0.31c0.67-0.24,1.38-0.33,2.03-0.27c0.1,0.07,0.25,0.14,0.46,0.15
			c0.15,0.01,0.27-0.01,0.38-0.05c0.08,0.02,0.18,0.04,0.3,0.05c0.18-0.01,0.36-0.01,0.53-0.01c0.13,0.14,0.31,0.23,0.49,0.24
			c0.42,0.08,0.85,0.12,1.27,0.13c0.06,0.05,0.13,0.1,0.2,0.14l0,0.01l0.14,0.07c0.03,0.02,0.06,0.03,0.09,0.05
			c0.02,0.01,0.04,0.02,0.06,0.03L56,4.71c0.15,0.08,0.29,0.09,0.41,0.09c0.36,0.17,0.73,0.28,1.06,0.33
			c0.1,0.02,0.21,0.04,0.33,0.06c0.09,0.01,0.18,0.03,0.24,0.05c0.18,0.05,0.35,0.12,0.5,0.19c0.11,0.15,0.28,0.25,0.48,0.29
			c0.21,0.08,0.42,0.18,0.61,0.3c0.06,0.12,0.16,0.3,0.36,0.43c0.17,0.11,0.34,0.15,0.49,0.17c0.09,0.11,0.18,0.22,0.25,0.34
			l0.18,0.28l0.33,0.05c0.09,0.01,0.18,0.05,0.26,0.1c0,0,0,0.01,0.01,0.01c0.08,0.09,0.19,0.24,0.4,0.32
			c0.02,0.01,0.05,0.02,0.07,0.03c0.04,0.05,0.08,0.09,0.13,0.13c0.12,0.08,0.22,0.18,0.29,0.29c0.04,0.06,0.07,0.12,0.1,0.18
			c0.11,0.21,0.26,0.51,0.6,0.75c0.28,0.17,0.85,0.37,1.53-0.35c0.07-0.07,0.12-0.15,0.16-0.22C64.87,8.5,64.93,8.45,65,8.39
			c0.2-0.2,0.25-0.43,0.28-0.63c0.02-0.02,0.03-0.04,0.04-0.05c0.08-0.07,0.2-0.17,0.28-0.32l0.04-0.09
			c0.03-0.06,0.05-0.13,0.07-0.19c0.12-0.13,0.17-0.28,0.2-0.39c0.01-0.02,0.01-0.05,0.03-0.07c0.15-0.1,0.26-0.26,0.32-0.45
			c0.08-0.09,0.23-0.25,0.32-0.34c0.09-0.09,0.18-0.18,0.17-0.18c0.15-0.13,0.29-0.26,0.41-0.41c0.08-0.04,0.19-0.09,0.3-0.19
			c0.15-0.13,0.26-0.29,0.35-0.42c0.07-0.1,0.16-0.23,0.22-0.26c0.18-0.05,0.42-0.18,0.56-0.5c0.18-0.09,0.37-0.24,0.56-0.48
			c0.14-0.01,0.33-0.03,0.53-0.12c0.17-0.08,0.27-0.2,0.34-0.31c0.07-0.02,0.15-0.04,0.23-0.06c0.2-0.05,0.4-0.1,0.61-0.17
			c0.41-0.08,0.64-0.35,0.8-0.57c1.01-0.01,2.02-0.21,2.95-0.59c0.01,0,0.02,0,0.02,0.01c0.08,0.02,0.16,0.05,0.24,0.07l0.04,0.4
			l0.88-0.28c0.16-0.05,0.33-0.08,0.5-0.08l0.29-0.01c0.09,0.01,0.19,0.01,0.29,0C77,1.66,77.1,1.61,77.19,1.56
			c0.68-0.01,1.38,0.02,2.06,0.08c0.13,0.1,0.28,0.14,0.39,0.15c0.16,0.02,0.32,0.07,0.46,0.15L80.22,2
			c0.15,0.05,0.27,0.07,0.45,0.11c0.04,0.02,0.09,0.05,0.14,0.07c0.11,0.06,0.23,0.12,0.34,0.17c0.16,0.06,0.29,0.08,0.46,0.13
			c0.07,0.05,0.16,0.13,0.3,0.2c0.13,0.07,0.27,0.09,0.38,0.1c0.17,0.27,0.38,0.4,0.57,0.45c0.07,0.09,0.14,0.16,0.22,0.21
			c0.25,0.27,0.57,0.39,0.83,0.47c0.04,0.07,0.1,0.13,0.17,0.19c0.07,0.2,0.21,0.36,0.4,0.46c0.03,0.04,0.06,0.09,0.11,0.13
			l0.12,0.1c0.09,0.06,0.18,0.12,0.25,0.18C85,5.2,85.12,5.36,85.23,5.44c0.14,0.12,0.27,0.25,0.39,0.4
			c0.14,0.16,0.29,0.31,0.45,0.45l0.18,0.19c0.05,0.09,0.12,0.22,0.3,0.4c0.12,0.1,0.22,0.22,0.29,0.36c0.06,0.11,0.13,0.2,0.2,0.28
			c0.01,0.04,0.03,0.07,0.04,0.1l0,0.02l0.09,0.24c0.08,0.21,0.21,0.35,0.34,0.44c0.04,0.12,0.1,0.22,0.17,0.29
			c0.03,0.04,0.07,0.09,0.1,0.13c0.16,0.2,0.37,0.48,0.68,0.71l0.22,0.16l0.27-0.01c0.21-0.01,0.71-0.11,0.84-0.69
			c0.06-0.05,0.15-0.13,0.22-0.24c0.09-0.14,0.13-0.27,0.16-0.38c0.05-0.04,0.09-0.09,0.14-0.14c0.1-0.11,0.2-0.21,0.3-0.31
			c0.13-0.02,0.32-0.08,0.49-0.24c0.05-0.05,0.1-0.1,0.13-0.16c0.11-0.04,0.25-0.11,0.38-0.24c0.08-0.08,0.17-0.15,0.23-0.18
			c0.34-0.15,0.67-0.34,1.01-0.58c0.1-0.08,0.17-0.17,0.22-0.26c0.24-0.09,0.46-0.25,0.61-0.46c0.05-0.06,0.12-0.12,0.19-0.19
			c0.07-0.06,0.15-0.13,0.22-0.21c0.1-0.01,0.23-0.03,0.37-0.09c0.19-0.08,0.31-0.21,0.39-0.31c0.14-0.05,0.46-0.17,0.68-0.45
			c0.73-0.18,1.42-0.46,2.01-0.79l0.16-0.07c0.14-0.06,0.27-0.11,0.41-0.16c0.03-0.01,0.09-0.02,0.16-0.03
			c0.14-0.02,0.28-0.04,0.42-0.08c0.13-0.04,0.24-0.11,0.33-0.2c0.06,0,0.13-0.01,0.19-0.02l0.29,0.01
			c0.16,0.01,0.42-0.02,0.65-0.25c0.18-0.04,0.32-0.13,0.42-0.22c0.16,0,0.36-0.04,0.54-0.2c0.03,0,0.06-0.01,0.09-0.01
			c0.12-0.01,0.25-0.03,0.34-0.04c1.21-0.15,2.45-0.19,3.69-0.12c0.35,0.02,0.71,0.05,1.04,0.1c0.11,0.09,0.25,0.18,0.48,0.24
			c0.12,0.03,0.22,0.03,0.3,0.02l0.18,0.06c0.15,0.05,0.3,0.1,0.44,0.15c0.23,0.07,0.45,0.08,0.62,0.1c0.01,0,0.02,0,0.04,0
			c0.09,0.1,0.23,0.2,0.42,0.26c0.09,0.03,0.18,0.04,0.27,0.04l0.21,0.68l0.64-0.33c0.09,0.09,0.23,0.2,0.4,0.28
			c0.01,0.02,0.02,0.05,0.03,0.07l0.11,0.3l0.3,0.12c0.14,0.06,0.27,0.08,0.36,0.09c0.06,0.07,0.15,0.16,0.26,0.22
			c0.12,0.07,0.24,0.11,0.33,0.13c0.06,0.07,0.14,0.15,0.24,0.22l0.08,0.05c0.08,0.05,0.15,0.1,0.26,0.17
			c0.22,0.15,0.44,0.28,0.61,0.37c0.18,0.11,0.34,0.24,0.45,0.34c0.09,0.11,0.2,0.21,0.36,0.35c0.01,0.01,0.03,0.02,0.04,0.03
			c0.05,0.09,0.12,0.15,0.19,0.2c0.11,0.09,0.23,0.13,0.33,0.16c0.06,0.11,0.15,0.23,0.3,0.33c0.13,0.09,0.25,0.13,0.36,0.16
			c0.12,0.16,0.25,0.27,0.38,0.35c0.03,0.07,0.07,0.13,0.11,0.2c0.08,0.11,0.17,0.21,0.27,0.29c0.02,0.08,0.06,0.17,0.12,0.25
			c0.08,0.11,0.17,0.2,0.27,0.29c0.06,0.06,0.17,0.16,0.2,0.22c0.02,0.22,0.12,0.56,0.53,0.76c0.13,0.21,0.23,0.48,0.34,0.77
			c0.15,0.41,0.31,0.82,0.58,1.2l0.09,0.09c0.02,0.04,0.04,0.17,0.05,0.26c0.02,0.17,0.05,0.35,0.13,0.57l0.17,0.33
			c0.06,0.15,0.13,0.28,0.19,0.38c0.04,0.07,0.09,0.15,0.12,0.23l0.19,0.49l0.52-0.01c0.27,0,0.54-0.05,0.8-0.15
			c0.3-0.06,0.6-0.15,0.94-0.28l0.12-0.07c0.15-0.02,0.32-0.05,0.47-0.1l0.15,0.01l0.13-0.04c0.21-0.06,0.42-0.12,0.63-0.16
			c0.23,0.1,0.53,0.09,0.75-0.03c0.21,0.01,0.42,0,0.62-0.02l0.11-0.02c0.01,0,0.02,0,0.03-0.01c0.09,0.02,0.19,0.03,0.3,0.03
			c0.19-0.01,0.33-0.07,0.43-0.11l0.04-0.01c0.11,0.06,0.26,0.12,0.45,0.12c0.16,0,0.31-0.03,0.43-0.07
			c0.1,0.04,0.21,0.06,0.34,0.07c0.06,0,0.13-0.01,0.19,0c0.19,0.06,0.38,0.12,0.62,0.21c0.13,0.04,0.25,0.04,0.34,0.04
			c0.01,0,0.01,0.01,0.02,0.01l0.08,0.15l0.34,0.07c0.27,0.05,0.56,0.06,0.84,0.07c0.22,0,0.58,0.01,0.68,0.06
			c0.07,0.05,0.18,0.1,0.31,0.16c0.04,0.02,0.09,0.04,0.13,0.06c0.09,0.1,0.2,0.23,0.39,0.31c0.13,0.06,0.27,0.07,0.36,0.07
			l0.34,0.17c0.06,0.03,0.13,0.05,0.25,0.08c0.06,0.08,0.15,0.17,0.3,0.25c0.12,0.06,0.23,0.1,0.29,0.1
			c0.06,0.07,0.14,0.15,0.26,0.23c0.14,0.09,0.27,0.12,0.34,0.13c0.06,0.07,0.15,0.17,0.29,0.25c0.17,0.09,0.29,0.12,0.35,0.12
			c0.07,0.04,0.14,0.08,0.21,0.13c0.13,0.08,0.26,0.16,0.44,0.26c0.12,0.08,0.32,0.22,0.56,0.27c0.02,0.02,0.04,0.04,0.06,0.07
			c0.11,0.11,0.22,0.22,0.32,0.3c0.09,0.06,0.18,0.1,0.26,0.13c0.05,0.07,0.11,0.15,0.19,0.21c0.15,0.12,0.3,0.16,0.43,0.19
			c0.03,0.03,0.05,0.06,0.08,0.09c0.13,0.14,0.29,0.31,0.39,0.39c0.2,0.19,0.41,0.37,0.63,0.54c0.09,0.15,0.24,0.27,0.41,0.33
			c0.06,0.1,0.15,0.23,0.3,0.35c0.13,0.11,0.28,0.18,0.42,0.23c0.05,0.09,0.11,0.17,0.2,0.26c0.04,0.03,0.08,0.06,0.14,0.1
			c0.1,0.23,0.32,0.49,0.76,0.93l0.09,0.32l0.3,0.07c0.04,0.05,0.08,0.09,0.12,0.12c0.27,0.23,0.5,0.5,0.71,0.82
			c0.07,0.09,0.14,0.17,0.19,0.21c0.03,0.11,0.07,0.25,0.17,0.39c0.26,0.36,0.57,0.68,0.92,0.96c0.16,0.47,0.38,0.91,0.67,1.31
			c0.02,0.12,0.05,0.32,0.15,0.5c0.08,0.15,0.19,0.25,0.27,0.32c0.01,0.02,0.01,0.03,0.02,0.05c0.04,0.08,0.08,0.19,0.15,0.3
			c-0.06,0.15-0.1,0.37-0.01,0.61c0.04,0.12,0.13,0.26,0.29,0.38c0,0,0.01,0.01,0.01,0.01c-0.01,0.13-0.02,0.3,0.05,0.49
			c0.07,0.19,0.16,0.35,0.24,0.48c0.03,0.05,0.08,0.13,0.08,0.21c-0.02,0.14-0.04,0.34,0,0.58v0.35c0,0.03,0,0.07,0,0.1l0.19-0.01
			c0.15,0.18,0.37,0.32,0.61,0.35l0.04,0.35c-0.01,0-0.58,0.06-0.71-0.48c0,0.04-0.03,0.16-0.04,0.24c-0.04,0.2-0.1,0.44-0.09,0.72
			c0,0.17,0.04,0.39,0.08,0.61c0.02,0.1,0.04,0.2,0.05,0.29c0,0.01,0,0.01,0,0.02l-0.1,0.02l0.1,0.7c0.07,0.49,0.11,0.99,0.11,1.49
			c-0.05,0.27-0.12,0.54-0.2,0.8l-0.03,0.16c-0.04,0.42-0.1,0.84-0.17,1.21c-0.1,0.12-0.15,0.25-0.17,0.34l-0.07,0.3
			c-0.04,0.19-0.09,0.41-0.18,0.7c-0.02,0.08-0.04,0.17-0.05,0.23c-0.09,0.08-0.21,0.19-0.29,0.42c-0.06,0.19-0.09,0.4-0.08,0.6
			c-0.18,0.22-0.26,0.47-0.31,0.62c-0.01,0.04-0.02,0.07-0.03,0.1c-0.07,0.14-0.1,0.27-0.12,0.39c-0.08,0.07-0.18,0.18-0.26,0.34
			c-0.06,0.08-0.17,0.2-0.24,0.39c-0.04,0.09-0.07,0.18-0.08,0.26c-0.1,0.07-0.2,0.17-0.27,0.32c-0.07,0.16-0.09,0.31-0.1,0.45
			c-0.2,0.14-0.33,0.31-0.4,0.51l-0.01,0c-0.25,0.13-0.47,0.3-0.7,0.54c-0.1,0.12-0.16,0.24-0.22,0.39c-0.34,0.15-0.47,0.4-0.53,0.6
			c-0.01,0.01-0.02,0.02-0.04,0.03l-0.26,0.26c-0.06,0.07-0.13,0.14-0.19,0.19l-0.63-0.24l-0.1,0.97c-0.04,0.36,0.04,1.01,0.98,1.21
			c0.04,0.02,0.06,0.04,0.09,0.06c0.08,0.06,0.17,0.12,0.27,0.18l0.04,0.02c0.05,0.1,0.12,0.19,0.22,0.27
			c0.06,0.05,0.16,0.11,0.29,0.14c0.04,0.07,0.09,0.13,0.16,0.19c0.16,0.14,0.33,0.22,0.46,0.29c0.06,0.03,0.12,0.06,0.11,0.05
			c0.32,0.3,0.66,0.57,1.03,0.82c0.05,0.09,0.1,0.19,0.14,0.28c0.12,0.24,0.25,0.48,0.4,0.7c0.09,0.12,0.19,0.21,0.29,0.27
			c0.04,0.09,0.09,0.18,0.18,0.27c0.02,0.12,0.07,0.22,0.14,0.31c0.11,0.18,0.19,0.37,0.24,0.57l0.18,0.71l0.13-0.03
			c-0.01,0.15,0,0.34,0.09,0.54c0.01,0.03,0.03,0.06,0.05,0.08c0.01,0.19,0.08,0.35,0.17,0.48l0.08,0.44
			c0.05,0.25,0.18,0.42,0.28,0.53c0.03,0.12,0.05,0.2,0.1,0.41c0.09,0.3,0.12,0.48,0.14,0.59c-0.09,0.12-0.18,0.29-0.18,0.51
			c0,0.29,0.14,0.49,0.26,0.61C143.82,55.66,143.77,56.73,143.59,57.77z M38.82,18.53l0.11-0.59c0.31,0.2,0.26,0.63,0.26,0.64
			L38.82,18.53z"/>
		<path class="st1" d="M5.74,17.07c-0.35-0.11-0.71-0.15-1.08-0.11c-0.41,0.5-0.81,1.03-1.19,1.55H3c0.12,0.48-0.36,0.36-0.24,0.84
			c-0.8,0.28-1.05,1.09-1.55,1.67c-0.02,0.17,0.02,0.34,0.12,0.48c-0.29-0.05-0.38,0.6-0.48,0.72c-0.03,0.03-0.22-0.04-0.24,0
			c-0.04,0.07,0.01,0.28,0,0.36c-0.01,0.12-0.1,0.07-0.12,0.12c-0.05,0.17-0.13,0.33-0.24,0.48c-0.07,0.07,0.04,0.38,0,0.48
			c-0.01,0.04-0.22,0.07-0.24,0.12C0,23.89,0,24.01,0.01,24.12c0.03,0.25,0.11,0.5,0.24,0.72c0.21,0.4,0.39,0.6,0.95,0.48
			c0.31-0.37-0.04-0.85,0-1.31c0.25-0.98,0.7-1.77,0.95-2.74c0.24,0.05,0.16-0.12,0.24-0.24c0.05-0.08,0.18-0.16,0.24-0.24
			C2.78,20.6,2.9,20.4,3,20.18c0.25-0.07,0.39-0.25,0.6-0.36c0.12-0.16,0.12-0.44,0.24-0.6c0.35-0.19,0.68-0.43,0.95-0.72
			c0.33-0.26,0.65-0.54,0.95-0.84C5.39,17.57,5.9,17.37,5.74,17.07z"/>
		<path class="st1" d="M11.47,20.3c-0.04,0.16-0.2,0.26-0.36,0.24c-0.23,0.58-0.51,1.14-0.83,1.67C9.9,22.74,9.66,23.36,9.56,24
			c-0.24,0.03-0.32,0.24-0.48,0.36c-0.15,1.24-0.66,2.4-0.72,3.46c-0.01,0.14-0.08,0.05-0.12,0.12c-0.13,0.3-0.17,0.63-0.12,0.96
			c-0.37,0.34-0.42,0.91-0.12,1.31c0.09,0.03,0.24,0,0.24,0.12c0.59,0.11,0.45-0.5,0.95-0.48c-0.17-0.71-0.12-1.46,0.12-2.15
			c0.03-0.12,0.07-0.24,0.12-0.36c0.01-0.04,0.01-0.08,0-0.12c0.01-0.1,0.12-0.1,0.12-0.12c0.09-0.39-0.01-0.47,0.12-0.6
			c0.04-0.04-0.14-0.24-0.12-0.36c0,0.02,0.1-0.08,0.12-0.12c0.11-0.27,0.15-0.58,0.24-0.84c0.05-0.12,0.09-0.24,0.12-0.36
			c0.01-0.13,0.1-0.07,0.12-0.12c0.13-0.3,0.15-0.52,0.24-0.6c0.04-0.03-0.03-0.2,0-0.24c0.11-0.16,0.29-0.26,0.36-0.36
			c0.06-0.11,0.1-0.23,0.12-0.36c0.03-0.12,0.09-0.06,0.12-0.12c0.12-0.21,0.14-0.41,0.24-0.6c0.04-0.07,0.19-0.17,0.24-0.24
			c0.07-0.11,0.11-0.23,0.12-0.36c0.39,0.08,0.29-0.26,0.36-0.36c0.04-0.06,0.27,0.03,0.24-0.12c0.24-0.11,0.26-0.46,0.24-0.83
			C12.16,20.3,11.81,20.22,11.47,20.3z"/>
		<path class="st1" d="M151.67,65.04c-0.08-0.29-0.08-0.79-0.48-0.84c-0.04-0.15-0.15-0.1-0.24,0c-0.03,0.03-0.2-0.02-0.24,0
			c-0.26,0.07-0.47,0.24-0.6,0.48c0.01-0.03,0.13,0.04,0.12,0.12c-0.01,0.05-0.16-0.02-0.12,0.12c0.01,0.04,0.21,0.19,0.24,0.24
			c0.14,0.23,0.26,0.47,0.36,0.72c0.01,0.2,0.01,0.4,0,0.6c0.12,0.67,0.16,1.35,0.12,2.03c-0.04,0.28-0.26,0.6-0.36,0.96
			s-0.14,0.75-0.24,1.07c0,0.01-0.11-0.01-0.12,0c-0.07,0.06,0.02,0.39,0,0.48c-0.04,0.16-0.19,0.3-0.24,0.48
			c-0.07,0.41-0.19,0.81-0.36,1.19c-0.09,0.11-0.17,0.23-0.24,0.36c-0.15,0.23-0.23,0.21-0.24,0.48c-0.01,0.24-0.39,0.24-0.24,0.59
			c-0.46,0.37-0.65,0.99-0.48,1.55c0.3,0.02,0.37,0.18,0.6,0.12c0.13-0.04,0.05-0.21,0.12-0.24c0.26-0.08,0.5-0.2,0.71-0.36v-0.95
			c0.19-0.13,0.29-0.37,0.24-0.6c0.1-0.21,0.27-0.37,0.48-0.48c0-0.28,0.04-0.56,0.12-0.84c0.02-0.05,0.2-0.18,0.24-0.24
			c0.05-0.07,0.09-0.15,0.12-0.24c0.01-0.12,0.1-0.07,0.12-0.12c0.07-0.18,0.07-0.51,0.12-0.72c0.05-0.21,0.07-0.28,0.12-0.48
			c0.1-0.31,0.18-0.63,0.24-0.96c0.01-0.12,0.11-0.08,0.12-0.12c0.08-0.31,0.12-0.63,0.12-0.96c0.11-0.87,0.11-1.75,0-2.62
			C151.76,65.59,151.72,65.31,151.67,65.04z"/>
		<path class="st1" d="M158.35,67.55c0.04-0.17-0.09-0.26-0.12-0.36c-0.02-0.08,0.01-0.16,0-0.24c-0.09-0.54-0.04-1.09-0.48-1.43
			l-0.35,0c-0.03,0.17-0.26,0.14-0.36,0.24c-0.05,0.07,0.06,0.29,0,0.36c-0.01,0.01-0.12-0.01-0.12,0c0,0.36,0.04,0.72,0.12,1.08
			c0.04,0.26,0.22,0.81,0.24,0.95c0.01,0.15-0.13,0.17-0.12,0.36c0.01,0.21,0.18,0.18,0,0.36c-0.12,0.12,0.02,0.37-0.12,0.48
			c-0.03,0.03,0.02,0.19,0,0.24c-0.01,0.02-0.09-0.02-0.12,0s0.01,0.2,0,0.24c-0.08,0.39-0.03,0.88-0.12,1.19
			c-0.01,0.04-0.21,0.18-0.24,0.24c-0.08,0.18-0.06,0.35-0.12,0.48c-0.08,0.16-0.21,0.45-0.24,0.48c-0.1,0.11-0.04,0.08-0.12,0.24
			c-0.33,0.46-0.54,0.99-0.6,1.55c0.26,0.23,0.62,0.32,0.95,0.24c0.3-0.35,0.55-0.76,0.72-1.19c0.03-0.07-0.02-0.17,0-0.24
			c0.02-0.11,0.1-0.07,0.12-0.12c0.09-0.15,0.17-0.31,0.24-0.48c0.04-0.15,0.12-0.41,0.12-0.48c0.01-0.11,0.11-0.08,0.12-0.12
			c0.06-0.22-0.05-0.58,0-0.84c0.01-0.03,0.22-0.19,0.24-0.24c0.04-0.15-0.03-0.33,0-0.48c0.15-0.51,0.27-1.03,0.36-1.55
			c-0.02-0.28-0.06-0.56-0.12-0.84C158.23,67.72,158.34,67.58,158.35,67.55z"/>
	</g>
</g>
</svg>
