<!-- Generator: Adobe Illustrator 24.2.3, SVG Export Plug-In  -->
<svg version="1.1" xmlns="http://www.w3.org/2000/svg" xmlns:xlink="http://www.w3.org/1999/xlink" x="0px" y="0px" width="284.4px"
	 height="232.66px" viewBox="0 0 284.4 232.66" style="overflow:visible;enable-background:new 0 0 284.4 232.66;"
	 xml:space="preserve">
<style type="text/css">
	.st0{fill-rule:evenodd;clip-rule:evenodd;fill:#FFFFFF;stroke:#5398FF;stroke-width:4;}
</style>
<defs>
</defs>
<g transform="matrix(1, 0, 0, 1, 400.03, 6868)">
	<path id="Path_131-2_1_" class="st0" d="M-324.88-6681.9c-1.66,1.29-3.65,1.56-5.49,2.75c-0.31,0.19,0.09,0.51-0.55,0.55
		c-0.8,0.04-0.82,1.09-1.64,1.64c-0.2,0.13-0.95-0.18-1.1,0c-0.37,0.46-0.64,1.6-1.65,1.65c-1.46,0.08-3.14,2.62-4.94,3.3
		c-0.13,0.96-0.95,1.25-2.2,1.1c-0.81,0.61-1.02,1.44-1.65,2.19c-0.48,0.58-2.03,0.88-1.65,2.2c-1.64,0.01-1.86,1.43-3.3,1.64
		c-1.28,0.18-1.23,1.7-2.2,2.2c-1.89,0.13-2.93,1.62-4.4,2.75c-1.05,0.64-2.15,1.19-3.29,1.65c-0.66,0.33-0.93,0.82-1.65,1.1
		c0.26-0.1-0.34-0.81-0.55-0.55c-0.48,0.6-0.7,1.51-2.74,1.1c-2.22,1.87-6.41,3.85-9.89,2.75c-0.58-3.54,0.62-5.61,1.65-7.69
		c0.29-0.58,0.81-0.68,1.1-1.1c0.36-0.55,0.18-1.15,0.55-1.65c0.28-0.38,0.76-0.66,1.1-1.1c0.25-0.33,0.93-0.83,1.1-1.1
		c0.41-0.7,0.17-1.93,0.55-2.75c0.12-0.25,1.01-0.35,1.1-0.55c0.41-0.92,0.08-1.48,0.54-2.2c0.2-0.3,0.52,0.08,0.55-0.55
		c0.09-0.93,0.27-1.85,0.55-2.75c0.35-0.38,0.72-0.75,1.1-1.1c0.39-0.35,0.75-0.71,1.1-1.1c0.54-0.89,0.57-2.4,1.1-3.3
		c0.23-0.4,0.8-0.58,1.1-1.1c0.26-0.46,0.23-1.1,0.55-1.65c0.24-0.39,0.84-0.75,1.1-1.1c0.26-0.37,0.3-0.68,0.55-1.1
		c0.2-0.35,0.93-0.8,1.1-1.1c0.51-0.94,0.38-2.14,1.1-3.3c0.2-0.32,0.96-0.82,1.1-1.1c0.44-0.89,0.7-2.36,1.1-3.3
		c0.11-0.27,1.04-0.9,1.1-1.1c0.15-0.5-0.12-1.13,0-1.64c0.35-1.15-0.63-0.76-1.1-1.1c-0.3-0.21-0.83-0.96-1.1-1.1
		c-0.39-0.2-2.32-0.04-2.74-0.56c-0.06-0.07,0.07-0.5,0-0.55c-0.5-0.27-1.03-0.24-1.65-0.55c-0.98-0.48-1.15-1.46-2.2-2.19
		c-0.2-0.14-0.95,0.18-1.1,0c-0.07-0.07,0.07-0.51,0-0.55c-1.08-0.63-2.77-0.47-3.84-1.1c-0.52-0.29-0.84-1.1-1.65-1.65
		c-0.27-0.18-0.66,0.01-0.55-0.55c-1.31-0.25-2.6-0.62-3.84-1.1c-0.27-0.14,0.06-0.52-0.55-0.55c-0.92-0.05-1.11-1.59-2.2-1.64
		c-0.52-0.03-0.44-0.67-0.55-1.1c-0.16-0.62-1.22-0.7-1.64-1.1c-0.45-0.41-0.59-1.59-1.66-1.64c-0.78-0.47-1.52-1.03-2.19-1.65
		c-0.16-0.18,0.18-0.95,0-1.1s-1.53-0.38-1.65-0.55c-0.46-0.68,0.15-1.81-0.55-2.2c-0.39-0.34-0.76-0.71-1.1-1.1
		c-0.4-0.34-0.76-0.7-1.1-1.1c-1.07-1.16-1.99-2.46-2.74-3.85c-0.31-0.53-0.81-0.68-1.1-1.1s-0.21-1.19-0.55-1.65
		c-0.17-0.23-0.98-0.34-1.1-0.55c-0.36-0.65-0.03-2.27-0.55-3.3c-0.26-0.53-1.58-0.53-1.64-1.64c-0.02-0.76-0.21-1.51-0.55-2.2
		c-0.07-0.19,0.14-0.98,0-1.1c-0.06-0.05-0.52,0.07-0.55,0c-0.09-0.2,0.15-0.97,0-1.1c-0.06-0.06-0.52,0.07-0.55,0
		c-0.1-0.2,0.16-0.97,0-1.1c-0.65-0.53-0.41-1.13-0.56-2.2c0-0.05-0.54-0.11-0.54-0.55c0-0.34,0.52-0.69,0.54-0.55
		c-0.2-1.15-0.95-1.86-1.1-2.74c-0.06-0.35,0.09-0.75,0-1.1c-0.11-0.46-0.74-0.89-0.55-1.65c0.04-0.14,0.51-0.83,0.55-0.55
		c-0.22-1.45-1.52-2.14-1.1-3.84c0.06-0.23,0.55-0.68,0.54-0.55c0.02-0.63-0.78-1.98-0.54-3.85c-0.01,0.12,0.91-0.25,0.54-0.55
		c-0.88-0.7-0.64-5.62-0.54-7.69c-0.04-0.37-0.04-0.73,0-1.1c0.06-0.29,0.55-0.61,0.54-0.55c0.06-0.63-0.55-1.04-0.54-1.1
		c0.04-0.41,0.44-0.6,0.54-1.1c0.11-0.52-0.11-1.12,0-1.64c0.23-0.99,0.72-1.32,1.1-2.2c0.52-1.21,0.46-3.11,1.1-4.94
		c0.06-0.21,0.52,0,0.55-0.55c-0.02-0.18-0.02-0.37,0-0.55c0.08-0.21,0.56-0.62,0.55-0.55c0.33-1.71-0.28-3.15,0.55-4.4
		c0.29-0.51,0.48-1.07,0.55-1.65c0.45-1.14,1-2.24,1.64-3.29c0.24-0.4,0.85-0.75,1.1-1.1s0.29-0.74,0.55-1.1
		c1.05-1.45,2.08-3.08,3.3-4.94c0.31-0.48,0.8-0.46,1.1-1.1c0.09-0.21-0.16-0.97,0-1.1c0.08-0.06,0.5,0.08,0.54,0
		c0.14-0.23-0.18-0.92,0-1.1c0.18-0.18,0.94,0.19,1.1,0c0.16-0.19-0.19-0.94,0-1.1c0.07-0.06,0.51,0.08,0.55,0
		c0.42-0.76,0.13-2.31,1.1-2.74c0-0.93,0.64-1.16,1.1-1.65c0.13-0.14,1.04-0.41,1.1-0.55c0.12-0.25-0.17-0.88,0-1.1
		c0.7-0.87,2.1-1.32,2.2-2.75c0.62-0.24,1.18-0.62,1.64-1.1c0.12-0.11,1.05-0.44,1.1-0.55c0.09-0.2-0.17-0.96,0-1.1
		c0.19-0.16,0.94,0.19,1.1,0s0.37-0.98,0.55-1.1c0.2-0.13,0.95,0.18,1.1,0c0.2-0.24,0.32-0.9,0.55-1.1c0.18-0.16,0.95,0.18,1.1,0
		c0.09-0.11-0.09-0.44,0-0.55c0.31-0.4,0.42-1.07,1.1-1.1c1.32-0.07,2.2-2.56,3.29-3.85c2.14-0.78,4.03-2.1,5.49-3.84h3.85
		c1.11-0.72,1.31-2.35,2.2-3.3c1.94-0.63,3.92-1.21,4.94-2.75c0.63-0.89,3.42,0.42,4.4-0.55c0.05-0.05-0.07-0.52,0-0.55
		c0.74-0.14,1.47-0.32,2.19-0.55c0.28-0.12,0.9-1.04,1.1-1.1c1.42-0.44,2.64,0.21,3.85-0.55c0.84-0.54,1.44-0.12,3.84,0
		c1.28-0.07,2.56-0.07,3.84,0c1.62,0.3,2.91,1.64,4.94,2.2c0.34,0.09,0.76-0.09,1.1,0c0.49,0.12,0.94,0.38,1.65,0.55
		c0.56,0.14,1.19,0.75,2.2,1.1c1.04,0.36,2.48,0.23,3.29,1.1c1.74-0.13,0.7-1.91,1.1-2.75c0.15-0.3,0.84-0.68,1.1-1.1
		c0.36-0.58,0.54-1.75,1.1-2.75c0.16-0.29,0.51,0.07,0.55-0.55c0.02-0.47,1.06-1.4,1.64-2.2c0.54-0.73,0.95-1.38,1.65-2.19
		c0.4-0.47,0.73-0.52,1.1-1.1c0.56-0.9,1.8-1.54,2.74-2.74c0.15-0.19-0.18-0.95,0-1.1c0.46-0.38,0.69-0.7,1.1-1.1
		c0.44-0.42,1.13-0.16,1.65-0.55c0.46-0.35,1.02-2.71,2.74-2.2c0.65-0.65,1.21-1.39,1.64-2.2c1.44,0.29,1.02-0.8,2.2-1.1
		c0.29-0.08,0.84,0.14,1.1,0c0.4-0.33,0.77-0.7,1.1-1.1c0.21-0.19,0.93-1,1.1-1.1c0.96-0.54,2.16-0.52,3.3-1.1
		c0.37-0.18,0.78-0.92,1.1-1.1c0.2-0.11,0.96,0.17,1.1,0c1.02-1.24,5.1-0.78,7.14-2.74c1.9,0.28,3.84-0.11,5.49-1.1
		c0.2-0.1,0.97,0.16,1.1,0c0.42-0.52,0.4-0.83,1.1-1.1c0.8-0.29,1.84-0.25,2.75-0.55c-0.04,0.02,2.16-0.5,2.2-0.55
		c0.04-0.05-0.05-0.53,0-0.55c1.44-0.37,3.39-0.24,4.94-0.55c0.92-0.18,1.25-0.31,2.2-0.55c0.19-0.05,0.51-0.77,1.1-0.55
		c0.2,0.07-0.05,0.67,0.55,0.55c0.09-0.02,0.08-0.53,0.55-0.55c0.18,0.02,0.37,0.02,0.55,0c1.8-0.5,3.64-0.87,5.5-1.1
		c0.75-0.12,1.57,0.23,1.64-0.55c1.25-0.13,1.57,0.85,2.75,1.1c-0.12-0.02,0.74-0.61,1.1-0.55c0.04,0,0.13,0.53,0.55,0.55
		c0.34,0.02,3.5,0.42,3.84,0c0.33-0.39,0.38-0.36,2.2,0c0.97,0.19,1.55,0.5,2.19,0.55c0.96,0.07,1.19-0.52,2.2-0.55
		c-0.12,0,0.24,0.55,0.55,0.55c0.76,0,0.83-0.54,2.75,0c0.15,0.04,0.04,0.52,0.55,0.55c2.6,0.08,5.17,0.45,7.69,1.1
		c0.2,0.06,0.01,0.52,0.55,0.55c1.13,0.27,2.23,0.64,3.3,1.1c2.02,0.64,4.13,0.99,6.04,1.65c0.12,0.04,0.15,0.45,0.55,0.55
		c1.07,0.26,1.42,0.28,2.2,0.54c0.86,0.3,1.9,0.77,2.75,1.1c0.15,0.06,0.11,0.44,0.55,0.55c1.05,0.26,1.43,0.32,2.19,0.55
		c0.17,0.05,0.03,0.52,0.55,0.55c0.74,0.04,1.47-0.03,2.2,0c0.07,1.85,2.26,1.66,3.29,2.2c0.64,0.34,0.99,0.74,1.64,1.1
		c0.56,0.15,1.11,0.33,1.65,0.55c0.48,0.29,0.65,1.33,1.1,1.64c0.52,0.37,1.16,0.2,1.64,0.55c0.19,0.14,0.38,1.03,0.55,1.1
		c0.3,0.13,0.83-0.17,1.1,0c0.39,0.23,0.76,0.87,1.1,1.1c0.36,0.24,0.7,0.29,1.1,0.54c0.26,0.17,0.4,0.47,0.55,0.55
		c0.4,0.24,1.19,0.23,1.65,0.55c0.46,0.32,0.64,1.33,1.1,1.65c0.52,0.37,1.17,0.21,1.65,0.55c0.31,0.22-0.09,0.52,0.55,0.55
		c0.58,0.04,1.43,1.04,2.19,1.65c0.99,0.78,2.89,0.86,2.2,2.75c3.43,0.06,4.05,2.9,6.59,3.84c0.54,0.32,0.25,1.05,0.55,1.65
		c0.29,0.57,0.81,0.67,1.1,1.1c0.26,0.4,0.22,1.2,0.55,1.64c0.2,0.26,0.93,0.3,1.1,0.55c0.57,0.61,0.95,1.38,1.1,2.2
		c0.23,0.88,1.02,0.75,1.65,1.64c0.14,0.2-0.18,0.95,0,1.1c0.49,0.41,0.4,1.85,1.1,3.3c0.13,0.27,0.52-0.06,0.55,0.55
		c0.04,0.71,0.9,0.7,1.1,1.1c0.09,0.19-0.55,0.75-0.55,1.1c0,1.01,1.86,1.41,2.2,2.75c-0.11,2-0.75,2.1,0,3.84
		c1,2.48,1.73,5.05,2.2,7.68c-0.05-0.2-0.85,0.32-0.55,0.56c0.43,0.35,1.01,0.41,1.1,1.1c0.13,1.05-0.85,2.33,0,3.29
		c-1.19,1.14,0.07,1.78,0.55,2.74c-0.09,1.33-0.93,1.93-1.1,3.3c-0.16,1.22,0.96,2.39,0,3.3c-0.24,1.51,2.04,0.51,2.2,1.64
		c0.81,0.44,1.55,1,2.2,1.65c1.76,0.24,4.33-0.56,5.49,0.55c0.84,0.8,2.62,0.28,3.85,1.1c0.25,0.17,0.4,0.46,0.55,0.55
		c0.99,0.61,1.49,0.55,3.3,1.1c1.18,0.6,2.29,1.33,3.3,2.19c0.21,0.17,0.91-0.18,1.1,0c0.46,0.46,0.28,1.56,0.55,2.2
		c1.68-0.4,2.01,0.56,3.3,0.55c0.42,1.78,2.45,1.94,2.75,3.84c0.42,0.79,1.43,0.66,2.2,1.1c0.29,0.16-0.07,0.52,0.55,0.55
		c0.45,0.02,0.54,0.61,1.1,0.54c0.25,0.58-0.34,1.67,0,2.2c0.18,0.29,1.44,0.2,1.64,0.55c0.44,0.77,0.56,3.3,1.1,3.85
		c0.28,0.27,1.27-0.17,1.1,0.55c-0.25,1.55,1.57,3.02,1.65,4.39c0.14,0.39,0.32,0.76,0.55,1.1c0.39,0.85,0.64,1.58,1.1,2.74
		c0.18,0.44,0.43,0.32,0.55,0.55c0.46,0.68,0.83,1.42,1.1,2.2c0.07,0.3-0.14,0.83,0,1.1c0.26,0.49,0.89,0.37,1.1,1.1
		c0.05,0.73,0.05,1.47,0,2.2c0.11,0.86,0.46,0.96,0.55,1.65c0.11,0.79-0.74,1.12-0.55,1.65c0.18,0.51,1.6,0.63,1.1,2.74
		c-0.43,0.86-0.43,1.88,0,2.75c0.07,0.19,0.53,0,0.55,0.55c0.02,0.4,0.25,2.49,0,2.74c-0.57,0.57,0.07,0.46,0,1.65
		c-0.27,4.1-1.32,9.18-1.65,13.73c-0.03,0.36,0.24,1.96,0,2.2c-0.63,0.63,0.23,0.43,0,1.65c0.01-0.06-0.48,0.28-0.55,0.55
		c-0.28,1.13-0.77,1.99-1.1,3.3c-0.25,1.31-0.61,2.6-1.1,3.84c-0.1,0.22-0.43,0.06-0.55,0.55c-0.3,1.17-0.4,3.88-1.1,4.94
		c-0.29,0.51-0.48,1.07-0.55,1.65c-0.14,0.54-1.08,2.1-1.65,3.29c-0.84,1.75-1.39,3.85-2.74,4.94c0.02,2.13-1.47,3.65-2.2,5.5
		c-0.07,0.2,0.15,0.98,0,1.1c-0.44,0.29-0.81,0.66-1.1,1.1c-0.15,0.56-0.33,1.11-0.55,1.65c-0.06,0.05-0.52-0.07-0.55,0
		c-0.1,0.2,0.16,0.97,0,1.1c-0.07,0.06-0.51-0.08-0.55,0c-0.12,0.2,0.18,0.95,0,1.1s-0.99,0.38-1.1,0.55c-0.12,0.2,0.18,0.96,0,1.1
		c-1.61,1.31-3.12,4.11-4.94,6.04c-0.16,0.18-0.95-0.18-1.1,0c-0.38,0.47-0.16,1.23-0.55,1.65c-1.03,0.99-2.13,1.91-3.3,2.74
		c-1.16,0.84-2.26,1.76-3.29,2.75c-0.47,0.46,0.26,0.88-0.55,1.1c-0.34,0.1-0.75-0.06-1.1,0c-0.41,0.46-0.7,1.19-1.1,1.65
		c-0.91,1.01-2.56,1.69-4.39,2.74c-0.35,0.2-0.79,0.94-1.1,1.1c-0.62,0.34-1.09,0.23-1.65,0.55c-0.81,0.46-1.1,1.37-2.19,1.65
		c-0.3,0.07-0.83-0.14-1.1,0c-0.35,0.18-0.79,0.93-1.1,1.1c-0.62,0.34-1.09,0.26-1.65,0.55c-0.28,0.14,0.06,0.52-0.55,0.55
		c-0.67,0.04-0.94,0.92-1.65,1.1c-0.32,0.08-0.8-0.13-1.1,0c-1.01,0.46-0.65,0.72-2.2,1.1c-0.56,0.14-0.27,0.43-0.55,0.55
		c-1.99,0.9-4.36,1.22-6.04,2.75c-1.95,0.42-4.32,0.2-6.59,0.55c0.1-0.01-0.31,0.5-0.55,0.55c-1.08,0.27-3.55,0.12-4.94,0.55
		c0.07-0.02-0.24,0.93-0.55,0.55c-0.69-0.86-3.59-0.35-6.04,0c-0.17,0.02-1-0.12-1.1,0c-0.89,1.09-1.56,0.11-3.3,0.54
		c-0.49,0.13-1.26,0.21-2.74,0.55c-0.46,0.11-0.54,0.53-1.1,0.55c-2.16,0.08-4.04-1.49-6.04-0.55c-1.06-1.87-4.7-1.17-6.04-2.75
		c-1.59,0.47-3.07,1.21-4.4,2.2c-1.34,0.85-2.7,1.21-3.3,2.75c-3.68-0.69-3.02,2.45-6.04,1.1c0.04,1.63-1.8,0.68-2.75,1.1
		c-0.37,0.16-0.56,0.86-1.1,1.1c-0.2,0.1-0.97-0.16-1.1,0c-0.6,0.73-3.8,0.63-6.04,1.1c-0.09,0.01-0.08,0.52-0.55,0.54
		c-0.21,0.01-1.53-0.14-1.64,0c-0.51,0.61-0.76,0.28-1.66,0.55c-0.2,0.06-1.99,1.29-2.74,0.55c-0.85-0.86-1,0.45-2.75,0.55
		c-0.29,0.02-2.66-0.45-2.74,0.55c-0.4-0.46-0.95-0.35-1.64-0.55c-0.19-0.06-0.99,0.13-1.1,0c-0.82-1.01-1.39,0.18-3.29,0
		c0.17,0.01-0.36-0.5-0.55-0.55c-0.91-0.06-1.83-0.06-2.74,0c-2.57-0.31-7.87-0.33-10.98-1.1c-0.12-0.03-0.07-0.52-0.55-0.54
		c-0.73,0.08-1.47,0.08-2.2,0c-0.19-0.06,0-0.52-0.55-0.56c-0.21-0.01-1.53,0.14-1.64,0c-0.1-0.11-0.75-1.56-1.65-1.65
		c-1.76,0.14-3.12-0.58-4.94-1.1c-0.16-0.05-0.04-0.52-0.55-0.55c-1.3,0.04-2.6-0.14-3.84-0.55c-0.24-0.1,0.04-0.52-0.55-0.55
		c-0.56-0.15-1.11-0.33-1.65-0.55c-0.22-0.13-0.36-1.01-0.55-1.1c-0.3-0.13-0.82,0.16-1.1,0c-0.23-0.13-0.35-1.01-0.54-1.1
		c-0.93-0.42-1.49-0.1-2.2-0.55c-0.6-0.38-1.03-0.7-1.64-1.1c-0.2-0.17-0.38-0.35-0.55-0.55c-0.73-0.35-1.49-0.12-2.2-0.55
		c-0.47-0.29-0.64-1.35-1.1-1.64c-0.62-0.41-1.6-0.09-2.19-0.56c-0.42-0.33-1.16-1.15-1.65-1.65c-0.99-0.99-2.02-2.05-3.3-3.29
		c-0.95-0.94-1.7-2.06-2.2-3.3c-1.22,0.34-1.63-1-2.2-1.64c-0.52-0.6-1.2-1.61-1.64-2.2c-0.96-1.28-2.44-2.6-2.75-4.4
		c-0.97-0.67-1.89-1.4-2.75-2.2c-0.21-1.43-2.12-2.93-2.19-4.39C-321.1-6679.77-323.92-6680.8-324.88-6681.9z M-307.86-6663.23v-1.1
		h-1.1v1.1H-307.86z"/>
</g>
</svg>
