<?xml version="1.0" encoding="UTF-8"?>
<svg width="72px" height="57px" viewBox="0 0 72 57" version="1.1" xmlns="http://www.w3.org/2000/svg" xmlns:xlink="http://www.w3.org/1999/xlink">
    <!-- Generator: Sketch 64 (93537) - https://sketch.com -->
    <title>Combined Shape</title>
    <desc>Created with Sketch.</desc>
    <g id="Web-design-2" stroke="none" stroke-width="1" fill="none" fill-rule="evenodd">
        <g id="2.1---Trang-Home" transform="translate(-684.000000, -5483.000000)">
            <path d="M736.884935,5483.07274 C740.079935,5483.24474 741.519935,5483.72874 743.745935,5484.76774 C746.399935,5486.00474 749.307935,5488.11574 750.351935,5490.78174 C751.885935,5494.69974 751.587935,5501.32474 750.351935,5505.51874 C749.977935,5506.79074 749.249935,5508.08774 748.742935,5509.41374 C748.227935,5510.76374 747.717935,5511.96474 746.963935,5513.05674 C745.528935,5515.13274 744.184935,5517.48674 742.475935,5519.40974 C740.775935,5521.32174 739.112935,5523.39074 737.223935,5524.99874 C736.250935,5525.82774 735.356935,5526.72174 734.512935,5527.70974 C733.643935,5528.72874 732.510935,5529.41974 731.717935,5530.33574 C731.034935,5531.12474 730.535935,5532.10374 729.854935,5532.96074 C728.565935,5534.58374 727.405935,5536.14474 725.534935,5537.53574 C724.801935,5538.07974 723.606935,5539.31474 722.909935,5539.31274 C721.909935,5539.31274 720.964935,5538.03874 720.199935,5537.45174 C717.577935,5535.43574 715.209935,5533.37174 712.491935,5531.60574 C710.128935,5534.88974 706.865935,5536.98174 701.225935,5536.60374 C698.514935,5536.42174 696.250935,5535.06974 694.534935,5533.38474 C692.813935,5531.69574 691.444935,5529.51574 691.231935,5526.77874 C690.809935,5521.35774 692.746935,5517.89674 696.059935,5515.42774 C694.882935,5513.61874 693.696935,5511.91474 692.586935,5509.83774 C692.041935,5508.81874 691.184935,5507.98074 690.723935,5507.04274 C689.459935,5504.47374 689.007935,5501.70474 689.538935,5498.06474 C689.969935,5495.08974 690.368935,5493.69774 691.824935,5491.79674 C693.137935,5490.08174 693.688935,5488.63374 695.551935,5487.56274 C696.038935,5487.28174 696.719935,5487.04674 697.330935,5486.71474 C700.493935,5484.99274 705.103935,5483.31274 710.204935,5484.59774 C714.696935,5485.72874 717.992935,5489.52774 720.199935,5493.06774 C722.083935,5491.70474 723.499935,5488.98774 725.365935,5487.22274 C727.221935,5485.46874 730.030935,5483.39674 733.073935,5483.07274 C734.230935,5482.94974 735.640935,5483.00574 736.884935,5483.07274 Z M711.135935,5535.92574 C710.348935,5537.31474 708.566935,5538.15274 706.561935,5538.04274 C706.563935,5537.84374 706.416935,5537.79274 706.477935,5537.53574 C707.939935,5536.99274 709.602935,5536.65074 710.542935,5535.58574 C710.942935,5535.49774 710.969935,5535.78174 711.135935,5535.92574 Z M732.225935,5497.89474 C731.477935,5502.45774 730.954935,5506.73474 729.938935,5511.61774 C729.258935,5514.89174 728.692935,5518.19374 728.075935,5521.69574 C727.827935,5523.10974 727.956935,5525.65674 726.805935,5525.67674 C725.556935,5525.69974 725.024935,5522.17674 724.687935,5521.18774 C722.972935,5516.15174 721.301935,5511.13674 718.928935,5507.04274 C718.448935,5508.06574 718.008935,5509.04474 717.403935,5510.17674 C716.977935,5510.97474 716.446935,5512.84774 715.286935,5512.71774 C714.606935,5512.64274 713.790935,5511.12874 713.422935,5510.51574 C711.831935,5507.85574 710.737935,5504.53674 708.848935,5502.63874 C708.076935,5503.88874 707.811935,5505.32374 707.155935,5506.95874 C706.800935,5507.83974 706.062935,5510.77074 704.868935,5510.68574 C704.250935,5510.64074 703.772935,5509.50574 703.512935,5508.99174 C702.416935,5506.81274 701.178935,5505.14274 699.786935,5503.57074 C698.565935,5506.47174 696.784935,5508.81274 695.974935,5512.12474 C696.659935,5512.79474 696.934935,5513.87474 697.668935,5514.49574 C699.416935,5513.66474 701.826935,5513.38074 704.360935,5513.56474 C709.406935,5513.93174 713.936935,5518.58374 714.269935,5523.55974 C714.451935,5526.26374 714.141935,5528.18374 713.422935,5530.08174 C716.700935,5532.42174 719.801935,5534.93974 722.909935,5537.45174 C723.837935,5536.57974 724.985935,5535.66074 725.874935,5534.82474 C726.219935,5534.49774 726.707935,5534.18774 726.635935,5533.80874 C725.786935,5533.67974 724.641935,5534.14674 724.602935,5533.38474 C724.564935,5532.62474 726.817935,5532.93974 727.567935,5533.04474 C727.897935,5532.52974 728.414935,5532.19974 728.668935,5531.60574 C727.432935,5531.46974 725.194935,5532.36974 724.602935,5531.26774 C725.579935,5530.46474 727.831935,5530.93774 729.346935,5530.67374 C729.743935,5530.43174 729.945935,5529.82274 730.278935,5529.40474 C730.592935,5529.00774 731.264935,5528.70474 731.124935,5528.38674 C730.090935,5528.47874 728.933935,5528.61174 727.821935,5528.72574 C726.690935,5528.84174 725.506935,5529.19274 724.687935,5528.81074 C724.573935,5528.00774 725.540935,5528.02874 726.042935,5527.96374 C728.124935,5527.69574 730.331935,5527.55274 732.310935,5527.45574 C732.707935,5527.20774 733.038935,5526.70074 733.411935,5526.26974 C733.732935,5525.90074 734.357935,5525.46074 734.258935,5525.16874 C733.475935,5525.42774 732.857935,5525.42274 731.633935,5525.50774 C731.067935,5525.54674 729.149935,5525.94374 729.092935,5525.16874 C729.032935,5524.36174 730.999935,5524.70174 731.717935,5524.66074 C733.098935,5524.58174 734.469935,5524.30074 735.275935,5523.81374 L735.953935,5523.81374 L735.953935,5523.81374 C736.307935,5523.34974 737.148935,5522.92074 737.223935,5522.45874 C736.161935,5522.78374 735.108935,5522.85574 733.666935,5523.05074 C733.311935,5523.09974 730.204935,5523.74674 730.278935,5522.79674 C730.319935,5522.26974 731.077935,5522.42974 731.887935,5522.37274 C733.614935,5522.25574 737.108935,5521.94074 738.409935,5521.27274 C738.825935,5521.05874 739.245935,5520.48574 739.594935,5520.08674 C739.973935,5519.65474 740.508935,5519.14274 740.442935,5518.81674 C739.377935,5519.27174 738.341935,5519.71174 736.884935,5520.00174 C736.090935,5520.16074 733.043935,5520.76174 732.988935,5520.08674 C732.934935,5519.42974 734.233935,5519.40774 735.020935,5519.32474 C737.813935,5519.03174 739.436935,5518.11974 741.711935,5517.63074 C742.239935,5516.77374 743.245935,5515.94474 743.491935,5515.08974 C741.720935,5515.97774 739.483935,5516.94074 737.053935,5517.29074 C736.399935,5517.38674 735.155935,5517.87174 734.851935,5516.95274 C735.140935,5516.30274 735.776935,5516.57774 736.291935,5516.52974 C737.584935,5516.40574 739.174935,5515.99374 740.611935,5515.42774 C742.661935,5514.62074 744.887935,5513.85974 745.608935,5511.95474 C743.609935,5513.07474 740.697935,5513.48874 738.155935,5514.32774 C737.582935,5514.51574 736.452935,5515.21074 736.291935,5514.49574 C736.146935,5513.84874 737.690935,5513.49674 738.324935,5513.31074 C740.991935,5512.52574 743.788935,5512.09774 745.693935,5510.85474 C745.967935,5510.80474 746.086935,5510.91174 746.286935,5510.93974 C746.655935,5510.23674 746.938935,5509.44574 747.217935,5508.65274 C746.956935,5508.32174 746.692935,5507.99174 746.793935,5507.29674 C746.000935,5506.05674 745.358935,5504.66774 743.999935,5503.99474 C743.741935,5505.14074 743.760935,5506.36274 743.576935,5507.80474 C743.434935,5508.90874 743.351935,5510.70274 742.389935,5510.85474 C741.057935,5511.06474 740.745935,5509.52574 740.272935,5508.82274 C740.016935,5508.44174 739.645935,5508.24074 739.340935,5507.97474 C739.122935,5507.78374 739.006935,5507.35774 738.748935,5507.55074 C738.293935,5508.39874 737.987935,5509.23074 737.477935,5510.26174 C737.120935,5510.98474 736.651935,5512.58574 735.784935,5512.63274 C734.500935,5512.70274 734.571935,5510.22574 734.258935,5508.99174 C733.440935,5505.75974 732.894935,5500.29674 732.225935,5497.89474 Z M738.663935,5528.98074 C738.366935,5530.00974 737.354935,5530.61374 736.629935,5531.35174 C735.890935,5532.10774 735.250935,5532.89774 734.428935,5533.55474 C733.212935,5534.52374 731.778935,5535.26474 730.616935,5536.34974 C730.295935,5536.64974 730.000935,5537.42574 729.346935,5537.11174 C729.223935,5535.98074 730.405935,5535.35774 731.124935,5534.82474 C731.919935,5534.23674 732.819935,5533.69174 733.581935,5533.13074 C735.256935,5531.89474 736.485935,5529.98874 738.071935,5528.72574 C738.407935,5528.67174 738.527935,5528.83374 738.663935,5528.98074 Z M701.819935,5515.34374 C697.589935,5515.75774 694.722935,5518.62574 693.602935,5521.35774 C692.182935,5524.82274 693.174935,5528.54674 694.619935,5530.67374 C696.836935,5533.93974 701.686935,5536.19574 706.477935,5534.23274 C710.697935,5532.50174 714.212935,5527.00174 711.897935,5521.35774 C710.434935,5517.78674 706.844935,5514.85174 701.819935,5515.34374 Z M690.637935,5525.59174 C690.811935,5526.65674 690.471935,5528.47174 690.637935,5529.91174 C690.731935,5530.72674 690.973935,5531.60474 691.231935,5532.28374 C691.473935,5532.92174 692.286935,5533.50174 691.909935,5534.23274 C691.065935,5534.46874 690.702935,5533.27574 690.383935,5532.45274 C689.760935,5530.83474 689.360935,5527.83774 689.959935,5525.76174 C689.987935,5525.50374 690.438935,5525.41774 690.637935,5525.59174 Z M688.520935,5525.67674 C688.614935,5526.49674 688.339935,5527.18374 688.436935,5528.04874 C688.559935,5529.16174 689.416935,5530.19474 689.028935,5531.09774 C688.278935,5531.22074 687.649935,5529.34974 687.504935,5528.04874 C687.387935,5527.00974 687.518935,5526.00674 688.012935,5525.59174 C688.221935,5525.58074 688.420935,5525.57974 688.520935,5525.67674 Z M708.764935,5517.96874 C708.993935,5518.44574 708.416935,5519.58374 708.170935,5520.00174 C707.698935,5520.80574 707.123935,5521.34174 706.646935,5522.28874 C705.846935,5523.87974 705.198935,5525.55174 704.868935,5528.04874 C704.741935,5529.00874 705.018935,5530.69574 703.851935,5530.75974 C702.922935,5530.80974 702.780935,5529.64074 702.412935,5528.81074 C701.684935,5527.17374 700.809935,5525.95174 699.786935,5524.66074 C699.290935,5524.03474 698.739935,5523.19174 698.260935,5522.88174 C697.942935,5522.67374 697.158935,5522.78674 697.075935,5522.03574 C697.018935,5521.52074 697.563935,5521.07674 697.838935,5521.01774 C699.319935,5520.70474 700.444935,5522.81674 700.971935,5523.47474 C701.905935,5524.63774 702.643935,5525.54274 703.258935,5526.77874 C703.871935,5524.41574 704.467935,5522.24774 705.629935,5520.34074 C705.877935,5519.93574 706.315935,5519.63674 706.561935,5519.24074 C706.793935,5518.86974 707.983935,5516.33974 708.764935,5517.96874 Z M741.797935,5524.66074 C741.783935,5524.75874 741.815935,5524.81174 741.881935,5524.82974 C741.729935,5525.35374 739.918935,5528.03574 739.170935,5527.20174 C739.442935,5526.41074 740.514935,5525.11374 741.204935,5524.57674 C741.247935,5524.54274 741.655935,5524.55074 741.797935,5524.66074 Z M729.176935,5486.54574 C725.832935,5488.71674 724.250935,5491.41074 721.638935,5494.25274 C721.118935,5494.81974 720.598935,5495.72574 720.114935,5495.77774 C718.827935,5495.91574 719.042935,5494.61374 718.674935,5493.66074 C718.485935,5493.17374 717.863935,5492.45674 717.403935,5491.88174 C714.668935,5488.45474 710.614935,5485.23474 704.190935,5485.95274 C702.779935,5486.11074 700.155935,5487.10774 699.024935,5487.73174 C697.560935,5488.53674 695.679935,5489.24474 694.704935,5490.44174 C694.266935,5490.97774 693.913935,5491.90274 693.348935,5492.64374 C692.073935,5494.32274 691.676935,5495.47274 691.315935,5498.06474 C691.159935,5499.19574 690.845935,5500.39074 690.892935,5501.36874 C691.070935,5505.08174 693.127935,5507.33374 694.788935,5510.17674 C695.370935,5508.06074 696.860935,5505.94374 697.752935,5503.99474 C698.031935,5503.38674 698.167935,5502.24474 698.600935,5501.79074 C699.575935,5500.76674 701.036935,5502.17374 701.565935,5502.80874 C702.792935,5504.28174 703.856935,5506.26774 704.952935,5507.80474 C705.429935,5506.45674 705.943935,5505.26374 706.477935,5503.74074 C706.986935,5502.28574 708.137935,5499.58174 709.865935,5501.02974 C711.038935,5502.01174 711.876935,5503.91374 712.745935,5505.51874 C713.654935,5507.19774 714.428935,5508.95674 715.456935,5510.26174 C716.057935,5509.32974 716.323935,5508.42974 716.895935,5507.21274 C717.241935,5506.47674 717.991935,5504.72874 718.758935,5504.58674 C720.223935,5504.31574 720.887935,5506.90574 721.384935,5507.97474 C722.084935,5509.48074 722.815935,5510.85574 723.332935,5512.12474 C724.655935,5515.37074 725.284935,5518.53174 726.465935,5521.10374 C727.226935,5514.03874 729.350935,5507.32274 730.192935,5500.18174 C730.301935,5499.26574 730.420935,5497.84874 730.786935,5496.62474 C731.088935,5495.60974 731.413935,5493.98274 732.310935,5493.99874 C733.266935,5494.01674 733.693935,5496.03674 733.919935,5497.04874 C734.844935,5501.17474 734.946935,5505.54774 736.122935,5509.07674 C737.034935,5508.34174 737.102935,5504.69774 738.579935,5504.75574 C739.286935,5504.78474 739.582935,5505.67374 740.018935,5506.19574 C740.305935,5506.54074 740.746935,5506.75074 741.035935,5507.04274 C741.336935,5507.34974 741.448935,5507.90074 741.797935,5507.80474 C742.182935,5506.01174 741.929935,5501.56274 743.915935,5501.62174 C744.604935,5501.64274 744.903935,5502.39274 745.524935,5502.97774 C745.872935,5503.30574 746.348935,5503.52574 746.624935,5503.82474 C747.346935,5504.60574 747.497935,5505.57674 748.234935,5506.19574 C748.871935,5504.48974 749.309935,5502.58374 749.588935,5500.52174 C749.284935,5500.64674 747.132935,5502.40074 747.047935,5501.28374 C746.997935,5500.59374 749.444935,5499.81274 749.673935,5499.08074 C749.836935,5498.55874 749.557935,5498.03974 749.673935,5497.30274 C748.733935,5497.82274 748.124935,5498.54274 747.132935,5499.24974 C746.801935,5499.48674 744.541935,5501.22874 744.337935,5500.26774 C744.242935,5499.81574 745.239935,5499.41074 745.608935,5499.16574 C747.137935,5498.15274 748.446935,5497.05274 749.673935,5496.03174 C749.600935,5495.03374 749.451935,5494.10974 749.250935,5493.23674 C747.579935,5495.53174 745.073935,5497.06574 742.559935,5498.74274 C742.336935,5498.89074 740.795935,5500.22774 740.696935,5499.16574 C740.649935,5498.66574 741.805935,5498.26974 742.220935,5497.97974 C744.606935,5496.31474 746.949935,5494.81074 748.488935,5492.72874 C748.762935,5492.67974 748.881935,5492.78674 749.081935,5492.81374 C748.893935,5491.95674 748.678935,5491.12674 748.234935,5490.52674 C745.987935,5492.03674 743.934935,5494.69074 741.627935,5496.45474 C740.959935,5496.96674 739.784935,5498.11574 738.916935,5497.55674 C739.018935,5496.62074 739.887935,5496.64874 740.442935,5496.28574 C743.165935,5494.50474 744.903935,5491.61974 747.641935,5489.84974 C747.278935,5489.25174 746.856935,5488.71274 746.201935,5488.40874 C744.461935,5490.46374 742.239935,5492.74974 739.934935,5494.33774 C739.290935,5494.78174 738.106935,5495.93974 737.393935,5495.18474 C737.880935,5494.33174 738.846935,5494.01774 739.594935,5493.49074 C741.885935,5491.87774 743.794935,5489.78574 745.608935,5487.73174 C744.956935,5487.28274 744.231935,5486.90674 743.491935,5486.54574 C743.620935,5486.81474 743.520935,5486.91774 743.491935,5487.22274 C742.485935,5488.71274 741.699935,5489.64674 740.102935,5490.69574 C739.911935,5490.82274 737.862935,5492.54774 737.647935,5491.54274 C737.526935,5490.98074 739.293935,5490.21474 739.594935,5490.01774 C741.202935,5488.96674 741.946935,5487.72074 743.067935,5486.37674 C742.690935,5486.21774 742.391935,5485.97874 741.966935,5485.86874 C741.791935,5486.84974 740.875935,5487.59374 740.188935,5488.32474 C739.594935,5488.95374 738.690935,5490.24174 737.731935,5489.67974 C737.836935,5488.86674 738.742935,5488.56874 739.256935,5488.07074 C740.082935,5487.26974 740.833935,5486.34374 741.289935,5485.44574 C739.659935,5485.01774 738.116935,5484.86774 736.715935,5484.76774 C732.965935,5484.49774 731.342935,5485.13874 729.176935,5486.54574 Z M690.045935,5509.41374 C690.456935,5510.29074 691.198935,5510.80674 690.892935,5511.44774 C690.014935,5511.67574 689.672935,5510.60774 689.368935,5510.00774 C689.014935,5509.31174 688.637935,5508.46874 688.520935,5507.72074 C689.360935,5506.79874 689.665935,5508.60174 690.045935,5509.41374 Z M688.351935,5492.47474 C687.559935,5494.87674 686.716935,5498.53174 686.996935,5501.79074 C687.095935,5502.94174 687.928935,5503.97874 687.419935,5504.92574 C686.519935,5504.72474 686.172935,5503.11174 686.064935,5501.70674 C685.849935,5498.90574 686.690935,5493.48874 687.504935,5492.55874 C687.713935,5492.32074 687.961935,5492.14674 688.351935,5492.47474 Z M685.386935,5496.37074 C685.000935,5497.67374 684.818935,5500.57074 685.048935,5501.96074 C685.156935,5502.61474 685.514935,5503.10974 684.962935,5503.23174 C684.466935,5503.34174 684.189935,5502.52974 684.117935,5501.96074 C683.887935,5500.19774 683.849935,5495.40274 685.386935,5496.37074 Z M752.553935,5489.67974 C754.075935,5492.11574 754.245935,5494.25174 754.163935,5497.64074 C754.151935,5498.15974 754.219935,5499.49274 753.485935,5499.33474 C753.040935,5499.24074 753.229935,5497.77674 753.231935,5497.38674 C753.235935,5496.66574 753.266935,5495.53474 753.231935,5495.01574 C753.051935,5492.32674 751.549935,5489.41574 750.266935,5487.64674 C749.983935,5487.25574 748.820935,5486.63274 748.997935,5485.86874 C750.342935,5485.49274 751.694935,5488.30174 752.553935,5489.67974 Z M755.603935,5491.79674 C755.666935,5492.52574 755.815935,5494.39474 755.264935,5494.42174 C754.376935,5494.46874 754.838935,5491.78674 754.501935,5490.78174 C754.299935,5490.17774 753.780935,5490.00174 753.824935,5489.17174 C754.679935,5488.25774 755.492935,5490.52774 755.603935,5491.79674 Z M714.015935,5483.83474 C715.546935,5483.88674 718.858935,5485.47874 718.334935,5486.96874 C718.214935,5486.96174 718.095935,5486.95474 718.081935,5487.05374 C717.618935,5486.92874 717.602935,5486.48374 717.319935,5486.20674 C716.335935,5485.24974 714.673935,5485.19574 713.506935,5484.42774 C713.471935,5484.09974 713.725935,5483.82574 714.015935,5483.83474 Z" id="Combined-Shape" fill="#FFFFFF" opacity="0.5"></path>
        </g>
    </g>
</svg>