<svg xmlns="http://www.w3.org/2000/svg" width="31.198" height="20.988" viewBox="0 0 31.198 20.988">
  <g id="confirm" transform="translate(0 -80.506)">
    <g id="Group_158" data-name="Group 158" transform="translate(0 80.506)">
      <path id="Path_82" data-name="Path 82" d="M30.7,82.026,29.677,81a1.71,1.71,0,0,0-2.413,0L12.9,95.363,3.933,86.391a1.711,1.711,0,0,0-2.413,0L.5,87.413a1.712,1.712,0,0,0,0,2.414L10.627,99.956a.385.385,0,0,0,.044.053l1.022,1.005a1.684,1.684,0,0,0,1.21.48h.005a1.68,1.68,0,0,0,1.206-.48L15.138,100a.257.257,0,0,0,.039-.043L30.7,84.436A1.7,1.7,0,0,0,30.7,82.026Z" transform="translate(0 -80.506)"/>
    </g>
  </g>
</svg>
