<!-- Generator: Adobe Illustrator 25.0.1, SVG Export Plug-In  -->
<svg version="1.1" xmlns="http://www.w3.org/2000/svg" xmlns:xlink="http://www.w3.org/1999/xlink" x="0px" y="0px" width="24px"
	 height="24px" viewBox="0 0 24 24" style="overflow:visible;enable-background:new 0 0 24 24;" xml:space="preserve">
<style type="text/css">
	.st0{fill:#FFFFFF;}
	.st1{fill:#CCCCCC;}
</style>
<defs>
</defs>
<g id="Rectangle_749_copy_28_2_">
	<g>
		<path class="st0" d="M6,0h12c3.3,0,6,2.7,6,6v12c0,3.3-2.7,6-6,6H6c-3.3,0-6-2.7-6-6V6C0,2.7,2.7,0,6,0z"/>
	</g>
	<g>
		<path class="st1" d="M18,24H6c-3.3,0-6-2.7-6-6V6c0-3.3,2.7-6,6-6h12c3.3,0,6,2.7,6,6v12C24,21.3,21.3,24,18,24z M6,2
			C3.8,2,2,3.8,2,6v12c0,2.2,1.8,4,4,4h12c2.2,0,4-1.8,4-4V6c0-2.2-1.8-4-4-4H6z"/>
	</g>
</g>
</svg>
