<svg id="tag" xmlns="http://www.w3.org/2000/svg" width="34.623" height="34.621" viewBox="0 0 34.623 34.621">
  <path id="Path_167" data-name="Path 167" d="M30.9,0H17.756a1.015,1.015,0,0,0-.717.3L1.09,16.246a3.732,3.732,0,0,0,0,5.271L13.106,33.533a3.7,3.7,0,0,0,2.635,1.088h0a3.7,3.7,0,0,0,2.635-1.089L34.326,17.584a1.015,1.015,0,0,0,.3-.717V3.727A3.732,3.732,0,0,0,30.9,0Zm1.7,16.446L16.942,32.1a1.706,1.706,0,0,1-2.4,0L2.524,20.082a1.7,1.7,0,0,1,0-2.4L18.176,2.029H30.9a1.7,1.7,0,0,1,1.7,1.7Zm0,0"/>
  <path id="Path_168" data-name="Path 168" d="M335.84,85.078a3.187,3.187,0,1,0,2.254.934A3.167,3.167,0,0,0,335.84,85.078Zm.819,4.006a1.158,1.158,0,1,1,.339-.819A1.15,1.15,0,0,1,336.659,89.085Zm0,0" transform="translate(-310.157 -79.325)"/>
</svg>
