<!-- Generator: Adobe Illustrator 24.3.0, SVG Export Plug-In  -->
<svg version="1.1" xmlns="http://www.w3.org/2000/svg" xmlns:xlink="http://www.w3.org/1999/xlink" x="0px" y="0px" width="15.88px"
	 height="15.89px" viewBox="0 0 15.88 15.89" style="overflow:visible;enable-background:new 0 0 15.88 15.89;"
	 xml:space="preserve">
<style type="text/css">
	.st0{fill:#81B4FF;}
</style>
<defs>
</defs>
<path class="st0" d="M15.65,14.08l-4.01-4.01c1.91-2.73,1.4-6.52-1.22-8.64c-1.33-1.08-3-1.57-4.7-1.39s-3.23,1.01-4.3,2.34
	c-2.22,2.74-1.79,6.78,0.95,9c2.21,1.79,5.38,1.88,7.69,0.27l4.01,4.01c0.16,0.16,0.36,0.23,0.57,0.23s0.42-0.08,0.57-0.24
	l0.44-0.44C15.96,14.9,15.96,14.39,15.65,14.08z M10.55,6.42c0,2.28-1.86,4.14-4.15,4.15c-2.29,0-4.14-1.86-4.14-4.15
	s1.86-4.14,4.15-4.14S10.55,4.13,10.55,6.42z"/>
</svg>
