<!-- Generator: Adobe Illustrator 24.3.0, SVG Export Plug-In  -->
<svg version="1.1" xmlns="http://www.w3.org/2000/svg" xmlns:xlink="http://www.w3.org/1999/xlink" x="0px" y="0px" width="24.15px"
	 height="24.22px" viewBox="0 0 24.15 24.22" style="overflow:visible;enable-background:new 0 0 24.15 24.22;"
	 xml:space="preserve">
<style type="text/css">
	.st0{fill:#E5FFFE;}
	.st1{fill:none;stroke:#FF8853;stroke-width:2;}
	.st2{fill:#FFFFFF;}
	.st3{fill:#FF8853;}
</style>
<defs>
</defs>
<g id="Rectangle_32_1_" transform="translate(4284 5129)">
	<path class="st0" d="M-4278.38-5128.89h12.92c3.06,0,5.54,2.39,5.54,5.33v13.33c0,2.95-2.48,5.33-5.54,5.33h-12.92
		c-3.06,0-5.54-2.39-5.54-5.33v-13.33C-4283.92-5126.5-4281.44-5128.89-4278.38-5128.89z"/>
	<path class="st1" d="M-4278.38-5128h12.92c2.55,0,4.62,1.99,4.62,4.44v13.33c0,2.45-2.07,4.44-4.62,4.44h-12.92
		c-2.55,0-4.62-1.99-4.62-4.44v-13.33C-4283-5126.01-4280.93-5128-4278.38-5128z"/>
</g>
<g id="Polygon_5_1_" transform="translate(4289 5135)">
	<path class="st2" d="M-4273.52-5117.54l-2.99-1.5l-0.42-0.21l-0.42,0.21l-2.99,1.5l0.52-3.24l0.08-0.47l-0.34-0.34l-2.34-2.31
		l3.28-0.51l0.47-0.07l0.22-0.42l1.52-2.94l1.52,2.94l0.22,0.42l0.47,0.07l3.28,0.51l-2.34,2.31l-0.34,0.34l0.08,0.47
		L-4273.52-5117.54z"/>
	<path class="st3" d="M-4276.92-5125.83l-0.69,1.34l-0.43,0.84l-0.94,0.15l-1.45,0.23l1.02,1.01l0.68,0.68l-0.15,0.95l-0.23,1.44
		l1.36-0.68l0.84-0.42l0.84,0.42l1.36,0.68l-0.23-1.44l-0.15-0.95l0.68-0.68l1.02-1.01l-1.45-0.23l-0.94-0.15l-0.43-0.84
		L-4276.92-5125.83 M-4276.92-5129.89l2.35,4.55l5.11,0.8l-3.66,3.61l0.81,5.04l-4.61-2.32l-4.61,2.32l0.81-5.04l-3.66-3.61
		l5.11-0.8L-4276.92-5129.89z"/>
</g>
</svg>
