<!-- Generator: Adobe Illustrator 24.3.0, SVG Export Plug-In  -->
<svg version="1.1" xmlns="http://www.w3.org/2000/svg" xmlns:xlink="http://www.w3.org/1999/xlink" x="0px" y="0px" width="32px"
	 height="32px" viewBox="0 0 32 32" style="overflow:visible;enable-background:new 0 0 32 32;" xml:space="preserve">
<style type="text/css">
	.st0{fill:#E5FFFE;}
	.st1{fill:#FF8853;}
	.st2{fill:#FFFFFF;}
</style>
<defs>
</defs>
<g>
	<g id="Rectangle_32_2_" transform="translate(2017 2287.838)">
		<g>
			<path class="st0" d="M-2011.51-2287.84h21.03c3.03,0,5.49,2.46,5.49,5.49v21.03c0,3.03-2.46,5.49-5.49,5.49h-21.03
				c-3.03,0-5.49-2.46-5.49-5.49v-21.03C-2017-2285.38-2014.54-2287.84-2011.51-2287.84z"/>
		</g>
		<g>
			<path class="st1" d="M-1990.49-2255.84h-21.03c-3.03,0-5.49-2.46-5.49-5.49v-21.03c0-3.03,2.46-5.49,5.49-5.49h21.03
				c3.03,0,5.49,2.46,5.49,5.49v21.03C-1985-2258.3-1987.46-2255.84-1990.49-2255.84z M-2011.51-2286.01
				c-2.02,0-3.66,1.64-3.66,3.66v21.03c0,2.02,1.64,3.66,3.66,3.66h21.03c2.02,0,3.66-1.64,3.66-3.66v-21.03
				c0-2.02-1.64-3.66-3.66-3.66H-2011.51z"/>
		</g>
	</g>
	<path class="st2" d="M21.2,23.86l-4.74-2.42l-0.45-0.23l-0.45,0.23l-4.74,2.42l0.83-5.26l0.08-0.5l-0.36-0.36L7.6,13.97l5.26-0.83
		l0.5-0.08l0.23-0.45l2.4-4.77l2.42,4.75l0.23,0.45l0.5,0.08l5.26,0.83l-3.76,3.77l-0.36,0.36l0.08,0.5L21.2,23.86z"/>
	<path class="st1" d="M16,10.53l-1.46,2.86l-0.44,0.87l-0.96,0.15l-3.16,0.5l2.27,2.27l0.69,0.69l-0.15,0.95l-0.5,3.17l2.85-1.46
		L16,20.08l0.87,0.44l2.85,1.46l-0.5-3.17l-0.15-0.95l0.69-0.69l2.29-2.27l-3.16-0.5l-0.96-0.15l-0.44-0.87L16,10.53 M16,6.33
		l3.15,6.19L26,13.61l-4.9,4.91l1.09,6.86L16,22.23l-6.18,3.15l1.09-6.86l-4.9-4.91l6.85-1.09L16,6.33z"/>
</g>
</svg>
