<?xml version="1.0" encoding="UTF-8"?>
<svg width="82px" height="82px" viewBox="0 0 82 82" version="1.1" xmlns="http://www.w3.org/2000/svg" xmlns:xlink="http://www.w3.org/1999/xlink">
    <!-- Generator: Sketch 64 (93537) - https://sketch.com -->
    <title>Group</title>
    <desc>Created with Sketch.</desc>
    <g id="Web-design-2" stroke="none" stroke-width="1" fill="none" fill-rule="evenodd">
        <g id="2.1---Trang-Home" transform="translate(-309.000000, -697.000000)">
            <polygon id="Path-2" fill="#FFFFFF" opacity="0.8" points="327.766512 740.574707 385.847168 740.574707 384.950698 744.740229 329.16186 744.740229"></polygon>
            <g id="Group" style="mix-blend-mode: normal;" transform="translate(309.000000, 697.564804)">
                <path d="M77.5795349,15.2453959 C77.5795349,16.1547836 76.8502326,16.8913125 75.9516279,16.8913125 C75.0511628,16.8913125 74.3218605,16.1547836 74.3218605,15.2453959 C74.3218605,14.3378872 75.0511628,13.6013583 75.9516279,13.6013583 C76.8502326,13.6013583 77.5795349,14.3378872 77.5795349,15.2453959" id="Fill-445" fill="#5FB0E5"></path>
                <path d="M49.7544186,7.40662445 C49.7544186,7.9496266 49.3190698,8.38928924 48.7813953,8.38928924 C48.2437209,8.38928924 47.8065116,7.9496266 47.8065116,7.40662445 C47.8065116,6.8636223 48.2437209,6.42208076 48.7813953,6.42208076 C49.3190698,6.42208076 49.7544186,6.8636223 49.7544186,7.40662445" id="Fill-446" fill="#5FB0E5"></path>
                <path d="M67.6483721,2.46887482 C67.6483721,3.83295634 66.5544186,4.93962853 65.2037209,4.93962853 C63.8530233,4.93962853 62.7590698,3.83295634 62.7590698,2.46887482 C62.7590698,1.1047933 63.8530233,2.67007773e-14 65.2037209,2.67007773e-14 C66.5544186,2.67007773e-14 67.6483721,1.1047933 67.6483721,2.46887482" id="Fill-447" fill="#5FB0E5"></path>
                <path d="M60.4297674,16.5606261 C60.4297674,17.2858815 59.8455814,17.8739773 59.1274419,17.8739773 C58.4093023,17.8739773 57.8251163,17.2858815 57.8251163,16.5606261 C57.8251163,15.8334917 58.4093023,15.2453959 59.1274419,15.2453959 C59.8455814,15.2453959 60.4297674,15.8334917 60.4297674,16.5606261" id="Fill-448" fill="#5FB0E5"></path>
                <polygon id="Fill-449" fill="#0686D8" points="68.2344186 75.7403446 71.0362791 75.7403446 71.0362791 72.9219943 68.2344186 72.9219943"></polygon>
                <polygon id="Fill-450" fill="#0686D8" points="44.1153488 75.7403446 54 75.7403446 54 72.9219943 44.1153488 72.9219943"></polygon>
                <polyline id="Fill-451" fill="#0686D8" points="29.9795349 75.7403446 26.8297674 75.7403446 14.0018605 35.2087102 2.64387995e-14 34.1377371 0.212093023 31.3269025 16.0874419 32.540672 28.8669767 72.9219943 29.9795349 72.9219943 29.9795349 75.7403446"></polyline>
                <polygon id="Fill-452" fill="#0686D8" points="17.8102326 43.0099037 79.3916279 43.0099037 79.3916279 40.1915534 17.8102326 40.1915534"></polygon>
                <polygon id="Fill-453" fill="#0686D8" points="19.9813953 49.9937756 75.9516279 49.9937756 75.9516279 47.1754253 19.9813953 47.1754253"></polygon>
                <polygon id="Fill-454" fill="#0686D8" points="21.5683721 56.9814053 74.3646512 56.9814053 74.3646512 54.1630551 21.5683721 54.1630551"></polygon>
                <path d="M42.1451163,74.3311694 C42.1451163,77.0969105 39.9255814,79.3403173 37.1851163,79.3403173 C34.4446512,79.3403173 32.2251163,77.0969105 32.2251163,74.3311694 C32.2251163,71.5635495 34.4446512,69.3201427 37.1851163,69.3201427 C39.9255814,69.3201427 42.1451163,71.5635495 42.1451163,74.3311694" id="Fill-455" fill="#D2E9F7"></path>
                <path d="M65.9032558,74.3311694 C65.9032558,77.0969105 63.6818605,79.3403173 60.9432558,79.3403173 C58.2027907,79.3403173 55.9832558,77.0969105 55.9832558,74.3311694 C55.9832558,71.5635495 58.2027907,69.3201427 60.9432558,69.3201427 C63.6818605,69.3201427 65.9032558,71.5635495 65.9032558,74.3311694" id="Fill-456" fill="#D2E9F7"></path>
                <path d="M37.1851163,70.7311967 C35.2186047,70.7311967 33.6204651,72.345172 33.6204651,74.3311694 C33.6204651,76.315288 35.2186047,77.9311421 37.1851163,77.9311421 C39.1516279,77.9311421 40.7516279,76.315288 40.7516279,74.3311694 C40.7516279,72.345172 39.1516279,70.7311967 37.1851163,70.7311967 Z M37.1851163,80.7494924 C33.68,80.7494924 30.8297674,77.8691384 30.8297674,74.3311694 C30.8297674,70.7913215 33.68,67.9128465 37.1851163,67.9128465 C40.6902326,67.9128465 43.5423256,70.7913215 43.5423256,74.3311694 C43.5423256,77.8691384 40.6902326,80.7494924 37.1851163,80.7494924 L37.1851163,80.7494924 Z" id="Fill-457" fill="#0686D8"></path>
                <path d="M60.9432558,70.7311967 C58.9767442,70.7311967 57.3786047,72.345172 57.3786047,74.3311694 C57.3786047,76.315288 58.9767442,77.9311421 60.9432558,77.9311421 C62.907907,77.9311421 64.5097674,76.315288 64.5097674,74.3311694 C64.5097674,72.345172 62.907907,70.7311967 60.9432558,70.7311967 Z M60.9432558,80.7494924 C57.4381395,80.7494924 54.587907,77.8691384 54.587907,74.3311694 C54.587907,70.7913215 57.4381395,67.9128465 60.9432558,67.9128465 C64.4465116,67.9128465 67.3004651,70.7913215 67.3004651,74.3311694 C67.3004651,77.8691384 64.4465116,80.7494924 60.9432558,80.7494924 L60.9432558,80.7494924 Z" id="Fill-458" fill="#0686D8"></path>
                <polyline id="Fill-459" fill="#0686D8" points="72.9283721 64.5270684 24.4706977 64.5270684 24.4706977 61.7087181 70.8893023 61.7087181 78.6046512 37.3750821 81.2595349 38.2337395 72.9283721 64.5270684"></polyline>
                <polygon id="Fill-460" fill="#0686D8" points="35.3693023 75.7403446 39.0009302 75.7403446 39.0009302 72.9219943 35.3693023 72.9219943"></polygon>
                <polygon id="Fill-461" fill="#0686D8" points="59.1274419 75.7403446 62.7590698 75.7403446 62.7590698 72.9219943 59.1274419 72.9219943"></polygon>
                <path d="M44.1004651,38.5569103 L20.1618605,38.5569103 L20.1618605,12.8122202 C20.1618605,11.2846744 21.387907,10.0464792 22.9004651,10.0464792 L41.3618605,10.0464792 C42.8744186,10.0464792 44.1004651,11.2846744 44.1004651,12.8122202 L44.1004651,38.5569103" id="Fill-462" fill="#9ECFEF"></path>
                <path d="M21.5572093,38.5587892 L18.7665116,38.5587892 L18.7665116,12.8122202 C18.7665116,10.5105675 20.6213953,8.63730406 22.9004651,8.63730406 L41.3618605,8.63730406 C43.6409302,8.63730406 45.495814,10.5105675 45.495814,12.8122202 L45.495814,19.7697875 L42.7051163,19.7697875 L42.7051163,12.8122202 C42.7051163,12.064418 42.1023256,11.4556543 41.3618605,11.4556543 L22.9004651,11.4556543 C22.1581395,11.4556543 21.5572093,12.064418 21.5572093,12.8122202 L21.5572093,38.5587892" id="Fill-463" fill="#0686D8"></path>
                <path d="M73.867907,38.5569103 L40.6269767,38.5569103 L40.6269767,25.9645214 C40.6269767,24.4369755 41.8530233,23.1987803 43.3655814,23.1987803 L71.1293023,23.1987803 C72.6418605,23.1987803 73.867907,24.4369755 73.867907,25.9645214 L73.867907,38.5569103" id="Fill-464" fill="#D2E9F7"></path>
                <path d="M75.2632558,38.5587892 L72.4725581,38.5587892 L72.4725581,25.9645214 C72.4725581,25.2167191 71.8697674,24.6079555 71.1274419,24.6079555 L43.3655814,24.6079555 C42.6232558,24.6079555 42.0223256,25.2167191 42.0223256,25.9645214 L42.0223256,38.5587892 L39.2316279,38.5587892 L39.2316279,25.9645214 C39.2316279,23.6628687 41.0865116,21.7896052 43.3655814,21.7896052 L71.1274419,21.7896052 C73.4083721,21.7896052 75.2632558,23.6628687 75.2632558,25.9645214 L75.2632558,38.5587892" id="Fill-465" fill="#0686D8"></path>
                <polygon id="Fill-466" fill="#0686D8" points="43.8269767 31.071372 54.2883721 31.071372 54.2883721 28.2530218 43.8269767 28.2530218"></polygon>
                <polygon id="Fill-467" fill="#0686D8" points="43.8269767 36.7080725 49.0586047 36.7080725 49.0586047 33.8897223 43.8269767 33.8897223"></polygon>
            </g>
        </g>
    </g>
</svg>