<!-- Generator: Adobe Illustrator 24.3.0, SVG Export Plug-In  -->
<svg version="1.1" xmlns="http://www.w3.org/2000/svg" xmlns:xlink="http://www.w3.org/1999/xlink" x="0px" y="0px" width="20px"
	 height="19.25px" viewBox="0 0 20 19.25" style="overflow:visible;enable-background:new 0 0 20 19.25;" xml:space="preserve">
<style type="text/css">
	.st0{fill:#81B4FF;}
</style>
<defs>
</defs>
<g>
	<path class="st0" d="M17,1.25h-1.44v-0.5c0-0.41-0.34-0.75-0.75-0.75s-0.75,0.34-0.75,0.75v0.5H5.69v-0.5C5.69,0.34,5.35,0,4.94,0
		S4.19,0.34,4.19,0.75v0.5H3c-1.65,0-3,1.35-3,3v12c0,1.65,1.35,3,3,3h14c1.65,0,3-1.35,3-3v-12C20,2.6,18.65,1.25,17,1.25z
		 M18.7,16.25c0,0.94-0.76,1.7-1.7,1.7H3c-0.94,0-1.7-0.76-1.7-1.7v-10h17.4C18.7,6.25,18.7,16.25,18.7,16.25z M18.7,5.25H1.3v-1
		c0-0.94,0.76-1.7,1.7-1.7h1.19v1.2c0,0.41,0.34,0.75,0.75,0.75s0.75-0.34,0.75-0.75v-1.2h8.37v1.2c0,0.41,0.34,0.75,0.75,0.75
		s0.75-0.34,0.75-0.75v-1.2H17c0.94,0,1.7,0.76,1.7,1.7V5.25z"/>
	<rect x="3.25" y="8.25" class="st0" width="1.5" height="1.5"/>
	<rect x="3.25" y="11.25" class="st0" width="1.5" height="1.5"/>
	<rect x="3.25" y="14.25" class="st0" width="1.5" height="1.5"/>
	<rect x="6.19" y="8.25" class="st0" width="1.5" height="1.5"/>
	<rect x="6.19" y="11.25" class="st0" width="1.5" height="1.5"/>
	<rect x="6.19" y="14.25" class="st0" width="1.5" height="1.5"/>
	<rect x="9.12" y="8.25" class="st0" width="1.5" height="1.5"/>
	<rect x="9.12" y="11.25" class="st0" width="1.5" height="1.5"/>
	<rect x="9.12" y="14.25" class="st0" width="1.5" height="1.5"/>
	<rect x="12.06" y="8.25" class="st0" width="1.5" height="1.5"/>
	<rect x="12.06" y="11.25" class="st0" width="1.5" height="1.5"/>
	<rect x="14.99" y="8.25" class="st0" width="1.5" height="1.5"/>
	<rect x="14.99" y="11.25" class="st0" width="1.5" height="1.5"/>
</g>
</svg>
