<!-- Generator: Adobe Illustrator 24.3.0, SVG Export Plug-In  -->
<svg version="1.1" xmlns="http://www.w3.org/2000/svg" xmlns:xlink="http://www.w3.org/1999/xlink" x="0px" y="0px" width="93.12px"
	 height="108px" viewBox="0 0 93.12 108" style="overflow:visible;enable-background:new 0 0 93.12 108;" xml:space="preserve">
<style type="text/css">
	.st0{fill:#FEE3CB;}
	.st1{fill:#EF7830;}
	.st2{fill:#572A06;}
</style>
<defs>
</defs>
<g>
	<path id="Path_92_1_" class="st0" d="M73.81,35.83C72.85,22.9,62.44,9.6,44.14,8.56c-5.76,5.26-15.8,12.16-28.57,12.02
		c-3.41,5.41-4.86,11.83-4.11,18.18c-3.66,0.6-7.16,2-6.64,5.19c0.53,3.26,4.8,3.67,8.89,3.28c4.51,9.88,14.78,16.41,24.58,16.56
		c11.35,0.16,30.36-6.25,34.64-19.39c4.08,0.98,8.48,1.09,8.94-2.85C82.36,37.41,77.9,36.14,73.81,35.83z"/>
	<path id="Path_93_1_" class="st1" d="M34.65,64.45l20.88-1.32c5.09,13.03,7.27,27.01,6.39,40.98l-30.84,0.22L34.65,64.45z"/>
	<g id="Group_107_1_" transform="translate(0 0)">
		<g id="Group_106_1_">
			<path id="Path_94_1_" class="st2" d="M67.03,57.65c-0.81,0.12-1.26,0.87-1.98,1.16c-1.36,1.06-2.82,1.98-4.36,2.77
				c-0.3,0.18-0.61,0.33-0.92,0.48c-0.92,0.4-1.4,1.4-1.14,2.37c0.12,0.68,0.31,1.34,0.57,1.98c0.99,2.58,1.68,5.26,2.05,8
				c0.38,2.47,0.66,8.04,1.29,10.47c0.07,0.25,0.11,0.51,0.12,0.77c0.05,2.42,0.55,4.8,0.71,7.21c0.11,0.77,0.14,1.54,0.1,2.32
				c-0.11,2.45,0.15,4.89,0.79,7.26c0.08,0.24,0.27,0.46,0.33,0.7c0.13,0.5,0.21,1.01,0.26,1.52c0.04,0.71-0.29,1.38-0.86,1.79
				c-0.62,0.47-1.35,0.79-2.11,0.94c-0.34,0.09-0.69,0.08-1.02-0.02c-1.33-0.37-2.71-0.54-4.1-0.5c-1.04,0-2.07-0.11-3.09-0.32
				c-0.34-0.09-0.68-0.13-1.03-0.13c-2.67,0.1-5.35-0.32-8.02,0c-0.26,0.04-0.52,0.06-0.77,0.05c-2.07-0.14-4.15-0.04-6.19,0.3
				c-1.09-0.35-2.02,0.21-2.98,0.59c-1.11,0.48-2.32,0.69-3.53,0.63c-0.6-0.05-1.18-0.22-1.72-0.49c-1.08-0.43-1.73-1.55-1.56-2.71
				c0-1.21,0.12-2.41,0.36-3.6c0.12-1.51,0.15-3.02,0.09-4.54c-0.07-1.3,0.14-2.6,0.62-3.8c0.1-0.24,0.17-0.49,0.25-0.73
				c0.22-0.57,0.24-1.2,0.06-1.78c-0.38-1.16-0.39-2.4-0.03-3.56c0.16-0.58,0.16-1.19,0.28-1.79c0.05-0.34,0.19-0.66,0.39-0.94
				c0.42-0.5,0.57-4.12,0.56-4.75c-0.02-1.04-0.04-2.07-0.04-3.11c-0.07-1.38,0.07-2.76,0.41-4.1c0.57-2.35,0.75-4.78,0.53-7.19
				c-0.05-0.25-0.19-0.47-0.41-0.61c-0.41-0.32-0.87-0.56-1.36-0.72c-1.49-0.44-2.94-1-4.34-1.68C22.49,60.86,20,59.2,18,57.03
				c-0.4-0.45-0.91-0.79-1.35-1.2c-1.19-1-2.19-2.2-2.95-3.55c-0.51-0.9-1.1-1.75-1.76-2.55c-0.12-0.13-0.28-0.19-0.45-0.17
				c-0.5,0.14-0.97,0.36-1.47,0.51c-0.83,0.26-1.72,0.27-2.55,0.03c-0.83-0.24-1.66-0.47-2.48-0.74C2.79,48.7,1.06,47,0.37,44.82
				c-0.43-1.14-0.48-2.39-0.16-3.56c0.09-0.51,0.35-0.98,0.73-1.34c0.59-0.51,1.05-1.15,1.36-1.87c0.48-0.94,1.38-1.59,2.43-1.75
				c0.51-0.08,1.03-0.13,1.54-0.14c1.25-0.1,1.39-0.27,1.37-1.63C7.62,33.5,7.6,32.46,7.6,31.43c-0.04-1.22,0.24-2.42,0.81-3.5
				c0.13-0.22,0.21-0.47,0.34-0.7c0.36-0.6,0.42-1.34,0.17-1.99c-0.23-0.68,0.01-1.43,0.59-1.85c0.38-0.35,0.82-0.63,1.22-0.96
				c0.99-0.73,1.58-1.88,1.59-3.11c0.01-1.31,0.42-2.58,1.16-3.65c0.33-0.5,0.62-1.04,0.98-1.53c0.42-0.54,0.72-1.18,0.87-1.85
				c0.13-0.5,0.33-0.98,0.62-1.41c0.2-0.38,0.49-0.7,0.84-0.95c0.83-0.46,1.51-1.17,1.94-2.02c0.42-0.86,1.08-1.58,1.91-2.06
				c0.37-0.23,0.7-0.51,1-0.83c0.68-0.67,1.51-1.16,2.43-1.42c0.34-0.06,0.66-0.19,0.96-0.36c1.74-1.39,3.95-1.69,5.88-2.61
				c1.1-0.51,2.32-0.72,3.53-0.58c1.46,0.14,2.94,0.14,4.38,0.36c1.11,0.18,2.19,0.48,3.23,0.9c1.94,0.73,3.82,1.6,5.63,2.61
				c0.23,0.12,0.46,0.23,0.7,0.32c0.32,0.15,0.68,0.15,1,0c0.7-0.34,1.41-0.67,2.08-1.05c1.8-0.85,3.73-1.37,5.71-1.53
				c0.09-0.01,0.17-0.01,0.26,0c2.75,0.32,5.51,0.6,7.81,2.4c0.34,0.27,0.72,0.47,1.08,0.71c1.82,1.2,3.19,2.96,3.91,5.02
				c0.77,2.11,1.68,4.16,2.52,6.24c0.26,0.64,0.55,1.27,0.77,1.93c0.39,0.96,0.53,2.01,0.4,3.05c-0.03,0.43-0.02,0.86,0.05,1.28
				c-0.07,1.41,0.58,2.75,1.73,3.57c0.47,0.39,0.8,0.93,0.93,1.53c0.19,0.49,0.19,1.03,0,1.52c-0.23,0.56-0.52,1.09-0.74,1.65
				c-0.31,0.72-0.39,1.52-0.23,2.28c0.23,0.96,0.57,1.23,1.35,1.32c0.43,0.05,0.86,0.09,1.29,0.14c1.39,0.18,2.66,0.9,3.51,2.01
				c0.86,1.07,0.07,2.24,0.83,3.4c0.28,0.45,0.3,1.02,0.05,1.49c-0.36,0.8-0.98,2.2-1.76,3.64c-0.41,0.76-1.06,1.37-1.84,1.74
				c-0.39,0.19-0.81,0.3-1.24,0.31c-0.69,0.05-1.38,0.04-2.07,0.03c-0.53-0.06-1.04,0.22-1.27,0.7c-0.41,0.86-0.84,0.47-1.24,1.34
				c-0.06,0.13,0.02,0.32,0.03,0.56c1.83,0.73,3.57,1.65,5.21,2.75c0.59,0.37,1.12,0.8,1.6,1.3c1.61,1.44,3.29,2.79,5.05,4.04
				c0.28,0.2,0.58,0.37,0.9,0.5c0.39,0.19,0.84,0.23,1.26,0.12c0.34-0.07,0.67-0.17,0.99-0.3c0.95-0.42,2.01-0.54,3.04-0.36
				c0.53,0.06,0.99,0.36,1.27,0.81c0.64,0.64,0.64,1.67,0.01,2.31c-0.08,0.08-0.16,0.15-0.25,0.21c-0.5,0.49-1.16,0.78-1.86,0.83
				c-0.78,0.06-1.52,0.35-2.14,0.83c-1.64,1.13-3.47,1.94-5.41,2.38c-0.73,0.28-1.52,0.34-2.28,0.16c-0.59-0.13-1.21-0.11-1.79,0.08
				c-0.94,0.16-1.9,0.09-2.81-0.2c-2.85-0.81-5.33-2.58-7.03-5.01c-0.37-0.48-0.68-1-1.06-1.47C67.79,58.1,67.44,57.81,67.03,57.65z
				 M12.91,33.19c0.22,1.79,0.39,3.6,0.69,5.39c0.19,0.84,0.3,1.7,0.34,2.56c0,0.87,0.2,1.72,0.6,2.49c0.52,0.99,0.99,2.01,1.4,3.06
				c0.35,0.98,0.87,1.88,1.54,2.67c1.2,1.69,2.55,3.27,4.02,4.72c0.78,1.03,1.72,1.94,2.78,2.69c1.51,1.29,3.24,2.3,5.1,3
				c2.03,0.71,4.11,1.3,6.22,1.75c0.76,0.16,1.56,0.13,2.3,0.33c1.18,0.26,2.4,0.31,3.6,0.15c0.69-0.06,1.37-0.19,2.06-0.2
				c2.24,0,4.48-0.28,6.66-0.81c1.84-0.44,3.65-1.02,5.4-1.74c2.17-0.84,4.21-1.98,6.06-3.39c0.55-0.41,1.08-0.86,1.57-1.33
				c1.49-1.56,3.03-3.09,3.74-5.21c0.03-0.08,0.08-0.16,0.13-0.22c1-1.61,1.83-3.33,2.46-5.12c0.7-1.49,1.01-3.13,0.9-4.78
				c-0.06-0.86,0.02-1.73,0.22-2.57c0.13-0.5,0.14-1.03,0.01-1.53c-0.27-1-0.38-2.03-0.34-3.07c0.05-0.44-0.17-0.87-0.56-1.09
				c-0.81-0.34-1.41-1.04-1.61-1.9c-0.08-0.34-0.25-0.65-0.49-0.9c-1.05-1.15-2.16-2.23-3.34-3.24c-0.76-0.57-1.48-1.19-2.22-1.77
				c-0.68-0.53-1.35-1.08-2.06-1.56c-1.8-1.21-3.35-2.71-5.03-4.07c-0.47-0.38-0.89-0.82-1.22-1.33c-0.46-0.63-1.05-1.15-1.73-1.53
				c-1.06-0.59-2.18-1.05-3.34-1.39c-0.91-0.33-1.93-0.15-2.68,0.46c-0.35,0.25-0.64,0.57-0.97,0.85c-1.81,1.6-3.77,3.02-5.86,4.22
				c-1.29,0.7-2.7,1.15-3.96,1.89c-1.59,0.87-3.34,1.43-5.14,1.64c-1.46,0.17-2.9,0.47-4.31,0.87c-0.5,0.15-1.02,0.21-1.54,0.19
				c-2.25-0.06-4.47,0.36-6.71,0.42c-0.79,0.02-1.52,0.45-1.91,1.14c-0.68,1-1.22,2.09-1.6,3.24c-0.23,0.74-0.45,1.49-0.71,2.22
				C13.08,31.28,12.91,32.23,12.91,33.19z M36.57,65.81c-0.35,1.24-1.26,8.72-1.31,10.02c0,1.03-0.06,2.07-0.2,3.09
				c-0.41,2.29-0.72,7.66-1.07,9.97c-0.17,1.11-0.28,2.22-0.37,3.34c0.01,1.46-0.1,2.92-0.35,4.37c-0.07,1.51-0.04,3.02,0.1,4.53
				c0.11,0.52,0.52,0.92,1.05,1.02c0.6,0.07,1.19,0.12,1.8,0.14c1.03,0.03,2.07-0.03,3.1,0.05c1.11,0.1,2.24,0.09,3.35-0.01
				c0.86-0.11,1.73-0.06,2.57,0.15c0.59,0.15,1.2,0.17,1.79,0.06c0.42-0.09,0.85-0.11,1.28-0.05c1.36,0.28,2.77,0.14,4.11,0.41
				c1.54,0.22,3.09,0.2,4.63-0.05c0.44-0.04,0.81-0.36,0.9-0.8c0.1-1.37,0.29-5.49,0.22-6.85c-0.15-2.92-0.77-5.8-0.82-8.74
				c0-0.17-0.03-0.34-0.06-0.51c-0.63-2.95-0.83-9.04-1.42-12c-0.21-1.04-1.67-8.15-2.16-9.07C48.39,66.27,40.98,66.27,36.57,65.81
				L36.57,65.81z M9.34,44.32H9.33C9.22,43.73,9.14,43.14,9,42.56c-0.1-0.42-0.25-0.82-0.46-1.19c-0.25-0.46-0.72-0.77-1.24-0.8
				c-0.48-0.02-0.76,0.32-1.01,0.69C5.35,42.57,5.63,44.4,6.9,45.4c0.67,0.6,1.71,0.54,2.31-0.12c0.11-0.13,0.18-0.29,0.2-0.46
				C9.41,44.65,9.39,44.48,9.34,44.32L9.34,44.32z M32.22,5.68c1.27,0.01,2.52-0.21,3.71-0.64c0.89-0.32,1.85-0.37,2.77-0.15
				c0.05,0.01,0.19-0.14,0.18-0.15C38.8,4.61,38.72,4.4,38.6,4.38c-1.98-0.6-4.1-0.5-6.01,0.28c-0.62,0.29-1.28,0.48-1.91,0.75
				c-0.12,0.05-0.18,0.26-0.26,0.4c0.08,0.04,0.16,0.13,0.22,0.12C31.23,5.84,31.82,5.74,32.22,5.68z M25.03,13.09
				c0.46-0.15,0.79-0.25,1.11-0.36c0.41-0.16,0.71-0.52,0.8-0.95c0.07-0.24,0.16-0.49-0.03-0.72c-0.16-0.2-0.62-0.12-0.91,0.16
				c-0.56,0.54-1.11,1.08-1.65,1.63c-0.07,0.06-0.11,0.14-0.11,0.22c0.01,0.06,0.13,0.17,0.18,0.16
				C24.66,13.19,24.91,13.12,25.03,13.09L25.03,13.09z M75.96,43.61c1.11-0.23,1.87-1.41,2.53-2.29c0.14-0.65,0.11-1.32-0.1-1.95
				c-0.35-0.24-0.77-0.34-1.19-0.3c-1.12,0.02-2.1,0.75-2.45,1.81c-0.11,0.31,0.16,0.78,0.33,1.14
				C75.3,42.59,75.6,43.12,75.96,43.61L75.96,43.61z"/>
			<path id="Path_95_1_" class="st2" d="M36.74,49.64c0.52,0.07,0.95,0.09,1.37,0.2c0.6,0.13,1.12,0.5,1.45,1.02
				c0.1,0.14,0.18,0.29,0.26,0.45c0.89,1.92,1.37,1.96,2.95,0.36c0.43-0.43,0.87-0.85,1.32-1.24c0.66-0.58,1.54-0.84,2.41-0.74
				c0.69,0.03,1.37,0.23,1.96,0.59c0.62,0.36,0.88,1.13,0.61,1.8c-0.3,0.72-0.75,1.37-1.31,1.91c-1.32,1.24-2.82,2.3-4.43,3.12
				c-0.3,0.17-0.64,0.27-0.98,0.31c-2.04,0.11-3.98-0.14-5.52-1.68c-0.25-0.24-0.51-0.47-0.78-0.68c-1.1-0.99-1.81-2.35-1.97-3.83
				c-0.03-0.62,0.37-1.19,0.96-1.37c0.16-0.05,0.33-0.09,0.5-0.12C35.96,49.69,36.39,49.67,36.74,49.64z"/>
			<path id="Path_96_1_" class="st2" d="M53.03,31.92c0.57,0.1,1.17,0.17,1.75,0.32c0.67,0.18,1.27,0.57,1.69,1.12
				c0.34,0.4,0.53,0.9,0.55,1.42c0.04,0.69-0.08,1.38-0.36,2.01c-0.09,0.24-0.23,0.46-0.41,0.64c-0.52,0.45-1.08,0.85-1.68,1.19
				c-0.71,0.38-1.56,0.33-2.22-0.13c-0.51-0.31-0.96-0.73-1.3-1.23c-0.69-1-1.02-2.2-0.93-3.42c0.05-0.89,0.71-1.63,1.6-1.77
				C52.15,32,52.58,31.97,53.03,31.92z"/>
			<path id="Path_97_1_" class="st2" d="M30.7,31.26c0.42,0.19,0.9,0.39,1.35,0.62c0.55,0.28,0.93,0.8,1.01,1.41
				c0.22,1.36,0,2.76-0.64,3.99c-0.08,0.15-0.18,0.29-0.28,0.43c-0.44,0.67-1.29,0.94-2.04,0.66c-0.56-0.21-1.1-0.46-1.63-0.75
				c-0.62-0.33-1.03-0.94-1.09-1.64c-0.12-0.76-0.29-1.51-0.39-2.27c-0.05-0.34-0.02-0.68,0.09-1c0.18-0.59,0.67-1.03,1.27-1.15
				c0.08-0.02,0.17-0.04,0.25-0.05C29.28,31.42,29.96,31.34,30.7,31.26z"/>
		</g>
	</g>
</g>
</svg>
