<!-- Generator: Adobe Illustrator 24.2.3, SVG Export Plug-In  -->
<svg version="1.1" xmlns="http://www.w3.org/2000/svg" xmlns:xlink="http://www.w3.org/1999/xlink" x="0px" y="0px" width="34.05px"
	 height="46px" viewBox="0 0 34.05 46" style="overflow:visible;enable-background:new 0 0 34.05 46;" xml:space="preserve">
<style type="text/css">
	.st0{fill:#FEE3CB;}
	.st1{fill:#A4C2D8;}
	.st2{fill:#572A06;}
</style>
<defs>
</defs>
<g id="Group_118_1_" transform="translate(175.106 -339.246)">
	<g id="Group_117_1_" transform="translate(-175.106 339.246)">
		<path id="Path_101_1_" class="st0" d="M29.69,17.03c-0.22-4.08-2.51-7.76-6.08-9.75c-1.83,0.55-3.74,1.08-5.31,1.44
			C15.49,9.37,11.1,9.07,8.07,8.73c-2.28,2.26-3.45,5.41-3.18,8.61c-1.8,0.12-4.22,0.58-3.95,2.24c0.26,1.61,2.76,1.51,4.66,1.19
			c1.6,4.19,5.51,7.05,9.99,7.3c4.45,0.07,11.86-2.47,13.68-7.67c1.76,0.5,3.88,0.71,4.08-1.04C33.55,17.57,31.44,17.11,29.69,17.03
			z"/>
		<path id="Path_102_1_" class="st1" d="M13.11,28.31l9.2-1.16c2.16,5.23,3.08,10.89,2.68,16.53l-13.49,0.8L13.11,28.31z"/>
		<g id="Group_116_1_">
			<g id="Group_115_1_">
				<path id="Path_103_1_" class="st2" d="M6.12,9.35C5.98,8.82,5.88,8.39,5.74,7.97C5.59,7.4,5.61,6.79,5.81,6.22
					c0.16-0.51,0.61-0.87,1.14-0.92c0.37-0.04,0.74,0.04,1.07,0.23C8.31,5.69,8.6,5.85,8.9,6.01C9,6.07,9.13,6.04,9.2,5.94
					c0.08-0.08,0.12-0.18,0.13-0.29C9.3,5.48,9.25,5.3,9.18,5.13C9.08,4.88,9.13,4.6,9.32,4.41C9.6,4.11,9.79,3.75,9.87,3.35
					c0.22-0.72,0.73-1.31,1.42-1.63c0.26-0.14,0.55-0.22,0.85-0.24c0.22-0.01,0.44-0.01,0.67-0.02c0.52-0.04,1.04,0.11,1.46,0.42
					c0.09,0.06,0.19,0.1,0.29,0.13c0.18-0.25,0.08-0.52,0.08-0.77c0-0.69,0.18-1.01,0.93-1.15c0.18-0.04,0.36-0.07,0.55-0.08
					c0.37-0.05,0.75,0.04,1.05,0.26c0.15,0.11,0.32,0.2,0.49,0.27c0.15-0.04,0.29-0.08,0.43-0.11c0.79-0.2,1.63-0.13,2.38,0.21
					c0.35,0.14,0.63,0.39,0.8,0.73c0.06,0.13,0.12,0.27,0.2,0.43c0.08-0.06,0.16-0.13,0.22-0.21c0.25-0.38,0.68-0.6,1.14-0.57
					c0.33-0.02,0.67,0.01,0.99,0.1c0.17,0.06,0.35,0.11,0.54,0.15c0.3,0.04,0.57,0.17,0.79,0.37c0.16,0.15,0.34,0.29,0.5,0.44
					c0.15,0.17,0.16,0.43,0.02,0.61c-0.12,0.19-0.28,0.34-0.47,0.46c-0.13,0.07-0.25,0.16-0.35,0.26c-0.03,0.06-0.03,0.13,0,0.19
					c0.04,0.05,0.14,0.1,0.18,0.08c0.16-0.09,0.3-0.21,0.45-0.31c0.67-0.43,1.53-0.44,2.22-0.04c0.07,0.03,0.13,0.08,0.17,0.14
					c0.38,0.41,0.61,0.94,0.65,1.5c-0.01,0.22,0,0.44-0.01,0.67c-0.04,0.33,0,0.67,0.1,0.99c0.17,0.5,0.05,1.06-0.3,1.45
					c-0.02,0.03-0.04,0.06-0.07,0.08c-0.33,0.27-0.53,0.67-0.54,1.1l1.37,2.36c0.05,0.1,0.1,0.2,0.17,0.28
					c0.4,0.34,0.65,0.82,0.68,1.35c0,0.04,0.02,0.07,0.04,0.1c0.42,0.79,0.67,1.65,0.75,2.54c0.01,0.07,0.03,0.14,0.07,0.21
					c0.06,0.09,0.14,0.17,0.23,0.22c0.21,0.07,0.43,0.1,0.65,0.15c0.61,0.15,1.19,0.44,1.67,0.84c0.47,0.38,0.74,0.95,0.73,1.55
					c0.01,0.19,0,0.37-0.01,0.55c-0.05,0.72-0.5,1.35-1.17,1.62c-0.61,0.28-1.3,0.35-1.95,0.19c-0.11-0.03-0.22-0.05-0.32-0.05
					c-0.05,0-0.1,0.01-0.15,0.02c-0.26,0.3-0.47,0.64-0.61,1.01c-0.12,0.27-0.21,0.56-0.34,0.82c-0.41,0.92-1.12,1.67-2,2.16
					c-0.23,0.12-0.46,0.24-0.68,0.38c-0.32,0.19-0.65,0.36-0.99,0.49c-0.64,0.28-1.26,0.61-1.89,0.92
					c-0.07,0.04-0.12,0.08-0.18,0.13c-0.12,0.1-0.18,0.25-0.16,0.4c0.01,0.15,0.04,0.29,0.09,0.43c0.18,0.49,0.32,0.99,0.43,1.49
					c0.07,0.29,0.17,0.57,0.29,0.84c0.19,0.44,0.31,0.91,0.35,1.39c0.03,0.22,0.08,0.44,0.14,0.65c0.11,0.62,0.27,1.22,0.32,1.86
					c0.06,0.7,0.21,1.39,0.31,2.08c0.12,0.84,0.24,1.68,0.33,2.53c0.02,0.37,0.09,0.73,0.19,1.09c0.15,0.46,0.23,0.94,0.23,1.42
					c0.01,0.52,0.04,1.04,0.05,1.55c0,0.41,0.04,0.81,0.14,1.21c0.05,0.22,0.06,0.44,0.04,0.66c-0.04,0.3-0.27,0.55-0.57,0.6
					c-0.73,0.15-1.49,0.08-2.18-0.19c-0.2-0.09-0.42-0.13-0.65-0.12c-0.66-0.07-1.33-0.06-1.99,0.03c-0.18,0.02-0.37,0-0.55-0.05
					c-0.48-0.08-0.96-0.07-1.43,0.03c-0.21,0.05-0.44,0.08-0.66,0.08c-0.44-0.04-0.89,0.01-1.31,0.16
					c-0.14,0.04-0.29,0.05-0.44,0.04c-0.3,0.01-0.59,0.03-0.89,0.03c-0.96,0.02-1.92,0.21-2.82,0.55c-0.68,0.2-1.4,0.16-2.05-0.11
					c-0.25-0.1-0.41-0.35-0.38-0.62c-0.05-0.44-0.02-0.88,0.07-1.32c0.01-0.89,0.12-1.77,0.22-2.65c0.04-0.4,0-0.81,0.01-1.22
					c-0.03-0.59,0.02-1.18,0.14-1.76c0.11-0.43,0.13-0.88,0.06-1.32c-0.03-0.18-0.04-0.37-0.02-0.55c0.1-0.66,0.21-1.32,0.33-1.97
					c0.02-0.11,0.06-0.22,0.12-0.31c0.21-0.31,0.3-0.69,0.25-1.06c-0.01-0.37,0-0.74-0.01-1.11c-0.03-0.45,0.07-0.89,0.29-1.28
					c0.1-0.2,0.17-0.41,0.2-0.63c0.03-0.14,0.02-0.3,0.05-0.44c0.15-0.76,0.23-0.92-0.68-1.15c-0.81-0.26-1.59-0.63-2.3-1.1
					c-0.15-0.1-0.3-0.22-0.43-0.35C8.52,26.62,8.17,26.3,7.79,26c-0.89-0.72-1.65-1.6-2.25-2.58c-0.08-0.12-0.13-0.27-0.22-0.39
					c-0.17-0.33-0.39-0.63-0.64-0.9c-0.29-0.25-0.71-0.15-1.07-0.17c-0.81-0.08-1.6-0.32-2.33-0.7c-0.39-0.21-0.74-0.5-1.02-0.84
					c-0.09-0.12-0.16-0.25-0.19-0.4c-0.21-0.73-0.02-1.51,0.49-2.07c0.37-0.42,0.84-0.74,1.35-0.94c0.31-0.12,0.64-0.19,0.98-0.18
					c0.22,0,0.44-0.02,0.66-0.04c0.06-0.01,0.12-0.08,0.16-0.14c0.04-0.06,0.06-0.14,0.06-0.21c0.02-0.18,0.03-0.37,0.02-0.55
					c-0.04-1.04,0.08-2.07,0.36-3.07c0.12-0.58,0.37-1.13,0.75-1.6C5.38,10.65,5.7,9.98,6.12,9.35z M10.57,9.58
					c-0.17,0.1-0.29,0.17-0.42,0.24c-0.6,0.38-1.3,0.57-2.01,0.53c-0.11,0-0.21,0.05-0.29,0.14c-0.18,0.19-0.33,0.4-0.46,0.62
					c-0.46,0.76-0.84,1.57-1.15,2.4c-0.13,0.35-0.2,0.71-0.2,1.08c0.02,0.41-0.01,0.81-0.1,1.21c-0.07,0.33-0.08,0.66-0.05,0.99
					c0.06,1,0.22,1.99,0.46,2.95c0.11,0.43,0.25,0.85,0.41,1.27c0.35,0.82,0.78,1.59,1.29,2.32c0.25,0.36,0.53,0.71,0.84,1.03
					c0.12,0.14,0.24,0.28,0.34,0.44c0.17,0.24,0.4,0.44,0.66,0.58c0.56,0.29,1.09,0.63,1.58,1.03c0.23,0.18,0.5,0.32,0.78,0.4
					c0.66,0.24,1.36,0.38,2.06,0.42c0.7,0.01,1.4,0.01,2.1,0.08c0.11,0.01,0.22,0,0.33-0.02c0.8-0.16,1.61-0.26,2.4-0.47
					c0.48-0.19,0.98-0.33,1.49-0.44c0.85-0.27,1.67-0.59,2.48-0.98c0.19-0.11,0.39-0.2,0.6-0.29c0.78-0.35,1.52-0.76,2.23-1.23
					c0.61-0.43,1.12-0.97,1.51-1.61c0.34-0.78,0.64-1.58,0.89-2.39c0.04-0.18,0.06-0.36,0.07-0.55c0.04-0.63,0.08-1.26,0.09-1.89
					c0.06-1.07-0.05-2.15-0.34-3.19c-0.05-0.18-0.09-0.36-0.12-0.54c-0.06-0.44-0.24-0.86-0.52-1.21c-0.28-0.34-0.53-0.71-0.74-1.1
					c-0.28-0.52-0.64-1-1.07-1.4c-0.11-0.1-0.21-0.21-0.3-0.33c-0.19-0.28-0.55-0.41-0.88-0.32c-0.29,0.08-0.58,0.1-0.88,0.08
					c-0.59-0.06-1.16-0.25-1.67-0.55c-0.36-0.19-0.74-0.34-1.12-0.47c-0.19-0.03-0.37,0.04-0.49,0.19c-0.02,0.03-0.04,0.06-0.06,0.1
					c-0.61,1.27-1.05,1.21-2.06,1.42c-0.29,0.06-0.59,0.04-0.88-0.05c-0.21-0.07-0.42-0.15-0.63-0.21
					c-0.25-0.08-0.49-0.15-0.74-0.22c-0.22-0.06-0.45,0.01-0.61,0.18c-0.31,0.27-0.57,0.58-0.79,0.93c-0.12,0.19-0.29,0.34-0.5,0.42
					c-0.2,0.09-0.4,0.19-0.61,0.26c-0.32,0.11-0.67,0.09-0.98-0.04c-0.2-0.09-0.39-0.21-0.6-0.29c-0.31-0.13-0.57-0.36-0.74-0.65
					C11.04,10.15,10.83,9.84,10.57,9.58L10.57,9.58z M14.74,28.98c-0.24,0.38-0.39,0.79-0.47,1.23c-0.19,0.98-0.4,1.96-0.6,2.93
					c-0.03,0.11-0.04,0.22-0.05,0.33c-0.03,0.55-0.1,1.11-0.21,1.65c-0.19,0.83-0.28,1.68-0.28,2.53c0.01,0.19-0.01,0.37-0.06,0.55
					c-0.1,0.43-0.14,0.88-0.15,1.32c-0.02,0.33-0.06,0.66-0.12,0.99c-0.06,0.33-0.06,0.66,0,0.99c0.06,0.36,0.08,0.73,0.12,1.1
					c0.02,0.18,0.05,0.37,0.09,0.55c0.04,0.18,0.17,0.34,0.35,0.4c0.13,0.07,0.27,0.11,0.42,0.14c0.51,0.07,1.04,0.06,1.55-0.03
					c0.32-0.08,0.65-0.13,0.99-0.15c0.74-0.06,1.48-0.08,2.21-0.04c0.48,0.04,0.96,0.06,1.44,0.07c1.07,0.02,2.15,0.02,3.22,0.02
					c0.07,0,0.15,0,0.22-0.01c0.19-0.02,0.35-0.14,0.42-0.32c0.08-0.17,0.13-0.35,0.14-0.53c0-0.67,0.01-1.33-0.05-1.99
					c-0.05-0.44-0.08-0.88-0.08-1.33c0-0.44-0.06-0.89-0.18-1.31c-0.15-0.53-0.24-1.08-0.35-1.63c-0.29-1.49-0.45-3-0.84-4.46
					c-0.22-0.74-0.4-1.5-0.53-2.26c-0.08-0.48-0.32-0.92-0.68-1.24c-0.18-0.19-0.45-0.27-0.71-0.21c-0.07,0.01-0.15,0.02-0.22,0.04
					c-0.7,0.23-1.43,0.37-2.17,0.41c-0.15,0.01-0.29,0.04-0.43,0.09c-0.36,0.1-0.73,0.13-1.1,0.08
					C15.99,28.84,15.36,28.87,14.74,28.98L14.74,28.98z M4.13,20.43c0.01-0.07,0.01-0.14,0-0.21c-0.11-0.43-0.18-0.87-0.19-1.31
					c-0.01-0.11-0.03-0.22-0.06-0.32c-0.07-0.22-0.27-0.37-0.5-0.36c-0.04,0-0.07,0-0.11,0c-0.59,0.09-1.1,0.47-1.36,1.02
					c-0.03,0.07-0.03,0.14-0.01,0.21c0.05,0.29,0.24,0.55,0.51,0.68c0.37,0.15,0.74,0.32,1.13,0.45c0.14,0.03,0.29,0.02,0.43-0.02
					C4.03,20.56,4.07,20.49,4.13,20.43L4.13,20.43z M30.73,18.93c0,0.19,0.02,0.37,0.06,0.56c0.03,0.1,0.11,0.18,0.21,0.23
					c0.4,0.19,0.88,0.01,1.06-0.39c0.04-0.09,0.06-0.18,0.07-0.27c0.09-0.46-0.2-0.91-0.66-1c-0.03-0.01-0.07-0.01-0.1-0.01
					c-0.25-0.06-0.51,0.09-0.57,0.34c0,0.01,0,0.02-0.01,0.03C30.76,18.59,30.74,18.77,30.73,18.93L30.73,18.93z M14.53,5.04
					c-0.04-0.05-0.07-0.14-0.13-0.15c-0.2-0.09-0.43,0-0.52,0.19c-0.02,0.04-0.03,0.08-0.03,0.12c0,0.11,0.01,0.21,0.03,0.31
					c0.03,0.1,0.14,0.15,0.24,0.11c0.01,0,0.01,0,0.02-0.01C14.37,5.52,14.52,5.3,14.53,5.04L14.53,5.04z M17.77,8.12
					c0.03-0.02,0.07-0.04,0.08-0.06c0-0.04-0.01-0.07-0.03-0.1c-0.06-0.09-0.18-0.13-0.27-0.08c-0.02,0.02-0.03,0.05-0.02,0.08
					C17.55,8.07,17.66,8.14,17.77,8.12L17.77,8.12z"/>
				<path id="Path_104_1_" class="st2" d="M16.8,24.49c0.21-0.18,0.41-0.33,0.6-0.51c0.11-0.1,0.18-0.23,0.27-0.35
					c0.41-0.54,1.18-0.64,1.72-0.23c0.07,0.06,0.14,0.12,0.2,0.19c0.1,0.11,0.14,0.26,0.1,0.41c-0.15,0.38-0.39,0.71-0.71,0.96
					c-0.27,0.19-0.53,0.4-0.77,0.63c-0.58,0.54-1.43,0.7-2.17,0.41c-0.65-0.18-1.2-0.6-1.54-1.19c-0.18-0.32-0.35-0.65-0.5-0.98
					c-0.08-0.25,0.02-0.53,0.24-0.68c0.24-0.18,0.55-0.24,0.84-0.16c0.41,0.07,0.76,0.31,0.97,0.67
					C16.22,24.01,16.48,24.29,16.8,24.49z"/>
			</g>
		</g>
	</g>
	<path id="Path_105_1_" class="st2" d="M-153.56,357.28l-0.67-0.12c-0.37-0.07-0.69-0.29-0.88-0.61c-0.3-0.43-0.33-1.01-0.06-1.46
		c0.09-0.21,0.28-0.36,0.5-0.4c0.25-0.05,0.51-0.08,0.77-0.11c0.61-0.08,1.2,0.22,1.48,0.77c0.16,0.21,0.21,0.48,0.14,0.74
		c-0.04,0.14-0.05,0.29-0.09,0.43c-0.11,0.45-0.52,0.76-0.98,0.75L-153.56,357.28z"/>
	<path id="Path_106_1_" class="st2" d="M-161.86,354.33c0.19,0.03,0.3,0.04,0.41,0.06c0.18,0.03,0.35,0.13,0.45,0.29
		c0.22,0.26,0.28,0.62,0.17,0.93c-0.09,0.24-0.16,0.49-0.25,0.73c-0.1,0.24-0.28,0.44-0.5,0.58c-0.15,0.11-0.34,0.16-0.52,0.13
		c-0.29-0.06-0.57-0.14-0.85-0.24c-0.21-0.07-0.39-0.22-0.51-0.41c-0.08-0.12-0.13-0.26-0.14-0.41c0-0.22,0.03-0.44,0.08-0.66
		c0.06-0.46,0.41-0.82,0.87-0.88C-162.37,354.39-162.08,354.36-161.86,354.33z"/>
</g>
</svg>
