<!-- Generator: Adobe Illustrator 24.2.3, SVG Export Plug-In  -->
<svg version="1.1" xmlns="http://www.w3.org/2000/svg" xmlns:xlink="http://www.w3.org/1999/xlink" x="0px" y="0px" width="39.36px"
	 height="45.67px" viewBox="0 0 39.36 45.67" style="overflow:visible;enable-background:new 0 0 39.36 45.67;"
	 xml:space="preserve">
<style type="text/css">
	.st0{fill:#FEE3CB;}
	.st1{fill:#EF7830;}
	.st2{fill:#572A06;}
</style>
<defs>
</defs>
<g id="Group_108_1_" transform="translate(-406.234 -417.031)">
	<path id="Path_92_1_" class="st0" d="M437.31,432.06c-0.41-5.55-4.88-11.27-12.74-11.71c-2.48,2.26-6.78,5.22-12.27,5.16
		c-1.46,2.32-2.09,5.08-1.77,7.81c-1.57,0.26-3.07,0.86-2.85,2.23c0.23,1.4,2.06,1.58,3.82,1.41c1.92,4.15,5.99,6.89,10.56,7.11
		c4.88,0.07,13.04-2.68,14.87-8.33c1.75,0.42,3.64,0.47,3.84-1.22C440.98,432.74,439.07,432.2,437.31,432.06z"/>
	<path id="Path_93_1_" class="st1" d="M420.49,444.35l8.97-0.57c2.19,5.6,3.12,11.6,2.74,17.6l-13.24,0.09L420.49,444.35z"/>
	<g id="Group_107_1_" transform="translate(406.234 417.031)">
		<g id="Group_106_1_">
			<path id="Path_94_1_" class="st2" d="M28.34,24.38c-0.34,0.05-0.53,0.37-0.84,0.49c-0.58,0.45-1.19,0.84-1.84,1.17
				c-0.12,0.08-0.26,0.14-0.39,0.2c-0.39,0.17-0.59,0.59-0.48,1c0.05,0.29,0.13,0.57,0.24,0.84c0.42,1.09,0.71,2.23,0.87,3.38
				c0.16,1.04,0.28,3.4,0.55,4.43c0.03,0.11,0.05,0.21,0.05,0.32c0.02,1.02,0.23,2.03,0.3,3.05c0.05,0.32,0.06,0.65,0.04,0.98
				c-0.05,1.03,0.06,2.07,0.33,3.07c0.04,0.1,0.11,0.19,0.14,0.3c0.05,0.21,0.09,0.43,0.11,0.64c0.02,0.3-0.12,0.58-0.36,0.76
				c-0.26,0.2-0.57,0.33-0.89,0.4c-0.14,0.04-0.29,0.03-0.43-0.01c-0.56-0.16-1.15-0.23-1.73-0.21c-0.44,0-0.87-0.05-1.3-0.14
				C22.55,45.02,22.41,45,22.26,45c-1.13,0.04-2.26-0.14-3.39,0c-0.11,0.02-0.22,0.02-0.33,0.02c-0.88-0.06-1.75-0.02-2.62,0.13
				c-0.44-0.07-0.88,0.01-1.26,0.25c-0.47,0.2-0.98,0.29-1.49,0.27c-0.25-0.02-0.5-0.09-0.73-0.21c-0.46-0.18-0.73-0.66-0.66-1.15
				c0-0.51,0.05-1.02,0.15-1.52c0.05-0.64,0.07-1.28,0.04-1.92c-0.03-0.55,0.06-1.1,0.26-1.61c0.04-0.1,0.07-0.21,0.11-0.31
				c0.09-0.24,0.1-0.51,0.02-0.75c-0.16-0.49-0.17-1.02-0.01-1.51c0.07-0.24,0.07-0.51,0.12-0.76c0.02-0.14,0.08-0.28,0.16-0.4
				c0.17-0.65,0.25-1.33,0.24-2.01c-0.01-0.44-0.02-0.88-0.02-1.31c-0.03-0.58,0.03-1.17,0.17-1.73c0.24-0.99,0.32-2.02,0.23-3.04
				c-0.02-0.11-0.08-0.2-0.17-0.26c-0.17-0.13-0.37-0.24-0.58-0.3c-0.63-0.19-1.24-0.42-1.83-0.71c-1.17-0.43-2.22-1.13-3.07-2.05
				c-0.17-0.19-0.39-0.33-0.57-0.51c-0.5-0.42-0.92-0.93-1.24-1.51c-0.22-0.38-0.47-0.74-0.74-1.08C5,20.98,4.93,20.95,4.86,20.96
				c-0.21,0.06-0.41,0.15-0.62,0.22c-0.35,0.11-0.73,0.12-1.08,0.01c-0.35-0.1-0.7-0.2-1.05-0.31c-0.93-0.28-1.66-1-1.95-1.92
				c-0.18-0.48-0.2-1.01-0.07-1.51c0.04-0.22,0.15-0.42,0.31-0.57c0.25-0.22,0.45-0.49,0.57-0.79c0.2-0.4,0.58-0.67,1.03-0.74
				c0.22-0.03,0.43-0.05,0.65-0.06c0.53-0.04,0.59-0.11,0.58-0.69c-0.01-0.44-0.02-0.88-0.02-1.32c-0.02-0.51,0.1-1.02,0.34-1.48
				c0.05-0.1,0.09-0.2,0.14-0.3c0.15-0.26,0.17-0.57,0.06-0.85c-0.1-0.29,0-0.6,0.25-0.78c0.16-0.15,0.35-0.27,0.52-0.41
				c0.42-0.31,0.67-0.8,0.68-1.32C5.2,7.61,5.37,7.07,5.69,6.62C5.83,6.41,5.95,6.18,6.1,5.98c0.18-0.23,0.31-0.5,0.37-0.78
				c0.05-0.21,0.14-0.42,0.26-0.6c0.08-0.16,0.21-0.3,0.35-0.4C7.44,4,7.72,3.7,7.9,3.34c0.18-0.36,0.46-0.67,0.81-0.87
				c0.15-0.1,0.29-0.22,0.42-0.35c0.29-0.28,0.64-0.49,1.03-0.6c0.14-0.03,0.28-0.08,0.41-0.15c0.78-0.46,1.62-0.83,2.49-1.1
				c0.47-0.22,0.98-0.3,1.49-0.25c0.62,0.06,1.24,0.06,1.85,0.15c0.47,0.07,0.93,0.2,1.37,0.38c0.82,0.31,1.62,0.67,2.38,1.1
				c0.1,0.05,0.2,0.1,0.3,0.14c0.13,0.06,0.29,0.06,0.42,0c0.3-0.14,0.6-0.28,0.88-0.44c0.76-0.36,1.58-0.58,2.42-0.65
				c0.04-0.01,0.07-0.01,0.11,0c1.17,0.02,2.32,0.37,3.3,1.01c0.14,0.11,0.3,0.2,0.46,0.3c0.77,0.51,1.35,1.25,1.65,2.12
				c0.33,0.89,0.71,1.76,1.07,2.64c0.11,0.27,0.23,0.54,0.32,0.81c0.17,0.41,0.23,0.85,0.17,1.29c-0.01,0.18-0.01,0.36,0.02,0.54
				c-0.03,0.6,0.25,1.16,0.73,1.51c0.2,0.17,0.34,0.39,0.39,0.64c0.08,0.21,0.08,0.44,0,0.64c-0.1,0.24-0.22,0.46-0.31,0.7
				c-0.13,0.3-0.17,0.64-0.1,0.96c0.1,0.4,0.24,0.52,0.57,0.56c0.18,0.02,0.36,0.04,0.54,0.06c0.59,0.07,1.12,0.38,1.48,0.85
				c0.36,0.45,0.03,0.95,0.35,1.44c0.12,0.19,0.13,0.43,0.02,0.63c-0.15,0.34-0.41,0.93-0.74,1.54c-0.17,0.32-0.45,0.58-0.78,0.74
				c-0.16,0.08-0.34,0.13-0.52,0.13c-0.29,0.02-0.58,0.02-0.88,0.02c-0.22-0.03-0.44,0.1-0.54,0.3c-0.17,0.36-0.36,0.2-0.53,0.57
				c-0.03,0.05,0.01,0.14,0.01,0.24c0.77,0.31,1.51,0.7,2.2,1.16c0.25,0.15,0.48,0.34,0.68,0.55c0.68,0.61,1.39,1.18,2.13,1.71
				c0.12,0.09,0.25,0.16,0.38,0.21c0.17,0.08,0.36,0.1,0.53,0.05c0.14-0.03,0.28-0.07,0.42-0.13c0.4-0.18,0.85-0.23,1.29-0.15
				c0.22,0.02,0.42,0.15,0.54,0.34c0.27,0.27,0.27,0.7,0.01,0.98c-0.03,0.03-0.07,0.06-0.11,0.09c-0.21,0.21-0.49,0.33-0.79,0.35
				c-0.33,0.03-0.64,0.15-0.9,0.35c-0.69,0.48-1.47,0.82-2.29,1.01c-0.31,0.12-0.64,0.14-0.97,0.07c-0.25-0.06-0.51-0.04-0.76,0.03
				c-0.4,0.07-0.8,0.04-1.19-0.09c-1.21-0.34-2.26-1.09-2.97-2.12c-0.16-0.2-0.29-0.42-0.45-0.62
				C28.66,24.56,28.51,24.44,28.34,24.38z M5.45,14.03c0.09,0.76,0.16,1.52,0.29,2.28c0.08,0.36,0.13,0.72,0.14,1.08
				c0,0.37,0.09,0.73,0.25,1.05c0.22,0.42,0.42,0.85,0.59,1.29c0.15,0.41,0.37,0.79,0.65,1.13c0.51,0.71,1.08,1.38,1.7,2
				c0.33,0.44,0.73,0.82,1.17,1.14c0.64,0.54,1.37,0.97,2.16,1.27c0.86,0.3,1.74,0.55,2.63,0.74c0.32,0.07,0.66,0.05,0.97,0.14
				c0.5,0.11,1.01,0.13,1.52,0.06c0.29-0.02,0.58-0.08,0.87-0.08c0.95,0,1.89-0.12,2.82-0.34c0.78-0.19,1.54-0.43,2.29-0.73
				c0.92-0.36,1.78-0.84,2.56-1.43c0.23-0.17,0.46-0.36,0.67-0.56c0.69-0.61,1.23-1.36,1.58-2.2c0.01-0.03,0.03-0.07,0.05-0.1
				c0.42-0.68,0.77-1.41,1.04-2.17c0.3-0.63,0.43-1.33,0.38-2.02c-0.03-0.36,0.01-0.73,0.1-1.08c0.06-0.21,0.06-0.43,0.01-0.65
				c-0.11-0.42-0.16-0.86-0.14-1.3c0.02-0.19-0.07-0.37-0.24-0.46c-0.34-0.14-0.59-0.44-0.68-0.8c-0.03-0.14-0.1-0.27-0.21-0.38
				c-0.44-0.48-0.91-0.94-1.41-1.37c-0.32-0.24-0.62-0.5-0.94-0.75c-0.29-0.22-0.57-0.45-0.87-0.66c-0.76-0.51-1.42-1.14-2.12-1.72
				c-0.2-0.16-0.38-0.35-0.52-0.56c-0.19-0.27-0.44-0.49-0.73-0.64c-0.45-0.25-0.92-0.44-1.41-0.59c-0.39-0.14-0.82-0.06-1.13,0.2
				c-0.15,0.11-0.27,0.24-0.41,0.36c-0.76,0.68-1.59,1.28-2.48,1.79c-0.55,0.3-1.14,0.49-1.68,0.8c-0.67,0.37-1.41,0.6-2.17,0.69
				c-0.62,0.07-1.22,0.2-1.82,0.37c-0.21,0.06-0.43,0.09-0.65,0.08c-0.95-0.03-1.89,0.15-2.84,0.18c-0.34,0.01-0.64,0.19-0.81,0.48
				c-0.29,0.42-0.52,0.88-0.68,1.37c-0.1,0.31-0.19,0.63-0.3,0.94C5.53,13.24,5.46,13.63,5.45,14.03L5.45,14.03z M15.46,27.83
				c-0.15,0.52-0.53,3.69-0.55,4.24c0,0.44-0.03,0.87-0.08,1.31c-0.17,0.97-0.3,3.24-0.45,4.21c-0.07,0.47-0.12,0.94-0.15,1.41
				c0.01,0.62-0.04,1.24-0.15,1.85c-0.03,0.64-0.02,1.28,0.04,1.92c0.05,0.22,0.22,0.39,0.44,0.43c0.25,0.03,0.51,0.05,0.76,0.06
				c0.44,0.01,0.88-0.01,1.31,0.02c0.47,0.04,0.95,0.04,1.42-0.01c0.36-0.05,0.73-0.03,1.09,0.06c0.25,0.06,0.51,0.07,0.76,0.03
				c0.18-0.04,0.36-0.04,0.54-0.02c0.58,0.12,1.17,0.06,1.74,0.17c0.65,0.09,1.31,0.08,1.96-0.02c0.19-0.01,0.34-0.15,0.38-0.34
				c0.04-0.58,0.12-2.32,0.09-2.9c-0.06-1.23-0.32-2.45-0.35-3.7c0-0.07-0.01-0.15-0.03-0.22c-0.27-1.25-0.35-3.82-0.6-5.07
				c-0.09-0.44-0.71-3.45-0.92-3.83C20.32,27.94,17.88,28.08,15.46,27.83z M3.94,18.74L3.94,18.74C3.89,18.49,3.86,18.24,3.8,18
				c-0.04-0.18-0.11-0.34-0.2-0.5c-0.11-0.2-0.3-0.32-0.53-0.34c-0.2-0.01-0.32,0.14-0.42,0.29c-0.39,0.56-0.28,1.33,0.26,1.76
				c0.29,0.25,0.72,0.23,0.98-0.05c0.05-0.05,0.08-0.12,0.08-0.19C3.97,18.88,3.96,18.81,3.94,18.74z M13.62,2.4
				c0.53,0,1.07-0.09,1.57-0.27c0.38-0.13,0.78-0.16,1.17-0.07c0.02,0,0.08-0.06,0.08-0.06c-0.03-0.06-0.07-0.14-0.12-0.15
				c-0.84-0.25-1.73-0.21-2.54,0.12c-0.26,0.12-0.54,0.2-0.81,0.32c-0.05,0.02-0.08,0.11-0.11,0.17c0.03,0.02,0.07,0.05,0.09,0.05
				C13.2,2.47,13.45,2.43,13.62,2.4z M10.58,5.54c0.19-0.06,0.33-0.1,0.47-0.15c0.17-0.07,0.3-0.22,0.34-0.4
				c0.03-0.1,0.07-0.21-0.01-0.3c-0.07-0.08-0.26-0.05-0.39,0.07c-0.24,0.23-0.47,0.46-0.7,0.69c-0.03,0.02-0.05,0.06-0.05,0.1
				c0.01,0.03,0.05,0.07,0.08,0.07C10.42,5.58,10.53,5.55,10.58,5.54L10.58,5.54z M32.11,18.44c0.47-0.1,0.79-0.59,1.07-0.97
				c0.06-0.27,0.04-0.56-0.04-0.82c-0.15-0.1-0.32-0.14-0.5-0.12c-0.47,0.01-0.89,0.32-1.04,0.77c-0.05,0.13,0.07,0.33,0.14,0.48
				C31.83,18.01,31.96,18.23,32.11,18.44L32.11,18.44z"/>
			<path id="Path_95_1_" class="st2" d="M15.53,20.99c0.22,0.03,0.4,0.04,0.58,0.08c0.25,0.06,0.47,0.21,0.61,0.43
				c0.04,0.06,0.08,0.12,0.11,0.19c0.38,0.81,0.58,0.83,1.25,0.15c0.18-0.18,0.37-0.36,0.56-0.53c0.28-0.24,0.65-0.36,1.02-0.31
				c0.29,0.01,0.58,0.1,0.83,0.25c0.26,0.15,0.37,0.48,0.26,0.76c-0.13,0.3-0.32,0.58-0.55,0.81c-0.56,0.53-1.19,0.97-1.87,1.32
				c-0.13,0.07-0.27,0.11-0.41,0.13c-0.85,0.12-1.7-0.14-2.33-0.71c-0.11-0.1-0.22-0.2-0.33-0.29c-0.47-0.42-0.76-0.99-0.83-1.62
				c-0.01-0.26,0.15-0.5,0.41-0.58c0.07-0.02,0.14-0.04,0.21-0.05C15.2,21.01,15.38,21,15.53,20.99z"/>
			<path id="Path_96_1_" class="st2" d="M22.42,13.5c0.24,0.04,0.5,0.07,0.74,0.14c0.28,0.08,0.54,0.24,0.72,0.48
				c0.14,0.17,0.22,0.38,0.23,0.6c0.02,0.29-0.04,0.58-0.15,0.85c-0.04,0.1-0.1,0.19-0.17,0.27c-0.22,0.19-0.46,0.36-0.71,0.5
				c-0.3,0.16-0.66,0.14-0.94-0.05c-0.22-0.13-0.4-0.31-0.55-0.52c-0.29-0.42-0.43-0.93-0.4-1.44c0.02-0.38,0.3-0.69,0.68-0.75
				C22.04,13.53,22.22,13.52,22.42,13.5z"/>
			<path id="Path_97_1_" class="st2" d="M12.97,13.22c0.18,0.08,0.38,0.16,0.57,0.26c0.23,0.12,0.39,0.34,0.43,0.6
				c0.09,0.58,0,1.17-0.27,1.69c-0.04,0.06-0.08,0.12-0.12,0.18c-0.19,0.28-0.54,0.4-0.86,0.28c-0.24-0.09-0.47-0.19-0.69-0.32
				c-0.26-0.14-0.44-0.4-0.46-0.69c-0.05-0.32-0.12-0.64-0.17-0.96c-0.02-0.14-0.01-0.29,0.04-0.42c0.07-0.25,0.28-0.44,0.54-0.49
				c0.04-0.01,0.07-0.02,0.11-0.02L12.97,13.22z"/>
		</g>
	</g>
</g>
</svg>
