<!-- Generator: Adobe Illustrator 24.3.0, SVG Export Plug-In  -->
<svg version="1.1" xmlns="http://www.w3.org/2000/svg" xmlns:xlink="http://www.w3.org/1999/xlink" x="0px" y="0px"
	 width="689.39px" height="386.26px" viewBox="0 0 689.39 386.26"
	 style="overflow:visible;enable-background:new 0 0 689.39 386.26;" xml:space="preserve">
<style type="text/css">
	.st0{fill:#DDDDDD;}
	.st1{opacity:0.7;fill:#FFFFFF;}
	.st2{opacity:0.3;}
	.st3{fill:#1A2E35;stroke:#1A2E35;stroke-linecap:round;stroke-miterlimit:10;}
	.st4{fill:#FFFFFF;stroke:#1A2E35;stroke-linecap:round;stroke-miterlimit:10;}
	.st5{fill:#0078D1;stroke:#1A2E35;stroke-linecap:round;stroke-miterlimit:10;}
	.st6{fill:#0078D1;}
	.st7{fill:none;stroke:#000000;stroke-linecap:round;stroke-miterlimit:10;}
	.st8{fill:none;stroke:#1A2E35;stroke-linecap:round;stroke-miterlimit:10;}
	.st9{opacity:0.5;clip-path:url(#XMLID_11_);}
	.st10{opacity:0.5;clip-path:url(#XMLID_12_);}
	
		.st11{opacity:0.26;clip-path:url(#XMLID_12_);fill:none;stroke:#FFFFFF;stroke-linecap:round;stroke-linejoin:round;stroke-miterlimit:10;}
	.st12{clip-path:url(#XMLID_12_);fill:none;stroke:#FFFFFF;stroke-linecap:round;stroke-linejoin:round;stroke-miterlimit:10;}
	.st13{fill:#1A2E35;stroke:#1A2E35;stroke-linecap:round;stroke-linejoin:round;stroke-miterlimit:10;}
	.st14{fill:#FFFFFF;stroke:#1A2E35;stroke-linecap:round;stroke-linejoin:round;stroke-miterlimit:10;}
	.st15{opacity:0.5;}
	.st16{fill:none;stroke:#1A2E35;stroke-width:0.5;stroke-linecap:round;stroke-linejoin:round;stroke-miterlimit:10;}
	.st17{display:none;clip-path:url(#XMLID_13_);fill:#AAFF00;}
	.st18{opacity:0.5;clip-path:url(#XMLID_13_);fill:#FFFFFF;}
	.st19{fill:#D8D8D8;}
	.st20{opacity:0.5;fill:#FFFFFF;}
	.st21{display:none;clip-path:url(#XMLID_14_);fill:#AAFF00;}
	.st22{opacity:0.5;clip-path:url(#XMLID_14_);fill:#FFFFFF;}
	.st23{display:none;clip-path:url(#XMLID_15_);fill:#AAFF00;}
	.st24{opacity:0.5;clip-path:url(#XMLID_15_);fill:#FFFFFF;}
	.st25{display:none;clip-path:url(#XMLID_15_);fill:#0078D1;}
	.st26{opacity:0.5;clip-path:url(#XMLID_16_);}
	.st27{opacity:0.5;clip-path:url(#XMLID_17_);}
	
		.st28{opacity:0.26;clip-path:url(#XMLID_17_);fill:none;stroke:#FFFFFF;stroke-linecap:round;stroke-linejoin:round;stroke-miterlimit:10;}
	.st29{clip-path:url(#XMLID_17_);fill:none;stroke:#FFFFFF;stroke-linecap:round;stroke-linejoin:round;stroke-miterlimit:10;}
	.st30{display:none;clip-path:url(#XMLID_18_);fill:#AAFF00;}
	.st31{opacity:0.5;clip-path:url(#XMLID_18_);fill:#FFFFFF;}
	.st32{display:none;clip-path:url(#XMLID_19_);fill:#AAFF00;}
	.st33{opacity:0.5;clip-path:url(#XMLID_19_);fill:#FFFFFF;}
	.st34{display:none;clip-path:url(#XMLID_20_);fill:#AAFF00;}
	.st35{opacity:0.5;clip-path:url(#XMLID_20_);fill:#FFFFFF;}
	.st36{display:none;clip-path:url(#XMLID_20_);fill:#0078D1;}
</style>
<defs>
</defs>
<g>
	<g>
		<path class="st0" d="M308.65,168.28c0,0,3.47-11.75,15.24-36.61c16.11-34.02-7.05-72.26-52.95-92.21
			c-53.8-23.38-123.01-14.67-172.9-0.38C56.78,50.9,39.73,81.76,32.3,112.52c-3.76,15.58-4.48,31.53-6.85,47.32
			c-3.16,21.06-10.06,42.45-16.1,63.08c-7.3,24.92-14.53,53.06-4.23,79.96c31.73,82.86,206.08,86.44,274.7,48.09
			c38.79-21.67,53.08-53.54,39.98-90.73C310.11,232.74,300.69,195.14,308.65,168.28z"/>
		<path class="st1" d="M308.65,168.28c0,0,3.47-11.75,15.24-36.61c16.11-34.02-7.05-72.26-52.95-92.21
			c-53.8-23.38-123.01-14.67-172.9-0.38C56.78,50.9,39.73,81.76,32.3,112.52c-3.76,15.58-4.48,31.53-6.85,47.32
			c-3.16,21.06-10.06,42.45-16.1,63.08c-7.3,24.92-14.53,53.06-4.23,79.96c31.73,82.86,206.08,86.44,274.7,48.09
			c38.79-21.67,53.08-53.54,39.98-90.73C310.11,232.74,300.69,195.14,308.65,168.28z"/>
	</g>
	<g>
		<path class="st2" d="M299.36,92.04c0.52-0.08,0.88-0.57,0.8-1.09c-0.08-0.52-0.57-0.88-1.09-0.79l-3.79,0.59l-0.11-0.72l3.79-0.59
			c0.52-0.08,0.88-0.57,0.8-1.09c-0.08-0.52-0.57-0.88-1.09-0.8l-3.79,0.59l-0.81-5.22l-11.38-10.29L133.6,346.6l11.42,7.71
			l186.74-29.06l-2.09-13.4l3.79-0.59c0.52-0.08,0.88-0.57,0.8-1.09c-0.08-0.52-0.57-0.88-1.09-0.8l-3.79,0.59l-0.11-0.72l3.79-0.59
			c0.52-0.08,0.88-0.57,0.8-1.09c-0.08-0.52-0.57-0.88-1.09-0.8l-3.79,0.59l-1.1-7.05l3.79-0.59c0.52-0.08,0.88-0.57,0.8-1.09
			s-0.57-0.88-1.09-0.8l-3.79,0.59l-0.11-0.72l3.79-0.59c0.52-0.08,0.88-0.57,0.8-1.09c-0.08-0.52-0.57-0.88-1.09-0.8l-3.79,0.59
			l-1.1-7.05l3.79-0.59c0.52-0.08,0.88-0.57,0.8-1.09c-0.08-0.52-0.57-0.88-1.09-0.79l-3.79,0.59l-0.11-0.72l3.79-0.59
			c0.52-0.08,0.88-0.57,0.8-1.09c-0.08-0.52-0.57-0.88-1.09-0.79l-3.79,0.59l-1.1-7.05l3.79-0.59c0.52-0.08,0.88-0.57,0.8-1.09
			c-0.08-0.52-0.57-0.88-1.09-0.79l-3.79,0.59l-0.11-0.72l3.79-0.59c0.52-0.08,0.88-0.57,0.8-1.09c-0.08-0.52-0.57-0.88-1.09-0.8
			l-3.79,0.59l-1.1-7.05l3.79-0.59c0.52-0.08,0.88-0.57,0.8-1.09c-0.08-0.52-0.57-0.88-1.09-0.8l-3.79,0.59l-0.11-0.72l3.79-0.59
			c0.52-0.08,0.88-0.57,0.8-1.09c-0.08-0.52-0.57-0.88-1.09-0.8l-3.79,0.59l-1.1-7.05l3.79-0.59c0.52-0.08,0.88-0.57,0.8-1.09
			c-0.08-0.52-0.57-0.88-1.09-0.8l-3.79,0.59l-0.11-0.72l3.79-0.59c0.52-0.08,0.88-0.57,0.8-1.09c-0.08-0.52-0.57-0.88-1.09-0.8
			l-3.79,0.59l-1.1-7.05l3.79-0.59c0.52-0.08,0.88-0.57,0.8-1.09s-0.57-0.88-1.09-0.8l-3.79,0.59l-0.11-0.72l3.79-0.59
			c0.52-0.08,0.88-0.57,0.8-1.09c-0.08-0.52-0.57-0.88-1.09-0.8l-3.79,0.59l-1.1-7.05l3.79-0.59c0.52-0.08,0.88-0.57,0.8-1.09
			c-0.08-0.52-0.57-0.88-1.09-0.8l-3.79,0.59l-0.11-0.72l3.79-0.59c0.52-0.08,0.88-0.57,0.8-1.09c-0.08-0.52-0.57-0.88-1.09-0.79
			l-3.79,0.59l-1.1-7.05l3.79-0.59c0.52-0.08,0.88-0.57,0.8-1.09c-0.08-0.52-0.57-0.88-1.09-0.79l-3.79,0.59l-0.11-0.72l3.79-0.59
			c0.52-0.08,0.88-0.57,0.8-1.09c-0.08-0.52-0.57-0.88-1.09-0.79l-3.79,0.59l-1.1-7.05l3.79-0.59c0.52-0.08,0.88-0.57,0.8-1.09
			c-0.08-0.52-0.57-0.88-1.09-0.8l-3.79,0.59l-0.11-0.72l3.79-0.59c0.52-0.08,0.88-0.57,0.8-1.09c-0.08-0.52-0.57-0.88-1.09-0.8
			l-3.79,0.59l-1.1-7.05l3.79-0.59c0.52-0.08,0.88-0.57,0.8-1.09c-0.08-0.52-0.57-0.88-1.09-0.8l-3.79,0.59l-0.11-0.72l3.79-0.59
			c0.52-0.08,0.88-0.57,0.8-1.09c-0.08-0.52-0.57-0.88-1.09-0.8l-3.79,0.59l-1.1-7.05l3.79-0.59c0.52-0.08,0.88-0.57,0.8-1.09
			c-0.08-0.52-0.57-0.88-1.09-0.8l-3.79,0.59l-0.11-0.72l3.79-0.59c0.52-0.08,0.88-0.57,0.8-1.09c-0.08-0.52-0.57-0.88-1.09-0.8
			l-3.79,0.59l-1.1-7.05l3.79-0.59c0.52-0.08,0.88-0.57,0.8-1.09c-0.08-0.52-0.57-0.88-1.09-0.8l-3.79,0.59l-0.11-0.72l3.79-0.59
			c0.52-0.08,0.88-0.57,0.8-1.09c-0.08-0.52-0.57-0.88-1.09-0.79l-3.79,0.59l-1.1-7.05l3.79-0.59c0.52-0.08,0.88-0.57,0.8-1.09
			c-0.08-0.52-0.57-0.88-1.09-0.79l-3.79,0.59l-0.11-0.72l3.79-0.59c0.52-0.08,0.88-0.57,0.8-1.09c-0.08-0.52-0.57-0.88-1.09-0.79
			l-3.79,0.59l-1.1-7.05l3.79-0.59c0.52-0.08,0.88-0.57,0.8-1.09c-0.08-0.52-0.57-0.88-1.09-0.79l-3.79,0.59l-0.11-0.72l3.79-0.59
			c0.52-0.08,0.88-0.57,0.8-1.09c-0.08-0.52-0.57-0.88-1.09-0.8l-3.79,0.59l-1.1-7.05l3.79-0.59c0.52-0.08,0.88-0.57,0.8-1.09
			c-0.08-0.52-0.57-0.88-1.09-0.8l-3.79,0.59l-0.11-0.72l3.79-0.59c0.52-0.08,0.88-0.57,0.8-1.09c-0.08-0.52-0.57-0.88-1.09-0.8
			l-3.79,0.59l-1.1-7.05l3.79-0.59c0.52-0.08,0.88-0.57,0.8-1.09c-0.08-0.52-0.57-0.88-1.09-0.8l-3.79,0.59l-0.11-0.72l3.79-0.59
			c0.52-0.08,0.88-0.57,0.8-1.09c-0.08-0.52-0.57-0.88-1.09-0.8l-3.79,0.59l-1.1-7.05l3.79-0.59c0.52-0.08,0.88-0.57,0.8-1.09
			c-0.08-0.52-0.57-0.88-1.09-0.8l-3.79,0.59l-0.11-0.72l3.79-0.59c0.52-0.08,0.88-0.57,0.8-1.09c-0.08-0.52-0.57-0.88-1.09-0.8
			l-3.79,0.59l-1.1-7.05l3.79-0.59c0.52-0.08,0.88-0.57,0.8-1.09c-0.08-0.52-0.57-0.88-1.09-0.79l-3.79,0.59l-0.11-0.72l3.79-0.59
			c0.52-0.08,0.88-0.57,0.8-1.09c-0.08-0.52-0.57-0.88-1.09-0.8l-3.79,0.59l-1.1-7.05L299.36,92.04z"/>
		<g>
			<path class="st3" d="M139.64,349.24l173.15-26.95L274.14,73.95L100.99,100.9c-4.42,0.69-7.44,4.83-6.75,9.24l36.16,232.34
				C131.08,346.91,135.22,349.93,139.64,349.24z"/>
			<g>
				<path class="st4" d="M133.01,342.08l9.86-1.54l-4.29-27.57l-9.86,1.54c-1.45,0.23-2.44,1.58-2.21,3.03l3.48,22.34
					C130.21,341.32,131.56,342.31,133.01,342.08z"/>
				<path class="st5" d="M128.5,313.1l9.86-1.54l-4.29-27.57l-9.86,1.54c-1.45,0.23-2.44,1.58-2.21,3.03l3.48,22.34
					C125.7,312.33,127.05,313.32,128.5,313.1z"/>
				<path class="st4" d="M123.99,284.11l9.86-1.54l-4.29-27.57l-9.86,1.54c-1.45,0.23-2.44,1.58-2.21,3.03l3.48,22.34
					C121.19,283.35,122.54,284.34,123.99,284.11z"/>
				<path class="st5" d="M119.48,255.13l9.86-1.54l-4.29-27.57l-9.86,1.54c-1.45,0.23-2.44,1.58-2.21,3.03l3.48,22.33
					C116.68,254.36,118.03,255.35,119.48,255.13z"/>
			</g>
			<path class="st4" d="M110.68,198.57l5.91-0.92l-15.07-96.83l181.15-28.19l38.65,248.34l-181.15,28.19l-19.29-123.94l-5.91,0.92
				c-1.45,0.22-2.8-0.76-3.03-2.21l-3.48-22.33C108.24,200.15,109.23,198.8,110.68,198.57z"/>
			<polygon class="st6" points="130.05,153.73 130.64,167.3 198.25,156.27 196.48,144.91 			"/>
			<g>
				<g>
					<path class="st3" d="M272.6,87.84c0.3,1.93,2.11,3.25,4.04,2.95c1.93-0.3,3.25-2.11,2.95-4.04c-0.3-1.93-2.11-3.25-4.04-2.95
						C273.62,84.1,272.3,85.91,272.6,87.84z"/>
					<path class="st4" d="M276.47,86.75l10.58-1.65c0.52-0.08,0.88-0.57,0.8-1.09l0,0c-0.08-0.52-0.57-0.88-1.09-0.8l-10.58,1.65
						c-0.52,0.08-0.88,0.57-0.8,1.09l0,0C275.46,86.47,275.95,86.83,276.47,86.75z"/>
					<path class="st4" d="M276.87,89.35l10.58-1.65c0.52-0.08,0.88-0.57,0.8-1.09l0,0c-0.08-0.52-0.57-0.88-1.09-0.8l-10.58,1.65
						c-0.52,0.08-0.88,0.57-0.8,1.09l0,0C275.87,89.08,276.35,89.43,276.87,89.35z"/>
				</g>
				<g>
					<path class="st3" d="M274.4,99.38c0.3,1.93,2.11,3.25,4.04,2.95c1.93-0.3,3.25-2.11,2.95-4.04c-0.3-1.93-2.11-3.25-4.04-2.95
						C275.42,95.64,274.1,97.45,274.4,99.38z"/>
					<path class="st4" d="M278.26,98.28l10.58-1.65c0.52-0.08,0.88-0.57,0.8-1.09l0,0c-0.08-0.52-0.57-0.88-1.09-0.8l-10.58,1.65
						c-0.52,0.08-0.88,0.57-0.8,1.09l0,0C277.26,98.01,277.74,98.36,278.26,98.28z"/>
					<path class="st4" d="M278.67,100.89l10.58-1.65c0.52-0.08,0.88-0.57,0.8-1.09l0,0c-0.08-0.52-0.57-0.88-1.09-0.8l-10.58,1.65
						c-0.52,0.08-0.88,0.57-0.8,1.09l0,0C277.66,100.62,278.15,100.97,278.67,100.89z"/>
				</g>
				<g>
					<path class="st3" d="M276.19,110.92c0.3,1.93,2.11,3.25,4.04,2.95c1.93-0.3,3.25-2.11,2.95-4.04c-0.3-1.93-2.11-3.25-4.04-2.95
						C277.22,107.18,275.89,108.99,276.19,110.92z"/>
					<path class="st4" d="M280.06,109.82l10.58-1.65c0.52-0.08,0.88-0.57,0.8-1.09v0c-0.08-0.52-0.57-0.88-1.09-0.79l-10.58,1.65
						c-0.52,0.08-0.88,0.57-0.8,1.09l0,0C279.05,109.55,279.54,109.9,280.06,109.82z"/>
					<path class="st4" d="M280.46,112.43l10.58-1.65c0.52-0.08,0.88-0.57,0.8-1.09v0c-0.08-0.52-0.57-0.88-1.09-0.79l-10.58,1.65
						c-0.52,0.08-0.88,0.57-0.8,1.09l0,0C279.46,112.15,279.94,112.51,280.46,112.43z"/>
				</g>
				<g>
					<path class="st3" d="M277.99,122.46c0.3,1.93,2.11,3.25,4.04,2.95c1.93-0.3,3.25-2.11,2.95-4.04c-0.3-1.93-2.11-3.25-4.04-2.95
						C279.01,118.72,277.69,120.53,277.99,122.46z"/>
					<path class="st4" d="M281.85,121.36l10.58-1.65c0.52-0.08,0.88-0.57,0.8-1.09l0,0c-0.08-0.52-0.57-0.88-1.09-0.8l-10.58,1.65
						c-0.52,0.08-0.88,0.57-0.8,1.09l0,0C280.85,121.09,281.33,121.44,281.85,121.36z"/>
					<path class="st4" d="M282.26,123.97l10.58-1.65c0.52-0.08,0.88-0.57,0.8-1.09l0,0c-0.08-0.52-0.57-0.88-1.09-0.8l-10.58,1.65
						c-0.52,0.08-0.88,0.57-0.8,1.09l0,0C281.25,123.69,281.74,124.05,282.26,123.97z"/>
				</g>
				<g>
					<path class="st3" d="M279.79,134c0.3,1.93,2.11,3.25,4.04,2.95c1.93-0.3,3.25-2.11,2.95-4.04c-0.3-1.93-2.11-3.25-4.04-2.95
						C280.81,130.26,279.48,132.07,279.79,134z"/>
					<path class="st4" d="M283.65,132.9l10.58-1.65c0.52-0.08,0.88-0.57,0.8-1.09l0,0c-0.08-0.52-0.57-0.88-1.09-0.8l-10.58,1.65
						c-0.52,0.08-0.88,0.57-0.8,1.09l0,0C282.64,132.62,283.13,132.98,283.65,132.9z"/>
					<path class="st4" d="M284.06,135.51l10.58-1.65c0.52-0.08,0.88-0.57,0.8-1.09l0,0c-0.08-0.52-0.57-0.88-1.09-0.8l-10.58,1.65
						c-0.52,0.08-0.88,0.57-0.8,1.09l0,0C283.05,135.23,283.54,135.59,284.06,135.51z"/>
				</g>
				<g>
					<path class="st3" d="M281.58,145.54c0.3,1.93,2.11,3.25,4.04,2.95c1.93-0.3,3.25-2.11,2.95-4.04c-0.3-1.93-2.11-3.25-4.04-2.95
						C282.6,141.79,281.28,143.6,281.58,145.54z"/>
					<path class="st4" d="M285.45,144.44l10.58-1.65c0.52-0.08,0.88-0.57,0.8-1.09l0,0c-0.08-0.52-0.57-0.88-1.09-0.8l-10.58,1.65
						c-0.52,0.08-0.88,0.57-0.8,1.09l0,0C284.44,144.16,284.93,144.52,285.45,144.44z"/>
					<path class="st4" d="M285.85,147.04l10.58-1.65c0.52-0.08,0.88-0.57,0.8-1.09l0,0c-0.08-0.52-0.57-0.88-1.09-0.8l-10.58,1.65
						c-0.52,0.08-0.88,0.57-0.8,1.09l0,0C284.84,146.77,285.33,147.13,285.85,147.04z"/>
				</g>
				<g>
					<path class="st3" d="M283.38,157.07c0.3,1.93,2.11,3.25,4.04,2.95c1.93-0.3,3.25-2.11,2.95-4.04s-2.11-3.25-4.04-2.95
						C284.4,153.33,283.08,155.14,283.38,157.07z"/>
					<path class="st4" d="M287.24,155.97l10.58-1.65c0.52-0.08,0.88-0.57,0.8-1.09l0,0c-0.08-0.52-0.57-0.88-1.09-0.8l-10.58,1.65
						c-0.52,0.08-0.88,0.57-0.8,1.09l0,0C286.23,155.7,286.72,156.06,287.24,155.97z"/>
					<path class="st4" d="M287.65,158.58l10.58-1.65c0.52-0.08,0.88-0.57,0.8-1.09l0,0c-0.08-0.52-0.57-0.88-1.09-0.8l-10.58,1.65
						c-0.52,0.08-0.88,0.57-0.8,1.09l0,0C286.64,158.31,287.13,158.66,287.65,158.58z"/>
				</g>
				<g>
					<path class="st3" d="M285.17,168.61c0.3,1.93,2.11,3.25,4.04,2.95c1.93-0.3,3.25-2.11,2.95-4.04c-0.3-1.93-2.11-3.25-4.04-2.95
						C286.19,164.87,284.87,166.68,285.17,168.61z"/>
					<path class="st4" d="M289.04,167.51l10.58-1.65c0.52-0.08,0.88-0.57,0.8-1.09l0,0c-0.08-0.52-0.57-0.88-1.09-0.8l-10.58,1.65
						c-0.52,0.08-0.88,0.57-0.8,1.09l0,0C288.03,167.24,288.52,167.59,289.04,167.51z"/>
					<path class="st4" d="M289.44,170.12l10.58-1.65c0.52-0.08,0.88-0.57,0.8-1.09l0,0c-0.08-0.52-0.57-0.88-1.09-0.8l-10.58,1.65
						c-0.52,0.08-0.88,0.57-0.8,1.09l0,0C288.44,169.85,288.92,170.2,289.44,170.12z"/>
				</g>
				<g>
					<path class="st3" d="M286.97,180.15c0.3,1.93,2.11,3.25,4.04,2.95c1.93-0.3,3.25-2.11,2.95-4.04c-0.3-1.93-2.11-3.25-4.04-2.95
						C287.99,176.41,286.67,178.22,286.97,180.15z"/>
					<path class="st4" d="M290.83,179.05l10.58-1.65c0.52-0.08,0.88-0.57,0.8-1.09l0,0c-0.08-0.52-0.57-0.88-1.09-0.8l-10.58,1.65
						c-0.52,0.08-0.88,0.57-0.8,1.09l0,0C289.83,178.78,290.31,179.13,290.83,179.05z"/>
					<path class="st4" d="M291.24,181.66l10.58-1.65c0.52-0.08,0.88-0.57,0.8-1.09l0,0c-0.08-0.52-0.57-0.88-1.09-0.8l-10.58,1.65
						c-0.52,0.08-0.88,0.57-0.8,1.09l0,0C290.23,181.38,290.72,181.74,291.24,181.66z"/>
				</g>
				<g>
					<path class="st3" d="M288.76,191.69c0.3,1.93,2.11,3.25,4.04,2.95c1.93-0.3,3.25-2.11,2.95-4.04c-0.3-1.93-2.11-3.25-4.04-2.95
						C289.78,187.95,288.46,189.76,288.76,191.69z"/>
					<path class="st4" d="M292.63,190.59l10.58-1.65c0.52-0.08,0.88-0.57,0.8-1.09l0,0c-0.08-0.52-0.57-0.88-1.09-0.8l-10.58,1.65
						c-0.52,0.08-0.88,0.57-0.8,1.09l0,0C291.62,190.31,292.11,190.67,292.63,190.59z"/>
					<path class="st4" d="M293.03,193.2l10.58-1.65c0.52-0.08,0.88-0.57,0.8-1.09l0,0c-0.08-0.52-0.57-0.88-1.09-0.8l-10.58,1.65
						c-0.52,0.08-0.88,0.57-0.8,1.09l0,0C292.03,192.92,292.51,193.28,293.03,193.2z"/>
				</g>
				<g>
					<path class="st3" d="M290.56,203.23c0.3,1.93,2.11,3.25,4.04,2.95c1.93-0.3,3.25-2.11,2.95-4.04c-0.3-1.93-2.11-3.25-4.04-2.95
						C291.58,199.49,290.26,201.29,290.56,203.23z"/>
					<path class="st4" d="M294.42,202.13l10.58-1.65c0.52-0.08,0.88-0.57,0.8-1.09l0,0c-0.08-0.52-0.57-0.88-1.09-0.8l-10.58,1.65
						c-0.52,0.08-0.88,0.57-0.8,1.09l0,0C293.42,201.85,293.9,202.21,294.42,202.13z"/>
					<path class="st4" d="M294.83,204.74l10.58-1.65c0.52-0.08,0.88-0.57,0.8-1.09l0,0c-0.08-0.52-0.57-0.88-1.09-0.8l-10.58,1.65
						c-0.52,0.08-0.88,0.57-0.8,1.09l0,0C293.82,204.46,294.31,204.82,294.83,204.74z"/>
				</g>
				<g>
					<path class="st3" d="M292.35,214.76c0.3,1.93,2.11,3.25,4.04,2.95c1.93-0.3,3.25-2.11,2.95-4.04c-0.3-1.93-2.11-3.25-4.04-2.95
						C293.38,211.02,292.05,212.83,292.35,214.76z"/>
					<path class="st4" d="M296.22,213.67l10.58-1.65c0.52-0.08,0.88-0.57,0.8-1.09l0,0c-0.08-0.52-0.57-0.88-1.09-0.8l-10.58,1.65
						c-0.52,0.08-0.88,0.57-0.8,1.09l0,0C295.21,213.39,295.7,213.75,296.22,213.67z"/>
					<path class="st4" d="M296.63,216.27l10.58-1.65c0.52-0.08,0.88-0.57,0.8-1.09l0,0c-0.08-0.52-0.57-0.88-1.09-0.8l-10.58,1.65
						c-0.52,0.08-0.88,0.57-0.8,1.09l0,0C295.62,216,296.11,216.35,296.63,216.27z"/>
				</g>
				<g>
					<path class="st3" d="M294.15,226.3c0.3,1.93,2.11,3.25,4.04,2.95c1.93-0.3,3.25-2.11,2.95-4.04s-2.11-3.25-4.04-2.95
						C295.17,222.56,293.85,224.37,294.15,226.3z"/>
					<path class="st4" d="M298.02,225.2l10.58-1.65c0.52-0.08,0.88-0.57,0.8-1.09l0,0c-0.08-0.52-0.57-0.88-1.09-0.8l-10.58,1.65
						c-0.52,0.08-0.88,0.57-0.8,1.09l0,0C297.01,224.93,297.5,225.28,298.02,225.2z"/>
					<path class="st4" d="M298.42,227.81l10.58-1.65c0.52-0.08,0.88-0.57,0.8-1.09l0,0c-0.08-0.52-0.57-0.88-1.09-0.8l-10.58,1.65
						c-0.52,0.08-0.88,0.57-0.8,1.09l0,0C297.41,227.54,297.9,227.89,298.42,227.81z"/>
				</g>
				<g>
					<path class="st3" d="M295.95,237.84c0.3,1.93,2.11,3.25,4.04,2.95c1.93-0.3,3.25-2.11,2.95-4.04c-0.3-1.93-2.11-3.25-4.04-2.95
						C296.97,234.1,295.65,235.91,295.95,237.84z"/>
					<path class="st4" d="M299.81,236.74l10.58-1.65c0.52-0.08,0.88-0.57,0.8-1.09l0,0c-0.08-0.52-0.57-0.88-1.09-0.8l-10.58,1.65
						c-0.52,0.08-0.88,0.57-0.8,1.09l0,0C298.8,236.47,299.29,236.82,299.81,236.74z"/>
					<path class="st4" d="M300.22,239.35l10.58-1.65c0.52-0.08,0.88-0.57,0.8-1.09l0,0c-0.08-0.52-0.57-0.88-1.09-0.8l-10.58,1.65
						c-0.52,0.08-0.88,0.57-0.8,1.09l0,0C299.21,239.07,299.7,239.43,300.22,239.35z"/>
				</g>
				<g>
					<path class="st3" d="M297.74,249.38c0.3,1.93,2.11,3.25,4.04,2.95c1.93-0.3,3.25-2.11,2.95-4.04c-0.3-1.93-2.11-3.25-4.04-2.95
						C298.76,245.64,297.44,247.45,297.74,249.38z"/>
					<path class="st4" d="M301.61,248.28l10.58-1.65c0.52-0.08,0.88-0.57,0.8-1.09l0,0c-0.08-0.52-0.57-0.88-1.09-0.8l-10.58,1.65
						c-0.52,0.08-0.88,0.57-0.8,1.09l0,0C300.6,248.01,301.09,248.36,301.61,248.28z"/>
					<path class="st4" d="M302.01,250.89l10.58-1.65c0.52-0.08,0.88-0.57,0.8-1.09l0,0c-0.08-0.52-0.57-0.88-1.09-0.8L301.72,249
						c-0.52,0.08-0.88,0.57-0.8,1.09l0,0C301,250.61,301.49,250.97,302.01,250.89z"/>
				</g>
				<g>
					<path class="st3" d="M299.54,260.92c0.3,1.93,2.11,3.25,4.04,2.95c1.93-0.3,3.25-2.11,2.95-4.04c-0.3-1.93-2.11-3.25-4.04-2.95
						C300.56,257.18,299.24,258.99,299.54,260.92z"/>
					<path class="st4" d="M303.4,259.82l10.58-1.65c0.52-0.08,0.88-0.57,0.8-1.09l0,0c-0.08-0.52-0.57-0.88-1.09-0.8l-10.58,1.65
						c-0.52,0.08-0.88,0.57-0.8,1.09l0,0C302.39,259.54,302.88,259.9,303.4,259.82z"/>
					<path class="st4" d="M303.81,262.43l10.58-1.65c0.52-0.08,0.88-0.57,0.8-1.09l0,0c-0.08-0.52-0.57-0.88-1.09-0.8l-10.58,1.65
						c-0.52,0.08-0.88,0.57-0.8,1.09l0,0C302.8,262.15,303.29,262.51,303.81,262.43z"/>
				</g>
				<g>
					<path class="st3" d="M301.33,272.46c0.3,1.93,2.11,3.25,4.04,2.95c1.93-0.3,3.25-2.11,2.95-4.04c-0.3-1.93-2.11-3.25-4.04-2.95
						C302.35,268.71,301.03,270.52,301.33,272.46z"/>
					<path class="st4" d="M305.2,271.36l10.58-1.65c0.52-0.08,0.88-0.57,0.8-1.09l0,0c-0.08-0.52-0.57-0.88-1.09-0.8l-10.58,1.65
						c-0.52,0.08-0.88,0.57-0.8,1.09l0,0C304.19,271.08,304.68,271.44,305.2,271.36z"/>
					<path class="st4" d="M305.6,273.96l10.58-1.65c0.52-0.08,0.88-0.57,0.8-1.09l0,0c-0.08-0.52-0.57-0.88-1.09-0.8l-10.58,1.65
						c-0.52,0.08-0.88,0.57-0.8,1.09l0,0C304.6,273.69,305.08,274.05,305.6,273.96z"/>
				</g>
				<g>
					<path class="st3" d="M303.13,283.99c0.3,1.93,2.11,3.25,4.04,2.95c1.93-0.3,3.25-2.11,2.95-4.04s-2.11-3.25-4.04-2.95
						C304.15,280.25,302.83,282.06,303.13,283.99z"/>
					<path class="st4" d="M306.99,282.89l10.58-1.65c0.52-0.08,0.88-0.57,0.8-1.09l0,0c-0.08-0.52-0.57-0.88-1.09-0.8l-10.58,1.65
						c-0.52,0.08-0.88,0.57-0.8,1.09l0,0C305.99,282.62,306.47,282.98,306.99,282.89z"/>
					<path class="st4" d="M307.4,285.5l10.58-1.65c0.52-0.08,0.88-0.57,0.8-1.09l0,0c-0.08-0.52-0.57-0.88-1.09-0.8l-10.58,1.65
						c-0.52,0.08-0.88,0.57-0.8,1.09l0,0C306.39,285.23,306.88,285.58,307.4,285.5z"/>
				</g>
				<g>
					<path class="st3" d="M304.92,295.53c0.3,1.93,2.11,3.25,4.04,2.95c1.93-0.3,3.25-2.11,2.95-4.04c-0.3-1.93-2.11-3.25-4.04-2.95
						C305.95,291.79,304.62,293.6,304.92,295.53z"/>
					<path class="st4" d="M308.79,294.43l10.58-1.65c0.52-0.08,0.88-0.57,0.8-1.09l0,0c-0.08-0.52-0.57-0.88-1.09-0.8l-10.58,1.65
						c-0.52,0.08-0.88,0.57-0.8,1.09l0,0C307.78,294.16,308.27,294.51,308.79,294.43z"/>
					<path class="st4" d="M309.19,297.04l10.58-1.65c0.52-0.08,0.88-0.57,0.8-1.09l0,0c-0.08-0.52-0.57-0.88-1.09-0.8l-10.58,1.65
						c-0.52,0.08-0.88,0.57-0.8,1.09l0,0C308.19,296.77,308.67,297.12,309.19,297.04z"/>
				</g>
				<g>
					<path class="st3" d="M306.72,307.07c0.3,1.93,2.11,3.25,4.04,2.95c1.93-0.3,3.25-2.11,2.95-4.04c-0.3-1.93-2.11-3.25-4.04-2.95
						C307.74,303.33,306.42,305.14,306.72,307.07z"/>
					<path class="st4" d="M310.58,305.97l10.58-1.65c0.52-0.08,0.88-0.57,0.8-1.09l0,0c-0.08-0.52-0.57-0.88-1.09-0.8l-10.58,1.65
						c-0.52,0.08-0.88,0.57-0.8,1.09l0,0C309.58,305.7,310.06,306.05,310.58,305.97z"/>
					<path class="st4" d="M310.99,308.58l10.58-1.65c0.52-0.08,0.88-0.57,0.8-1.09l0,0c-0.08-0.52-0.57-0.88-1.09-0.8l-10.58,1.65
						c-0.52,0.08-0.88,0.57-0.8,1.09l0,0C309.98,308.3,310.47,308.66,310.99,308.58z"/>
				</g>
			</g>
			<g class="st2">
				<g>
					<g>
						<g>
							<line class="st7" x1="155.52" y1="111.36" x2="158.15" y2="110.96"/>
							<line class="st7" x1="160.78" y1="110.55" x2="163.4" y2="110.14"/>
						</g>
						<g>
							<line class="st7" x1="129.81" y1="119.07" x2="132.44" y2="118.66"/>
							<line class="st7" x1="135.07" y1="118.25" x2="137.7" y2="117.84"/>
							<line class="st7" x1="140.32" y1="117.44" x2="142.95" y2="117.03"/>
							<line class="st7" x1="145.58" y1="116.62" x2="148.2" y2="116.21"/>
							<line class="st7" x1="150.83" y1="115.8" x2="153.46" y2="115.39"/>
							<line class="st7" x1="156.08" y1="114.98" x2="158.71" y2="114.57"/>
							<line class="st7" x1="161.34" y1="114.17" x2="163.97" y2="113.76"/>
						</g>
						<g>
							<line class="st7" x1="130.38" y1="122.69" x2="133" y2="122.28"/>
							<line class="st7" x1="135.63" y1="121.87" x2="138.26" y2="121.46"/>
							<line class="st7" x1="140.89" y1="121.05" x2="143.51" y2="120.65"/>
							<line class="st7" x1="146.14" y1="120.24" x2="148.77" y2="119.83"/>
							<line class="st7" x1="151.39" y1="119.42" x2="154.02" y2="119.01"/>
							<line class="st7" x1="156.65" y1="118.6" x2="159.27" y2="118.19"/>
							<line class="st7" x1="161.9" y1="117.78" x2="164.53" y2="117.38"/>
						</g>
						<g>
							<line class="st7" x1="130.94" y1="126.31" x2="133.57" y2="125.9"/>
							<line class="st7" x1="136.19" y1="125.49" x2="138.82" y2="125.08"/>
							<line class="st7" x1="141.45" y1="124.67" x2="144.08" y2="124.26"/>
							<line class="st7" x1="146.7" y1="123.86" x2="149.33" y2="123.45"/>
							<line class="st7" x1="151.96" y1="123.04" x2="154.58" y2="122.63"/>
							<line class="st7" x1="157.21" y1="122.22" x2="159.84" y2="121.81"/>
							<line class="st7" x1="162.46" y1="121.4" x2="165.09" y2="120.99"/>
						</g>
						<g>
							<line class="st7" x1="131.5" y1="129.93" x2="134.13" y2="129.52"/>
							<line class="st7" x1="136.76" y1="129.11" x2="139.38" y2="128.7"/>
							<line class="st7" x1="142.01" y1="128.29" x2="144.64" y2="127.88"/>
							<line class="st7" x1="147.27" y1="127.47" x2="149.89" y2="127.07"/>
							<line class="st7" x1="152.52" y1="126.66" x2="155.15" y2="126.25"/>
							<line class="st7" x1="157.77" y1="125.84" x2="160.4" y2="125.43"/>
							<line class="st7" x1="163.03" y1="125.02" x2="165.65" y2="124.61"/>
						</g>
					</g>
					<g>
						<g>
							<line class="st7" x1="128.51" y1="110.7" x2="131.14" y2="110.29"/>
							<line class="st7" x1="133.77" y1="109.89" x2="136.39" y2="109.48"/>
							<line class="st7" x1="139.02" y1="109.07" x2="141.65" y2="108.66"/>
							<line class="st7" x1="144.27" y1="108.25" x2="146.9" y2="107.84"/>
							<line class="st7" x1="149.53" y1="107.43" x2="152.15" y2="107.02"/>
							<line class="st7" x1="154.78" y1="106.61" x2="157.41" y2="106.21"/>
							<line class="st7" x1="160.04" y1="105.8" x2="162.66" y2="105.39"/>
						</g>
					</g>
					<line class="st7" x1="163.21" y1="107.39" x2="128.6" y2="112.77"/>
					<line class="st7" x1="138.21" y1="104.56" x2="151.56" y2="102.48"/>
				</g>
				<line class="st7" x1="121.63" y1="141.88" x2="268.85" y2="118.97"/>
				<line class="st7" x1="123.47" y1="153.74" x2="270.7" y2="130.83"/>
				<line class="st7" x1="125.32" y1="165.6" x2="272.54" y2="142.68"/>
				<line class="st7" x1="127.16" y1="177.45" x2="274.39" y2="154.54"/>
				<line class="st7" x1="129.01" y1="189.31" x2="276.24" y2="166.4"/>
				<line class="st7" x1="130.85" y1="201.17" x2="278.08" y2="178.25"/>
				<line class="st7" x1="132.7" y1="213.02" x2="279.93" y2="190.11"/>
				<line class="st7" x1="134.54" y1="224.88" x2="281.77" y2="201.97"/>
				<line class="st7" x1="136.39" y1="236.74" x2="283.62" y2="213.83"/>
				<line class="st7" x1="138.23" y1="248.6" x2="285.46" y2="225.68"/>
				<line class="st7" x1="140.08" y1="260.45" x2="287.31" y2="237.54"/>
				<line class="st7" x1="141.92" y1="272.31" x2="289.15" y2="249.4"/>
				<line class="st7" x1="143.77" y1="284.17" x2="291" y2="261.26"/>
				<line class="st7" x1="148.15" y1="312.33" x2="295.38" y2="289.42"/>
				<line class="st7" x1="149.61" y1="321.72" x2="296.84" y2="298.8"/>
				<line class="st7" x1="151.07" y1="331.1" x2="298.3" y2="308.19"/>
			</g>
		</g>
		<g>
			<path class="st8" d="M142.63,153.29c0,0-12.56,13.59-5.3,11.45c7.26-2.14,17.19-16.34,15.07-10.44c-2.12,5.9-2,9.93,1.42,5.85
				c3.41-4.07,5.31-4.88,4.63-2.75c-0.68,2.13,2.13,0.68,2.13,0.68s6.95-4.12,6.27-1.99c-0.68,2.13-1.17,2.21,0.8,1.9
				c1.98-0.31,6.42-1,6.42-1s-0.42,0.57,5.51-0.35c5.93-0.92,8.25-2.3,11.21-2.76"/>
			<path class="st8" d="M136.92,171.89c0,0,9.68-6.06,10.9-4.73c1.22,1.33-0.45,3.61,3.92,2.43c4.37-1.19,8.35-4.84,8.66-2.87
				c0.31,1.98,3.12,0.53,3.12,0.53l2.47-0.38c0,0,4.52-0.2,5.93-0.92c1.41-0.72,2.88-7.53,1.79,1.75c-1.09,9.28-4.86,1.26,4.14-2.67
				c9-3.93,10.68,0.36,10.68,0.36s0.99-0.15,2.89-0.96c1.9-0.8,3.57-3.09,5.36-1.34c1.79,1.75,4.97-3.81,4.97-3.81
				s1.56,0.26,3.69,0.94c2.13,0.68,3.61,0.45,3.61,0.45s2.55,0.11,4.52-0.2c1.98-0.31,3.64-2.59,5.28-1.83
				c1.64,0.76,4.09-6.2,2.85,2.09c-1.24,8.29-9.25,12.07-5.99,7c3.26-5.06,7.25-8.72,10.89-11.31c3.64-2.59,4.71-2.25,5.51-0.35
				c0.8,1.9,1.79,1.75,3.69,0.94c1.9-0.8,0.26-1.56,1.9-0.8c1.64,0.76,2.13,0.68,3.61,0.45c1.48-0.23-5.47,3.89,1.48-0.23
				c6.95-4.12,9.43-20.7,5.8-11.53c-3.63,9.17-2.26,11.48,2.6,10.22"/>
			<path class="st8" d="M137.98,188.42c0,0,11.88-11.46,11.15-12.87c-0.72-1.41-4.52,0.2-7.29,5.18c-2.77,4.98-0.82,7.72,6.62,3.52
				c7.44-4.19-3.38,1.03,4.26,1.36c7.64,0.33,9.91-4.58,10.14-3.1c0.23,1.48-2.32,1.37,3.69,0.94c6.01-0.43,3.07-3.01,9.23-2.45
				c6.16,0.56,8.89-1.38,8.89-1.38l3.95-0.62c0,0-7.98,0.74,2.39-0.88c10.38-1.61,14.95-14.47,9.95-7.62
				c-5.01,6.85-2.65,9.01,2.48,6.19c5.13-2.82,5.13-2.82,5.13-2.82s6.49-7.08,3.43,2.5c-3.06,9.58-6.69,2.56,4.71-2.25
				c11.4-4.81,11.1-0.21,14.9-1.81c3.8-1.6,3.18-5.56,5.7-2.4c2.51,3.15,2.36,2.16,6.31,1.55c3.95-0.62,2.89-0.96,6.35-1.49
				c3.46-0.54,3.95-0.62,7.41-1.15"/>
			<path class="st8" d="M139.98,224.04c0,0,8.28-5.34,9.59-13.13c1.32-7.8-5.2,2.33-4.5,13.35c0.7,11.02-3.16-4.06,8.39-7.88
				c11.55-3.82-1.02,3.19,0.27,5.02c1.3,1.82,10.75-5.72,10.64-3.17c-0.11,2.55,2.02,3.23,7.83-1.72c5.81-4.95-3.66-3.99-4.11-0.37
				c-0.45,3.61,2.36,2.16,9.54-0.47c7.18-2.64,0.15,0.99,4.6,0.3c4.45-0.69,14.24-9.3,12.31-5.46c-1.93,3.84-0.07,6.08,2.1,3.72
				c2.16-2.36,6.75-8.64,7.14-6.17c0.38,2.47-0.89,4.19-0.89,4.19"/>
		</g>
	</g>
	<g>
		<path class="st2" d="M93.56,129.95c-0.17-0.18-0.37-0.38-0.61-0.58c-0.49-0.4-1.16-0.81-2.07-1.22c-0.12-0.06-0.28-0.11-0.44-0.16
			c-0.03-0.01-0.07-0.02-0.11-0.03c-3.94-1.21-17.41-1.8-21.94-1.96c-2.33-0.09-4.45,1.43-5.05,3.69c-0.01,0.04-0.02,0.07-0.03,0.11
			C62.4,133.46,48.74,224,48.74,224s-0.1,2.04-0.23,5.13c-0.06,1.37-0.13,2.95-0.2,4.65c-0.02,0.43-0.04,0.86-0.05,1.3
			c-0.04,0.88-0.07,1.78-0.11,2.7c-0.13,3.21-0.25,6.59-0.34,9.67c-0.07,2.2-0.12,4.26-0.14,5.99c-0.02,1.39-0.03,2.57-0.01,3.46
			c0.05,2.68,0.11,4.73,0.35,6.27c0.4,2.58,1.29,3.77,3.51,4.16c0.55,0.1,1.35,0.22,2.33,0.34c0.19,0.02,0.4,0.05,0.6,0.07
			c0.83,0.1,1.76,0.2,2.75,0.29c0.25,0.02,0.5,0.05,0.75,0.07c0.76,0.07,1.56,0.13,2.36,0.19c0.54,0.04,1.08,0.07,1.62,0.11
			c0.54,0.03,1.08,0.06,1.62,0.08c1.08,0.05,2.14,0.07,3.14,0.07c1.69,0,3.22-0.08,4.41-0.26c0,0,0,0,0.01,0
			c0.04-0.01,0.09-0.01,0.13-0.02c0.13-0.02,0.25-0.05,0.37-0.07c0.02,0,0.03-0.01,0.05-0.01c0.14-0.03,0.28-0.06,0.41-0.09
			c0.03-0.01,0.05-0.01,0.08-0.02c0.15-0.04,0.29-0.08,0.41-0.13c0.24-0.09,0.47-0.17,0.69-0.26s0.43-0.17,0.63-0.26
			c1-0.43,1.78-0.85,2.41-1.3c0.25-0.18,0.49-0.37,0.7-0.56c0.21-0.19,0.41-0.39,0.6-0.6c0.09-0.1,0.18-0.21,0.27-0.32
			c0.35-0.43,0.66-0.91,0.98-1.44c0,0,0.01-0.01,0.01-0.02c0.04-0.06,0.08-0.15,0.12-0.25c0.02-0.04,0.04-0.1,0.06-0.15
			c0.03-0.08,0.06-0.16,0.1-0.26c0.02-0.07,0.05-0.15,0.08-0.23c0.03-0.1,0.07-0.2,0.1-0.32c0.03-0.09,0.06-0.19,0.09-0.28
			c0.04-0.13,0.08-0.25,0.12-0.39c0.03-0.1,0.06-0.22,0.09-0.33c0.04-0.15,0.08-0.3,0.13-0.46c0.03-0.13,0.07-0.27,0.11-0.4
			c0.04-0.16,0.09-0.32,0.13-0.49c0.04-0.14,0.08-0.3,0.12-0.45c0.05-0.18,0.1-0.36,0.14-0.56c0.04-0.15,0.08-0.32,0.12-0.48
			c0.05-0.2,0.1-0.39,0.15-0.6c0.04-0.18,0.09-0.36,0.13-0.55c0.05-0.21,0.1-0.42,0.16-0.64c0.05-0.19,0.09-0.38,0.14-0.57
			c0.05-0.22,0.11-0.45,0.16-0.68c0.05-0.2,0.1-0.41,0.14-0.61c0.05-0.23,0.11-0.46,0.16-0.7c0.05-0.22,0.1-0.44,0.15-0.66
			c0.06-0.24,0.11-0.48,0.17-0.73c0.02-0.07,0.03-0.14,0.05-0.21c0.03-0.14,0.06-0.28,0.1-0.42c0.06-0.27,0.12-0.54,0.19-0.81
			c0.05-0.21,0.1-0.42,0.14-0.64c0.06-0.28,0.12-0.55,0.19-0.83c0.05-0.22,0.1-0.44,0.15-0.67c0.06-0.27,0.12-0.55,0.18-0.83
			c0.05-0.24,0.11-0.49,0.16-0.73c0.06-0.26,0.12-0.53,0.17-0.79c0.06-0.25,0.11-0.51,0.17-0.76c0.06-0.26,0.11-0.53,0.17-0.79
			c0.03-0.12,0.05-0.24,0.08-0.36c0.03-0.14,0.06-0.28,0.09-0.42c0.06-0.26,0.11-0.52,0.17-0.78c0.06-0.26,0.11-0.51,0.17-0.77
			c0.06-0.27,0.11-0.54,0.17-0.8c0.06-0.26,0.11-0.52,0.16-0.77c0.05-0.25,0.11-0.51,0.16-0.76c0.06-0.28,0.12-0.55,0.17-0.82
			c0.05-0.24,0.1-0.48,0.15-0.73c0.05-0.25,0.11-0.51,0.16-0.76c0.06-0.26,0.11-0.53,0.16-0.79c0.05-0.25,0.1-0.5,0.16-0.75
			c0.05-0.23,0.09-0.46,0.14-0.68c0.04-0.17,0.07-0.34,0.11-0.51c0.02-0.1,0.04-0.19,0.06-0.29c0.05-0.22,0.09-0.44,0.14-0.66
			c0.05-0.25,0.1-0.5,0.15-0.75c0.04-0.22,0.09-0.43,0.13-0.65c0.05-0.26,0.1-0.51,0.15-0.76c0.04-0.18,0.07-0.35,0.1-0.52
			c0.04-0.19,0.08-0.39,0.12-0.58c0.01-0.07,0.03-0.14,0.04-0.22c0.03-0.17,0.07-0.34,0.1-0.51c0.05-0.24,0.1-0.49,0.14-0.73
			c0.03-0.17,0.07-0.34,0.1-0.5c0.04-0.23,0.09-0.46,0.13-0.67c0.03-0.15,0.06-0.29,0.08-0.43c0.04-0.23,0.09-0.45,0.13-0.67
			c0.02-0.12,0.04-0.23,0.06-0.34c0.04-0.22,0.08-0.44,0.12-0.64c0.02-0.11,0.04-0.22,0.06-0.33c0.04-0.19,0.07-0.39,0.1-0.57
			c0-0.01,0-0.03,0.01-0.04c0,0,0,0,0,0c0.04-0.24,0.08-0.48,0.12-0.69c0.17-1,0.41-3.2,0.69-6.3c0.11-1.16,0.22-2.44,0.33-3.84
			c0.43-5.11,0.93-11.67,1.46-18.86c0.05-0.65,0.1-1.31,0.14-1.98c1.97-27.21,4.22-62.15,4.22-62.15S94.39,130.87,93.56,129.95z"/>
		<g>
			<defs>
				<path id="XMLID_10_" d="M44.07,223c0,0-1.23,25.77-1.1,32.91c0.14,7.14,0.31,9.81,3.85,10.44c3.54,0.63,17.2,2.01,21.03,0.62
					c3.83-1.39,5-2.6,6.27-4.72c1.27-2.12,7.3-30.56,8.67-38.55s6.84-93.12,6.84-93.12s0.21-1.81-3.43-3.42
					c-3.04-1.35-17.72-1.99-22.48-2.16c-2.33-0.09-4.45,1.43-5.05,3.69c-0.01,0.04-0.02,0.07-0.03,0.11
					C57.74,132.46,44.07,223,44.07,223z"/>
			</defs>
			<use xlink:href="#XMLID_10_"  style="overflow:visible;fill:#0078D1;"/>
			<clipPath id="XMLID_11_">
				<use xlink:href="#XMLID_10_"  style="overflow:visible;"/>
			</clipPath>
			<path class="st9" d="M65.81,267.38c0.83-0.1,1.53-0.23,2.05-0.42c3.83-1.39,5-2.6,6.27-4.72c1.27-2.12,7.3-30.56,8.67-38.55
				s6.84-93.12,6.84-93.12s0.21-1.81-3.43-3.42c-0.27-0.12-0.65-0.24-1.09-0.35c-0.79,19.75-3.46,43.2-8.15,71.06
				C72.53,224.22,67.56,256.08,65.81,267.38z"/>
			
				<use xlink:href="#XMLID_10_"  style="overflow:visible;fill:none;stroke:#1A2E35;stroke-linecap:round;stroke-linejoin:round;stroke-miterlimit:10;"/>
		</g>
		<g>
			<defs>
				<path id="XMLID_9_" d="M72,225.99c-4.27,0.04-22.66-1.95-25.5-2.55c-0.95-0.2-1.75-0.43-2.4-0.64
					c-0.02,0.12-0.03,0.19-0.03,0.19s-1.23,25.77-1.1,32.91c0.14,7.14,0.31,9.81,3.85,10.44c3.54,0.63,17.2,2.01,21.03,0.62
					c3.83-1.39,5-2.6,6.27-4.72c1.24-2.06,6.98-29.04,8.54-37.86C79.07,226.26,75.52,225.96,72,225.99z"/>
			</defs>
			<use xlink:href="#XMLID_9_"  style="overflow:visible;fill:#1A2E35;"/>
			<clipPath id="XMLID_12_">
				<use xlink:href="#XMLID_9_"  style="overflow:visible;"/>
			</clipPath>
			<path class="st10" d="M65.81,267.38c0.83-0.1,1.53-0.23,2.05-0.42c3.83-1.39,5-2.6,6.27-4.72c1.27-2.12,7.3-30.56,8.67-38.55
				s6.84-93.12,6.84-93.12s0.21-1.81-3.43-3.42c-0.27-0.12-0.65-0.24-1.09-0.35c-0.79,19.75-3.46,43.2-8.15,71.06
				C72.53,224.22,67.56,256.08,65.81,267.38z"/>
			<path class="st11" d="M72.05,228.37c4-0.14,6.75-0.92,8.31-1.28"/>
			<path class="st12" d="M45.52,225.42c0,0,22.58,3.09,26.53,2.95"/>
			
				<use xlink:href="#XMLID_9_"  style="overflow:visible;fill:none;stroke:#1A2E35;stroke-linecap:round;stroke-linejoin:round;stroke-miterlimit:10;"/>
		</g>
	</g>
	<g>
		
			<ellipse transform="matrix(0.8869 -0.4619 0.4619 0.8869 1.1301 169.2557)" class="st13" cx="346.3" cy="82.32" rx="42.91" ry="42.91"/>
		
			<ellipse transform="matrix(0.1235 -0.9923 0.9923 0.1235 223.2825 408.8931)" class="st14" cx="343.1" cy="78.05" rx="42.91" ry="42.91"/>
		
			<ellipse transform="matrix(0.1621 -0.9868 0.9868 0.1621 210.4503 403.9601)" class="st13" cx="343.1" cy="78.05" rx="38.65" ry="38.65"/>
		<g>
			<path class="st6" d="M338.57,49c0,0-4.26-10.66-11.73-18.12c-7.46-7.46-37.85-12.26-37.85-12.26s6.4,5.86,13.33,15.46
				c6.93,9.6,29.85,31.45,29.85,31.45s-11.19-9.6-21.32-10.66c-10.13-1.07-35.72,4.26-37.31,4.26c-1.6,0,9.6,4.26,17.59,8
				c8,3.73,38.91,6.93,38.91,6.93s-13.33,3.73-22.39,6.93c-9.06,3.2-17.59,26.65-17.59,26.65s11.73-10.66,21.86-13.33
				c10.13-2.67,24.52-7.46,24.52-7.46s-9.06,10.13-11.19,17.06c-2.13,6.93-0.53,22.92-0.53,22.92s4.8-14.93,10.66-20.79
				c5.86-5.86,12.26-15.99,12.26-15.99s3.73,5.86,8,14.93c4.26,9.06,6.93,22.39,6.93,22.39s6.93-14.93,6.4-22.39
				c-0.53-7.46-8.53-20.79-8.53-20.79s5.33-3.73,13.33-0.53c8,3.2,21.86,16.53,21.86,16.53s-3.2-17.59-8.53-24.52
				c-5.33-6.93-28.25-9.06-28.25-9.06s12.79-7.46,20.79-9.06c8-1.6,18.66,2.13,18.66,2.13s-12.26-17.06-21.86-18.12
				c-9.6-1.07-23.99,13.86-23.99,13.86s3.2-15.99,4.26-21.32c1.07-5.33-1.07-18.66-1.07-18.66s-5.86,3.2-12.79,13.33
				C335.9,38.87,338.57,49,338.57,49z"/>
			<path class="st15" d="M338.57,49c0,0-4.26-10.66-11.73-18.12c-7.46-7.46-37.85-12.26-37.85-12.26s6.4,5.86,13.33,15.46
				c6.93,9.6,29.85,31.45,29.85,31.45s-11.19-9.6-21.32-10.66c-10.13-1.07-35.72,4.26-37.31,4.26c-1.6,0,9.6,4.26,17.59,8
				c8,3.73,38.91,6.93,38.91,6.93s-13.33,3.73-22.39,6.93c-9.06,3.2-17.59,26.65-17.59,26.65s11.73-10.66,21.86-13.33
				c10.13-2.67,24.52-7.46,24.52-7.46s-9.06,10.13-11.19,17.06c-2.13,6.93-0.53,22.92-0.53,22.92s4.8-14.93,10.66-20.79
				c5.86-5.86,12.26-15.99,12.26-15.99s3.73,5.86,8,14.93c4.26,9.06,6.93,22.39,6.93,22.39s6.93-14.93,6.4-22.39
				c-0.53-7.46-8.53-20.79-8.53-20.79s5.33-3.73,13.33-0.53c8,3.2,21.86,16.53,21.86,16.53s-3.2-17.59-8.53-24.52
				c-5.33-6.93-28.25-9.06-28.25-9.06s12.79-7.46,20.79-9.06c8-1.6,18.66,2.13,18.66,2.13s-12.26-17.06-21.86-18.12
				c-9.6-1.07-23.99,13.86-23.99,13.86s3.2-15.99,4.26-21.32c1.07-5.33-1.07-18.66-1.07-18.66s-5.86,3.2-12.79,13.33
				C335.9,38.87,338.57,49,338.57,49z"/>
			<path class="st16" d="M349.07,32.78c0.37-1.53,0.78-3.06,1.23-4.56"/>
			<path class="st16" d="M313.47,32.77c4.99,3.64,11.23,8.66,14.44,13.03c5.86,8,17.59,25.05,17.59,25.05s-0.79-16.91,2.71-34.17"/>
			<path class="st16" d="M306.05,27.68c0,0,1.56,0.99,3.88,2.59"/>
			<path class="st16" d="M345.5,70.86c0,0,20.26-20.26,28.79-21.86c8.53-1.6,15.99,4.8,15.99,4.8"/>
			<path class="st16" d="M309.29,87.8c-4.93,3.14-5.37,4.92-5.37,4.92"/>
			<path class="st16" d="M389.74,89.52c0,0-3.2-8-14.39-11.73c-11.19-3.73-28.79-4.26-28.79-4.26s-24.67,8.07-33.69,12.29"/>
			<path class="st16" d="M335.8,70.48c5.96,1.73,10.77,3.04,10.77,3.04"/>
			<path class="st16" d="M298.25,61.01c5.8,0.35,13.25,1.14,17.4,2.92c3.38,1.45,10.05,3.56,16.33,5.43"/>
			<path class="st16" d="M290.06,60.73c0,0,1.95,0,4.83,0.11"/>
			<path class="st16" d="M345.5,76.72c0,0-14.93,22.39-15.99,27.72c-1.07,5.33-1.07,9.6-1.07,9.6"/>
			<path class="st16" d="M352.13,83.77c2.87,3.71,6.32,8.66,7.76,12.68c2.67,7.46,3.73,14.93,3.73,14.93"/>
			<path class="st16" d="M347.63,78.32c0,0,1.18,1.32,2.84,3.34"/>
		</g>
		<g>
			<path class="st6" d="M331.8,53.6c0,0-2.75-11.15-1.05-21.56C332.46,21.62,354.34,0,354.34,0s-1.78,8.49-1.81,20.33
				c-0.03,11.84-5.9,42.96-5.9,42.96s3.5-14.32,11.1-21.1c7.61-6.77,31.5-17.37,32.8-18.3c1.3-0.93-5.31,9.06-9.63,16.76
				c-4.32,7.69-27.57,28.33-27.57,28.33s13-4.74,22.23-7.43c9.23-2.69,29.83,11.39,29.83,11.39s-15.74-1.82-25.53,1.92
				c-9.78,3.74-24.27,8.24-24.27,8.24s13.27,2.94,19.04,7.33c5.77,4.39,13.8,18.31,13.8,18.31s-12.6-9.33-20.79-10.67
				c-8.18-1.34-19.29-5.84-19.29-5.84s0.39,6.94,2.21,16.79c1.82,9.85,7.43,22.23,7.43,22.23s-14.33-8.08-18.25-14.45
				c-3.92-6.37-5.2-21.86-5.2-21.86s-6.51,0.08-11.14,7.34c-4.63,7.26-8.11,26.17-8.11,26.17s-7.66-16.15-7.37-24.89
				c0.29-8.74,17.66-23.84,17.66-23.84s-14.74,1.4-22.17,4.76c-7.43,3.36-13.91,12.61-13.91,12.61s0.01-21.01,7.18-27.47
				c7.17-6.46,27.57-2.73,27.57-2.73s-11.93-11.12-15.9-14.83c-3.98-3.71-10.02-15.78-10.02-15.78s6.63-0.82,18.16,3.36
				C328.05,43.81,331.8,53.6,331.8,53.6z"/>
			<path class="st16" d="M313.8,46.54c-1.19-1.03-2.42-2.03-3.66-2.99"/>
			<path class="st16" d="M342.72,25.77c-1.93,5.87-4.08,13.58-4.13,19.01c-0.1,9.92,0.32,30.61,0.32,30.61s-9.22-14.19-22.13-26.18"
				/>
			<path class="st16" d="M345.77,17.31c0,0-0.69,1.71-1.64,4.37"/>
			<path class="st16" d="M338.91,75.39c0,0-28.27-4.64-36.13-0.96c-7.86,3.68-10.19,13.22-10.19,13.22"/>
			<path class="st16" d="M378.21,68.03c5.84-0.32,7.23,0.86,7.23,0.86"/>
			<path class="st16" d="M313.86,116.35c0,0-2.07-8.36,4.85-17.92c6.92-9.56,20.89-20.25,20.89-20.25s24.74-7.83,34.53-9.67"/>
			<path class="st16" d="M346.57,69.43c-3.83,4.88-6.97,8.75-6.97,8.75"/>
			<path class="st16" d="M371.55,39.83c-4.5,3.66-10.1,8.65-12.43,12.52c-1.9,3.15-6.09,8.75-10.1,13.93"/>
			<path class="st16" d="M378.04,34.83c0,0-1.58,1.14-3.85,2.91"/>
			<path class="st16" d="M342.33,80.15c0,0,25.18,9.48,29.16,13.19c3.98,3.71,6.46,7.17,6.46,7.17"/>
			<path class="st16" d="M341.05,89.75c-0.17,4.69-0.08,10.72,1.09,14.82c2.19,7.62,5.67,14.3,5.67,14.3"/>
			<path class="st16" d="M341.54,82.7c0,0-0.19,1.76-0.35,4.37"/>
		</g>
	</g>
	<g>
		<path class="st2" d="M351.65,299.18c-1.92-5.41-2.26-33.79-1.83-53.97l11.23,2.43c2.04,0.44,4.05,0.09,5.73-0.84
			c0.42-0.24,0.82-0.51,1.2-0.82c0.36-0.29,0.7-0.62,1-0.97c1.01-1.15,1.72-2.58,1.96-4.21c0.04-0.28,0.07-0.56,0.08-0.84
			c0.04-0.83-0.05-1.65-0.25-2.43c-0.2-0.78-0.51-1.52-0.92-2.19c-0.27-0.45-0.59-0.88-0.94-1.27c-1.24-1.37-2.94-2.34-4.91-2.63
			l-13.56-2.02c0.13-1.77,0.26-3.13,0.41-3.97c0.25-1.45,0.34-2.76,0.29-3.96c0.2-0.65,0.5-1.61,0.94-3.03
			c1.36-4.39,0.33-10.84-3.41-14.51c-3.73-3.67-16.97-10.13-20.88-13.52c-3.91-3.39-32.93-24.09-38.14-22.86
			c-5.21,1.22-11.37,8.65-16.62,12.75c-5.26,4.1-24.12,19.54-24.12,19.54c0.06-0.66-9.72,3.3-12.1,7.13
			c-0.4,0.49-0.6,0.94-0.51,1.33c0.39,1.67,1.57,3.6,4.34,4.78l-8.48-1.26c-1.01-0.15-1.97,0.32-2.51,1.12
			c-3.01-0.45-9.12-1.12-13.54,0.09c0,0,7.21,3.53,12.61,4.7c0.28,0.82,0.96,1.48,1.88,1.68l11.25,2.43c-0.19,0.61-0.35,1.26-0.46,2
			c-0.09,0.6,0.02,1.21,0.25,1.82c0.05,0.38,0.12,0.78,0.21,1.18c1.6,6.8,10.23,15.06,16.54,20.52
			c6.31,5.46,12.33,14.81,16.07,25.65c3.74,10.84,6.08,20.82,14.4,31.79c1.49,1.96,3.04,3.71,4.61,5.27l77.57,48.97
			C371.04,359.07,354.47,307.13,351.65,299.18z M250.48,213.9c-0.13,0.2-0.26,0.4-0.37,0.6l-2.14-0.32
			C248.76,214.16,249.6,214.06,250.48,213.9z"/>
		<g>
			<g>
				<g>
					<defs>
						<path id="XMLID_8_" d="M325.59,385.76l-49.52-85.6c0,0-5.54-38.89-17.35-54.54s-28.37-27.07-18.76-35.07
							c9.61-8,34-23.29,39.02-22.32c5.01,0.98,38.66,17.96,48.17,20.75c9.51,2.79,12.84,6.79,11.42,15.02
							c-1.42,8.23-2.02,65.78,0.8,73.73c2.82,7.95,34.06,64.59,34.06,64.59"/>
					</defs>
					<use xlink:href="#XMLID_8_"  style="overflow:visible;fill:#FFFFFF;"/>
					<clipPath id="XMLID_13_">
						<use xlink:href="#XMLID_8_"  style="overflow:visible;"/>
					</clipPath>
					<path class="st17" d="M339.38,297.73c-2.82-7.95-2.22-65.51-0.8-73.73c0.87-5.04-0.06-8.49-3.08-11.05
						c0.23,4.51-0.79,9.43-2.19,13.39c-2.67,7.57-4.01,12.91-4.01,12.91s-0.45,27.15,1.34,40.95c1.78,13.8,10.68,38.28,19.14,51.64
						c6.26,9.88,15.19,18.78,19.42,22.75C360.56,338.81,341.56,303.85,339.38,297.73z"/>
					<path class="st18" d="M339.38,297.73c-2.82-7.95-2.22-65.51-0.8-73.73c0.87-5.04-0.06-8.49-3.08-11.05
						c0.23,4.51-0.79,9.43-2.19,13.39c-2.67,7.57-4.01,12.91-4.01,12.91s-0.45,27.15,1.34,40.95c1.78,13.8,10.68,38.28,19.14,51.64
						c6.26,9.88,15.19,18.78,19.42,22.75C360.56,338.81,341.56,303.85,339.38,297.73z"/>
					<use xlink:href="#XMLID_8_"  style="overflow:visible;fill:none;stroke:#1A2E35;stroke-linecap:round;stroke-miterlimit:10;"/>
				</g>
				<path class="st19" d="M226.91,212.09c0,0,10.68,0,21.81-7.12c11.13-7.12,7.57-8.46,7.57-8.46s5.79-1.78,9.35-3.12
					c3.56-1.34,8.46-4.9,8.46-4.9s14.24,9.35,20.92,12.02c6.68,2.67,9.83,3.36,9.83,3.36l9.31,12.22c0,0-7.57,3.12-12.91,11.13
					c-5.34,8.01-12.02,18.7-15.14,20.03c-3.12,1.34-1.78,2.67-15.58-2.67C256.74,239.25,226.02,220.11,226.91,212.09z"/>
				<path class="st20" d="M226.91,212.09c0,0,10.68,0,21.81-7.12c11.13-7.12,7.57-8.46,7.57-8.46s5.79-1.78,9.35-3.12
					c3.56-1.34,8.46-4.9,8.46-4.9s14.24,9.35,20.92,12.02c6.68,2.67,9.83,3.36,9.83,3.36l9.31,12.22c0,0-7.57,3.12-12.91,11.13
					c-5.34,8.01-12.02,18.7-15.14,20.03c-3.12,1.34-1.78,2.67-15.58-2.67C256.74,239.25,226.02,220.11,226.91,212.09z"/>
				<path class="st8" d="M251.58,216.2c0,0,10.7-1.32,18.24-15.05c0,0,8.88,3.76,18.12,1.35"/>
				<path class="st8" d="M280.59,206.28c0,0-5.17,13.65,5.72,31.73"/>
				<path class="st8" d="M269.16,207.52c0,0,5.38,6.63,6.26,12.41"/>
				<path class="st8" d="M279.25,244.39c0,0,8.95-5.69,13.78-11.61s6.95-12.16,14.5-14.65"/>
				<line class="st8" x1="269.82" y1="201.15" x2="267.62" y2="198.56"/>
			</g>
			<g>
				<path class="st3" d="M219.22,211.83c0,0-9.29-1.89-15.36-0.22c0,0,8.92,4.37,14.33,5.01L219.22,211.83z"/>
				<path class="st5" d="M351.73,229.99L219.9,210.4c-1.3-0.19-2.54,0.63-2.86,1.91l-0.64,2.56c-0.35,1.4,0.53,2.82,1.94,3.13
					l130.45,28.2c4.66,1.01,9.19-2.13,9.89-6.84l0,0C359.34,234.85,356.24,230.66,351.73,229.99z"/>
				<path class="st3" d="M351.73,229.99l-19.93-2.96c-3.61,2.11-5.57,6.51-4.54,10.94c0.35,1.51,1.03,2.86,1.92,4l19.59,4.24
					c4.66,1.01,9.19-2.13,9.89-6.84v0C359.34,234.85,356.24,230.66,351.73,229.99z"/>
			</g>
			<g>
				<g>
					<defs>
						<path id="XMLID_7_" d="M298.38,242.29c0,0-11.34,2.66-16.4,1.46c-5.07-1.2-15.42-15.76-22.53-20.55
							c-7.11-4.79-11.44-5.93-18.88-7.05c-7.44-1.12-12.58,2.47-10.98,9.28c1.6,6.8,10.23,15.06,16.54,20.52
							c6.31,5.46,12.33,14.81,16.07,25.65c3.74,10.84,6.08,20.82,14.4,31.79s18.7,15.47,22.2,16.08"/>
					</defs>
					<use xlink:href="#XMLID_7_"  style="overflow:visible;fill:#FFFFFF;"/>
					<clipPath id="XMLID_14_">
						<use xlink:href="#XMLID_7_"  style="overflow:visible;"/>
					</clipPath>
					<path class="st21" d="M292.75,243.9c0,0-0.29-0.14-0.8-0.41c-3.44,0.51-7.48,0.85-9.98,0.26c-5.07-1.2-15.42-15.76-22.53-20.55
						c-7.11-4.79-11.44-5.93-18.88-7.05c-1.27-0.19-2.47-0.24-3.59-0.16c2.24,0.55,9.41,2.56,15.98,7.31
						c7.92,5.72,13.63,20.23,22.43,22.87C284.18,248.81,292.75,243.9,292.75,243.9z"/>
					<path class="st22" d="M292.75,243.9c0,0-0.29-0.14-0.8-0.41c-3.44,0.51-7.48,0.85-9.98,0.26c-5.07-1.2-15.42-15.76-22.53-20.55
						c-7.11-4.79-11.44-5.93-18.88-7.05c-1.27-0.19-2.47-0.24-3.59-0.16c2.24,0.55,9.41,2.56,15.98,7.31
						c7.92,5.72,13.63,20.23,22.43,22.87C284.18,248.81,292.75,243.9,292.75,243.9z"/>
					<use xlink:href="#XMLID_7_"  style="overflow:visible;fill:none;stroke:#1A2E35;stroke-linecap:round;stroke-miterlimit:10;"/>
				</g>
				<path class="st4" d="M235.28,230.31c0,0,0.54-5.87,8.58-11.34c0,0-5.37-3.52-9.05-2.9s-5.12,2.64-5.68,6.36
					C228.56,226.15,235.28,230.31,235.28,230.31z"/>
				<path class="st8" d="M240.56,236.54c0.49,0.5,1.15,1.05,2.06,1.61"/>
				<path class="st8" d="M246.4,222.67c0,0-8.54,4.4-7.17,11.25"/>
			</g>
			<g>
				<g>
					<defs>
						<path id="XMLID_6_" d="M338.45,221.4c0,0,0,0,1.36-4.39c1.36-4.39,0.33-10.84-3.41-14.51c-3.73-3.67-16.97-10.13-20.88-13.52
							c-3.91-3.39-32.93-24.09-38.14-22.86s-11.37,8.65-16.62,12.75c-5.26,4.1-24.12,19.54-24.12,19.54s-13.25,5.74-12.61,8.46
							s3.36,6.15,11.67,5.87c8.31-0.28,22.15-8.55,24.26-9.76c2.11-1.21,15.17-9.78,15.17-9.78s5.35,5.44,11.52,8.3
							c6.17,2.86,6.96,3.15,6.96,3.15s1.61,5.84,6.14,8.84"/>
					</defs>
					<use xlink:href="#XMLID_6_"  style="overflow:visible;fill:#FFFFFF;"/>
					<clipPath id="XMLID_15_">
						<use xlink:href="#XMLID_6_"  style="overflow:visible;"/>
					</clipPath>
					<path class="st23" d="M331.08,202.74c4.8,3.77,5.1,11.23,3.77,17.92l3.59,0.73c0,0,0,0,1.36-4.39
						c1.36-4.39,0.33-10.84-3.41-14.51c-3.73-3.67-16.97-10.13-20.88-13.52c-1.02-0.88-3.76-2.95-7.33-5.5l-0.71,0.12
						C307.49,183.6,324.85,197.85,331.08,202.74z"/>
					<path class="st24" d="M331.08,202.74c4.8,3.77,5.1,11.23,3.77,17.92l3.59,0.73c0,0,0,0,1.36-4.39
						c1.36-4.39,0.33-10.84-3.41-14.51c-3.73-3.67-16.97-10.13-20.88-13.52c-1.02-0.88-3.76-2.95-7.33-5.5l-0.71,0.12
						C307.49,183.6,324.85,197.85,331.08,202.74z"/>
					<path class="st25" d="M226.91,212.09c0,0,10.68,0,21.81-7.12c11.13-7.12,7.57-8.46,7.57-8.46s5.79-1.78,9.35-3.12
						c3.56-1.34,8.46-4.9,8.46-4.9s14.24,9.35,20.92,12.02c6.68,2.67,9.83,3.36,9.83,3.36l9.31,12.22c0,0-7.57,3.12-12.91,11.13
						c-5.34,8.01-12.02,18.7-15.14,20.03c-3.12,1.34-1.78,2.67-15.58-2.67C256.74,239.25,226.02,220.11,226.91,212.09z"/>
					<path class="st24" d="M226.91,212.09c0,0,10.68,0,21.81-7.12c11.13-7.12,7.57-8.46,7.57-8.46s5.79-1.78,9.35-3.12
						c3.56-1.34,8.46-4.9,8.46-4.9s14.24,9.35,20.92,12.02c6.68,2.67,9.83,3.36,9.83,3.36l9.31,12.22c0,0-7.57,3.12-12.91,11.13
						c-5.34,8.01-12.02,18.7-15.14,20.03c-3.12,1.34-1.78,2.67-15.58-2.67C256.74,239.25,226.02,220.11,226.91,212.09z"/>
					<use xlink:href="#XMLID_6_"  style="overflow:visible;fill:none;stroke:#1A2E35;stroke-linecap:round;stroke-miterlimit:10;"/>
				</g>
				<path class="st4" d="M224.03,206.87c0,0,1.35,0.64,4.19-0.5c2.84-1.15,8.35-7.22,8.42-7.96
					C236.71,197.68,224.49,202.7,224.03,206.87z"/>
				<g>
					<path class="st8" d="M274.6,183.5c0.12-0.58,0.28-1.17,0.47-1.77"/>
					<path class="st8" d="M275.13,193.2c0,0-1.18-3.24-0.85-7.44"/>
				</g>
			</g>
		</g>
	</g>
</g>
<g>
	<path d="M441.33,150.45l3.58,0.43c-0.74,3.21-1.74,6.97-3,11.28c-1.26,4.3-2.4,7.79-3.43,10.44c-1.03,2.66-2.15,5.29-3.37,7.91
		c-1.22,2.62-2.5,4.68-3.86,6.18c-1.36,1.5-2.68,2.25-3.95,2.25c-1.28,0-2.21-0.47-2.81-1.42c-0.6-0.95-0.9-2.63-0.9-5.04
		c0-2.41,0.35-7.48,1.05-15.2c0.7-7.72,1.06-11.93,1.08-12.61s-0.15-1.02-0.52-1.02c-0.45,0-0.99,0.63-1.61,1.88
		c-0.62,1.26-1.09,2.21-1.42,2.87c-0.87,1.94-1.42,3.3-1.67,4.08c-2.31,5.19-4.37,9.47-6.18,12.85c-1.81,3.38-3.89,6.51-6.24,9.39
		c-0.82,0.99-2,2-3.52,3.03c-1.52,1.03-2.95,1.81-4.26,2.35l-1.36-3.65c3.42-1.44,6.51-3.94,9.27-7.51
		c2.76-3.56,5.61-8.54,8.56-14.92c2.94-6.38,5.06-10.69,6.33-12.91c1.44-2.35,2.9-3.52,4.39-3.52c0.95,0,1.69,0.33,2.22,0.99
		c0.54,0.66,0.8,1.51,0.8,2.56c0,1.05-0.36,5.39-1.08,13.01c-0.72,7.62-1.08,12.5-1.08,14.64s0.09,3.53,0.28,4.17
		s0.5,0.96,0.96,0.96c0.58,0,1.19-0.62,1.85-1.85C433.71,177.68,437,167.14,441.33,150.45z"/>
	<path d="M462.52,169.85c1.07,1.77,1.61,3.73,1.61,5.87c0,3.34-1.15,6.31-3.46,8.93c-2.31,2.62-5.03,3.92-8.16,3.92
		c-2.39,0-4.25-0.69-5.59-2.07c-1.34-1.38-2.01-3.28-2.01-5.72c0-3.91,1.52-7.42,4.57-10.53c3.05-3.11,6.47-4.67,10.26-4.67
		c0.7,0,1.19,0.02,1.48,0.06l0.19,2.04c-3.3,0-6.04,0.95-8.22,2.84c-2.18,1.9-3.27,4.33-3.27,7.29c0,1.77,0.43,3.2,1.3,4.29
		c0.87,1.09,2.13,1.64,3.8,1.64c1.67,0,3-0.74,3.99-2.22c0.99-1.48,1.48-3.22,1.48-5.22c0-2-0.39-3.82-1.17-5.47L462.52,169.85z"/>
	<path d="M523.63,149.99c1.24-0.51,2.69-0.77,4.36-0.77s2.96,0.58,3.86,1.73c0.91,1.15,1.36,2.8,1.36,4.94
		c0,3.83-1.24,7.95-3.71,12.36c-2.47,4.41-5.56,8.11-9.27,11.09c-3.71,2.99-7.21,4.48-10.5,4.48c-0.82,0-1.77-0.04-2.84-0.12
		c-2.02,4.29-3.85,7.52-5.5,9.7c-1.65,2.18-3.3,3.27-4.94,3.27c-1.03,0-1.83-0.37-2.41-1.11c-0.58-0.74-0.86-1.77-0.86-3.09
		c0-4.24,1.96-9.92,5.87-17.02c3.91-7.11,8.22-12.8,12.91-17.08c0.66-2.72,0.99-4.71,0.99-5.96c0-1.26-0.04-2.21-0.12-2.87
		l4.45-0.74c0,0.29-0.18,2.1-0.56,5.44C520.09,151.92,522.39,150.51,523.63,149.99z M502.56,179.25l1.73,0.86
		c2.6-5.07,4.78-10.75,6.55-17.05c-3.79,4.74-6.9,9.56-9.33,14.46c-2.43,4.9-3.65,8.67-3.65,11.31c0,0.78,0.25,1.17,0.74,1.17
		c0.37,0,1.03-0.77,1.98-2.32c0.95-1.54,1.75-3.12,2.41-4.73c-0.54-0.25-1.05-0.62-1.54-1.11L502.56,179.25z M508.18,180.98
		l1.17,0.06c4,0,7.74-2.1,11.25-6.3c1.98-2.43,3.66-5.21,5.04-8.34c1.38-3.13,2.07-5.79,2.07-7.97c0-1.19-0.32-2.14-0.96-2.84
		c-0.64-0.7-1.51-1.05-2.63-1.05c-2.02,0-4.7,1.11-8.03,3.34C515.35,163.43,512.71,171.13,508.18,180.98z"/>
	<path d="M545.63,169.85c1.07,1.77,1.61,3.73,1.61,5.87c0,3.34-1.15,6.31-3.46,8.93c-2.31,2.62-5.03,3.92-8.16,3.92
		c-2.39,0-4.25-0.69-5.59-2.07c-1.34-1.38-2.01-3.28-2.01-5.72c0-3.91,1.52-7.42,4.57-10.53c3.05-3.11,6.47-4.67,10.26-4.67
		c0.7,0,1.19,0.02,1.48,0.06l0.19,2.04c-3.3,0-6.04,0.95-8.22,2.84c-2.18,1.9-3.27,4.33-3.27,7.29c0,1.77,0.43,3.2,1.3,4.29
		c0.87,1.09,2.13,1.64,3.8,1.64c1.67,0,3-0.74,3.99-2.22c0.99-1.48,1.48-3.22,1.48-5.22c0-2-0.39-3.82-1.17-5.47L545.63,169.85z"/>
	<path d="M568.67,164.05l-0.56,2.41c-0.7-0.08-1.61-0.12-2.72-0.12c-4.12,0-6.18,1.36-6.18,4.08c0,0.58,0.83,2.27,2.5,5.07
		c1.67,2.8,2.5,4.68,2.5,5.62c0,2.22-0.75,3.96-2.26,5.22c-1.5,1.26-3.51,1.88-6.02,1.88c-3.46,0-6.24-1.92-8.34-5.75l2.35-1.67
		c0.58,0.45,1.19,1,1.85,1.64c0.66,0.64,1.15,1.08,1.48,1.33c0.78,0.7,1.65,1.05,2.59,1.05c0.95,0,1.77-0.34,2.47-1.02
		c0.7-0.68,1.05-1.52,1.05-2.53c0-1.01-0.9-2.89-2.69-5.65c-1.79-2.76-2.69-4.7-2.69-5.81c0-2.02,0.85-3.56,2.56-4.63
		c1.71-1.07,3.95-1.61,6.73-1.61C566.11,163.55,567.89,163.72,568.67,164.05z"/>
	<path d="M583.38,181.29l1.36,1.54c-1.03,1.61-2.28,2.86-3.74,3.77c-1.46,0.91-2.93,1.36-4.42,1.36c-1.48,0-2.66-0.42-3.52-1.27
		c-0.87-0.84-1.3-2.01-1.3-3.49c0-3.46,1.3-8.24,3.89-14.33c-2.1,0.33-4.2,0.82-6.3,1.48l-0.43-2.41l-0.06-0.06
		c2.06-0.87,4.76-1.57,8.09-2.1c0.33-0.62,1.07-2.12,2.22-4.51c2.31-4.74,3.95-7.81,4.94-9.21l2.66,1.05
		c-0.41,0.91-1.13,2.42-2.16,4.54c-1.03,2.12-2.18,4.52-3.46,7.2c1.85-0.12,3.32-0.18,4.39-0.18c1.07,0,1.89,0.17,2.47,0.49v2.66
		c-0.58-0.12-1.41-0.18-2.5-0.18c-1.09,0-3.04,0.18-5.84,0.56c-2.43,5.44-3.65,9.39-3.65,11.86c0,0.95,0.3,1.73,0.9,2.35
		c0.6,0.62,1.4,0.93,2.41,0.93C580.34,183.32,581.69,182.64,583.38,181.29z"/>
	<path d="M609.51,164.05l-0.56,2.41c-0.7-0.08-1.61-0.12-2.72-0.12c-4.12,0-6.18,1.36-6.18,4.08c0,0.58,0.83,2.27,2.5,5.07
		c1.67,2.8,2.5,4.68,2.5,5.62c0,2.22-0.75,3.96-2.26,5.22c-1.5,1.26-3.51,1.88-6.02,1.88c-3.46,0-6.24-1.92-8.34-5.75l2.35-1.67
		c0.58,0.45,1.19,1,1.85,1.64c0.66,0.64,1.15,1.08,1.48,1.33c0.78,0.7,1.65,1.05,2.59,1.05c0.95,0,1.77-0.34,2.47-1.02
		c0.7-0.68,1.05-1.52,1.05-2.53c0-1.01-0.9-2.89-2.69-5.65c-1.79-2.76-2.69-4.7-2.69-5.81c0-2.02,0.85-3.56,2.56-4.63
		c1.71-1.07,3.95-1.61,6.73-1.61C606.95,163.55,608.73,163.72,609.51,164.05z"/>
	<path d="M415.17,207.39c0.66-0.28,1.44-0.41,2.33-0.41s1.58,0.31,2.06,0.92c0.48,0.62,0.73,1.5,0.73,2.64
		c0,2.05-0.66,4.25-1.98,6.6c-1.32,2.35-2.97,4.33-4.95,5.92c-1.98,1.59-3.85,2.39-5.61,2.39c-0.44,0-0.95-0.02-1.52-0.07
		c-1.08,2.29-2.06,4.01-2.94,5.18c-0.88,1.17-1.76,1.75-2.64,1.75c-0.55,0-0.98-0.2-1.29-0.59c-0.31-0.4-0.46-0.95-0.46-1.65
		c0-2.27,1.04-5.3,3.13-9.09s4.39-6.84,6.9-9.12c0.35-1.45,0.53-2.51,0.53-3.18s-0.02-1.18-0.07-1.54l2.38-0.4
		c0,0.15-0.1,1.12-0.3,2.9C413.28,208.42,414.51,207.67,415.17,207.39z M403.92,223.02l0.92,0.46c1.39-2.71,2.55-5.74,3.5-9.11
		c-2.02,2.53-3.69,5.1-4.98,7.72s-1.95,4.63-1.95,6.04c0,0.42,0.13,0.63,0.4,0.63c0.2,0,0.55-0.41,1.06-1.24s0.93-1.67,1.29-2.52
		c-0.29-0.13-0.56-0.33-0.83-0.59L403.92,223.02z M406.92,223.94l0.63,0.03c2.13,0,4.14-1.12,6.01-3.37
		c1.06-1.3,1.95-2.78,2.69-4.46c0.74-1.67,1.11-3.09,1.11-4.26c0-0.64-0.17-1.14-0.51-1.52s-0.81-0.56-1.4-0.56
		c-1.08,0-2.51,0.59-4.29,1.78C410.75,214.57,409.34,218.69,406.92,223.94z"/>
	<path d="M426.75,224.64l0.69,0.56c-0.75,1.17-1.39,2.01-1.93,2.53c-0.54,0.52-1.14,0.78-1.8,0.78c-0.66,0-1.2-0.26-1.62-0.79
		c-0.42-0.53-0.63-1.19-0.63-1.98c0-1.54,1.01-4.86,3.04-9.95c2.02-5.09,4.1-9.58,6.24-13.45l1.45,0.79
		c-2.16,4.18-4.1,8.33-5.84,12.46c-1.74,4.12-2.61,7.09-2.61,8.89c0,1.03,0.38,1.55,1.16,1.55
		C425.52,226.02,426.14,225.56,426.75,224.64z"/>
	<path d="M439.79,223.91l0.76,0.59c-0.68,0.95-1.62,1.73-2.8,2.36c-1.19,0.63-2.34,0.94-3.47,0.94s-2.02-0.33-2.71-0.99
		s-1.02-1.53-1.02-2.61c0-2.02,1.07-4.01,3.22-5.97c2.14-1.96,4.32-2.94,6.52-2.94c1.45,0,2.18,0.57,2.18,1.72
		c0,1.19-0.76,2.39-2.29,3.6c-1.53,1.21-3.68,2.31-6.45,3.3c0.2,0.51,0.51,0.9,0.92,1.19c0.42,0.29,0.85,0.43,1.29,0.43
		C436.87,225.53,438.16,224.99,439.79,223.91z M433.55,222.92c1.78-0.62,3.31-1.39,4.59-2.31c1.28-0.92,1.91-1.77,1.91-2.54
		c0-0.29-0.11-0.54-0.33-0.76c-0.22-0.22-0.47-0.33-0.76-0.33c-1.03,0-2.15,0.64-3.35,1.93S433.72,221.54,433.55,222.92z"/>
	<path d="M456.09,224.47l0.76,0.56c-0.31,0.66-0.88,1.29-1.7,1.88c-0.83,0.59-1.58,0.89-2.26,0.89c-1.3,0-1.95-0.68-1.95-2.05
		c0-0.64,0.17-1.4,0.5-2.28l-1.22,1.25c-1.19,1.21-2.22,2.02-3.09,2.44s-1.72,0.63-2.56,0.63s-1.47-0.24-1.9-0.71
		c-0.43-0.47-0.64-1.13-0.64-1.96c0-1.54,0.59-3.06,1.78-4.57c1.19-1.51,2.71-2.73,4.55-3.68c1.85-0.95,3.7-1.43,5.54-1.45
		l0.07,1.09l-1.39,0.3c-2,0.44-3.77,1.32-5.3,2.64c-1.53,1.32-2.29,2.63-2.29,3.94s0.53,1.96,1.58,1.96c0.99,0,2.21-0.69,3.66-2.08
		c1.45-1.39,2.66-3.01,3.63-4.88l1.39,0.83c-1.36,2.75-2.05,4.5-2.05,5.25c0,0.31,0.1,0.57,0.31,0.78c0.21,0.21,0.42,0.31,0.63,0.31
		c0.21,0,0.35-0.01,0.41-0.03c0.07-0.02,0.13-0.05,0.2-0.08s0.15-0.08,0.25-0.15c0.1-0.07,0.19-0.13,0.26-0.2
		c0.08-0.07,0.2-0.17,0.38-0.3S455.98,224.56,456.09,224.47z"/>
	<path d="M468.2,214.9l-0.3,1.29c-0.38-0.04-0.86-0.07-1.45-0.07c-2.2,0-3.3,0.73-3.3,2.18c0,0.31,0.45,1.21,1.34,2.71
		c0.89,1.5,1.34,2.5,1.34,3c0,1.19-0.4,2.12-1.21,2.79c-0.8,0.67-1.88,1.01-3.22,1.01c-1.85,0-3.33-1.02-4.46-3.07l1.25-0.89
		c0.31,0.24,0.64,0.53,0.99,0.87c0.35,0.34,0.62,0.58,0.79,0.71c0.42,0.37,0.88,0.56,1.39,0.56c0.51,0,0.95-0.18,1.32-0.54
		c0.37-0.36,0.56-0.81,0.56-1.35c0-0.54-0.48-1.54-1.44-3.02c-0.96-1.47-1.44-2.51-1.44-3.1c0-1.08,0.46-1.9,1.37-2.47
		c0.91-0.57,2.11-0.86,3.6-0.86S467.78,214.73,468.2,214.9z"/>
	<path d="M477.57,223.91l0.76,0.59c-0.68,0.95-1.62,1.73-2.8,2.36c-1.19,0.63-2.34,0.94-3.47,0.94s-2.02-0.33-2.71-0.99
		s-1.02-1.53-1.02-2.61c0-2.02,1.07-4.01,3.22-5.97c2.14-1.96,4.32-2.94,6.52-2.94c1.45,0,2.18,0.57,2.18,1.72
		c0,1.19-0.76,2.39-2.29,3.6c-1.53,1.21-3.68,2.31-6.45,3.3c0.2,0.51,0.51,0.9,0.92,1.19c0.42,0.29,0.85,0.43,1.29,0.43
		C474.66,225.53,475.94,224.99,477.57,223.91z M471.33,222.92c1.78-0.62,3.31-1.39,4.59-2.31c1.28-0.92,1.91-1.77,1.91-2.54
		c0-0.29-0.11-0.54-0.33-0.76c-0.22-0.22-0.47-0.33-0.76-0.33c-1.03,0-2.15,0.64-3.35,1.93S471.51,221.54,471.33,222.92z"/>
	<path d="M515.49,214.97l0.92,0.86l-1.98,2.41c-2.33,2.88-4.06,5.74-5.18,8.58c-0.29,0.59-0.58,0.89-0.87,0.89
		c-0.3,0-0.54-0.04-0.73-0.12c-0.19-0.08-0.4-0.36-0.63-0.84c-0.23-0.48-0.39-1.07-0.48-1.75s-0.17-1.27-0.23-1.75
		c-0.07-0.48-0.11-0.84-0.13-1.07c-0.02-0.23-0.05-0.47-0.08-0.73s-0.06-0.45-0.08-0.58c-0.02-0.13-0.04-0.26-0.07-0.4
		c-0.02-0.13-0.06-0.26-0.1-0.38c-0.04-0.12-0.08-0.23-0.1-0.33c-0.02-0.1-0.07-0.27-0.15-0.51s-0.14-0.45-0.18-0.63
		c-1.14,1.23-2.12,2.68-2.94,4.36c-0.31,0.64-0.91,1.91-1.82,3.83c-0.2,0.42-0.47,0.63-0.81,0.63s-0.62-0.04-0.83-0.12
		s-0.42-0.33-0.64-0.78c-0.22-0.44-0.39-1.1-0.5-1.98c-0.53-4.42-1.04-7.44-1.52-9.04c0.64-0.18,1.28-0.26,1.91-0.26
		c0.11,0.2,0.25,0.8,0.43,1.82c0.37,1.96,0.85,4.26,1.42,6.9c1.08-2.07,2.27-3.98,3.58-5.73c1.31-1.75,2.17-2.62,2.59-2.62
		c0.48,0,0.82,0.33,1.01,1.01c0.19,0.67,0.35,1.79,0.5,3.37c0.14,1.57,0.33,2.89,0.58,3.94
		C510.46,220.4,512.83,217.41,515.49,214.97z"/>
	<path d="M525.68,216.12c0.55,0,1,0.19,1.35,0.56s0.53,0.86,0.53,1.45c0,1.19-0.68,2.44-2.05,3.76l-0.79-0.63
		c0.31-0.68,0.46-1.18,0.46-1.48c0-0.59-0.33-0.89-0.99-0.89s-1.29,0.42-1.88,1.25c-0.59,0.84-1.29,2.13-2.1,3.88
		c-0.8,1.75-1.41,2.99-1.83,3.71l-1.88-0.82c1.21-2.75,1.9-4.37,2.08-4.85c0.59-1.72,0.89-3.89,0.89-6.53l1.85-0.5
		c-0.07,1.43-0.17,2.54-0.3,3.32s-0.45,2.05-0.96,3.81C522.3,218.14,524.17,216.12,525.68,216.12z"/>
	<path d="M534.46,223.55l0.66,0.56c-0.53,1.01-1.23,1.88-2.1,2.59s-1.66,1.07-2.36,1.07c-1.23,0-1.85-0.86-1.85-2.57
		c0-2.13,0.88-4.92,2.64-8.35c0.4-0.75,0.63-1.19,0.69-1.32l1.42,0.86c-0.46,0.84-1.03,2.17-1.7,3.99c-0.67,1.83-1.01,3-1.01,3.51
		s0.11,0.89,0.33,1.11c0.22,0.22,0.48,0.33,0.79,0.33C532.58,225.33,533.41,224.74,534.46,223.55z M534.89,213.81
		c-1.23,0-1.85-0.5-1.85-1.48c0-0.55,0.15-1.01,0.46-1.39c0.31-0.37,0.7-0.56,1.19-0.56c0.48,0,0.88,0.14,1.19,0.43
		c0.31,0.29,0.46,0.66,0.46,1.12s-0.13,0.89-0.4,1.29C535.68,213.61,535.33,213.81,534.89,213.81z"/>
	<path d="M544.72,224.11l0.73,0.83c-0.55,0.86-1.22,1.53-2,2.01c-0.78,0.48-1.57,0.73-2.36,0.73s-1.42-0.23-1.88-0.68
		c-0.46-0.45-0.69-1.07-0.69-1.86c0-1.85,0.69-4.4,2.08-7.66c-1.12,0.18-2.24,0.44-3.37,0.79l-0.23-1.29l-0.03-0.03
		c1.1-0.46,2.54-0.83,4.32-1.12c0.18-0.33,0.57-1.13,1.19-2.41c1.23-2.53,2.11-4.17,2.64-4.92l1.42,0.56
		c-0.22,0.48-0.61,1.29-1.16,2.43s-1.17,2.41-1.85,3.84c0.99-0.07,1.77-0.1,2.34-0.1s1.01,0.09,1.32,0.26v1.42
		c-0.31-0.07-0.75-0.1-1.34-0.1s-1.62,0.1-3.12,0.3c-1.3,2.9-1.95,5.02-1.95,6.34c0,0.51,0.16,0.92,0.48,1.25
		c0.32,0.33,0.75,0.49,1.29,0.49S543.82,224.84,544.72,224.11z"/>
	<path d="M557.13,223.91l0.76,0.59c-0.68,0.95-1.62,1.73-2.8,2.36c-1.19,0.63-2.34,0.94-3.47,0.94s-2.02-0.33-2.71-0.99
		s-1.02-1.53-1.02-2.61c0-2.02,1.07-4.01,3.22-5.97c2.14-1.96,4.32-2.94,6.52-2.94c1.45,0,2.18,0.57,2.18,1.72
		c0,1.19-0.76,2.39-2.29,3.6c-1.53,1.21-3.68,2.31-6.45,3.3c0.2,0.51,0.51,0.9,0.92,1.19c0.42,0.29,0.85,0.43,1.29,0.43
		C554.22,225.53,555.5,224.99,557.13,223.91z M550.9,222.92c1.78-0.62,3.31-1.39,4.59-2.31c1.28-0.92,1.91-1.77,1.91-2.54
		c0-0.29-0.11-0.54-0.33-0.76c-0.22-0.22-0.47-0.33-0.76-0.33c-1.03,0-2.15,0.64-3.35,1.93S551.07,221.54,550.9,222.92z"/>
	<path d="M590.13,223.81l0.69,0.53c-0.48,0.97-1.15,1.78-2,2.44c-0.85,0.66-1.61,0.99-2.29,0.99s-1.22-0.2-1.62-0.59
		c-0.4-0.4-0.59-0.89-0.59-1.49c0-0.59,0.38-1.63,1.14-3.12s1.14-2.58,1.14-3.28c0-0.31-0.13-0.59-0.38-0.84s-0.56-0.38-0.91-0.38
		c-1.12,0-2.25,0.85-3.4,2.56c-1.14,1.71-2.42,4.16-3.83,7.38l-1.98-0.69c0.42-2.55,1.02-5.04,1.8-7.47
		c0.78-2.43,1.5-4.17,2.16-5.23l1.35,0.43c-0.62,1.56-1.4,4.26-2.34,8.09c3.04-5.19,5.83-7.79,8.38-7.79c0.55,0,1.01,0.19,1.37,0.56
		s0.54,0.81,0.54,1.32s-0.07,0.96-0.2,1.37c-0.13,0.41-0.54,1.35-1.24,2.84c-0.69,1.49-1.04,2.42-1.04,2.79s0.11,0.67,0.33,0.87
		c0.22,0.21,0.43,0.31,0.63,0.31s0.36-0.03,0.5-0.1c0.13-0.07,0.28-0.17,0.45-0.3s0.31-0.25,0.45-0.36
		c0.13-0.11,0.29-0.26,0.48-0.45C589.91,224.01,590.04,223.88,590.13,223.81z"/>
	<path d="M600.86,223.91l0.76,0.59c-0.68,0.95-1.62,1.73-2.8,2.36c-1.19,0.63-2.34,0.94-3.47,0.94s-2.02-0.33-2.71-0.99
		s-1.02-1.53-1.02-2.61c0-2.02,1.07-4.01,3.22-5.97c2.14-1.96,4.32-2.94,6.52-2.94c1.45,0,2.18,0.57,2.18,1.72
		c0,1.19-0.76,2.39-2.29,3.6c-1.53,1.21-3.68,2.31-6.45,3.3c0.2,0.51,0.51,0.9,0.92,1.19c0.42,0.29,0.85,0.43,1.29,0.43
		C597.94,225.53,599.23,224.99,600.86,223.91z M594.62,222.92c1.78-0.62,3.31-1.39,4.59-2.31c1.28-0.92,1.91-1.77,1.91-2.54
		c0-0.29-0.11-0.54-0.33-0.76c-0.22-0.22-0.47-0.33-0.76-0.33c-1.03,0-2.15,0.64-3.35,1.93S594.79,221.54,594.62,222.92z"/>
	<path d="M622.93,214.97l0.92,0.86l-1.98,2.41c-2.33,2.88-4.06,5.74-5.18,8.58c-0.29,0.59-0.58,0.89-0.87,0.89
		c-0.3,0-0.54-0.04-0.73-0.12c-0.19-0.08-0.4-0.36-0.63-0.84c-0.23-0.48-0.39-1.07-0.48-1.75s-0.17-1.27-0.23-1.75
		c-0.07-0.48-0.11-0.84-0.13-1.07c-0.02-0.23-0.05-0.47-0.08-0.73s-0.06-0.45-0.08-0.58c-0.02-0.13-0.04-0.26-0.07-0.4
		c-0.02-0.13-0.06-0.26-0.1-0.38c-0.04-0.12-0.08-0.23-0.1-0.33c-0.02-0.1-0.07-0.27-0.15-0.51s-0.14-0.45-0.18-0.63
		c-1.14,1.23-2.12,2.68-2.94,4.36c-0.31,0.64-0.91,1.91-1.82,3.83c-0.2,0.42-0.47,0.63-0.81,0.63s-0.62-0.04-0.83-0.12
		s-0.42-0.33-0.64-0.78c-0.22-0.44-0.39-1.1-0.5-1.98c-0.53-4.42-1.04-7.44-1.52-9.04c0.64-0.18,1.28-0.26,1.91-0.26
		c0.11,0.2,0.25,0.8,0.43,1.82c0.37,1.96,0.85,4.26,1.42,6.9c1.08-2.07,2.27-3.98,3.58-5.73c1.31-1.75,2.17-2.62,2.59-2.62
		c0.48,0,0.82,0.33,1.01,1.01c0.19,0.67,0.35,1.79,0.5,3.37c0.14,1.57,0.33,2.89,0.58,3.94
		C617.91,220.4,620.27,217.41,622.93,214.97z"/>
	<path d="M655.01,207.39c0.66-0.28,1.44-0.41,2.33-0.41s1.58,0.31,2.06,0.92c0.48,0.62,0.73,1.5,0.73,2.64
		c0,2.05-0.66,4.25-1.98,6.6c-1.32,2.35-2.97,4.33-4.95,5.92c-1.98,1.59-3.85,2.39-5.61,2.39c-0.44,0-0.95-0.02-1.52-0.07
		c-1.08,2.29-2.06,4.01-2.94,5.18c-0.88,1.17-1.76,1.75-2.64,1.75c-0.55,0-0.98-0.2-1.29-0.59c-0.31-0.4-0.46-0.95-0.46-1.65
		c0-2.27,1.04-5.3,3.13-9.09s4.39-6.84,6.9-9.12c0.35-1.45,0.53-2.51,0.53-3.18s-0.02-1.18-0.07-1.54l2.38-0.4
		c0,0.15-0.1,1.12-0.3,2.9C653.12,208.42,654.35,207.67,655.01,207.39z M643.76,223.02l0.92,0.46c1.39-2.71,2.55-5.74,3.5-9.11
		c-2.02,2.53-3.69,5.1-4.98,7.72s-1.95,4.63-1.95,6.04c0,0.42,0.13,0.63,0.4,0.63c0.2,0,0.55-0.41,1.06-1.24s0.93-1.67,1.29-2.52
		c-0.29-0.13-0.56-0.33-0.83-0.59L643.76,223.02z M646.76,223.94l0.63,0.03c2.13,0,4.14-1.12,6.01-3.37
		c1.06-1.3,1.95-2.78,2.69-4.46c0.74-1.67,1.11-3.09,1.11-4.26c0-0.64-0.17-1.14-0.51-1.52s-0.81-0.56-1.4-0.56
		c-1.08,0-2.51,0.59-4.29,1.78C650.59,214.57,649.18,218.69,646.76,223.94z"/>
	<path d="M666.76,218c0.57,0.95,0.86,1.99,0.86,3.13c0,1.78-0.62,3.37-1.85,4.77c-1.23,1.4-2.68,2.1-4.36,2.1
		c-1.28,0-2.27-0.37-2.99-1.11s-1.07-1.75-1.07-3.05c0-2.09,0.81-3.96,2.44-5.63c1.63-1.66,3.45-2.49,5.48-2.49
		c0.37,0,0.64,0.01,0.79,0.03l0.1,1.09c-1.76,0-3.22,0.51-4.39,1.52c-1.17,1.01-1.75,2.31-1.75,3.89c0,0.95,0.23,1.71,0.69,2.29
		c0.46,0.58,1.14,0.88,2.03,0.88s1.6-0.4,2.13-1.19c0.53-0.79,0.79-1.72,0.79-2.79c0-1.07-0.21-2.04-0.63-2.92L666.76,218z"/>
	<path d="M679.07,214.9l-0.3,1.29c-0.38-0.04-0.86-0.07-1.45-0.07c-2.2,0-3.3,0.73-3.3,2.18c0,0.31,0.45,1.21,1.34,2.71
		c0.89,1.5,1.34,2.5,1.34,3c0,1.19-0.4,2.12-1.21,2.79c-0.8,0.67-1.88,1.01-3.22,1.01c-1.85,0-3.33-1.02-4.46-3.07l1.25-0.89
		c0.31,0.24,0.64,0.53,0.99,0.87c0.35,0.34,0.62,0.58,0.79,0.71c0.42,0.37,0.88,0.56,1.39,0.56c0.51,0,0.95-0.18,1.32-0.54
		c0.37-0.36,0.56-0.81,0.56-1.35c0-0.54-0.48-1.54-1.44-3.02c-0.96-1.47-1.44-2.51-1.44-3.1c0-1.08,0.46-1.9,1.37-2.47
		c0.91-0.57,2.11-0.86,3.6-0.86S678.65,214.73,679.07,214.9z"/>
	<path d="M686.92,224.11l0.73,0.83c-0.55,0.86-1.22,1.53-2,2.01c-0.78,0.48-1.57,0.73-2.36,0.73s-1.42-0.23-1.88-0.68
		c-0.46-0.45-0.69-1.07-0.69-1.86c0-1.85,0.69-4.4,2.08-7.66c-1.12,0.18-2.24,0.44-3.37,0.79l-0.23-1.29l-0.03-0.03
		c1.1-0.46,2.54-0.83,4.32-1.12c0.18-0.33,0.57-1.13,1.19-2.41c1.23-2.53,2.11-4.17,2.64-4.92l1.42,0.56
		c-0.22,0.48-0.61,1.29-1.16,2.43s-1.17,2.41-1.85,3.84c0.99-0.07,1.77-0.1,2.34-0.1s1.01,0.09,1.32,0.26v1.42
		c-0.31-0.07-0.75-0.1-1.34-0.1s-1.62,0.1-3.12,0.3c-1.3,2.9-1.95,5.02-1.95,6.34c0,0.51,0.16,0.92,0.48,1.25
		c0.32,0.33,0.75,0.49,1.29,0.49S686.02,224.84,686.92,224.11z"/>
</g>
</svg>
