<!-- Generator: Adobe Illustrator 24.3.0, SVG Export Plug-In  -->
<svg version="1.1" xmlns="http://www.w3.org/2000/svg" xmlns:xlink="http://www.w3.org/1999/xlink" x="0px" y="0px" width="82.99px"
	 height="112px" viewBox="0 0 82.99 112" style="overflow:visible;enable-background:new 0 0 82.99 112;" xml:space="preserve">
<style type="text/css">
	.st0{fill:#FEE3CB;}
	.st1{fill:#A4C2D8;}
	.st2{fill:#572A06;}
</style>
<defs>
</defs>
<g id="Group_118_2_" transform="translate(175.106 -339.246)">
	<g id="Group_117_2_" transform="translate(-175.106 339.246)">
		<path id="Path_101_2_" class="st0" d="M72.34,41.48c-0.54-9.94-6.11-18.9-14.81-23.74c-4.46,1.34-9.11,2.63-12.93,3.51
			c-6.84,1.58-17.53,0.85-24.91,0.02c-5.55,5.5-8.4,13.18-7.74,20.97c-4.38,0.29-10.28,1.41-9.62,5.46
			c0.63,3.92,6.72,3.68,11.35,2.9c3.9,10.2,13.42,17.17,24.33,17.78c10.84,0.17,28.88-6.02,33.32-18.68
			c4.29,1.22,9.45,1.73,9.94-2.53C81.74,42.8,76.6,41.68,72.34,41.48z"/>
		<path id="Path_102_2_" class="st1" d="M31.96,68.95l22.41-2.83c5.26,12.74,7.5,26.52,6.53,40.26l-32.85,1.95L31.96,68.95z"/>
		<g id="Group_116_2_">
			<g id="Group_115_2_">
				<path id="Path_103_2_" class="st2" d="M14.94,22.78c-0.34-1.29-0.58-2.34-0.93-3.36c-0.37-1.39-0.32-2.87,0.17-4.26
					c0.39-1.24,1.49-2.12,2.78-2.24c0.9-0.1,1.8,0.1,2.61,0.56c0.71,0.39,1.41,0.78,2.14,1.17c0.24,0.15,0.56,0.07,0.73-0.17
					c0.19-0.19,0.29-0.44,0.32-0.71c-0.07-0.41-0.19-0.85-0.37-1.27c-0.24-0.61-0.12-1.29,0.34-1.75c0.68-0.73,1.14-1.61,1.34-2.58
					c0.54-1.75,1.78-3.19,3.46-3.97c0.63-0.34,1.34-0.54,2.07-0.58c0.54-0.02,1.07-0.02,1.63-0.05c1.27-0.1,2.53,0.27,3.56,1.02
					c0.22,0.15,0.46,0.24,0.71,0.32c0.44-0.61,0.19-1.27,0.19-1.88c0-1.68,0.44-2.46,2.26-2.8c0.44-0.1,0.88-0.17,1.34-0.19
					c0.9-0.12,1.83,0.1,2.56,0.63c0.37,0.27,0.78,0.49,1.19,0.66c0.37-0.1,0.71-0.19,1.05-0.27c1.92-0.49,3.97-0.32,5.8,0.51
					c0.85,0.34,1.53,0.95,1.95,1.78c0.15,0.32,0.29,0.66,0.49,1.05c0.19-0.15,0.39-0.32,0.54-0.51c0.61-0.93,1.66-1.46,2.78-1.39
					c0.8-0.05,1.63,0.02,2.41,0.24C58.46,2.88,58.9,3,59.36,3.1c0.73,0.1,1.39,0.41,1.92,0.9c0.39,0.37,0.83,0.71,1.22,1.07
					c0.37,0.41,0.39,1.05,0.05,1.49c-0.29,0.46-0.68,0.83-1.14,1.12c-0.32,0.17-0.61,0.39-0.85,0.63c-0.07,0.15-0.07,0.32,0,0.46
					c0.1,0.12,0.34,0.24,0.44,0.19c0.39-0.22,0.73-0.51,1.1-0.75c1.63-1.05,3.73-1.07,5.41-0.1c0.17,0.07,0.32,0.19,0.41,0.34
					c0.93,1,1.49,2.29,1.58,3.65c-0.02,0.54,0,1.07-0.02,1.63c-0.1,0.8,0,1.63,0.24,2.41c0.41,1.22,0.12,2.58-0.73,3.53
					c-0.05,0.07-0.1,0.15-0.17,0.19c-0.8,0.66-1.29,1.63-1.32,2.68l3.34,5.75c0.12,0.24,0.24,0.49,0.41,0.68
					c0.97,0.83,1.58,2,1.66,3.29c0,0.1,0.05,0.17,0.1,0.24c1.02,1.92,1.63,4.02,1.83,6.19c0.02,0.17,0.07,0.34,0.17,0.51
					c0.15,0.22,0.34,0.41,0.56,0.54c0.51,0.17,1.05,0.24,1.58,0.37c1.49,0.37,2.9,1.07,4.07,2.05c1.14,0.93,1.8,2.31,1.78,3.77
					c0.02,0.46,0,0.9-0.02,1.34c-0.12,1.75-1.22,3.29-2.85,3.95c-1.49,0.68-3.17,0.85-4.75,0.46c-0.27-0.07-0.54-0.12-0.78-0.12
					c-0.12,0-0.24,0.02-0.37,0.05c-0.63,0.73-1.14,1.56-1.49,2.46c-0.29,0.66-0.51,1.36-0.83,2c-1,2.24-2.73,4.07-4.87,5.26
					c-0.56,0.29-1.12,0.58-1.66,0.93c-0.78,0.46-1.58,0.88-2.41,1.19c-1.56,0.68-3.07,1.49-4.6,2.24c-0.17,0.1-0.29,0.19-0.44,0.32
					c-0.29,0.24-0.44,0.61-0.39,0.97c0.02,0.37,0.1,0.71,0.22,1.05c0.44,1.19,0.78,2.41,1.05,3.63c0.17,0.71,0.41,1.39,0.71,2.05
					c0.46,1.07,0.75,2.22,0.85,3.39c0.07,0.54,0.19,1.07,0.34,1.58c0.27,1.51,0.66,2.97,0.78,4.53c0.15,1.7,0.51,3.39,0.75,5.07
					c0.29,2.05,0.58,4.09,0.8,6.16c0.05,0.9,0.22,1.78,0.46,2.65c0.37,1.12,0.56,2.29,0.56,3.46c0.02,1.27,0.1,2.53,0.12,3.77
					c0,1,0.1,1.97,0.34,2.95c0.12,0.54,0.15,1.07,0.1,1.61c-0.1,0.73-0.66,1.34-1.39,1.46c-1.78,0.37-3.63,0.19-5.31-0.46
					c-0.49-0.22-1.02-0.32-1.58-0.29c-1.61-0.17-3.24-0.15-4.85,0.07c-0.44,0.05-0.9,0-1.34-0.12c-1.17-0.19-2.34-0.17-3.48,0.07
					c-0.51,0.12-1.07,0.19-1.61,0.19c-1.07-0.1-2.17,0.02-3.19,0.39c-0.34,0.1-0.71,0.12-1.07,0.1c-0.73,0.02-1.44,0.07-2.17,0.07
					c-2.34,0.05-4.68,0.51-6.87,1.34c-1.66,0.49-3.41,0.39-4.99-0.27c-0.61-0.24-1-0.85-0.93-1.51c-0.12-1.07-0.05-2.14,0.17-3.21
					c0.02-2.17,0.29-4.31,0.54-6.45c0.1-0.97,0-1.97,0.02-2.97c-0.07-1.44,0.05-2.87,0.34-4.29c0.27-1.05,0.32-2.14,0.15-3.21
					c-0.07-0.44-0.1-0.9-0.05-1.34c0.24-1.61,0.51-3.21,0.8-4.8c0.05-0.27,0.15-0.54,0.29-0.75c0.51-0.75,0.73-1.68,0.61-2.58
					c-0.02-0.9,0-1.8-0.02-2.7c-0.07-1.1,0.17-2.17,0.71-3.12c0.24-0.49,0.41-1,0.49-1.53c0.07-0.34,0.05-0.73,0.12-1.07
					c0.37-1.85,0.56-2.24-1.66-2.8c-1.97-0.63-3.87-1.53-5.6-2.68c-0.37-0.24-0.73-0.54-1.05-0.85c-0.93-0.71-1.78-1.49-2.7-2.22
					c-2.17-1.75-4.02-3.9-5.48-6.28c-0.19-0.29-0.32-0.66-0.54-0.95c-0.41-0.8-0.95-1.53-1.56-2.19c-0.71-0.61-1.73-0.37-2.61-0.41
					c-1.97-0.19-3.9-0.78-5.67-1.7c-0.95-0.51-1.8-1.22-2.48-2.05c-0.22-0.29-0.39-0.61-0.46-0.97c-0.51-1.78-0.05-3.68,1.19-5.04
					c0.9-1.02,2.05-1.8,3.29-2.29c0.75-0.29,1.56-0.46,2.39-0.44c0.54,0,1.07-0.05,1.61-0.1c0.15-0.02,0.29-0.19,0.39-0.34
					c0.1-0.15,0.15-0.34,0.15-0.51c0.05-0.44,0.07-0.9,0.05-1.34c-0.1-2.53,0.19-5.04,0.88-7.48c0.29-1.41,0.9-2.75,1.83-3.9
					C13.14,25.94,13.92,24.31,14.94,22.78z M25.78,23.34c-0.41,0.24-0.71,0.41-1.02,0.58c-1.46,0.93-3.17,1.39-4.9,1.29
					c-0.27,0-0.51,0.12-0.71,0.34c-0.44,0.46-0.8,0.97-1.12,1.51c-1.12,1.85-2.05,3.82-2.8,5.84c-0.32,0.85-0.49,1.73-0.49,2.63
					c0.05,1-0.02,1.97-0.24,2.95c-0.17,0.8-0.19,1.61-0.12,2.41c0.15,2.44,0.54,4.85,1.12,7.18c0.27,1.05,0.61,2.07,1,3.09
					c0.85,2,1.9,3.87,3.14,5.65c0.61,0.88,1.29,1.73,2.05,2.51c0.29,0.34,0.58,0.68,0.83,1.07c0.41,0.58,0.97,1.07,1.61,1.41
					c1.36,0.71,2.65,1.53,3.85,2.51c0.56,0.44,1.22,0.78,1.9,0.97c1.61,0.58,3.31,0.93,5.02,1.02c1.7,0.02,3.41,0.02,5.11,0.19
					c0.27,0.02,0.54,0,0.8-0.05c1.95-0.39,3.92-0.63,5.84-1.14c1.17-0.46,2.39-0.8,3.63-1.07c2.07-0.66,4.07-1.44,6.04-2.39
					c0.46-0.27,0.95-0.49,1.46-0.71c1.9-0.85,3.7-1.85,5.43-3c1.49-1.05,2.73-2.36,3.68-3.92c0.83-1.9,1.56-3.85,2.17-5.82
					c0.1-0.44,0.15-0.88,0.17-1.34c0.1-1.53,0.19-3.07,0.22-4.6c0.15-2.61-0.12-5.24-0.83-7.77c-0.12-0.44-0.22-0.88-0.29-1.32
					c-0.15-1.07-0.58-2.09-1.27-2.95c-0.68-0.83-1.29-1.73-1.8-2.68c-0.68-1.27-1.56-2.44-2.61-3.41c-0.27-0.24-0.51-0.51-0.73-0.8
					c-0.46-0.68-1.34-1-2.14-0.78c-0.71,0.19-1.41,0.24-2.14,0.19c-1.44-0.15-2.83-0.61-4.07-1.34c-0.88-0.46-1.8-0.83-2.73-1.14
					c-0.46-0.07-0.9,0.1-1.19,0.46c-0.05,0.07-0.1,0.15-0.15,0.24c-1.49,3.09-2.56,2.95-5.02,3.46c-0.71,0.15-1.44,0.1-2.14-0.12
					c-0.51-0.17-1.02-0.37-1.53-0.51c-0.61-0.19-1.19-0.37-1.8-0.54c-0.54-0.15-1.1,0.02-1.49,0.44c-0.75,0.66-1.39,1.41-1.92,2.26
					c-0.29,0.46-0.71,0.83-1.22,1.02c-0.49,0.22-0.97,0.46-1.49,0.63c-0.78,0.27-1.63,0.22-2.39-0.1c-0.49-0.22-0.95-0.51-1.46-0.71
					c-0.75-0.32-1.39-0.88-1.8-1.58C26.92,24.73,26.41,23.97,25.78,23.34L25.78,23.34z M35.93,70.59c-0.58,0.93-0.95,1.92-1.14,3
					c-0.46,2.39-0.97,4.77-1.46,7.14c-0.07,0.27-0.1,0.54-0.12,0.8c-0.07,1.34-0.24,2.7-0.51,4.02c-0.46,2.02-0.68,4.09-0.68,6.16
					c0.02,0.46-0.02,0.9-0.15,1.34c-0.24,1.05-0.34,2.14-0.37,3.21c-0.05,0.8-0.15,1.61-0.29,2.41c-0.15,0.8-0.15,1.61,0,2.41
					c0.15,0.88,0.19,1.78,0.29,2.68c0.05,0.44,0.12,0.9,0.22,1.34s0.41,0.83,0.85,0.97c0.32,0.17,0.66,0.27,1.02,0.34
					c1.24,0.17,2.53,0.15,3.77-0.07c0.78-0.19,1.58-0.32,2.41-0.37c1.8-0.15,3.6-0.19,5.38-0.1c1.17,0.1,2.34,0.15,3.51,0.17
					c2.61,0.05,5.24,0.05,7.84,0.05c0.17,0,0.37,0,0.54-0.02c0.46-0.05,0.85-0.34,1.02-0.78c0.19-0.41,0.32-0.85,0.34-1.29
					c0-1.63,0.02-3.24-0.12-4.85c-0.12-1.07-0.19-2.14-0.19-3.24c0-1.07-0.15-2.17-0.44-3.19c-0.37-1.29-0.58-2.63-0.85-3.97
					c-0.71-3.63-1.1-7.31-2.05-10.86c-0.54-1.8-0.97-3.65-1.29-5.5c-0.19-1.17-0.78-2.24-1.66-3.02c-0.44-0.46-1.1-0.66-1.73-0.51
					c-0.17,0.02-0.37,0.05-0.54,0.1c-1.7,0.56-3.48,0.9-5.28,1c-0.37,0.02-0.71,0.1-1.05,0.22c-0.88,0.24-1.78,0.32-2.68,0.19
					C38.98,70.24,37.44,70.32,35.93,70.59L35.93,70.59z M10.09,49.76c0.02-0.17,0.02-0.34,0-0.51c-0.27-1.05-0.44-2.12-0.46-3.19
					c-0.02-0.27-0.07-0.54-0.15-0.78c-0.17-0.54-0.66-0.9-1.22-0.88c-0.1,0-0.17,0-0.27,0c-1.44,0.22-2.68,1.14-3.31,2.48
					c-0.07,0.17-0.07,0.34-0.02,0.51c0.12,0.71,0.58,1.34,1.24,1.66c0.9,0.37,1.8,0.78,2.75,1.1C9,50.23,9.36,50.2,9.7,50.1
					C9.85,50.08,9.95,49.91,10.09,49.76L10.09,49.76z M74.87,46.11c0,0.46,0.05,0.9,0.15,1.36c0.07,0.24,0.27,0.44,0.51,0.56
					c0.97,0.46,2.14,0.02,2.58-0.95c0.1-0.22,0.15-0.44,0.17-0.66c0.22-1.12-0.49-2.22-1.61-2.44c-0.07-0.02-0.17-0.02-0.24-0.02
					c-0.61-0.15-1.24,0.22-1.39,0.83c0,0.02,0,0.05-0.02,0.07C74.95,45.28,74.9,45.72,74.87,46.11L74.87,46.11z M35.42,12.28
					c-0.1-0.12-0.17-0.34-0.32-0.37c-0.49-0.22-1.05,0-1.27,0.46c-0.05,0.1-0.07,0.19-0.07,0.29c0,0.27,0.02,0.51,0.07,0.75
					c0.07,0.24,0.34,0.37,0.58,0.27c0.02,0,0.02,0,0.05-0.02C35.03,13.45,35.4,12.92,35.42,12.28L35.42,12.28z M43.31,19.78
					c0.07-0.05,0.17-0.1,0.19-0.15c0-0.1-0.02-0.17-0.07-0.24c-0.15-0.22-0.44-0.32-0.66-0.19c-0.05,0.05-0.07,0.12-0.05,0.19
					C42.78,19.66,43.04,19.83,43.31,19.78L43.31,19.78z"/>
				<path id="Path_104_2_" class="st2" d="M40.95,59.65c0.51-0.44,1-0.8,1.46-1.24c0.27-0.24,0.44-0.56,0.66-0.85
					c1-1.32,2.87-1.56,4.19-0.56c0.17,0.15,0.34,0.29,0.49,0.46c0.24,0.27,0.34,0.63,0.24,1c-0.37,0.93-0.95,1.73-1.73,2.34
					c-0.66,0.46-1.29,0.97-1.88,1.53c-1.41,1.32-3.48,1.7-5.28,1c-1.58-0.44-2.92-1.46-3.75-2.9c-0.44-0.78-0.85-1.58-1.22-2.39
					c-0.19-0.61,0.05-1.29,0.58-1.66c0.58-0.44,1.34-0.58,2.05-0.39c1,0.17,1.85,0.75,2.36,1.63
					C39.54,58.48,40.17,59.16,40.95,59.65z"/>
			</g>
		</g>
	</g>
	<path id="Path_105_2_" class="st2" d="M-122.6,383.17l-1.63-0.29c-0.9-0.17-1.68-0.71-2.14-1.49c-0.73-1.05-0.8-2.46-0.15-3.56
		c0.22-0.51,0.68-0.88,1.22-0.97c0.61-0.12,1.24-0.19,1.88-0.27c1.49-0.19,2.92,0.54,3.6,1.88c0.39,0.51,0.51,1.17,0.34,1.8
		c-0.1,0.34-0.12,0.71-0.22,1.05c-0.27,1.1-1.27,1.85-2.39,1.83L-122.6,383.17z"/>
	<path id="Path_106_2_" class="st2" d="M-142.81,375.99c0.46,0.07,0.73,0.1,1,0.15c0.44,0.07,0.85,0.32,1.1,0.71
		c0.54,0.63,0.68,1.51,0.41,2.26c-0.22,0.58-0.39,1.19-0.61,1.78c-0.24,0.58-0.68,1.07-1.22,1.41c-0.37,0.27-0.83,0.39-1.27,0.32
		c-0.71-0.15-1.39-0.34-2.07-0.58c-0.51-0.17-0.95-0.54-1.24-1c-0.19-0.29-0.32-0.63-0.34-1c0-0.54,0.07-1.07,0.19-1.61
		c0.15-1.12,1-2,2.12-2.14C-144.05,376.14-143.35,376.06-142.81,375.99z"/>
</g>
</svg>
