<!-- Generator: Adobe Illustrator 24.3.0, SVG Export Plug-In  -->
<svg version="1.1" xmlns="http://www.w3.org/2000/svg" xmlns:xlink="http://www.w3.org/1999/xlink" x="0px" y="0px"
	 width="281.39px" height="20.18px" viewBox="0 0 281.39 20.18" style="overflow:visible;enable-background:new 0 0 281.39 20.18;"
	 xml:space="preserve">
<style type="text/css">
	.st0{enable-background:new    ;}
	.st1{fill:#FFFFFF;}
</style>
<defs>
</defs>
<g class="st0">
	<path class="st1" d="M5.4,12.91v7.27H0V0.19h6.55c5.43,0,8.15,1.97,8.15,5.91c0,2.32-1.13,4.11-3.39,5.37l5.82,8.71h-6.12
		l-4.24-7.27H5.4z M5.4,8.85h1.01c1.89,0,2.83-0.83,2.83-2.5c0-1.38-0.93-2.06-2.78-2.06H5.4V8.85z"/>
	<path class="st1" d="M32.22,20.18H20.35V0.19h11.87v4.33h-6.47v3.14h5.99V12h-5.99v3.77h6.47V20.18z"/>
	<path class="st1" d="M49.38,20.18l-0.98-3.75H41.9l-1.01,3.75h-5.93l6.52-20.07h7.21l6.6,20.07H49.38z M47.27,12l-0.86-3.28
		c-0.2-0.73-0.44-1.67-0.73-2.83s-0.48-1.99-0.57-2.49c-0.08,0.46-0.24,1.23-0.48,2.3c-0.24,1.07-0.78,3.17-1.61,6.3H47.27z"/>
	<path class="st1" d="M58.85,20.18V0.19h5.4v15.63h7.7v4.36H58.85z"/>
	<path class="st1" d="M85.36,20.18h-5.4V4.61h-4.88V0.19h15.15v4.42h-4.87V20.18z"/>
	<path class="st1" d="M101.62,7.6l3.45-7.41h5.85l-6.58,12.18v7.81H98.9v-7.64L92.33,0.19h5.88L101.62,7.6z"/>
</g>
<g class="st0">
</g>
<g class="st0">
	<path class="st1" d="M122.62,1.46c0-0.41,0.12-0.76,0.38-1.04c0.25-0.28,0.62-0.42,1.11-0.42s0.87,0.14,1.12,0.42
		c0.25,0.28,0.38,0.63,0.38,1.04s-0.13,0.75-0.38,1.03c-0.26,0.27-0.63,0.41-1.12,0.41s-0.86-0.14-1.11-0.41
		C122.75,2.21,122.62,1.87,122.62,1.46z M125.35,20.18h-2.53V5.39h2.53V20.18z"/>
	<path class="st1" d="M133.19,5.39l0.08,1.86c1.13-1.42,2.61-2.13,4.43-2.13c3.13,0,4.7,1.76,4.73,5.29v9.78h-2.53v-9.79
		c-0.01-1.07-0.25-1.85-0.73-2.37s-1.22-0.77-2.24-0.77c-0.82,0-1.54,0.22-2.16,0.66s-1.1,1.01-1.45,1.72v10.54h-2.53V5.39H133.19z"
		/>
	<path class="st1" d="M162.97,16.69l5.69-16.42h2.87l-7.38,19.91h-2.32l-7.37-19.91h2.86L162.97,16.69z"/>
	<path class="st1" d="M178.41,20.18h-2.62V0.27h2.62V20.18z"/>
	<path class="st1" d="M195.86,10.98h-8.63v7.05h10.02v2.15h-12.65V0.27h12.51v2.15h-9.88v6.41h8.63V10.98z"/>
	<path class="st1" d="M215.95,2.42h-6.4v17.76h-2.61V2.42h-6.38V0.27h15.39V2.42z"/>
	<path class="st1" d="M235.6,20.18h-2.64L222.94,4.84v15.34h-2.64V0.27h2.64l10.05,15.41V0.27h2.61V20.18z"/>
	<path class="st1" d="M252.9,14.97h-8.34l-1.87,5.21h-2.71l7.6-19.91h2.3l7.62,19.91h-2.69L252.9,14.97z M245.36,12.82h6.77
		l-3.39-9.31L245.36,12.82z"/>
	<path class="st1" d="M264.97,0.27l6.51,16.24l6.51-16.24h3.4v19.91h-2.62v-7.75l0.25-8.37l-6.54,16.12h-2.01L263.94,4.1l0.26,8.33
		v7.75h-2.62V0.27H264.97z"/>
</g>
</svg>
