<!-- Generator: Adobe Illustrator 24.3.0, SVG Export Plug-In  -->
<svg version="1.1" xmlns="http://www.w3.org/2000/svg" xmlns:xlink="http://www.w3.org/1999/xlink" x="0px" y="0px"
	 width="321.58px" height="23.06px" viewBox="0 0 321.58 23.06" style="overflow:visible;enable-background:new 0 0 321.58 23.06;"
	 xml:space="preserve">
<style type="text/css">
	.st0{enable-background:new    ;}
</style>
<defs>
</defs>
<g class="st0">
	<path d="M6.17,14.75v8.31H0V0.22h7.48c6.21,0,9.31,2.25,9.31,6.75c0,2.65-1.29,4.69-3.88,6.14l6.66,9.95h-7l-4.84-8.31H6.17z
		 M6.17,10.11h1.16c2.16,0,3.23-0.95,3.23-2.86c0-1.57-1.06-2.36-3.17-2.36H6.17V10.11z"/>
	<path d="M36.82,23.06H23.26V0.22h13.56v4.95h-7.39v3.59h6.84v4.95h-6.84v4.31h7.39V23.06z"/>
	<path d="M56.43,23.06l-1.12-4.28h-7.42l-1.16,4.28h-6.78L47.4,0.12h8.23l7.55,22.94H56.43z M54.03,13.72l-0.98-3.75
		c-0.23-0.83-0.51-1.91-0.84-3.23c-0.33-1.32-0.54-2.27-0.65-2.84C51.47,4.42,51.28,5.3,51,6.52c-0.28,1.22-0.89,3.62-1.84,7.2
		H54.03z"/>
	<path d="M67.25,23.06V0.22h6.17v17.86h8.8v4.98H67.25z"/>
	<path d="M97.56,23.06h-6.17V5.27h-5.58V0.22h17.31v5.05h-5.56V23.06z"/>
	<path d="M116.14,8.69l3.94-8.47h6.69l-7.52,13.92v8.92h-6.22v-8.73l-7.52-14.11h6.72L116.14,8.69z"/>
</g>
<g class="st0">
</g>
<g class="st0">
	<path d="M140.14,1.67c0-0.47,0.14-0.86,0.43-1.19c0.29-0.32,0.71-0.48,1.27-0.48s0.99,0.16,1.28,0.48
		c0.29,0.32,0.44,0.72,0.44,1.19s-0.15,0.86-0.44,1.17c-0.29,0.31-0.72,0.47-1.28,0.47s-0.99-0.16-1.27-0.47
		C140.28,2.53,140.14,2.14,140.14,1.67z M143.26,23.06h-2.89V6.16h2.89V23.06z"/>
	<path d="M152.22,6.16l0.09,2.12c1.29-1.62,2.98-2.44,5.06-2.44c3.57,0,5.38,2.02,5.41,6.05v11.17h-2.89V11.88
		c-0.01-1.22-0.29-2.12-0.84-2.7c-0.55-0.58-1.4-0.88-2.55-0.88c-0.94,0-1.76,0.25-2.47,0.75s-1.26,1.16-1.66,1.97v12.05h-2.89V6.16
		H152.22z"/>
	<path d="M186.25,19.08l6.5-18.77h3.28l-8.44,22.75h-2.66l-8.42-22.75h3.27L186.25,19.08z"/>
	<path d="M203.9,23.06h-3V0.31h3V23.06z"/>
	<path d="M223.84,12.55h-9.86v8.06h11.45v2.45h-14.45V0.31h14.3v2.45h-11.3v7.33h9.86V12.55z"/>
	<path d="M246.8,2.77h-7.31v20.3h-2.98V2.77h-7.3V0.31h17.59V2.77z"/>
	<path d="M269.26,23.06h-3.02L254.79,5.53v17.53h-3.02V0.31h3.02l11.48,17.61V0.31h2.98V23.06z"/>
	<path d="M289.03,17.11h-9.53l-2.14,5.95h-3.09l8.69-22.75h2.62l8.7,22.75h-3.08L289.03,17.11z M280.41,14.66h7.73l-3.88-10.64
		L280.41,14.66z"/>
	<path d="M302.82,0.31l7.44,18.56l7.44-18.56h3.89v22.75h-3V14.2l0.28-9.56l-7.47,18.42h-2.3l-7.45-18.38l0.3,9.52v8.86h-3V0.31
		H302.82z"/>
</g>
</svg>
