<!-- Generator: Adobe Illustrator 24.3.0, SVG Export Plug-In  -->
<svg version="1.1" xmlns="http://www.w3.org/2000/svg" xmlns:xlink="http://www.w3.org/1999/xlink" x="0px" y="0px"
	 width="304.61px" height="220px" viewBox="0 0 304.61 220" style="overflow:visible;enable-background:new 0 0 304.61 220;"
	 xml:space="preserve">
<style type="text/css">
	.st0{enable-background:new    ;}
	.st1{fill:#FFFFFF;}
</style>
<defs>
</defs>
<g class="st0">
	<g>
		<path class="st1" d="M101.34,73.26l3.98-0.06v2.3c-0.45-0.07-0.97-0.11-1.57-0.11c-0.6,0-1.27,0.04-2.02,0.11
			c0,2.88-1.38,5.79-4.15,8.74c-2.77,2.95-6.1,5.35-10,7.2c-3.9,1.85-7.54,2.77-10.9,2.77c-1.76,0-3.19-0.45-4.29-1.35
			c-1.1-0.9-1.65-2.07-1.65-3.53c0-2.17,1.44-4.43,4.31-6.78c2.88-2.35,6.24-4.3,10.09-5.83c3.85-1.53,7.32-2.43,10.42-2.69
			c-0.37-0.56-0.95-1.05-1.74-1.46c-0.78-0.41-2.39-1.06-4.82-1.93c-2.43-0.88-4.15-1.85-5.16-2.91c-1.01-1.06-1.51-2.57-1.51-4.51
			c0-1.94,1.05-4.17,3.14-6.67c2.09-2.5,4.57-4.6,7.43-6.3c2.86-1.7,5.37-2.55,7.54-2.55c0.97,0,1.77,0.35,2.41,1.04
			c0.63,0.69,0.95,1.54,0.95,2.55c0,1.64-0.99,3.71-2.97,6.19c-1.98,2.48-4.18,4.38-6.61,5.69l-1.34-1.91
			c1.46-0.75,2.74-1.91,3.84-3.5c1.1-1.59,1.65-2.96,1.65-4.12c0-1.16-0.62-1.74-1.85-1.74c-1.76,0-3.76,1.09-6.02,3.28
			c-2.26,2.19-3.39,4.23-3.39,6.14c0,1.31,0.34,2.33,1.01,3.08c0.67,0.75,2.37,1.67,5.1,2.77c2.73,1.1,4.67,2.07,5.83,2.91
			C100.2,70.94,100.97,71.99,101.34,73.26z M76.35,87.89c0,1.79,1.46,2.69,4.37,2.69c1.61,0,3.69-0.59,6.25-1.77
			c2.56-1.18,4.82-2.82,6.78-4.93c1.96-2.11,2.94-4.27,2.94-6.47c0-0.26-0.06-0.65-0.17-1.18c-5.12,0.49-9.76,1.92-13.93,4.31
			C78.43,82.94,76.35,85.39,76.35,87.89z"/>
	</g>
	<g>
		<path class="st1" d="M126.05,76.79l1.29,1.01c-1.16,1.61-2.75,2.94-4.76,4.01c-2.02,1.06-3.98,1.6-5.88,1.6s-3.44-0.56-4.59-1.68
			c-1.16-1.12-1.74-2.6-1.74-4.43c0-3.44,1.82-6.82,5.46-10.14c3.64-3.33,7.33-4.99,11.07-4.99c2.47,0,3.7,0.97,3.7,2.91
			c0,2.02-1.3,4.05-3.89,6.11c-2.6,2.05-6.25,3.92-10.96,5.6c0.34,0.86,0.86,1.53,1.57,2.02c0.71,0.49,1.44,0.73,2.19,0.73
			C121.1,79.54,123.29,78.62,126.05,76.79z M115.46,75.11c3.03-1.05,5.62-2.35,7.79-3.92c2.17-1.57,3.25-3.01,3.25-4.32
			c0-0.48-0.19-0.91-0.56-1.29c-0.37-0.37-0.8-0.56-1.29-0.56c-1.76,0-3.65,1.09-5.69,3.28C116.93,70.49,115.76,72.76,115.46,75.11z
			"/>
	</g>
	<g>
		<path class="st1" d="M156.54,77.75l1.29,0.95c-0.52,1.12-1.48,2.19-2.89,3.19c-1.4,1.01-2.68,1.51-3.84,1.51
			c-2.2,0-3.31-1.16-3.31-3.47c0-1.08,0.28-2.37,0.84-3.87l-2.07,2.13c-2.02,2.05-3.76,3.44-5.24,4.15
			c-1.48,0.71-2.92,1.06-4.34,1.06c-1.42,0-2.49-0.4-3.22-1.2c-0.73-0.8-1.09-1.91-1.09-3.33c0-2.61,1.01-5.2,3.03-7.76
			c2.02-2.56,4.6-4.64,7.73-6.25c3.14-1.61,6.28-2.43,9.41-2.47l0.11,1.85l-2.35,0.5c-3.4,0.75-6.4,2.24-8.99,4.48
			c-2.6,2.24-3.89,4.47-3.89,6.7c0,2.22,0.9,3.33,2.69,3.33c1.68,0,3.75-1.18,6.22-3.53c2.47-2.35,4.52-5.12,6.16-8.29l2.35,1.4
			c-2.32,4.67-3.47,7.64-3.47,8.91c0,0.52,0.18,0.96,0.53,1.32c0.35,0.36,0.71,0.53,1.06,0.53c0.35,0,0.59-0.02,0.7-0.06
			c0.11-0.04,0.22-0.08,0.34-0.14c0.11-0.06,0.25-0.14,0.42-0.25c0.17-0.11,0.32-0.22,0.45-0.34c0.13-0.11,0.34-0.28,0.64-0.5
			C156.11,78.08,156.35,77.9,156.54,77.75z"/>
	</g>
	<g>
		<path class="st1" d="M177.27,63.57c0.93,0,1.7,0.32,2.3,0.95c0.6,0.64,0.9,1.46,0.9,2.47c0,2.02-1.16,4.15-3.47,6.39l-1.34-1.06
			c0.52-1.16,0.78-2,0.78-2.52c0-1.01-0.56-1.51-1.68-1.51s-2.19,0.71-3.19,2.13c-1.01,1.42-2.2,3.61-3.56,6.58
			c-1.36,2.97-2.4,5.07-3.11,6.3l-3.19-1.4c2.05-4.67,3.23-7.42,3.53-8.24c1.01-2.91,1.51-6.61,1.51-11.1l3.14-0.84
			c-0.11,2.43-0.28,4.31-0.5,5.63c-0.22,1.33-0.77,3.48-1.63,6.47C171.52,66.99,174.69,63.57,177.27,63.57z"/>
	</g>
	<g>
		<path class="st1" d="M199.46,75.45l1.34,1.12c-0.9,2.05-2.33,3.7-4.31,4.93c-1.98,1.23-3.89,1.85-5.74,1.85
			c-1.85,0-3.38-0.58-4.6-1.74c-1.21-1.16-1.82-2.75-1.82-4.76c0-2.02,0.88-4.2,2.63-6.56c1.76-2.35,4.02-4.3,6.81-5.83
			c2.78-1.53,5.52-2.3,8.21-2.3c0.37,0,0.93,0.04,1.68,0.11l-0.17,2.19c-4.11,0.19-7.52,1.44-10.23,3.75
			c-2.71,2.32-4.06,4.78-4.06,7.4c0,1.08,0.34,1.96,1.01,2.63c0.67,0.67,1.55,1.01,2.63,1.01
			C194.57,79.26,196.77,77.99,199.46,75.45z"/>
	</g>
	<g>
		<path class="st1" d="M229.16,79.32l1.29,1.06c-1.57,2.62-3.61,3.92-6.11,3.92c-2.17,0-3.25-1.06-3.25-3.19
			c0-1.23,0.53-3.2,1.6-5.91c1.06-2.71,1.6-4.49,1.6-5.35c0-1.08-0.69-1.63-2.07-1.63c-1.38,0-3.26,1.49-5.63,4.45
			c-2.37,2.97-4.36,6.42-5.97,10.34l-3.31-1.18c1.94-9.75,7.02-22.81,15.24-39.17l2.75,0.9c-4.15,8.29-7.12,14.89-8.91,19.78
			c-1.87,5.08-3.27,9.28-4.2,12.61c2.88-4.74,5.35-8.03,7.42-9.86c2.07-1.83,3.88-2.75,5.41-2.75c2.76,0,4.15,0.99,4.15,2.97
			c0,1.23-0.69,3.44-2.07,6.61c-1.38,3.18-2.07,5.29-2.07,6.33c0,1.05,0.5,1.57,1.51,1.57C227.05,80.83,227.93,80.32,229.16,79.32z"
			/>
	</g>
</g>
<g>
	<g>
		<path class="st1" d="M43.86,120.32c-0.32-3.4-0.5-6.84-0.5-10.32c0-59.33,48.27-107.6,107.6-107.6
			c59.33,0,107.6,48.27,107.6,107.6c0,2.69-0.1,5.35-0.3,7.98c0.79,0.15,1.59,0.3,2.38,0.45c0.21-2.78,0.32-5.6,0.32-8.44
			c0-60.65-49.35-110-110-110c-60.65,0-110,49.35-110,110c0,3.65,0.18,7.26,0.53,10.83C42.28,120.66,43.07,120.49,43.86,120.32z"/>
	</g>
	<g>
		<path class="st1" d="M230.24,182.67c-19.68,21.45-47.93,34.93-79.27,34.93c-30.49,0-58.05-12.75-77.65-33.19
			c-0.94,0.17-1.89,0.32-2.83,0.5c20.1,21.58,48.74,35.1,80.48,35.1c32.6,0,61.94-14.26,82.1-36.87
			C232.12,182.98,231.18,182.81,230.24,182.67z"/>
	</g>
</g>
<g>
	<g>
		<path class="st1" d="M39.46,168.79l0.78,1.56c-0.6,0.36-1.15,0.63-1.63,0.81c-1.09,0.41-2.4,0.07-3.93-1
			c-1.53-1.07-2.94-2.47-4.23-4.21c-1.29-1.73-2.34-3.47-3.15-5.22c-0.04,3.44-0.31,6.02-0.84,7.76c-0.53,1.74-1.33,2.81-2.42,3.21
			c-0.55,0.21-1.08,0.15-1.57-0.18c-0.49-0.33-0.88-0.86-1.15-1.6c-0.64-1.71-0.66-4.18-0.06-7.4c0.6-3.22,1.65-6.08,3.14-8.56
			c0-0.16-0.12-1.07-0.34-2.76c-0.22-1.68-0.33-2.62-0.32-2.8l1.95-0.92c0.15,0.39,0.35,1.25,0.61,2.58
			c2.23-3.54,4.35-5.69,6.36-6.44c0.95-0.35,1.79-0.37,2.54-0.06c0.75,0.31,1.29,0.91,1.61,1.79c0.82,2.2,0.54,4.82-0.85,7.88
			c-1.39,3.06-3.27,5.25-5.64,6.59c1.44,3.28,3,5.69,4.69,7.22C36.72,168.54,38.2,169.13,39.46,168.79z M25.06,160.98
			c0-1.9-0.06-3.38-0.2-4.46c-0.83,1.65-1.42,3.66-1.76,6.03s-0.34,4.02,0.02,4.97c0.18,0.49,0.47,0.66,0.86,0.51
			C24.66,167.76,25.03,165.41,25.06,160.98z M27.23,159.61c2.45-0.91,4.33-2.59,5.63-5.02c1.3-2.43,1.64-4.49,1.01-6.18
			c-0.23-0.62-0.57-1.05-1.01-1.28c-0.44-0.23-1-0.22-1.67,0.03c-0.67,0.25-1.5,0.99-2.49,2.21c-0.99,1.23-1.67,2.18-2.05,2.88
			C27,155.35,27.19,157.81,27.23,159.61z"/>
	</g>
	<g>
		<path class="st1" d="M49.6,158.7l1,0.4c-0.43,1.23-1.19,2.37-2.27,3.42s-2.22,1.75-3.43,2.11s-2.28,0.28-3.22-0.21
			c-0.94-0.5-1.58-1.32-1.92-2.48c-0.64-2.18-0.11-4.66,1.57-7.44c1.69-2.78,3.72-4.52,6.08-5.22c1.56-0.46,2.52-0.07,2.88,1.16
			c0.38,1.28-0.07,2.81-1.33,4.59c-1.26,1.79-3.23,3.65-5.9,5.59c0.37,0.48,0.83,0.81,1.37,0.99c0.54,0.18,1.05,0.19,1.52,0.05
			C46.97,161.36,48.19,160.38,49.6,158.7z M42.58,159.61c1.72-1.23,3.12-2.54,4.21-3.93c1.08-1.4,1.5-2.51,1.26-3.34
			c-0.09-0.31-0.29-0.54-0.59-0.71c-0.31-0.17-0.61-0.21-0.92-0.12c-1.11,0.33-2.11,1.37-2.99,3.14
			C42.65,156.41,42.33,158.06,42.58,159.61z"/>
	</g>
	<g>
		<path class="st1" d="M67.04,155.01l0.97,0.41c-0.16,0.8-0.62,1.63-1.36,2.5s-1.49,1.38-2.23,1.56c-1.42,0.34-2.3-0.24-2.66-1.72
			c-0.17-0.7-0.19-1.57-0.05-2.61l-1,1.69c-0.98,1.63-1.89,2.79-2.73,3.47c-0.84,0.68-1.71,1.13-2.62,1.35
			c-0.91,0.22-1.66,0.13-2.25-0.28c-0.59-0.4-1-1.06-1.21-1.97c-0.4-1.68-0.15-3.5,0.75-5.45c0.9-1.95,2.24-3.69,4-5.2
			c1.77-1.51,3.66-2.52,5.67-3.03l0.36,1.17l-1.43,0.69c-2.07,1-3.76,2.42-5.09,4.26s-1.81,3.47-1.47,4.9
			c0.34,1.43,1.09,2,2.24,1.73c1.08-0.26,2.23-1.33,3.45-3.22c1.22-1.89,2.12-3.98,2.68-6.27l1.73,0.54
			c-0.77,3.35-1.06,5.44-0.86,6.25c0.08,0.34,0.26,0.59,0.54,0.76c0.28,0.17,0.54,0.23,0.77,0.18c0.23-0.05,0.38-0.1,0.44-0.14
			c0.07-0.04,0.13-0.09,0.19-0.14c0.06-0.05,0.14-0.13,0.23-0.23c0.09-0.1,0.17-0.19,0.24-0.29s0.18-0.23,0.34-0.42
			C66.82,155.29,66.94,155.14,67.04,155.01z"/>
	</g>
	<g>
		<path class="st1" d="M73.73,153.94l0.88,0.47c-0.57,1.44-1.1,2.51-1.58,3.19c-0.48,0.68-1.09,1.1-1.81,1.24
			c-0.73,0.14-1.38-0.03-1.95-0.52c-0.57-0.49-0.95-1.17-1.12-2.04c-0.33-1.69,0.07-5.56,1.2-11.6c1.13-6.04,2.45-11.42,3.96-16.14
			l1.77,0.56c-1.47,5.06-2.72,10.05-3.74,14.97s-1.34,8.36-0.95,10.35c0.22,1.14,0.76,1.62,1.61,1.46
			C72.68,155.73,73.25,155.09,73.73,153.94z"/>
	</g>
	<g>
		<path class="st1" d="M85.93,151.2l0.95,0.78c-0.45,1.05-1.07,1.91-1.84,2.59s-1.6,1.09-2.48,1.23c-0.88,0.14-1.61,0.01-2.2-0.41
			c-0.59-0.41-0.96-1.06-1.11-1.94c-0.34-2.04-0.03-4.99,0.91-8.85c-1.21,0.4-2.4,0.9-3.58,1.49l-0.49-1.38l-0.04-0.03
			c1.13-0.71,2.66-1.39,4.58-2.03c0.13-0.4,0.43-1.36,0.88-2.88c0.9-3.02,1.58-5,2.03-5.92l1.67,0.36
			c-0.16,0.58-0.43,1.54-0.84,2.89c-0.4,1.35-0.85,2.88-1.35,4.59c1.08-0.25,1.94-0.43,2.57-0.54s1.14-0.09,1.51,0.05l0.26,1.57
			c-0.35-0.02-0.85,0.03-1.5,0.13c-0.65,0.11-1.78,0.4-3.4,0.9c-0.91,3.45-1.24,5.9-1,7.36c0.09,0.56,0.35,0.99,0.76,1.3
			c0.41,0.31,0.92,0.41,1.51,0.31C84.34,152.7,85.07,152.17,85.93,151.2z"/>
	</g>
	<g>
		<path class="st1" d="M104.3,150.54l0.23,0.94c-0.09,0.09-1.17,0.67-3.25,1.76c-0.09,1.65-0.26,3.3-0.51,4.93
			c-0.25,1.64-0.55,2.89-0.9,3.77c-0.35,0.88-0.78,1.76-1.29,2.64c-1.02,1.77-2.57,2.79-4.65,3.05c-1.03,0.13-1.89-0.08-2.58-0.64
			c-0.69-0.56-1.11-1.39-1.25-2.49c-0.54-4.23,2.57-8.09,9.34-11.56l1.09-7.23c-1.7,3.42-3.35,5.61-4.94,6.56
			c-0.78,0.5-1.63,0.8-2.55,0.92s-1.69-0.08-2.31-0.6c-0.62-0.52-1.01-1.34-1.15-2.46c-0.14-1.12,0.04-2.75,0.55-4.86
			s1.16-3.92,1.94-5.41l1.9,0.54c-0.06,0.08-0.32,0.78-0.78,2.08c-0.79,2.36-1.12,4.08-0.98,5.16c0.14,1.08,0.44,1.77,0.9,2.09
			c0.46,0.31,1.1,0.42,1.91,0.32c0.81-0.1,1.66-0.7,2.55-1.8c0.89-1.1,2.22-3.21,3.98-6.35l1.42,0.6c-0.09,0.83-0.34,2.35-0.74,4.55
			c-0.4,2.2-0.66,3.88-0.76,5.04L104.3,150.54z M99.38,154.08c-1.45,0.91-2.71,1.89-3.77,2.94c-1.99,1.94-2.88,3.7-2.69,5.27
			c0.07,0.59,0.31,1.04,0.7,1.37c0.39,0.32,0.84,0.45,1.36,0.39C97.42,163.73,98.89,160.41,99.38,154.08z"/>
	</g>
	<g>
		<path class="st1" d="M142.95,127.51c0.42,0.11,0.64,0.32,0.66,0.64c0,0.1-0.13,0.33-0.42,0.69c-1.07,1.5-1.82,2.62-2.24,3.36
			c-0.43,0.73-0.91,1.95-1.47,3.66c-0.55,1.7-1.05,3.34-1.49,4.9c-0.44,1.56-0.66,2.36-0.66,2.38c-0.91,2.31-2.22,4.16-3.94,5.54
			c-1.72,1.38-3.55,2.12-5.5,2.2c-1.38,0.06-2.51-0.23-3.39-0.87c-0.88-0.64-1.35-1.53-1.39-2.66c-0.08-1.77,1-3.45,3.22-5.03
			s4.49-2.42,6.78-2.52l0.2,1.21c-1.81,0.45-3.35,1.2-4.62,2.24c-1.28,1.04-1.89,2.14-1.84,3.3c0.03,0.74,0.27,1.33,0.73,1.78
			c0.45,0.45,1.01,0.66,1.68,0.63c1.26-0.06,2.31-0.69,3.18-1.9c0.86-1.21,1.7-3.33,2.52-6.35c0.82-3.02,1.58-5.24,2.3-6.66
			c0.71-1.41,1.64-2.61,2.79-3.6c-0.35-0.01-0.73,0-1.15,0.01c-2.12,0.09-4.17,0.52-6.15,1.27c-1.98,0.75-2.94,1.68-2.9,2.79
			c0.03,0.69,0.37,1.33,1.01,1.92l-0.77,1.03c-1.7-1.09-2.59-2.39-2.65-3.92c-0.04-1.01,0.35-1.9,1.2-2.68
			c0.84-0.78,1.99-1.4,3.46-1.86c2.8-0.89,5.96-1.41,9.49-1.56C142.34,127.43,142.8,127.44,142.95,127.51z"/>
	</g>
	<g>
		<path class="st1" d="M159.06,145.82l0.78,0.59c-0.54,1.09-1.28,2-2.23,2.75s-1.8,1.12-2.57,1.12c-0.76,0-1.37-0.22-1.82-0.66
			s-0.67-1-0.67-1.66c0-0.67,0.42-1.83,1.26-3.5c0.85-1.67,1.27-2.9,1.26-3.69c0-0.34-0.14-0.66-0.43-0.94
			c-0.28-0.28-0.62-0.42-1.02-0.42c-1.26,0-2.53,0.96-3.8,2.88c-1.28,1.92-2.7,4.68-4.26,8.28l-2.22-0.77
			c0.46-2.86,1.12-5.66,1.99-8.39c0.87-2.73,1.67-4.69,2.4-5.87l1.52,0.48c-0.68,1.75-1.55,4.78-2.6,9.07
			c3.38-5.83,6.51-8.75,9.37-8.76c0.62,0,1.13,0.21,1.54,0.62c0.41,0.42,0.61,0.91,0.62,1.48c0,0.57-0.07,1.08-0.22,1.54
			c-0.15,0.46-0.61,1.52-1.38,3.19c-0.77,1.67-1.16,2.71-1.15,3.13c0,0.42,0.12,0.75,0.37,0.98c0.25,0.23,0.48,0.35,0.7,0.35
			c0.22,0,0.41-0.04,0.55-0.11c0.15-0.08,0.31-0.19,0.5-0.33s0.35-0.28,0.5-0.41c0.15-0.12,0.33-0.29,0.54-0.5
			C158.81,146.03,158.96,145.89,159.06,145.82z"/>
	</g>
	<g>
		<path class="st1" d="M198.85,129.68l0.96,1.66c-2.66,1.49-5.58,3.95-8.77,7.39s-5.76,7.04-7.69,10.81
			c-0.4,0.79-0.74,1.31-1.02,1.56c-0.28,0.25-0.66,0.36-1.14,0.33c-0.48-0.03-0.9-0.23-1.26-0.59c-0.36-0.36-0.51-0.88-0.46-1.55
			c0.05-0.68,0.24-1.96,0.56-3.85c0.32-1.89,0.51-3.23,0.57-4.02c0.4-5.54,0.11-10.05-0.87-13.53l2.75-0.54
			c1.22,2.54,1.61,6.98,1.15,13.33c-0.15,2.07-0.31,3.71-0.47,4.94C187.67,137.82,192.91,132.51,198.85,129.68z"/>
	</g>
	<g>
		<path class="st1" d="M200.18,147.85l0.68,0.7c-0.7,1.07-1.57,1.96-2.61,2.67c-1.05,0.71-1.96,1.02-2.75,0.95
			c-1.38-0.13-1.97-1.15-1.79-3.07c0.22-2.38,1.5-5.4,3.83-9.04c0.52-0.79,0.83-1.26,0.91-1.4l1.49,1.11
			c-0.6,0.88-1.38,2.31-2.32,4.28c-0.94,1.97-1.44,3.24-1.49,3.82c-0.05,0.58,0.03,1,0.25,1.27s0.5,0.42,0.85,0.45
			C197.89,149.64,198.88,149.07,200.18,147.85z M201.68,137.03c-1.38-0.13-2.01-0.75-1.91-1.85c0.06-0.61,0.28-1.11,0.66-1.5
			c0.38-0.38,0.84-0.55,1.39-0.5c0.54,0.05,0.97,0.25,1.28,0.6c0.31,0.35,0.45,0.79,0.4,1.3s-0.24,0.98-0.58,1.39
			C202.59,136.89,202.17,137.08,201.68,137.03z"/>
	</g>
	<g>
		<path class="st1" d="M212.85,149.7l0.77,0.76c-0.89,0.96-2.03,1.71-3.44,2.25c-1.41,0.54-2.73,0.73-3.98,0.58
			s-2.21-0.64-2.88-1.46s-0.93-1.84-0.79-3.04c0.27-2.25,1.73-4.33,4.38-6.22c2.65-1.89,5.2-2.69,7.65-2.4
			c1.62,0.2,2.35,0.93,2.19,2.2c-0.16,1.32-1.17,2.55-3.04,3.7s-4.41,2.08-7.62,2.81c0.15,0.59,0.44,1.07,0.87,1.45
			s0.88,0.59,1.38,0.65C209.38,151.11,210.89,150.68,212.85,149.7z M206.04,147.76c2.07-0.45,3.87-1.1,5.42-1.96
			c1.54-0.86,2.37-1.71,2.47-2.57c0.04-0.32-0.05-0.61-0.27-0.89c-0.22-0.27-0.48-0.43-0.8-0.47c-1.15-0.14-2.48,0.43-3.99,1.7
			C207.36,144.85,206.42,146.24,206.04,147.76z"/>
	</g>
	<g>
		<path class="st1" d="M224.66,151.62l0.67,1.04c-0.75,0.86-1.6,1.49-2.55,1.9c-0.95,0.41-1.86,0.54-2.74,0.41s-1.54-0.49-1.97-1.06
			c-0.44-0.58-0.59-1.3-0.46-2.18c0.31-2.05,1.5-4.76,3.58-8.14c-1.27,0.01-2.56,0.11-3.86,0.32l-0.04-1.47l-0.03-0.04
			c1.3-0.33,2.96-0.5,4.98-0.52c0.25-0.34,0.82-1.16,1.72-2.47c1.79-2.6,3.04-4.27,3.75-5.01l1.48,0.86
			c-0.33,0.5-0.89,1.33-1.69,2.5c-0.8,1.17-1.7,2.48-2.69,3.96c1.11,0.09,1.98,0.19,2.61,0.28c0.63,0.1,1.11,0.27,1.42,0.51
			l-0.24,1.57c-0.33-0.12-0.82-0.24-1.47-0.33c-0.65-0.1-1.82-0.16-3.51-0.19c-1.92,3-3,5.24-3.21,6.7
			c-0.08,0.56,0.02,1.05,0.32,1.47s0.75,0.67,1.34,0.76C222.68,152.56,223.54,152.27,224.66,151.62z"/>
	</g>
	<g>
		<path class="st1" d="M243.07,154.55l0.66,0.72c-0.73,0.97-1.63,1.73-2.7,2.28c-1.07,0.55-1.98,0.76-2.73,0.62
			c-0.75-0.14-1.31-0.47-1.66-0.99s-0.47-1.1-0.35-1.76c0.12-0.65,0.75-1.72,1.89-3.2s1.78-2.61,1.93-3.39
			c0.06-0.34-0.02-0.67-0.25-1.01c-0.23-0.33-0.53-0.53-0.92-0.6c-1.24-0.23-2.66,0.48-4.27,2.12s-3.52,4.09-5.73,7.35l-2.04-1.17
			c0.98-2.73,2.16-5.35,3.51-7.87c1.36-2.52,2.51-4.29,3.45-5.32l1.4,0.75c-1,1.6-2.41,4.41-4.24,8.43
			c4.41-5.1,8.02-7.39,10.84-6.87c0.61,0.11,1.07,0.41,1.39,0.9c0.32,0.49,0.43,1.01,0.33,1.57c-0.1,0.56-0.27,1.05-0.5,1.47
			c-0.23,0.42-0.88,1.38-1.95,2.88s-1.64,2.45-1.72,2.86c-0.08,0.41-0.02,0.76,0.18,1.03c0.2,0.28,0.41,0.43,0.63,0.47
			c0.22,0.04,0.41,0.04,0.57-0.01s0.34-0.12,0.55-0.24c0.21-0.11,0.4-0.21,0.57-0.31c0.17-0.09,0.37-0.22,0.62-0.39
			C242.78,154.72,242.96,154.61,243.07,154.55z"/>
	</g>
	<g>
		<path class="st1" d="M259.58,159.08l0.69,0.8c-0.5,0.64-1.28,1.18-2.33,1.62c-1.05,0.44-1.95,0.57-2.7,0.4
			c-1.42-0.33-1.95-1.24-1.61-2.73c0.16-0.7,0.53-1.48,1.12-2.36l-1.65,1.06c-1.6,1.02-2.93,1.65-3.99,1.89
			c-1.06,0.24-2.04,0.25-2.95,0.04c-0.91-0.21-1.54-0.63-1.89-1.26c-0.35-0.62-0.42-1.39-0.21-2.31c0.39-1.68,1.42-3.2,3.1-4.54
			c1.68-1.34,3.65-2.3,5.91-2.87s4.4-0.63,6.42-0.18l-0.2,1.21l-1.59-0.03c-2.3-0.03-4.45,0.49-6.45,1.54c-2,1.05-3.17,2.3-3.5,3.73
			c-0.33,1.43,0.08,2.28,1.23,2.55c1.08,0.25,2.59-0.2,4.53-1.34s3.67-2.62,5.2-4.42l1.3,1.25c-2.19,2.66-3.37,4.4-3.56,5.21
			c-0.08,0.34-0.03,0.65,0.15,0.93c0.17,0.28,0.38,0.45,0.61,0.5c0.23,0.05,0.38,0.08,0.46,0.07c0.08-0.01,0.16-0.02,0.24-0.04
			c0.08-0.02,0.18-0.05,0.31-0.1s0.24-0.1,0.34-0.15c0.1-0.05,0.26-0.13,0.49-0.23S259.43,159.15,259.58,159.08z"/>
	</g>
	<g>
		<path class="st1" d="M284.87,165.29l0.53,0.93c-2.07,2.01-3.98,2.75-5.72,2.23c-0.71-0.21-1.2-0.57-1.47-1.08
			c-0.27-0.51-0.31-1.08-0.12-1.73c0.19-0.65,0.92-1.65,2.17-3c1.25-1.35,2.03-2.43,2.32-3.25c0.14-0.37,0.12-0.71-0.06-1.02
			s-0.48-0.53-0.9-0.66c-0.43-0.13-0.89-0.16-1.38-0.08s-1.02,0.27-1.57,0.59s-1.06,0.65-1.53,0.97s-1.03,0.81-1.67,1.47
			c-0.65,0.66-1.19,1.2-1.63,1.64c-0.79,0.82-1.93,2.06-3.43,3.73l-1.91-1.38c0.02-0.07,0.81-1.29,2.37-3.66s2.41-3.8,2.56-4.29
			c0.15-0.5,0.14-0.89-0.03-1.19c-0.17-0.29-0.43-0.5-0.79-0.6c-1.06-0.32-2.93,0.57-5.6,2.65c-2.67,2.09-4.54,3.99-5.62,5.7
			l-1.82-1.28c0.49-1.22,1.72-3.3,3.68-6.26c1.96-2.95,3.46-4.92,4.5-5.9l1.43,1.04c-1.22,1.41-2.14,2.64-2.76,3.68
			c-0.62,1.04-1.23,2.16-1.82,3.38c2.9-2.3,5.21-3.83,6.93-4.59c1.72-0.76,3.14-0.98,4.25-0.64c1.21,0.36,1.63,1.14,1.27,2.35
			c-0.14,0.47-0.63,1.34-1.46,2.62c-0.83,1.27-1.48,2.27-1.96,3.01c4.83-4.27,8.53-6.03,11.11-5.26c0.64,0.19,1.09,0.54,1.35,1.04
			c0.26,0.5,0.28,1.14,0.05,1.91c-0.23,0.77-1.05,1.91-2.47,3.41c-1.42,1.51-2.19,2.49-2.33,2.95s-0.14,0.83-0.02,1.09
			c0.12,0.27,0.33,0.45,0.61,0.53C282.54,166.53,283.52,166.18,284.87,165.29z"/>
	</g>
</g>
<g>
	<path class="st1" d="M0.64,136.21L0,134.32c36.72-12.43,85.52-20.78,133.9-22.93c60.51-2.68,119.54,4.21,170.71,19.92l-0.59,1.91
		c-50.96-15.64-109.76-22.5-170.04-19.83C85.79,115.52,37.19,123.84,0.64,136.21z"/>
</g>
<g>
	<path class="st1" d="M22.08,197.73l-0.52-1.93c69.32-18.66,148.74-31.82,259.52-2l-0.52,1.93
		C170.24,166.03,91.13,179.14,22.08,197.73z"/>
</g>
<g>
	<g>
		<path class="st1" d="M147.4,101.79c0.64,1.06,0.96,2.23,0.96,3.52c0,2-0.69,3.78-2.07,5.35c-1.38,1.57-3.01,2.35-4.88,2.35
			c-1.43,0-2.55-0.41-3.35-1.24c-0.8-0.83-1.2-1.97-1.2-3.42c0-2.34,0.91-4.45,2.74-6.31c1.82-1.86,3.87-2.79,6.14-2.79
			c0.42,0,0.71,0.01,0.89,0.04l0.11,1.22c-1.97,0-3.62,0.57-4.92,1.7c-1.31,1.13-1.96,2.59-1.96,4.37c0,1.06,0.26,1.92,0.78,2.57
			c0.52,0.65,1.28,0.98,2.28,0.98c1,0,1.79-0.44,2.39-1.33s0.89-1.93,0.89-3.13s-0.24-2.29-0.7-3.28L147.4,101.79z"/>
	</g>
	<g>
		<path class="st1" d="M164.23,108.3l0.78,0.59c-0.54,1.09-1.29,2-2.24,2.74c-0.95,0.74-1.81,1.11-2.57,1.11
			c-0.76,0-1.37-0.22-1.81-0.67s-0.67-1-0.67-1.67s0.43-1.83,1.28-3.5c0.85-1.67,1.28-2.89,1.28-3.68c0-0.35-0.14-0.66-0.43-0.94
			s-0.62-0.43-1.02-0.43c-1.26,0-2.53,0.96-3.81,2.87c-1.28,1.91-2.71,4.67-4.29,8.27l-2.22-0.78c0.47-2.86,1.14-5.66,2.02-8.38
			c0.88-2.73,1.68-4.68,2.42-5.86l1.52,0.48c-0.69,1.75-1.57,4.77-2.63,9.07c3.4-5.82,6.54-8.73,9.4-8.73
			c0.62,0,1.13,0.21,1.54,0.63c0.41,0.42,0.61,0.91,0.61,1.48s-0.07,1.08-0.22,1.54c-0.15,0.46-0.61,1.52-1.39,3.18
			c-0.78,1.67-1.16,2.71-1.16,3.13c0,0.42,0.12,0.75,0.37,0.98c0.25,0.24,0.48,0.35,0.7,0.35s0.41-0.04,0.55-0.11
			c0.15-0.07,0.31-0.19,0.5-0.33c0.19-0.15,0.35-0.28,0.5-0.41s0.33-0.29,0.54-0.5C163.98,108.52,164.13,108.38,164.23,108.3z"/>
	</g>
</g>
</svg>
