<!-- Generator: Adobe Illustrator 24.3.0, SVG Export Plug-In  -->
<svg version="1.1" xmlns="http://www.w3.org/2000/svg" xmlns:xlink="http://www.w3.org/1999/xlink" x="0px" y="0px"
	 width="274.49px" height="274.49px" viewBox="0 0 274.49 274.49"
	 style="overflow:visible;enable-background:new 0 0 274.49 274.49;" xml:space="preserve">
<style type="text/css">
	.st0{enable-background:new    ;}
	.st1{fill:#FFFFFF;}
</style>
<defs>
</defs>
<g class="st0">
	<path class="st1" d="M53.7,159.98l-0.43,1.87c-0.54-0.06-1.25-0.1-2.11-0.1c-3.2,0-4.8,1.06-4.8,3.17c0,0.45,0.65,1.76,1.94,3.94
		s1.94,3.63,1.94,4.37c0,1.73-0.58,3.08-1.75,4.06c-1.17,0.98-2.73,1.46-4.68,1.46c-2.69,0-4.85-1.49-6.48-4.46l1.82-1.3
		c0.45,0.35,0.93,0.78,1.44,1.27c0.51,0.5,0.9,0.84,1.15,1.03c0.61,0.54,1.28,0.82,2.02,0.82c0.74,0,1.38-0.26,1.92-0.79
		c0.54-0.53,0.82-1.18,0.82-1.97c0-0.78-0.7-2.25-2.09-4.39c-1.39-2.14-2.09-3.65-2.09-4.51c0-1.57,0.66-2.77,1.99-3.6
		c1.33-0.83,3.07-1.25,5.23-1.25S53.09,159.72,53.7,159.98z"/>
	<path class="st1" d="M69.97,164.49c0.83,1.38,1.25,2.9,1.25,4.56c0,2.59-0.9,4.9-2.69,6.94c-1.79,2.03-3.9,3.05-6.34,3.05
		c-1.86,0-3.3-0.54-4.34-1.61c-1.04-1.07-1.56-2.55-1.56-4.44c0-3.04,1.18-5.77,3.55-8.18c2.37-2.42,5.02-3.62,7.97-3.62
		c0.54,0,0.93,0.02,1.15,0.05l0.14,1.58c-2.56,0-4.69,0.74-6.38,2.21c-1.7,1.47-2.54,3.36-2.54,5.66c0,1.38,0.34,2.49,1.01,3.34
		s1.66,1.27,2.95,1.27s2.33-0.58,3.1-1.73c0.77-1.15,1.15-2.5,1.15-4.06c0-1.55-0.3-2.97-0.91-4.25L69.97,164.49z"/>
	<path class="st1" d="M107.08,172.5l1.01,0.96c-1.82,3.26-3.92,4.9-6.29,4.9c-0.96,0-1.7-0.26-2.23-0.79
		c-0.53-0.53-0.79-1.23-0.79-2.11c0-0.88,0.53-2.39,1.58-4.54c1.06-2.14,1.62-3.78,1.68-4.9c0.03-0.51-0.12-0.93-0.46-1.25
		c-0.34-0.32-0.79-0.48-1.37-0.48c-0.58,0-1.16,0.14-1.75,0.41c-0.59,0.27-1.17,0.71-1.73,1.32c-0.56,0.61-1.07,1.2-1.54,1.78
		c-0.46,0.58-0.98,1.39-1.54,2.45c-0.56,1.06-1.03,1.94-1.42,2.64c-0.67,1.31-1.63,3.28-2.88,5.9l-2.88-1.01
		c0-0.1,0.53-1.9,1.58-5.42c1.06-3.52,1.58-5.62,1.58-6.29s-0.16-1.16-0.48-1.46c-0.32-0.3-0.72-0.46-1.2-0.46
		c-1.44,0-3.43,1.79-5.98,5.38s-4.17,6.64-4.87,9.17l-2.74-0.91c0.16-1.7,0.91-4.74,2.26-9.14c1.34-4.4,2.48-7.4,3.41-9l2.16,0.77
		c-0.99,2.21-1.68,4.07-2.06,5.59c-0.38,1.52-0.72,3.14-1.01,4.87c2.75-3.94,5.06-6.7,6.91-8.28c1.86-1.58,3.54-2.38,5.04-2.38
		c1.63,0,2.45,0.82,2.45,2.45c0,0.64-0.28,1.9-0.84,3.79c-0.56,1.89-1,3.38-1.32,4.46c4.42-7.1,8.37-10.66,11.86-10.66
		c0.86,0,1.55,0.26,2.06,0.79c0.51,0.53,0.77,1.31,0.77,2.35s-0.6,2.76-1.8,5.16c-1.2,2.4-1.8,3.91-1.8,4.54s0.13,1.08,0.38,1.37
		c0.26,0.29,0.58,0.43,0.96,0.43C104.65,174.9,105.73,174.1,107.08,172.5z"/>
	<path class="st1" d="M125.08,173.08l1.1,0.86c-0.99,1.38-2.35,2.52-4.08,3.43s-3.41,1.37-5.04,1.37c-1.63,0-2.94-0.48-3.94-1.44
		c-0.99-0.96-1.49-2.22-1.49-3.79c0-2.94,1.56-5.84,4.68-8.69c3.12-2.85,6.28-4.27,9.48-4.27c2.11,0,3.17,0.83,3.17,2.5
		c0,1.73-1.11,3.47-3.34,5.23c-2.22,1.76-5.35,3.36-9.38,4.8c0.29,0.74,0.74,1.31,1.34,1.73c0.61,0.42,1.23,0.62,1.87,0.62
		C120.84,175.43,122.71,174.65,125.08,173.08z M116.01,171.64c2.59-0.9,4.82-2.02,6.67-3.36c1.86-1.34,2.78-2.58,2.78-3.7
		c0-0.42-0.16-0.78-0.48-1.1c-0.32-0.32-0.69-0.48-1.1-0.48c-1.5,0-3.13,0.94-4.87,2.81C117.26,167.68,116.26,169.62,116.01,171.64z
		"/>
	<path class="st1" d="M143.56,173.37l1.06,1.2c-0.8,1.25-1.77,2.22-2.9,2.93c-1.14,0.7-2.28,1.06-3.43,1.06
		c-1.15,0-2.06-0.33-2.74-0.98c-0.67-0.66-1.01-1.56-1.01-2.71c0-2.69,1.01-6.4,3.02-11.14c-1.63,0.26-3.26,0.64-4.9,1.15
		l-0.34-1.87l-0.05-0.05c1.6-0.67,3.7-1.22,6.29-1.63c0.26-0.48,0.83-1.65,1.73-3.5c1.79-3.68,3.07-6.06,3.84-7.15l2.06,0.82
		c-0.32,0.7-0.88,1.88-1.68,3.53c-0.8,1.65-1.7,3.51-2.69,5.59c1.44-0.1,2.58-0.14,3.41-0.14c0.83,0,1.47,0.13,1.92,0.38v2.06
		c-0.45-0.1-1.1-0.14-1.94-0.14c-0.85,0-2.36,0.14-4.54,0.43c-1.89,4.22-2.83,7.3-2.83,9.22c0,0.74,0.23,1.34,0.7,1.82
		c0.46,0.48,1.09,0.72,1.87,0.72C141.2,174.95,142.24,174.42,143.56,173.37z"/>
	<path class="st1" d="M169.09,175.24l1.1,0.91c-1.34,2.24-3.09,3.36-5.23,3.36c-1.86,0-2.78-0.91-2.78-2.74
		c0-1.06,0.46-2.74,1.37-5.06c0.91-2.32,1.37-3.85,1.37-4.58c0-0.93-0.59-1.39-1.78-1.39c-1.18,0-2.79,1.27-4.82,3.82
		c-2.03,2.54-3.74,5.5-5.11,8.86l-2.83-1.01c1.66-8.35,6.02-19.54,13.06-33.55l2.35,0.77c-3.55,7.1-6.1,12.75-7.63,16.94
		c-1.6,4.35-2.8,7.95-3.6,10.8c2.46-4.06,4.58-6.88,6.36-8.45c1.78-1.57,3.32-2.35,4.63-2.35c2.37,0,3.55,0.85,3.55,2.54
		c0,1.06-0.59,2.94-1.78,5.66c-1.18,2.72-1.78,4.53-1.78,5.42c0,0.9,0.43,1.34,1.3,1.34C167.28,176.54,168.04,176.1,169.09,175.24z"
		/>
	<path class="st1" d="M182.92,172.55l0.96,0.82c-0.77,1.47-1.78,2.73-3.05,3.77c-1.26,1.04-2.41,1.56-3.43,1.56
		c-1.79,0-2.69-1.25-2.69-3.74c0-3.1,1.28-7.15,3.84-12.14c0.58-1.09,0.91-1.73,1.01-1.92l2.06,1.25c-0.67,1.22-1.5,3.15-2.47,5.81
		c-0.98,2.66-1.46,4.36-1.46,5.11c0,0.75,0.16,1.29,0.48,1.61c0.32,0.32,0.7,0.48,1.15,0.48
		C180.18,175.15,181.38,174.28,182.92,172.55z M183.54,158.39c-1.79,0-2.69-0.72-2.69-2.16c0-0.8,0.22-1.47,0.67-2.02
		c0.45-0.54,1.02-0.82,1.73-0.82s1.28,0.21,1.73,0.62c0.45,0.42,0.67,0.96,0.67,1.63s-0.19,1.3-0.58,1.87
		S184.18,158.39,183.54,158.39z"/>
	<path class="st1" d="M209.12,172.94l1.01,0.77c-0.7,1.41-1.67,2.59-2.9,3.55c-1.23,0.96-2.34,1.44-3.34,1.44s-1.78-0.29-2.35-0.86
		s-0.86-1.3-0.86-2.16c0-0.86,0.55-2.38,1.66-4.54c1.1-2.16,1.66-3.75,1.66-4.78c0-0.45-0.18-0.86-0.55-1.22
		c-0.37-0.37-0.81-0.55-1.32-0.55c-1.63,0-3.28,1.24-4.94,3.72c-1.66,2.48-3.52,6.06-5.57,10.73l-2.88-1.01
		c0.61-3.71,1.48-7.34,2.62-10.87s2.18-6.07,3.14-7.61l1.97,0.62c-0.9,2.27-2.03,6.19-3.41,11.76c4.42-7.55,8.48-11.33,12.19-11.33
		c0.8,0,1.46,0.27,1.99,0.82c0.53,0.54,0.79,1.18,0.79,1.92c0,0.74-0.1,1.4-0.29,1.99c-0.19,0.59-0.79,1.97-1.8,4.13
		c-1.01,2.16-1.51,3.51-1.51,4.06c0,0.54,0.16,0.97,0.48,1.27c0.32,0.3,0.62,0.46,0.91,0.46c0.29,0,0.53-0.05,0.72-0.14
		c0.19-0.1,0.41-0.24,0.65-0.43c0.24-0.19,0.46-0.37,0.65-0.53c0.19-0.16,0.42-0.38,0.7-0.65C208.8,173.22,209,173.03,209.12,172.94
		z"/>
	<path class="st1" d="M234.37,177.02l0.05,1.15c-0.32,0.19-1.78,0.77-4.37,1.73c-1.02,6.11-2.53,10.53-4.51,13.25
		c-1.98,2.72-4.42,4.08-7.3,4.08c-1.34,0-2.42-0.43-3.22-1.3c-0.8-0.86-1.2-1.98-1.2-3.36c0-2.75,1.26-5.32,3.79-7.7
		c2.53-2.38,5.9-4.26,10.13-5.64c0.48-2.14,1.34-5.17,2.59-9.07c-2.14,3.26-4.09,5.47-5.83,6.62c-1.75,1.15-3.32,1.73-4.73,1.73
		s-2.47-0.38-3.19-1.15c-0.72-0.77-1.08-1.79-1.08-3.07c0-2.11,0.88-4.26,2.64-6.46c1.76-2.19,3.98-3.98,6.65-5.38
		c2.67-1.39,5.26-2.09,7.75-2.09l0.38,1.68c-3.55,0.38-6.6,1.63-9.14,3.74s-3.82,4.14-3.82,6.1c0,0.83,0.26,1.52,0.77,2.06
		s1.14,0.82,1.87,0.82c1.09,0,2.74-1.15,4.94-3.46c2.21-2.3,3.76-4.27,4.66-5.9l1.78,1.01c-1.76,4.7-2.98,8.67-3.65,11.9
		L234.37,177.02z M227.46,180.66c-2.78,1.28-5.09,2.82-6.91,4.61c-1.82,1.79-2.74,3.42-2.74,4.9c0,0.77,0.22,1.39,0.67,1.87
		c0.45,0.48,1.01,0.72,1.68,0.72c1.34,0,2.67-0.94,3.98-2.83C225.46,188.04,226.56,184.95,227.46,180.66z"/>
</g>
<g class="st0">
	<path class="st1" d="M72.56,112.89l5.04-0.07v2.91c-0.57-0.09-1.23-0.14-1.99-0.14c-0.76,0-1.61,0.05-2.56,0.14
		c0,3.65-1.75,7.34-5.25,11.08c-3.5,3.74-7.73,6.78-12.67,9.12c-4.95,2.34-9.55,3.52-13.81,3.52c-2.23,0-4.04-0.57-5.43-1.7
		c-1.4-1.14-2.09-2.63-2.09-4.47c0-2.75,1.82-5.61,5.47-8.59c3.64-2.98,7.9-5.44,12.78-7.38c4.87-1.94,9.28-3.08,13.21-3.41
		c-0.47-0.71-1.21-1.32-2.2-1.85c-0.99-0.52-3.03-1.34-6.11-2.45c-3.08-1.11-5.25-2.34-6.53-3.69c-1.28-1.35-1.92-3.25-1.92-5.71
		s1.32-5.28,3.98-8.45c2.65-3.17,5.79-5.83,9.41-7.99c3.62-2.15,6.8-3.23,9.55-3.23c1.23,0,2.25,0.44,3.05,1.31
		c0.8,0.88,1.21,1.95,1.21,3.23c0,2.08-1.25,4.7-3.76,7.84c-2.51,3.15-5.3,5.55-8.38,7.21l-1.7-2.41c1.85-0.95,3.47-2.42,4.86-4.44
		c1.4-2.01,2.09-3.75,2.09-5.22c0-1.47-0.78-2.2-2.34-2.2c-2.23,0-4.77,1.38-7.63,4.15c-2.86,2.77-4.3,5.36-4.3,7.77
		c0,1.66,0.43,2.96,1.28,3.9c0.85,0.95,3.01,2.12,6.46,3.51c3.45,1.4,5.92,2.63,7.38,3.69C71.12,109.95,72.09,111.28,72.56,112.89z
		 M40.9,131.42c0,2.27,1.85,3.41,5.54,3.41c2.03,0,4.67-0.75,7.92-2.24c3.24-1.49,6.11-3.57,8.59-6.25s3.73-5.41,3.73-8.2
		c0-0.33-0.07-0.83-0.21-1.49c-6.49,0.62-12.37,2.44-17.64,5.47C43.54,125.15,40.9,128.25,40.9,131.42z"/>
	<path class="st1" d="M103.87,117.37l1.63,1.28c-1.47,2.04-3.48,3.73-6.04,5.08s-5.04,2.02-7.46,2.02s-4.36-0.71-5.82-2.13
		c-1.47-1.42-2.2-3.29-2.2-5.61c0-4.35,2.31-8.64,6.92-12.85c4.62-4.21,9.29-6.32,14.02-6.32c3.12,0,4.69,1.23,4.69,3.69
		c0,2.56-1.65,5.14-4.93,7.74c-3.29,2.6-7.92,4.97-13.88,7.1c0.43,1.09,1.09,1.94,1.99,2.56c0.9,0.62,1.82,0.92,2.77,0.92
		C97.6,120.84,100.37,119.69,103.87,117.37z M90.46,115.24c3.83-1.33,7.12-2.98,9.87-4.97c2.74-1.99,4.12-3.81,4.12-5.47
		c0-0.61-0.24-1.16-0.71-1.63c-0.47-0.47-1.02-0.71-1.63-0.71c-2.23,0-4.63,1.38-7.21,4.15C92.31,109.38,90.83,112.25,90.46,115.24z
		"/>
	<path class="st1" d="M142.5,118.57l1.63,1.21c-0.66,1.42-1.88,2.77-3.66,4.05s-3.4,1.92-4.86,1.92c-2.79,0-4.19-1.47-4.19-4.4
		c0-1.37,0.36-3,1.07-4.9l-2.63,2.7c-2.56,2.6-4.77,4.35-6.64,5.25c-1.87,0.9-3.7,1.35-5.5,1.35c-1.8,0-3.16-0.51-4.08-1.53
		c-0.92-1.02-1.38-2.42-1.38-4.22c0-3.31,1.28-6.59,3.83-9.83c2.56-3.24,5.82-5.88,9.8-7.92c3.98-2.03,7.95-3.08,11.93-3.12
		l0.14,2.34l-2.98,0.64c-4.31,0.95-8.11,2.84-11.4,5.68c-3.29,2.84-4.93,5.67-4.93,8.48c0,2.82,1.14,4.22,3.41,4.22
		c2.13,0,4.76-1.49,7.88-4.47c3.12-2.98,5.73-6.48,7.81-10.51l2.98,1.78c-2.94,5.92-4.4,9.68-4.4,11.29c0,0.66,0.22,1.22,0.67,1.67
		c0.45,0.45,0.9,0.67,1.35,0.67c0.45,0,0.75-0.02,0.89-0.07c0.14-0.05,0.28-0.11,0.43-0.18c0.14-0.07,0.32-0.18,0.53-0.32
		c0.21-0.14,0.4-0.28,0.57-0.43c0.17-0.14,0.44-0.35,0.82-0.64C141.95,119,142.26,118.76,142.5,118.57z"/>
	<path class="st1" d="M168.77,100.61c1.18,0,2.15,0.4,2.91,1.21c0.76,0.8,1.14,1.85,1.14,3.12c0,2.56-1.47,5.25-4.4,8.09l-1.7-1.35
		c0.66-1.47,0.99-2.53,0.99-3.2c0-1.28-0.71-1.92-2.13-1.92s-2.77,0.9-4.05,2.7s-2.78,4.58-4.51,8.34
		c-1.73,3.76-3.04,6.43-3.94,7.99l-4.05-1.78c2.6-5.92,4.09-9.4,4.47-10.44c1.28-3.69,1.92-8.38,1.92-14.06l3.98-1.06
		c-0.14,3.08-0.36,5.46-0.64,7.13c-0.28,1.68-0.97,4.41-2.06,8.2C161.48,104.94,165.5,100.61,168.77,100.61z"/>
	<path class="st1" d="M196.88,115.66l1.7,1.42c-1.14,2.6-2.96,4.69-5.47,6.25c-2.51,1.56-4.93,2.34-7.28,2.34s-4.28-0.73-5.82-2.2
		c-1.54-1.47-2.31-3.48-2.31-6.03c0-2.56,1.11-5.33,3.34-8.31c2.22-2.98,5.1-5.44,8.63-7.38c3.53-1.94,6.99-2.91,10.4-2.91
		c0.47,0,1.18,0.05,2.13,0.14l-0.21,2.77c-5.21,0.24-9.53,1.82-12.96,4.76c-3.43,2.94-5.15,6.06-5.15,9.37
		c0,1.37,0.43,2.49,1.28,3.34c0.85,0.85,1.96,1.28,3.34,1.28C190.68,120.49,193.48,118.88,196.88,115.66z"/>
	<path class="st1" d="M234.51,120.56l1.63,1.35c-1.99,3.31-4.57,4.97-7.74,4.97c-2.75,0-4.12-1.35-4.12-4.05
		c0-1.56,0.67-4.06,2.02-7.49c1.35-3.43,2.02-5.69,2.02-6.78c0-1.37-0.88-2.06-2.63-2.06c-1.75,0-4.13,1.88-7.14,5.64
		c-3.01,3.76-5.53,8.13-7.56,13.1l-4.19-1.49c2.46-12.35,8.9-28.9,19.31-49.63l3.48,1.14c-5.25,10.51-9.02,18.86-11.29,25.06
		c-2.37,6.44-4.14,11.76-5.33,15.97c3.64-6.01,6.78-10.18,9.41-12.5c2.63-2.32,4.91-3.48,6.85-3.48c3.5,0,5.25,1.25,5.25,3.76
		c0,1.56-0.88,4.36-2.63,8.38c-1.75,4.02-2.63,6.7-2.63,8.02c0,1.33,0.64,1.99,1.92,1.99C231.84,122.48,232.95,121.84,234.51,120.56
		z"/>
</g>
<g>
	<path class="st1" d="M137.24,274.49C61.57,274.49,0,212.92,0,137.24C0,61.57,61.57,0,137.24,0c75.68,0,137.24,61.57,137.24,137.24
		C274.49,212.92,212.92,274.49,137.24,274.49z M137.24,3C63.22,3,3,63.22,3,137.24c0,74.02,60.22,134.24,134.24,134.24
		c74.02,0,134.24-60.22,134.24-134.24C271.49,63.22,211.27,3,137.24,3z"/>
</g>
</svg>
